<?xml version="1.0" standalone="no"?>
<!DOCTYPE svg PUBLIC "-//W3C//DTD SVG 20010904//EN"
 "http://www.w3.org/TR/2001/REC-SVG-20010904/DTD/svg10.dtd">
<svg version="1.0" xmlns="http://www.w3.org/2000/svg"
 width="636.000000pt" height="237.000000pt" viewBox="0 0 636.000000 237.000000"
 preserveAspectRatio="xMidYMid meet">
<metadata>
Created by potrace 1.10, written by Peter Selinger 2001-2011
</metadata>
<g transform="translate(0.000000,237.000000) scale(0.100000,-0.100000)"
fill="#000000" stroke="none">
<path d="M616 1894 c-60 -19 -100 -47 -129 -94 -21 -33 -22 -46 -22 -215 0
-240 13 -270 135 -317 38 -15 80 -18 280 -18 249 0 296 7 347 53 33 29 55 95
51 153 l-3 49 -94 0 c-79 0 -95 -3 -102 -17 -5 -10 -13 -26 -18 -35 -7 -16
-27 -18 -167 -21 -87 -1 -168 0 -180 2 -32 8 -44 49 -44 146 0 81 2 91 26 119
l26 31 146 0 c81 0 156 -3 168 -6 11 -3 25 -19 31 -35 l11 -29 90 0 c111 0
115 4 98 88 -27 134 -100 162 -414 161 -136 0 -200 -4 -236 -15z"/>
<path d="M1455 1891 c-74 -24 -92 -37 -122 -84 -27 -42 -27 -44 -27 -229 l0
-187 29 -43 c19 -27 49 -52 80 -68 49 -24 56 -25 303 -28 270 -3 302 1 375 51
55 37 61 64 61 273 1 172 -1 194 -19 228 -24 44 -66 73 -138 92 -80 21 -475
18 -542 -5z m455 -176 c35 -18 39 -29 41 -135 2 -58 -2 -95 -12 -115 l-14 -30
-175 -3 c-96 -1 -185 0 -197 3 -31 7 -46 71 -41 169 4 71 8 82 32 103 26 22
34 23 182 23 118 0 162 -4 184 -15z"/>
<path d="M2341 1892 c-75 -21 -125 -73 -140 -141 -15 -72 -14 -306 2 -360 18
-59 64 -103 130 -124 82 -26 490 -25 566 2 64 22 82 39 98 93 18 60 17 242 -1
257 -9 8 -75 11 -217 9 l-204 -3 -3 -67 -3 -67 118 -3 c101 -3 118 -5 121 -20
9 -44 -81 -61 -268 -50 -132 7 -140 16 -140 152 0 70 5 110 15 130 l15 29 163
3 c89 2 170 1 180 -1 10 -2 25 -17 33 -33 l15 -29 87 3 87 3 -1 69 c-1 65 -3
70 -36 101 -57 54 -120 65 -359 64 -156 0 -217 -4 -258 -17z"/>
<path d="M3061 1891 c-12 -8 -14 -60 -13 -316 1 -168 4 -311 7 -316 8 -12 172
-12 180 1 4 6 6 105 6 220 -1 130 3 210 9 210 5 0 43 -44 84 -97 41 -54 117
-152 168 -218 l94 -120 139 -3 c120 -2 142 0 152 14 8 12 12 98 13 309 0 255
-2 295 -16 309 -11 12 -35 16 -89 16 -104 0 -102 6 -98 -234 2 -115 0 -196 -5
-196 -6 0 -58 62 -118 138 -162 206 -193 245 -215 270 -20 21 -29 22 -153 22
-72 0 -137 -4 -145 -9z"/>
<path d="M3968 1889 c-16 -9 -17 -37 -17 -314 0 -289 1 -305 19 -315 11 -6
140 -10 339 -10 369 0 351 -5 351 90 0 94 7 92 -264 89 l-231 -2 0 39 0 39
225 5 225 5 0 65 0 65 -225 5 -225 5 -3 38 c-2 25 1 37 10 37 7 0 114 2 238 3
l225 2 3 74 c2 53 -1 77 -10 82 -19 13 -639 11 -660 -2z"/>
<path d="M4710 1880 c0 -10 12 -32 28 -48 113 -120 218 -237 220 -249 2 -8
-63 -82 -144 -165 -112 -114 -144 -152 -133 -159 8 -5 64 -9 126 -9 129 0 110
-11 244 138 l83 94 30 -34 c16 -18 63 -70 105 -116 l76 -83 119 3 c69 2 121 7
123 13 2 6 -58 73 -133 150 -74 77 -139 147 -144 155 -6 11 8 33 52 80 32 36
89 98 126 138 95 104 93 107 -49 107 l-116 0 -50 -55 c-28 -30 -68 -76 -89
-102 -21 -26 -44 -47 -50 -47 -6 -1 -46 41 -90 93 -43 52 -89 99 -102 105 -13
6 -70 11 -127 11 -98 0 -105 -1 -105 -20z"/>
<path d="M2935 1117 c-4 -14 -5 -36 -3 -48 2 -20 10 -24 46 -27 l43 -3 -3 48
c-3 48 -3 48 -40 51 -32 3 -38 0 -43 -21z"/>
<path d="M3774 1126 c-3 -8 -4 -29 -2 -48 3 -31 5 -33 46 -36 l42 -3 0 50 0
51 -40 0 c-26 0 -43 -5 -46 -14z"/>
<path d="M3245 958 c-72 -14 -95 -28 -111 -67 -11 -27 -12 -46 -4 -90 17 -94
21 -95 232 -100 208 -4 228 -10 228 -68 0 -51 -38 -63 -195 -63 -154 0 -195
13 -195 60 0 34 -32 54 -61 39 -25 -13 -28 -41 -10 -89 27 -72 52 -80 270 -80
167 0 187 2 216 20 18 11 40 31 49 45 21 32 20 109 -1 147 -30 50 -66 58 -253
58 -149 0 -169 2 -183 18 -21 23 -22 51 -1 80 15 21 21 22 169 22 l153 0 22
-35 c16 -27 28 -35 50 -35 32 0 42 17 34 59 -9 46 -42 69 -114 80 -78 13 -225
12 -295 -1z"/>
<path d="M4115 958 c-74 -12 -127 -51 -143 -106 -15 -50 -15 -199 -1 -243 16
-47 35 -66 87 -89 38 -17 67 -20 196 -20 241 0 291 29 303 178 14 188 -18 252
-142 277 -77 17 -208 18 -300 3z m313 -84 c33 -23 43 -57 43 -146 0 -101 -13
-128 -71 -145 -45 -13 -249 -11 -297 3 -35 10 -55 51 -60 120 -6 88 10 140 50
164 28 17 51 20 172 20 113 0 145 -3 163 -16z"/>
<path d="M4813 959 c-23 -5 -47 -16 -53 -24 -10 -12 -16 -11 -40 6 -15 12 -38
19 -51 17 l-24 -3 0 -225 0 -225 40 0 40 0 5 155 c6 172 12 194 65 216 43 18
223 19 260 2 46 -21 53 -51 54 -213 1 -82 5 -153 10 -158 5 -5 21 -7 37 -5 37
4 41 22 39 203 -1 137 -3 154 -23 187 -34 55 -78 71 -207 74 -60 2 -129 -1
-152 -7z"/>
<path d="M2294 945 c-4 -8 2 -27 12 -43 10 -15 29 -47 42 -71 13 -24 32 -58
42 -75 10 -17 30 -51 43 -76 14 -25 34 -61 46 -80 11 -19 24 -42 27 -50 16
-36 38 -50 78 -50 49 0 47 -2 151 195 14 28 35 64 45 80 10 17 29 50 41 75 12
25 29 53 37 62 22 26 8 48 -32 48 -31 0 -38 -6 -66 -51 -17 -29 -36 -61 -41
-73 -5 -12 -18 -34 -28 -51 -11 -16 -36 -63 -57 -103 -21 -40 -42 -76 -47 -79
-10 -6 -27 16 -62 82 -14 27 -41 77 -60 110 -18 33 -44 80 -57 105 -12 25 -27
48 -33 52 -18 14 -75 9 -81 -7z"/>
<path d="M2942 948 c-17 -17 -17 -419 0 -436 7 -7 27 -12 45 -12 l33 0 -2 228
-3 227 -30 3 c-17 2 -36 -3 -43 -10z"/>
<path d="M3781 947 c-8 -11 -11 -75 -9 -228 l3 -214 40 0 40 0 0 225 0 225
-31 3 c-18 2 -36 -3 -43 -11z"/>
</g>
</svg>
