<?xml version="1.0" standalone="no"?>
<!DOCTYPE svg PUBLIC "-//W3C//DTD SVG 20010904//EN"
 "http://www.w3.org/TR/2001/REC-SVG-20010904/DTD/svg10.dtd">
<svg version="1.0" xmlns="http://www.w3.org/2000/svg"
 width="693.000000pt" height="465.000000pt" viewBox="0 0 693.000000 465.000000"
 preserveAspectRatio="xMidYMid meet">
<metadata>
Created by potrace 1.10, written by Peter Selinger 2001-2011
</metadata>
<g transform="translate(0.000000,465.000000) scale(0.100000,-0.100000)"
fill="#000000" stroke="none">
<path d="M174 3337 c-2 -7 -3 -94 -2 -192 l3 -180 239 -3 c174 -2 242 1 253
10 12 9 14 44 12 182 -1 94 -6 177 -12 184 -14 18 -486 18 -493 -1z"/>
<path d="M1357 3343 c-13 -12 -8 -358 5 -371 9 -9 125 -12 463 -12 424 0 455
-1 525 -21 245 -67 434 -286 463 -536 35 -304 -123 -567 -413 -686 -63 -26
-160 -38 -340 -44 -145 -5 -179 -3 -186 8 -5 8 -11 196 -14 419 l-5 405 -230
3 c-126 1 -240 0 -252 -3 l-23 -5 0 -600 c0 -403 3 -601 10 -605 11 -7 897 -8
908 -1 4 2 50 9 102 16 193 23 386 86 541 176 327 190 480 514 440 935 -26
277 -150 508 -354 661 -96 71 -179 118 -272 153 -38 15 -79 31 -90 35 -57 24
-194 54 -320 70 -82 10 -948 13 -958 3z"/>
<path d="M4285 3333 c-94 -20 -238 -92 -308 -155 -57 -51 -127 -142 -159 -208
-55 -114 -64 -273 -23 -397 34 -101 66 -152 139 -226 77 -79 166 -138 253
-169 37 -14 84 -31 103 -38 25 -9 139 -14 411 -17 l376 -5 49 -27 c69 -37 107
-95 112 -172 7 -96 -37 -176 -123 -222 -40 -22 -46 -22 -675 -24 -349 -1 -643
-4 -652 -7 -16 -4 -18 -21 -18 -184 0 -103 4 -183 9 -187 17 -10 1382 -6 1441
4 197 34 391 177 478 353 92 185 79 374 -39 554 -67 103 -146 168 -288 239
-119 59 -173 65 -560 65 -343 0 -346 0 -396 24 -87 41 -135 112 -135 202 0 93
40 158 125 203 39 21 49 21 613 21 l572 0 9 23 c10 26 7 339 -3 355 -5 9 -168
12 -624 11 -507 0 -629 -3 -687 -16z"/>
<path d="M6294 3327 c-2 -7 -3 -88 -2 -181 l3 -168 232 -2 c186 -1 234 2 238
12 3 8 5 85 5 172 0 147 -1 160 -19 170 -31 16 -450 14 -457 -3z"/>
<path d="M177 2503 c-4 -3 -7 -278 -7 -609 0 -592 0 -603 20 -609 31 -10 464
-3 478 8 17 13 18 1187 0 1205 -13 13 -479 18 -491 5z"/>
<path d="M6294 2485 c-8 -20 0 -332 8 -341 9 -8 446 -6 459 2 14 8 11 328 -3
342 -9 9 -75 12 -235 12 -187 0 -225 -2 -229 -15z"/>
<path d="M6296 1652 c-2 -4 -4 -79 -5 -167 -2 -183 4 -205 51 -181 15 8 30 11
33 7 2 -5 83 -9 180 -9 96 0 180 -4 185 -7 19 -12 28 42 29 189 1 98 -2 153
-10 162 -9 11 -57 14 -235 13 -123 0 -225 -4 -228 -7z"/>
</g>
</svg>
