<?xml version="1.0" encoding="utf-8"?>
<svg width="1580.4" height="400.174" viewBox="0 0 1580.4 400.174" fill="none" stroke="none" version="1.1" xmlns:xlink="http://www.w3.org/1999/xlink" xmlns="http://www.w3.org/2000/svg">
  <g id="Group">
    <path id="Path" d="M112.891 2.18307C150.937 -0.954447 150.937 -0.954447 159.943 3.79146C164.295 8.11567 166.068 13.5142 167.864 19.2749C169.631 24.279 172.525 28.5789 175.329 33.0581C176.409 34.8791 177.485 36.7033 178.555 38.5307C180.896 42.5016 183.246 46.4669 185.602 50.4292C186.506 51.9521 186.506 51.9521 187.428 53.5058C188.594 55.4687 189.761 57.4307 190.93 59.3916C191.449 60.2676 191.969 61.1437 192.504 62.0463C192.966 62.8228 193.428 63.5992 193.904 64.3991C194.891 66.1831 194.891 66.1831 194.891 67.1831C194.057 67.1519 194.057 67.1519 193.205 67.1201C187.38 66.9175 181.56 66.8218 175.732 66.7863C173.562 66.7594 171.392 66.7057 169.223 66.6242C157.658 65.7508 157.658 65.7508 147.133 69.4846C144.126 72.9161 142.438 76.8953 140.771 81.1016C139.357 84.4464 137.436 87.4454 135.524 90.5229C134.783 91.764 134.046 93.0069 133.311 94.2514C132.751 95.1954 132.751 95.1954 132.18 96.1584C131.796 96.8059 131.412 97.4534 131.016 98.1206C130.191 99.5106 129.366 100.901 128.541 102.29C126.837 105.163 125.132 108.036 123.427 110.909C119.808 117.008 116.187 123.106 112.566 129.204C111.39 131.185 110.214 133.165 109.038 135.146C105.393 141.286 101.747 147.427 98.0988 153.566C96.4131 156.403 94.7277 159.24 93.0424 162.077C92.2543 163.404 91.466 164.73 90.6776 166.057C84.7191 176.082 78.804 186.131 72.891 196.183C121.731 195.853 170.571 195.523 220.891 195.183C228.811 180.828 228.811 180.828 236.891 166.183C243.954 153.558 243.954 153.558 247.395 147.425C251.079 140.855 254.736 134.27 258.391 127.683C263.425 118.616 268.462 109.551 273.516 100.496C274.084 99.4746 274.652 98.4537 275.237 97.4018C278.314 91.8962 281.498 86.5 284.891 81.1831C287.773 84.6382 290.155 88.1354 292.403 92.0307C292.89 92.8706 292.89 92.8706 293.388 93.7274C294.088 94.934 294.787 96.1415 295.484 97.35C297.377 100.628 299.284 103.898 301.192 107.167C301.584 107.839 301.976 108.511 302.379 109.203C306.264 115.848 310.255 122.426 314.266 128.996C321.235 140.414 328.107 151.888 334.899 163.412C338.697 169.849 342.534 176.252 346.496 182.589C347.216 183.749 347.934 184.909 348.652 186.069C349.986 188.216 351.335 190.355 352.7 192.483C353.285 193.429 353.87 194.376 354.473 195.351C354.991 196.169 355.509 196.986 356.043 197.828C356.891 200.183 356.891 200.183 356.197 202.713C354.978 205.019 353.752 207.295 352.414 209.535C351.917 210.371 351.42 211.208 350.907 212.071C350.366 212.974 349.824 213.877 349.266 214.808C348.082 216.796 346.899 218.785 345.715 220.773C345.091 221.819 344.466 222.866 343.822 223.944C340.562 229.412 337.322 234.892 334.079 240.371C332.718 242.666 331.357 244.962 329.996 247.257C326.625 252.945 323.253 258.634 319.882 264.322C318.558 266.557 317.234 268.792 315.909 271.026C312.832 276.217 309.757 281.409 306.687 286.603C305.264 289.011 303.84 291.417 302.416 293.824C301.433 295.487 300.451 297.15 299.469 298.814C295.026 306.323 290.485 313.766 285.891 321.183C283.03 318.656 281.442 315.833 279.625 312.496C279.315 311.93 279.006 311.364 278.686 310.781C277.666 308.918 276.654 307.05 275.641 305.183C274.924 303.871 274.207 302.559 273.489 301.248C272.381 299.225 271.274 297.202 270.169 295.177C266.589 288.619 262.963 282.087 259.329 275.558C258.086 273.324 256.844 271.089 255.602 268.855C254.365 266.631 253.128 264.407 251.891 262.183C241.52 243.537 231.198 224.865 220.891 206.183C147.631 205.688 147.631 205.688 72.891 205.183C83.7773 223.87 83.7773 223.87 94.766 242.496C95.7736 244.193 96.7812 245.891 97.7888 247.589C98.8119 249.313 99.8353 251.036 100.859 252.76C103.54 257.277 106.218 261.796 108.896 266.316C110.226 268.56 111.556 270.804 112.886 273.049C115.568 277.572 118.248 282.095 120.923 286.623C121.26 287.192 121.596 287.761 121.943 288.348C122.959 290.07 123.972 291.794 124.985 293.518C126.334 295.786 127.705 298.041 129.098 300.282C132.462 305.74 135.27 310.894 137.391 316.957C140.044 323.767 142.314 329.451 148.891 333.183C163.501 336.953 179.996 335.236 194.891 334.183C191.117 342.018 186.863 349.477 182.391 356.933C181.685 358.115 180.98 359.298 180.275 360.481C179.2 362.284 178.125 364.086 177.048 365.888C174.716 369.792 172.4 373.705 170.094 377.624C169.51 378.618 168.925 379.612 168.323 380.635C167.232 382.491 166.142 384.347 165.053 386.204C164.561 387.039 164.07 387.874 163.563 388.734C163.141 389.452 162.719 390.171 162.285 390.911C161.825 391.661 161.365 392.411 160.891 393.183C160.128 394.788 160.128 394.788 159.35 396.425C156.62 399.487 156.254 399.608 152.398 399.864C150.557 399.863 148.715 399.83 146.875 399.769C145.904 399.761 144.933 399.752 143.933 399.743C140.835 399.71 137.739 399.634 134.641 399.558C132.539 399.528 130.438 399.501 128.336 399.476C123.187 399.41 118.039 399.306 112.891 399.183C112.54 398.551 112.189 397.92 111.828 397.269C105.289 385.509 98.7049 373.787 91.891 362.183C87.1267 354.069 82.4669 345.905 77.891 337.683C72.7927 328.526 67.5779 319.446 62.2772 310.405C57.8082 302.775 53.3974 295.113 49.016 287.433C48.516 286.557 48.516 286.557 48.0058 285.662C46.311 282.691 44.6169 279.719 42.9232 276.748C39.9157 271.471 36.9011 266.199 33.8871 260.926C32.5622 258.608 31.2378 256.29 29.9134 253.972C27.5359 249.81 25.1581 245.649 22.7782 241.49C22.4263 240.874 22.0743 240.259 21.7117 239.625C21.0028 238.387 20.2936 237.148 19.5839 235.91C17.8612 232.903 16.1463 229.892 14.4494 226.87C11.6581 221.919 8.86792 217.044 5.64101 212.363C-0.465159 203.346 -0.465159 203.346 0.422262 197.956C1.88619 194.827 3.5113 192.146 5.46621 189.313C7.68281 185.999 9.61677 182.531 11.5973 179.073C13.3829 175.963 15.1982 172.873 17.0199 169.785C20.9911 163.032 24.8866 156.238 28.766 149.433C29.4397 148.252 30.1135 147.071 30.7873 145.89C32.1448 143.509 33.5019 141.128 34.8588 138.748C37.8658 133.472 40.8798 128.2 43.8933 122.928C45.5581 120.016 47.2226 117.103 48.8871 114.191C49.2169 113.614 49.5467 113.037 49.8865 112.442C51.8976 108.923 53.9076 105.402 55.9167 101.882C62.7158 89.9673 69.5286 78.0612 76.391 66.1831C88.6758 44.9168 100.833 23.5788 112.891 2.18307C112.891 2.18307 112.891 2.18307 112.891 2.18307Z" style="fill:#130001;mix-blend-mode:normal;" />
    <path id="Path" d="M0 2.16196C21.8614 1.76442 43.7222 1.46486 65.5865 1.28115C75.7392 1.19357 85.8897 1.07424 96.041 0.879485C104.892 0.709769 113.74 0.600307 122.593 0.562451C127.279 0.540326 131.96 0.488557 136.645 0.364545C165.141 -0.361173 165.141 -0.361173 171.508 3.80209C175.199 7.69014 176.981 11.925 178.358 17.0464C179.365 20.3659 181.089 23.021 182.914 25.9627C184.152 28.1327 185.389 30.3033 186.625 32.4745C187.309 33.6731 187.992 34.8717 188.676 36.0702C190.085 38.5414 191.495 41.0129 192.903 43.4847C195.933 48.8001 198.97 54.1118 202.006 59.4236C203.67 62.3337 205.333 65.2439 206.996 68.1541C207.326 68.7313 207.656 69.3084 207.996 69.9031C210.007 73.4225 212.017 76.9427 214.026 80.4633C220.825 92.3777 227.638 104.284 234.5 116.162C241.69 128.608 248.825 141.085 255.949 153.568C259.122 159.128 262.299 164.686 265.476 170.245C270.218 178.543 270.218 178.543 272.094 181.852C273.463 184.229 274.854 186.577 276.281 188.917C276.657 189.543 277.032 190.17 277.419 190.815C278.473 192.573 279.542 194.323 280.611 196.073C282.168 199.535 282.283 200.657 281 204.162C279.823 206.644 279.823 206.644 278.332 209.275C277.776 210.263 277.22 211.251 276.647 212.269C276.042 213.327 275.436 214.384 274.812 215.474C274.184 216.585 273.555 217.695 272.908 218.838C268.135 227.243 263.277 235.597 258.389 243.936C253.919 251.566 249.507 259.23 245.125 266.912C244.625 267.788 244.625 267.788 244.115 268.683C242.42 271.654 240.726 274.626 239.032 277.598C236.025 282.873 233.011 288.145 229.998 293.417C228.333 296.329 226.668 299.242 225.004 302.154C224.674 302.731 224.344 303.308 224.004 303.903C221.993 307.422 219.983 310.943 217.974 314.463C210.57 327.438 203.143 340.4 195.666 353.334C192.321 359.124 188.991 364.922 185.68 370.732C185.319 371.365 184.958 371.997 184.587 372.649C182.844 375.707 181.103 378.766 179.365 381.826C178.737 382.929 178.108 384.033 177.461 385.17C176.912 386.135 176.364 387.101 175.798 388.096C175.205 389.108 174.611 390.12 174 391.162C173.768 391.828 173.535 392.493 173.296 393.179C172.172 395.814 171.193 397.292 169 399.162C163.672 400.388 158.35 400.173 152.919 400.07C151.253 400.068 149.587 400.069 147.921 400.074C143.403 400.076 138.885 400.029 134.367 399.973C129.644 399.923 124.921 399.918 120.197 399.909C111.255 399.884 102.313 399.818 93.3702 399.738C83.1891 399.649 73.0078 399.605 62.8263 399.565C41.8838 399.481 20.9419 399.34 0 399.162C0.790359 397.567 1.58234 395.973 2.375 394.38C3.03629 393.048 3.03629 393.048 3.71094 391.69C5.34019 388.495 7.12646 385.471 9 382.412C9.78473 381.122 10.5685 379.832 11.3516 378.541C11.7734 377.846 12.1953 377.152 12.6299 376.436C15.7532 371.252 18.8053 366.026 21.8672 360.806C22.9296 359.001 24.0362 357.223 25.1765 355.467C26.7162 352.676 27.5491 350.473 28.4426 347.467C30.4632 341.766 32.6568 337.319 38 334.162C51.9145 331.128 67.17 333.14 81.2687 333.95C102.189 336.336 102.189 336.336 121.771 331.424C126.094 326.907 128.171 321.662 130.077 315.786C131.455 311.869 133.573 308.569 135.801 305.088C136.555 303.827 137.304 302.564 138.048 301.297C144.564 290.297 151.099 279.307 157.688 268.349C163.468 258.734 169.216 249.101 174.913 239.436C178.053 234.11 181.21 228.798 184.441 223.526C185.958 221.049 187.464 218.564 188.97 216.08C189.692 214.894 190.42 213.712 191.153 212.533C192.169 210.899 193.165 209.253 194.16 207.607C194.734 206.674 195.308 205.741 195.899 204.78C197.221 201.638 197.089 200.356 196 197.162C194.918 194.88 194.918 194.88 193.516 192.635C192.999 191.772 192.483 190.909 191.951 190.019C191.39 189.097 190.828 188.175 190.25 187.224C189.057 185.236 187.864 183.248 186.672 181.26C186.06 180.245 185.449 179.231 184.818 178.186C182.017 173.528 179.26 168.845 176.5 164.162C175.417 162.328 174.334 160.495 173.25 158.662C166.75 147.662 160.25 136.662 153.75 125.662C153.214 124.754 152.677 123.846 152.125 122.911C151.043 121.08 149.961 119.25 148.879 117.419C146.149 112.796 143.416 108.175 140.68 103.556C140.126 102.621 139.572 101.686 139.002 100.723C137.978 98.9929 136.953 97.2637 135.928 95.535C135.444 94.7171 134.96 93.8992 134.461 93.0565C133.898 92.1912 133.336 91.3259 132.756 90.4344C131.233 87.596 130.45 85.3491 129.601 82.2879C127.62 76.3299 125.452 71.597 120 68.162C107.658 65.182 94.2735 66.5568 81.6989 67.1515C74.1375 67.5063 66.578 67.7675 59.0096 67.9077C56.3758 67.981 53.756 68.1372 51.1264 68.2999C46.4618 68.484 42.5306 68.404 38 67.162C34.0321 63.2763 32.1636 59.2899 30 54.162C29.2725 52.8835 28.5246 51.6159 27.7375 50.3731C26.8562 48.8629 26.8562 48.8629 25.957 47.3221C25.6258 46.7557 25.2946 46.1893 24.9533 45.6057C23.905 43.8128 22.8587 42.0186 21.8125 40.2245C20.3315 37.6889 18.8495 35.1539 17.3672 32.619C17.0005 31.9917 16.6339 31.3645 16.2561 30.7182C13.8539 26.6117 11.4363 22.5147 9.00781 18.4237C8.40219 17.4033 7.79657 16.3829 7.17261 15.3316C6.03653 13.4199 4.89873 11.5092 3.75903 9.5997C3.25977 8.75915 2.7605 7.9186 2.24609 7.05258C1.80966 6.32071 1.37323 5.58885 0.923584 4.83481C0 3.16196 0 3.16196 0 2.16196C0 2.16196 0 2.16196 0 2.16196Z" style="fill:#130001;mix-blend-mode:normal;" transform="translate(172.891 0.021)" />
    <path id="Shape" d="M0 0.497719C22.3782 0.415215 44.7562 0.332718 67.8125 0.247719C74.8647 0.211296 81.917 0.174881 89.1829 0.137367C97.8295 0.119301 97.8295 0.119301 101.884 0.115944C104.701 0.112228 107.518 0.0973129 110.335 0.0754166C113.94 0.0477676 117.544 0.0397873 121.149 0.0454254C123.081 0.0437012 125.013 0.0223541 126.944 0C138.633 0.0552597 147.342 2.8296 155.832 10.9821C160.682 16.6104 164.108 23.5499 164.147 31.0431C164.158 32.4412 164.158 32.4412 164.169 33.8676C164.172 34.8883 164.174 35.9091 164.177 36.9609C164.184 38.0376 164.19 39.1144 164.197 40.2238C164.217 43.7956 164.228 47.3673 164.238 50.9391C164.242 52.1595 164.246 53.38 164.251 54.6374C164.271 61.1003 164.286 67.5633 164.295 74.0263C164.305 80.692 164.341 87.3573 164.38 94.0229C164.406 99.1557 164.415 104.288 164.418 109.421C164.423 111.878 164.435 114.334 164.453 116.79C164.478 120.237 164.477 123.682 164.47 127.129C164.489 128.639 164.489 128.639 164.509 130.179C164.435 140.245 161.084 149.211 154 156.498C147.575 161.689 141.392 164.753 133.001 164.738C131.826 164.741 130.651 164.744 129.44 164.747C127.519 164.736 127.519 164.736 125.559 164.725C124.167 164.724 122.774 164.724 121.382 164.725C117.663 164.726 113.944 164.714 110.226 164.7C106.733 164.689 103.239 164.688 99.7458 164.687C89.5388 164.676 79.3319 164.648 69.125 164.623C46.3137 164.581 23.5024 164.54 0 164.498C0 110.378 0 56.2577 0 0.497719C0 0.497719 0 0.497719 0 0.497719ZM34 34.4977C34 66.1777 34 97.8577 34 130.498C57.4816 130.529 57.4816 130.529 81.4375 130.56C88.8634 130.574 88.8634 130.574 96.4392 130.588C100.861 130.591 100.861 130.591 105.282 130.593C107.258 130.595 109.234 130.598 111.209 130.603C114.195 130.611 117.18 130.612 120.166 130.611C121.495 130.617 121.495 130.617 122.852 130.622C126.738 131.002 126.738 131.002 130 129.498C130.101 126.581 130.136 123.688 130.129 120.771C130.131 119.856 130.133 118.94 130.135 117.997C130.139 114.956 130.136 111.914 130.133 108.873C130.133 106.769 130.134 104.665 130.136 102.562C130.137 98.1465 130.135 93.7313 130.13 89.3161C130.125 83.6428 130.128 77.9696 130.134 72.2963C130.138 67.9504 130.136 63.6046 130.134 59.2588C130.133 57.1663 130.134 55.0738 130.136 52.9813C130.139 50.0623 130.135 47.1433 130.129 44.2243C130.132 42.9136 130.132 42.9136 130.135 41.5764C130.501 37.727 130.501 37.727 129 34.4977C126.047 34.4024 123.119 34.3722 120.166 34.3842C119.224 34.3841 118.282 34.3839 117.312 34.3838C114.248 34.3846 111.185 34.3922 108.121 34.4001C106.236 34.4015 104.35 34.4025 102.465 34.4031C95.4558 34.4084 88.4467 34.4223 81.4375 34.4352C65.7831 34.4558 50.1288 34.4765 34 34.4977C34 34.4977 34 34.4977 34 34.4977Z" style="fill:#120001;mix-blend-mode:normal;" transform="translate(1415.891 117.685)" />
    <path id="Path" d="M50.089 0.114952C52.3137 0.114799 54.5385 0.113304 56.7633 0.110542C61.4106 0.109161 66.0576 0.121643 70.705 0.144493C76.6417 0.172897 82.578 0.170128 88.5149 0.157402C93.1039 0.150429 97.6927 0.158257 102.282 0.170662C104.47 0.175156 106.658 0.175529 108.847 0.1716C111.911 0.168663 114.976 0.185287 118.04 0.206993C118.932 0.202492 119.823 0.19799 120.741 0.193352C131.248 0.316116 139.746 3.15687 147.273 10.6111C154.603 19.4958 155.563 27.2977 155.327 38.4939C155.302 40.8181 155.277 43.1423 155.253 45.4665C155.203 49.1117 155.147 52.7566 155.081 56.4016C155.02 59.9324 154.985 63.4627 154.952 66.9939C154.925 68.0835 154.898 69.1732 154.871 70.2959C154.831 76.2025 154.98 79.2291 159.273 83.611C161.912 89.192 161.596 94.9861 161.609 101.037C161.618 102.69 161.618 102.69 161.629 104.377C161.639 106.704 161.643 109.031 161.643 111.359C161.647 114.901 161.684 118.442 161.722 121.984C161.728 124.252 161.732 126.519 161.734 128.787C161.748 129.837 161.762 130.887 161.777 131.97C161.717 141.766 158.791 148.68 152.132 155.822C144.312 163.347 137.128 164.911 126.453 164.902C125.374 164.908 124.295 164.915 123.184 164.922C119.624 164.941 116.063 164.945 112.503 164.947C110.022 164.953 107.541 164.96 105.06 164.967C99.8611 164.979 94.6619 164.983 89.4628 164.982C82.8115 164.981 76.1609 165.009 69.5098 165.043C64.3856 165.065 59.2615 165.07 54.1372 165.068C51.6857 165.071 49.2341 165.08 46.7827 165.095C43.3483 165.115 39.9148 165.109 36.4803 165.097C35.4749 165.108 34.4694 165.119 33.4333 165.131C22.7738 165.036 15.704 161.026 8.27258 153.611C1.3595 146.506 -0.0874023 138.549 0.022583 128.986C0.105103 126.222 0.1875 123.459 0.272583 120.611C11.4926 120.611 22.7125 120.611 34.2726 120.611C34.2726 124.241 34.2726 127.871 34.2726 131.611C64.9625 131.281 95.6526 130.951 127.273 130.611C127.273 120.381 127.273 110.151 127.273 99.6111C94.2726 99.281 61.2726 98.951 27.2726 98.6111C27.2726 87.721 27.2726 76.8311 27.2726 65.6111C58.2926 65.281 89.3125 64.951 121.273 64.6111C121.603 54.711 121.932 44.8111 122.273 34.6111C93.2325 34.6111 64.1925 34.6111 34.2726 34.6111C34.2726 38.571 34.2726 42.531 34.2726 46.611C23.0525 46.611 11.8325 46.611 0.272583 46.611C0.210693 43.6617 0.148804 40.7123 0.085083 37.6736C0.0577393 36.7635 0.0303955 35.8535 0.00231934 34.916C-0.105713 24.1186 3.6322 16.732 10.8312 8.91964C21.6541 -1.43604 36.1902 0.0358429 50.089 0.114952C50.089 0.114952 50.089 0.114952 50.089 0.114952Z" style="fill:#120001;mix-blend-mode:normal;" transform="translate(1223.618 117.572)" />
    <path id="Shape" d="M33.0766 0.361618C34.4388 0.350883 34.4388 0.350883 35.8285 0.339935C36.8125 0.33725 37.7964 0.334557 38.8102 0.331787C39.8564 0.325218 40.9026 0.318642 41.9805 0.311874C45.4392 0.292183 48.8979 0.280487 52.3566 0.270508C53.5408 0.266434 54.7251 0.26236 55.9452 0.258156C62.2148 0.237312 68.4844 0.223007 74.7541 0.213623C81.2133 0.202568 87.6723 0.168175 94.1314 0.128448C99.1125 0.102242 104.093 0.0939255 109.074 0.0903397C111.455 0.0854874 113.835 0.0738983 116.215 0.0553055C119.555 0.0308228 122.895 0.0318909 126.236 0.0388184C127.208 0.0260086 128.18 0.0131989 129.181 0C138.46 0.0696487 147.277 2.69516 154.56 8.61426C163.506 17.7677 165.723 27.6986 165.67 40.0205C165.675 41.5538 165.675 41.5538 165.681 43.1181C165.689 46.4775 165.684 49.8368 165.677 53.1963C165.678 55.5422 165.68 57.8882 165.683 60.2341C165.686 65.1431 165.681 70.052 165.672 74.9609C165.661 81.2421 165.667 87.523 165.679 93.8042C165.686 98.6461 165.684 103.488 165.679 108.33C165.678 110.646 165.679 112.961 165.684 115.277C165.689 118.517 165.681 121.757 165.67 124.997C165.674 125.947 165.678 126.897 165.682 127.875C165.614 138.647 162.852 147.38 155.591 155.56C147.579 163.134 138.801 165.114 128.046 165.01C126.957 165.016 125.868 165.021 124.745 165.027C121.174 165.039 117.604 165.023 114.032 165.005C111.535 165.005 109.037 165.007 106.539 165.009C100.65 165.011 94.761 164.993 88.8717 164.966C84.1877 164.947 79.5038 164.946 74.8197 164.955C68.3372 164.967 61.8549 164.965 55.3723 164.949C52.9097 164.945 50.447 164.944 47.9843 164.948C44.5384 164.951 41.0932 164.935 37.6474 164.913C36.1345 164.92 36.1345 164.92 34.5911 164.926C23.9231 164.815 17.2753 162.172 9.57535 154.771C1.69965 146.539 -0.0458984 137.675 0.0231018 126.624C0.0178528 125.574 0.0125732 124.524 0.00717163 123.442C-0.00595093 119.995 0.00268555 116.549 0.0128479 113.103C0.0108337 110.693 0.00790405 108.284 0.00415039 105.874C-0.000274658 100.834 0.00613403 95.7944 0.0201721 90.7544C0.037262 84.3085 0.0274048 77.863 0.00946045 71.4172C-0.00140381 66.4448 0.0020752 61.4725 0.00982666 56.5001C0.0118408 54.1239 0.00939941 51.7478 0.00241089 49.3716C-0.00524902 46.0454 0.00643921 42.7197 0.0231018 39.3935C0.0170288 38.4208 0.0109558 37.4481 0.00469971 36.4459C0.104889 25.5917 3.59598 16.645 11.1105 8.71582C17.4226 2.97108 24.5376 0.408112 33.0766 0.361618C33.0766 0.361618 33.0766 0.361618 33.0766 0.361618ZM34.4113 35.5088C34.3107 38.4254 34.2752 41.3183 34.2819 44.2353C34.2802 45.1507 34.2784 46.0661 34.2766 47.0092C34.2722 50.0508 34.2751 53.0922 34.2785 56.1338C34.2778 58.2375 34.2768 60.3411 34.2756 62.4448C34.2741 66.86 34.2763 71.2752 34.2809 75.6904C34.2867 81.3637 34.2834 87.0369 34.2774 92.7102C34.2738 97.0561 34.2749 101.402 34.2775 105.748C34.2782 107.84 34.2773 109.933 34.275 112.025C34.2725 114.944 34.2763 117.863 34.2819 120.782C34.2799 121.656 34.2779 122.53 34.2758 123.43C33.9102 127.28 33.9102 127.28 35.4113 130.509C38.3638 130.604 41.2928 130.634 44.2455 130.622C45.6582 130.622 45.6582 130.622 47.0994 130.623C50.1631 130.622 53.2266 130.614 56.2902 130.606C58.1756 130.605 60.0609 130.604 61.9463 130.603C68.9555 130.598 75.9646 130.584 82.9738 130.571C98.6282 130.551 114.283 130.53 130.411 130.509C130.411 98.8288 130.411 67.1488 130.411 34.5088C106.93 34.4779 106.93 34.4779 82.9738 34.4463C75.5479 34.4326 75.5479 34.4326 67.9721 34.4187C63.5506 34.4154 63.5506 34.4154 59.1292 34.4133C57.1534 34.4118 55.1776 34.4083 53.2018 34.4032C50.2164 34.3959 47.231 34.3949 44.2455 34.3953C42.9159 34.3899 42.9159 34.3899 41.5595 34.3844C37.6736 34.0046 37.6736 34.0046 34.4113 35.5088C34.4113 35.5088 34.4113 35.5088 34.4113 35.5088Z" style="fill:#120001;mix-blend-mode:normal;" transform="translate(481.48 117.674)" />
    <path id="Path" d="M0 0C49.83 0 99.66 0 151 0C151 11.22 151 22.44 151 34C112.72 34.33 74.44 34.66 35 35C35 44.57 35 54.14 35 64C65.69 64.33 96.38 64.66 128 65C128 76.22 128 87.44 128 99C97.31 99 66.62 99 35 99C35 108.9 35 118.8 35 129C73.28 129.33 111.56 129.66 151 130C151 141.55 151 153.1 151 165C101.17 165 51.34 165 0 165C0 110.55 0 56.1 0 0C0 0 0 0 0 0Z" style="fill:#120001;mix-blend-mode:normal;" transform="translate(856.891 118.183)" />
    <path id="Path" d="M0 0C36 0 36 0 44.1875 6.8125C46.8203 10.9844 46.8203 10.9844 47.9307 13.0684C49.4756 15.8591 51.4806 18.1564 53.5625 20.5625C54.265 21.43 54.9675 22.2976 55.6914 23.1914C58.4135 26.503 61.2014 29.7531 64 33C68.2998 37.9894 72.5049 43.0422 76.6562 48.1562C79.3931 51.4769 82.191 54.7405 85 58C89.2997 62.9894 93.5049 68.0422 97.6562 73.1563C100.895 77.0863 104.223 80.938 107.548 84.7954C110.689 88.4473 113.774 92.1371 116.812 95.875C122.574 103.896 122.574 103.896 130 110C130 73.7 130 37.4 130 0C141.22 0 152.44 0 164 0C164 54.12 164 108.24 164 164C152.12 164 140.24 164 128 164C117.975 152.861 117.975 152.861 114.688 148.75C111.196 144.435 107.624 140.203 104 136C99.7001 131.011 95.4951 125.958 91.3438 120.844C88.6069 117.523 85.809 114.26 83 111C78.7003 106.011 74.4951 100.958 70.3438 95.8438C67.6069 92.5231 64.809 89.2596 62 86C58.4269 81.853 54.8927 77.6839 51.4375 73.4375C48.0092 69.2243 44.5533 65.0364 41.0625 60.875C40.5894 60.3058 40.1162 59.7366 39.6287 59.1502C37.1732 56.1462 37.1732 56.1462 34 54C34 90.3 34 126.6 34 164C23.8632 169.068 11.3278 164.354 0 164C0 109.88 0 55.76 0 0C0 0 0 0 0 0Z" style="fill:#120001;mix-blend-mode:normal;" transform="translate(1032.891 118.183)" />
    <path id="Shape" d="M0 0.373283C22.0687 0.311409 44.1375 0.249535 66.875 0.185783C73.8319 0.158478 80.7888 0.131165 87.9565 0.10302C96.4807 0.0894699 96.4807 0.0894699 100.477 0.0869522C103.256 0.0841675 106.034 0.0729752 108.813 0.0565567C112.367 0.0358505 115.921 0.0298386 119.475 0.0340729C121.382 0.0327682 123.289 0.0167465 125.196 0C136.06 0.0391312 145.701 1.98354 154 9.37328C160.054 16.3757 164.231 22.7828 164.275 32.2517C164.284 33.3866 164.294 34.5216 164.304 35.6909C164.302 37.5098 164.302 37.5098 164.301 39.3655C164.305 40.6254 164.309 41.8853 164.314 43.1834C164.32 45.8446 164.321 48.5055 164.316 51.1667C164.31 54.5582 164.327 57.949 164.35 61.3403C164.368 64.5987 164.365 67.8571 164.363 71.1155C164.372 72.324 164.382 73.5326 164.391 74.7778C164.328 86.3596 161.254 94.0493 153 102.373C144.706 108.584 137.165 110.668 126.956 110.692C125.462 110.707 125.462 110.707 123.938 110.723C120.659 110.753 117.381 110.77 114.102 110.787C111.823 110.806 109.545 110.826 107.267 110.846C101.279 110.897 95.2921 110.937 89.3047 110.974C83.1913 111.014 77.0781 111.065 70.9648 111.115C58.9766 111.212 46.9883 111.297 35 111.373C33.7582 113.857 33.8796 115.504 33.8865 118.282C33.8865 119.303 33.8867 120.324 33.8867 121.376C33.8918 122.481 33.897 123.586 33.9023 124.725C33.9045 126.419 33.9045 126.419 33.9066 128.147C33.9122 131.764 33.9248 135.381 33.9375 138.998C33.9425 141.446 33.9471 143.894 33.9512 146.342C33.9622 152.352 33.9789 158.363 34 164.373C23.8632 169.442 11.3278 164.727 0 164.373C0 110.253 0 56.1333 0 0.373283C0 0.373283 0 0.373283 0 0.373283ZM34 34.3733C32.7599 38.0933 32.8376 41.5607 32.832 45.4358C32.8287 46.2235 32.8254 47.0112 32.8219 47.8228C32.8169 49.487 32.8145 51.1514 32.8147 52.8157C32.8125 55.3637 32.7943 57.9113 32.7754 60.4592C32.7725 62.0764 32.7704 63.6936 32.7695 65.3108C32.7623 66.0733 32.7551 66.8359 32.7477 67.6216C32.7642 71.4151 32.8431 73.1379 35 76.3733C37.9848 76.6647 40.7617 76.7617 43.7483 76.7297C45.1069 76.7328 45.1069 76.7328 46.493 76.7359C49.4968 76.7389 52.5001 76.7204 55.5039 76.7014C57.5837 76.6983 59.6636 76.6965 61.7434 76.6957C66.1056 76.6911 70.4677 76.6767 74.8298 76.6545C80.4347 76.6262 86.0394 76.6153 91.6444 76.6108C95.9396 76.6067 100.235 76.5969 104.53 76.585C106.597 76.5793 108.665 76.5745 110.732 76.5707C113.615 76.5639 116.498 76.5502 119.381 76.5344C120.675 76.5327 120.675 76.5327 121.996 76.531C125.807 76.874 125.807 76.874 129 75.3733C129 61.8433 129 48.3133 129 34.3733C97.65 34.3733 66.3 34.3733 34 34.3733C34 34.3733 34 34.3733 34 34.3733Z" style="fill:#120001;mix-blend-mode:normal;" transform="translate(673.891 117.81)" />
  </g>
</svg>