<?xml version="1.0" encoding="utf-8"?>
<svg width="123.414" height="29.453" viewBox="0 0 123.414 29.453" fill="none" stroke="none" version="1.1" xmlns:xlink="http://www.w3.org/1999/xlink" xmlns="http://www.w3.org/2000/svg">
  <path id="Shape" d="M6.48004 3.633C6.48004 5.433 5.03104 6.891 3.24204 6.891C1.44711 6.88659 -0.0043869 5.42793 3.8147e-05 3.633C-0.00210571 1.83951 1.4488 0.383343 3.24216 0.378998C5.03488 0.38341 6.48458 1.84028 6.48016 3.633C6.48016 3.633 6.48004 3.633 6.48004 3.633ZM6.48004 14.727C6.48004 16.527 5.03104 17.984 3.24204 17.984C1.4475 17.9796 -0.00383377 16.5215 3.8147e-05 14.727C-0.00210571 12.9335 1.4488 11.4773 3.24216 11.473C5.03488 11.4774 6.48458 12.9343 6.48016 14.727C6.48016 14.727 6.48004 14.727 6.48004 14.727ZM6.48004 25.82C6.48295 26.6815 6.14338 27.5089 5.53607 28.1199C4.92876 28.731 4.10352 29.0756 3.24201 29.078C1.44708 29.0736 -0.0044136 27.6149 1.14441e-05 25.82C-0.00162888 24.027 1.44908 22.5714 3.24205 22.567C5.03438 22.5714 6.48392 24.0277 6.48005 25.82C6.48005 25.82 6.48004 25.82 6.48004 25.82ZM17.785 14.727C17.7889 16.5216 16.3375 17.9796 14.5429 17.984C13.6816 17.9816 12.8565 17.6371 12.2492 17.0263C11.642 16.4154 11.3023 15.5883 11.3049 14.727C11.3017 12.9346 12.7508 11.4785 14.543 11.473C16.3364 11.4774 17.7872 12.9336 17.785 14.727C17.785 14.727 17.785 14.727 17.785 14.727ZM17.785 3.633C17.7895 5.42784 16.338 6.88654 14.5431 6.891C13.6816 6.88861 12.8564 6.54396 12.2491 5.93291C11.6418 5.32185 11.3022 4.4945 11.3051 3.633C11.3018 1.84068 12.7509 0.384514 14.5431 0.378998C16.3365 0.38341 17.7873 1.83963 17.7851 3.633C17.7851 3.633 17.785 3.633 17.785 3.633ZM29.089 14.727C29.0929 16.5212 27.6422 17.979 25.848 17.984C24.9865 17.9819 24.1612 17.6375 23.5537 17.0266C22.9462 16.4158 22.6064 15.5885 22.609 14.727C22.6069 13.8659 22.947 13.0393 23.5545 12.429C24.1619 11.8188 24.987 11.4749 25.848 11.473C27.6414 11.4774 29.0922 12.9336 29.09 14.727C29.09 14.727 29.089 14.727 29.089 14.727ZM29.089 3.633C29.0935 5.42746 27.6427 6.88599 25.8481 6.891C24.9864 6.88888 24.1609 6.54434 23.5534 5.93326C22.9459 5.32218 22.6062 4.49467 22.6091 3.633C22.607 2.77177 22.9472 1.94501 23.5549 1.33471C24.1625 0.724407 24.9878 0.38061 25.849 0.378998C27.6416 0.384513 29.0913 1.84041 29.089 3.633C29.089 3.633 29.089 3.633 29.089 3.633ZM29.089 25.82C29.094 27.6146 27.6435 29.0735 25.849 29.079C24.9873 29.0769 24.1618 28.7323 23.5543 28.1213C22.9468 27.5102 22.6071 26.6827 22.61 25.821C22.6061 24.0283 24.0563 22.5719 25.849 22.568C27.6404 22.5735 29.0896 24.0276 29.089 25.819C29.089 25.819 29.089 25.82 29.089 25.82ZM17.785 25.82C17.7895 27.6148 16.338 29.0735 14.5431 29.078C13.6816 29.0756 12.8564 28.731 12.2491 28.1199C11.6418 27.5089 11.3022 26.6815 11.3051 25.82C11.3025 24.0279 12.7515 22.5724 14.5434 22.567C16.3363 22.5714 17.787 24.027 17.7854 25.82C17.7854 25.82 17.785 25.82 17.785 25.82ZM53.789 17.339L59.594 29.004L54.684 29.004L49.043 17.707L42.629 17.707L42.629 29.004L38.445 29.004L38.445 0.448997C38.445 0.448997 50.91 0.448997 50.91 0.448997C55.86 0.448997 60.043 3.102 60.043 8.977C60.043 13.543 57.648 16.359 53.789 17.34C53.789 17.34 53.789 17.339 53.789 17.339ZM50.91 4.489L42.629 4.489L42.629 13.669C42.629 13.669 50.91 13.669 50.91 13.669C53.75 13.669 55.738 12.199 55.738 9.098C55.738 6.121 53.789 4.488 50.91 4.488C50.91 4.488 50.91 4.489 50.91 4.489ZM77.293 29.453C69.949 29.453 65.277 23.375 65.277 14.727C65.277 6.078 69.949 0 77.293 0C84.683 0 89.351 6.078 89.351 14.727C89.351 23.375 84.684 29.453 77.293 29.453C77.293 29.453 77.293 29.453 77.293 29.453ZM77.293 4.285C72.343 4.285 69.621 8.325 69.621 14.727C69.621 21.133 72.344 25.172 77.293 25.172C82.289 25.172 85.008 21.132 85.008 14.727C85.008 8.324 82.289 4.285 77.293 4.285C77.293 4.285 77.293 4.285 77.293 4.285ZM104.004 29.453C99.864 29.453 96.293 27.66 93.898 24.843C93.898 24.843 96.941 21.867 96.941 21.867C98.851 23.949 101.652 25.254 104.332 25.254C108.309 25.254 110.215 23.867 110.215 21.09C110.215 18.89 108.551 17.79 103.801 16.36C97.793 14.566 94.914 13.055 94.914 7.957C94.914 3.02 99.054 0 104.289 0C108.144 0 111.066 1.43 113.586 3.875C113.586 3.875 110.582 6.938 110.582 6.938C108.797 5.102 106.766 4.203 103.965 4.203C100.637 4.203 99.215 5.836 99.215 7.75C99.215 9.75 100.515 10.73 105.425 12.2C111.027 13.91 114.519 15.707 114.519 20.805C114.519 25.945 111.273 29.453 104.004 29.453C104.004 29.453 104.004 29.453 104.004 29.453ZM119.914 0.856001L118.98 0.856001L118.98 3.516L118.5 3.516L118.5 0.856001L117.562 0.856001L117.562 0.395L119.914 0.395L119.914 0.856001ZM123.414 3.516L122.945 3.516C122.945 3.516 122.945 1.867 122.945 1.867C122.945 1.68 122.949 1.407 122.953 1.317C122.918 1.407 122.824 1.629 122.746 1.809C122.746 1.809 121.969 3.563 121.969 3.563C121.969 3.563 121.199 1.809 121.199 1.809C121.121 1.629 121.027 1.406 120.992 1.317C120.996 1.407 121 1.68 121 1.867C121 1.867 121 3.516 121 3.516L120.547 3.516L120.547 0.394997L121.043 0.394997C121.043 0.394997 121.762 2.059 121.762 2.059C121.84 2.234 121.942 2.461 121.981 2.594C122.028 2.461 122.121 2.238 122.199 2.059C122.199 2.059 122.902 0.394997 122.902 0.394997L123.414 0.394997L123.414 3.516Z" style="fill:#21304C;mix-blend-mode:normal;" />
</svg>