<?xml version="1.0" encoding="utf-8"?>
<svg width="149" height="27.663" viewBox="0 0 149 27.663" fill="none" stroke="none" version="1.1" xmlns:xlink="http://www.w3.org/1999/xlink" xmlns="http://www.w3.org/2000/svg">
  <path id="Shape" d="M20.85 2.18128C20.264 0.427574 17.1188 -0.101996 14.461 0.015624C11.8219 0.132114 9.41508 0.763624 9.56512 1.2475C9.72227 1.7518 11.052 1.71773 11.8624 1.69696C12.0012 1.6934 12.1249 1.69023 12.2247 1.69023C14.7382 1.69023 17.1586 2.15146 17.7369 2.81544C18.6385 3.8525 17.086 6.41048 12.3112 9.8977C11.3952 10.567 10.7115 11.1828 10.5603 11.4849C10.4787 11.646 10.5175 11.8797 10.7681 11.9121C11.0308 11.9465 11.6611 11.8081 12.7007 11.3038C16.9425 9.24655 21.8102 5.05549 20.85 2.18128C20.85 2.18128 20.85 2.18128 20.85 2.18128ZM25.8146 9.49806C25.8146 9.49806 25.7416 9.48618 25.7416 9.48618C23.3951 9.1025 19.1974 8.95168 17.7623 11.1509C16.7036 12.7743 18.5662 14.9695 20.3971 17.1271C20.4837 17.2292 20.5702 17.3311 20.6564 17.433C20.819 17.6252 20.9831 17.8164 21.1458 18.006C21.1458 18.006 21.1461 18.0063 21.1461 18.0063C22.513 19.599 23.7776 21.0726 23.1699 21.9731C22.6926 22.6822 19.989 22.7795 18.4653 22.8343C18.2196 22.8431 18.0045 22.8509 17.8344 22.8599C17.4265 22.8817 16.9697 22.898 16.5136 22.9143C16.5136 22.9143 16.5136 22.9143 16.5136 22.9143C15.3053 22.9573 14.1024 23.0001 13.8306 23.1466C13.4946 23.3277 13.3075 23.8901 14.5668 24.1147C15.5778 24.2962 17.9845 24.6645 20.5252 24.6627C23.1771 24.6621 25.9628 24.2278 26.5671 22.1745C27.0054 20.6858 25.6763 19.1006 24.3246 17.4884C24.3246 17.4884 24.3245 17.4883 24.3245 17.4883L24.3243 17.4881L24.3243 17.488L24.3241 17.4878L24.324 17.4876L24.3238 17.4875L24.3237 17.4874L24.3236 17.4872L24.3235 17.487L24.3234 17.4869L24.3232 17.4868L24.3231 17.4866L24.323 17.4864C24.323 17.4864 24.3229 17.4862 24.3229 17.4862C24.1779 17.3133 24.0326 17.1401 23.8892 16.9667C23.5218 16.5217 23.1534 16.1056 22.8049 15.7121C22.8049 15.7121 22.8048 15.7119 22.8048 15.7119C21.6161 14.3697 20.6591 13.2892 20.766 12.2141C20.8721 11.1342 22.9926 11.0717 26.5093 11.0101C27.243 10.9966 28.6988 10.9615 28.418 10.3833C28.1723 9.8827 27.1179 9.71072 25.8146 9.49806C25.8146 9.49806 25.8146 9.49806 25.8146 9.49806ZM46.4701 18.7435C47.0512 15.2282 49.4302 12.2812 53.861 12.2812C58.2909 12.2812 59.705 15.2282 59.1273 18.7435C58.5474 22.2626 56.1645 25.2035 51.7399 25.2035C47.3078 25.2035 45.8992 22.2626 46.4701 18.7435C46.4701 18.7435 46.4701 18.7435 46.4701 18.7435ZM56.3874 18.7435C55.919 21.6211 54.5976 23.0801 52.084 23.0801C49.5732 23.0801 48.7353 21.6211 49.2102 18.7435C49.6797 15.8672 50.996 14.4065 53.513 14.4065C56.0252 14.4065 56.8594 15.8672 56.3874 18.7435C56.3874 18.7435 56.3874 18.7435 56.3874 18.7435ZM8.521 13.1172C10.73 13.0019 13.4132 13.3474 14.9204 14.3808C15.6697 14.894 16.1967 15.8391 15.8916 16.9224C15.0218 19.9967 11.7751 23.7164 4.56046 26.5746C2.26643 27.4836 0.462677 27.8312 0.084137 27.5872C-0.272507 27.3576 0.591637 25.7717 1.05061 24.9294C1.05061 24.9294 1.05067 24.9293 1.05067 24.9293L1.05082 24.929C1.05082 24.929 1.05099 24.9287 1.05099 24.9287C1.1157 24.81 1.17233 24.706 1.21634 24.6228C2.36799 22.4422 3.80698 20.3188 5.20972 18.3748C5.25871 18.3069 5.31025 18.2343 5.36398 18.1586C5.36398 18.1586 5.36407 18.1585 5.36407 18.1585C5.87711 17.4357 6.59244 16.4279 7.24606 16.5178C7.89268 16.6065 7.13524 17.9255 6.6372 18.7639C5.80026 20.171 3.4949 24.0796 4.25536 24.313C5.93658 24.8299 13.825 19.4519 12.6618 16.4562C12.1226 15.0663 8.69748 14.9338 6.54072 14.9338C6.37048 14.9338 6.16531 14.94 5.9418 14.9469C5.9418 14.9469 5.94115 14.9469 5.94115 14.9469L5.94106 14.9469L5.94099 14.9469L5.94092 14.9469L5.94083 14.9469C5.94083 14.9469 5.94076 14.9469 5.94076 14.9469C4.87589 14.9794 3.39596 15.0245 3.298 14.4683C3.17017 13.8471 6.55357 13.2215 8.521 13.1172C8.521 13.1172 8.521 13.1172 8.521 13.1172ZM37.5266 17.9283C36.4194 17.1529 36.1141 15.9732 36.27 14.9839C36.4956 13.5437 37.7291 12.2812 39.1419 12.2812C39.1419 12.2812 45.4991 12.2812 45.4991 12.2812C45.4991 12.2812 45.4991 13.6015 45.4991 13.6015C45.4088 14.1985 45.0752 14.7971 44.4845 14.7971C44.4845 14.7971 39.674 14.7971 39.674 14.7971C39.1956 14.7971 38.9213 14.9225 38.8827 15.2282C38.8578 15.4085 38.9414 15.5357 39.2807 15.7791C39.2807 15.7791 43.4901 18.7698 43.4901 18.7698C44.392 19.4086 44.8577 20.4061 44.6359 21.7992C44.4007 23.282 43.2322 24.6747 40.8666 24.6747C40.8666 24.6747 35.4676 24.6747 35.4676 24.6747C35.4676 24.6747 35.4676 22.9576 35.4676 22.9576C35.5592 22.3977 35.8297 22.1635 36.3191 22.1635C36.3191 22.1635 40.9266 22.1635 40.9266 22.1635C41.747 22.1635 41.9895 21.972 42.0624 21.5101C42.1117 21.1756 41.911 20.9802 41.4902 20.6934C41.4902 20.6934 37.5266 17.9283 37.5266 17.9283C37.5266 17.9283 37.5266 17.9283 37.5266 17.9283ZM68.3782 22.6584L63.1148 22.6584C63.1148 22.6584 64.9291 12.7078 64.9291 12.7078C64.9694 12.5055 64.8215 12.2812 64.5725 12.2812C64.5725 12.2812 62.2557 12.2812 62.2557 12.2812L59.9936 24.6747L68.7164 24.6747C68.7164 24.6747 68.9406 23.4311 68.9406 23.4311C69.0396 22.8825 68.8567 22.6584 68.3782 22.6584C68.3782 22.6584 68.3782 22.6584 68.3782 22.6584ZM138.515 12.3577C138.515 12.3577 139.125 12.3577 139.125 12.3577C139.237 12.3577 139.358 12.3728 139.462 12.4548C139.564 12.5302 139.618 12.6726 139.615 12.7897C139.615 13.0862 139.437 13.2389 139.437 13.2389C139.437 13.2389 133.056 18.6522 133.056 18.6522C133.056 18.6522 137.835 23.8453 137.835 23.8453C137.835 23.8453 138.018 24.0685 138.018 24.294C138.018 24.4155 137.965 24.5556 137.857 24.6362C137.757 24.7085 137.643 24.7246 137.52 24.73C137.52 24.73 136.916 24.73 136.916 24.73L131.869 19.2425L130.856 24.7246L129.497 24.7246L131.801 12.3347C131.801 12.3347 132.412 12.3347 132.412 12.3347C132.549 12.3347 132.691 12.3791 132.804 12.4687C132.912 12.5425 133.039 12.7274 132.984 12.9957C132.984 12.9957 132.14 17.813 132.14 17.813L138.515 12.3577L138.515 12.3577ZM84.2148 12.2812L77.5464 12.2812C77.5464 12.2812 77.5124 12.4795 77.5124 12.4795C77.3588 13.3228 77.4271 14.2927 78.7598 14.2927C78.7598 14.2927 83.6964 14.2927 83.6964 14.2927C85.6523 14.2927 86.4011 15.7104 85.9195 18.3667C85.476 20.7972 84.1601 22.6584 82.1698 22.6584C82.1698 22.6584 79.4897 22.6584 79.4897 22.6584L80.7661 15.689C80.7661 15.689 78.4864 15.689 78.4864 15.689C78.1798 15.689 77.9621 15.9106 77.9331 16.1104C77.9331 16.1104 76.3676 24.6709 76.3676 24.6709C76.3676 24.6709 81.5923 24.6709 81.5923 24.6709C85.4524 24.6709 88.1422 22.8612 88.9705 18.2753C89.6209 14.7584 88.1492 12.2812 84.2148 12.2812C84.2148 12.2812 84.2148 12.2812 84.2148 12.2812ZM120.225 12.3348C120.225 12.3348 123.413 12.3348 123.413 12.3348C125.293 12.3348 126.948 12.3635 127.91 13.4648C128.459 14.0962 128.499 15.2607 128.347 15.9732C128.155 16.8548 127.323 19.0603 124.198 19.3417C124.198 19.3417 126.83 23.8453 126.83 23.8453C126.83 23.8453 127.006 24.1185 127.006 24.294C127.01 24.4155 126.956 24.5556 126.849 24.6362C126.746 24.7085 126.635 24.73 126.511 24.73C126.511 24.73 125.822 24.73 125.822 24.73L122.734 19.4147L120.251 19.4004L119.285 24.73L117.923 24.73L120.225 12.3348L120.225 12.3348ZM124.825 17.9659C124.067 18.1684 123.004 18.2058 121.901 18.2058C121.68 18.2024 121.408 18.1998 121.127 18.1971C121.127 18.1971 121.126 18.1971 121.126 18.1971C120.907 18.1949 120.682 18.1928 120.469 18.1902C120.469 18.1902 121.283 13.6791 121.283 13.6791C121.42 13.6785 121.624 13.6767 121.867 13.6744C122.764 13.6663 124.189 13.6533 124.75 13.6829C125.034 13.6978 125.289 13.7178 125.442 13.7482C126.027 13.8594 126.409 13.9734 126.656 14.2187C127.725 15.2357 126.766 17.4423 124.825 17.9659C124.825 17.9659 124.825 17.9659 124.825 17.9659ZM141.23 15.2282C141.242 14.3016 141.493 12.3422 143.882 12.3347C143.882 12.3347 149 12.3347 149 12.3347C149 12.3347 149 13.2738 149 13.2738C149.004 13.4263 148.845 13.6204 148.698 13.6453C148.698 13.6453 148.706 13.6791 148.706 13.6791C148.706 13.6791 148.696 13.6453 148.696 13.6453C148.658 13.6564 144.105 13.6628 144.1 13.6628C143.166 13.6628 142.592 14.2713 142.587 15.0328C142.592 15.4831 142.847 15.9006 143.257 16.3052C143.257 16.3052 146.559 19.5557 146.559 19.5557C146.565 19.5557 147.745 20.5474 147.745 21.8318C147.745 21.8318 147.745 21.8367 147.745 21.8367C147.735 22.7611 147.48 24.7211 145.092 24.73C145.092 24.73 140.031 24.73 140.031 24.73L140.031 23.8006L140.016 23.7929C140.016 23.7929 140.031 23.7929 140.031 23.7929C140.029 23.6388 140.179 23.4449 140.33 23.4172C140.358 23.4073 142.326 23.404 143.664 23.4016C143.664 23.4016 143.665 23.4016 143.665 23.4016L143.665 23.4016L143.666 23.4016C143.666 23.4016 143.666 23.4016 143.666 23.4016C144.357 23.4005 144.879 23.3996 144.88 23.3983C145.812 23.4023 146.389 22.7848 146.389 22.0281C146.389 21.5788 146.186 21.1042 145.772 20.7002C145.772 20.7002 142.289 17.287 142.289 17.287C141.937 16.979 141.23 16.2025 141.23 15.2282C141.23 15.2282 141.23 15.2282 141.23 15.2282ZM74.9445 12.2812L72.6258 12.2812L70.36 24.6709L73.1142 24.6709C73.1142 24.6709 75.3019 12.704 75.3019 12.704C75.3395 12.5055 75.1927 12.2812 74.9445 12.2812C74.9445 12.2812 74.9445 12.2812 74.9445 12.2812ZM112.815 12.3047C112.815 12.3047 112.815 12.311 112.815 12.311C116.538 12.7437 117.646 16.0623 116.895 19.2377C116.06 22.7598 113.52 25.5402 109.469 25.2294C105.696 24.791 104.62 21.4673 105.418 18.2965C106.292 14.7761 108.823 11.9958 112.815 12.3047C112.815 12.3047 112.815 12.3047 112.815 12.3047ZM115.566 19.1305C114.708 22.7423 112.259 24.0849 109.958 23.9609C109.958 23.9609 109.731 23.9493 109.731 23.9493C107.502 23.6638 105.858 21.9445 106.733 18.4042C107.629 14.7935 110.227 13.4523 112.502 13.5763C114.76 13.8069 116.407 15.59 115.566 19.1305C115.566 19.1305 115.566 19.1305 115.566 19.1305ZM105.252 12.4453C105.367 12.5339 105.424 12.7015 105.418 12.8242C105.418 12.9356 105.394 12.9922 105.361 13.0695C105.361 13.0695 105.354 13.0862 105.354 13.0862C105.354 13.0862 100.576 23.838 100.576 23.838C100.33 24.3991 99.8583 24.7246 99.2928 24.7246C99.2928 24.7246 98.3978 24.7246 98.3978 24.7246L97.0188 17.9659C97.0188 17.9659 93.6902 23.8944 93.6902 23.8944C93.535 24.1399 93.3624 24.3428 93.1577 24.4916C92.9331 24.6547 92.6599 24.7301 92.3563 24.7246C92.3563 24.7246 91.3035 24.7246 91.3035 24.7246L91.3035 12.3348C91.3035 12.3348 92.1135 12.3348 92.1135 12.3348C92.2419 12.3348 92.3754 12.3577 92.4925 12.4548C92.6157 12.5501 92.6677 12.7229 92.6677 12.8609C92.6677 12.8609 92.6296 23.1755 92.6296 23.1755L96.4256 16.5606C96.4256 16.5606 97.2331 16.5606 97.2331 16.5606C97.7239 16.5332 98.1333 16.8837 98.2053 17.3959C98.2053 17.3959 99.4602 23.2348 99.4602 23.2348L104.269 12.3348C104.269 12.3348 104.895 12.3348 104.895 12.3348C105.018 12.3348 105.141 12.3572 105.252 12.4453C105.252 12.4453 105.252 12.4453 105.252 12.4453Z" style="fill:#DA291C;fill-rule:evenodd;mix-blend-mode:normal;" />
</svg>