<?xml version="1.0" encoding="UTF-8"?>
<svg 
id="Calque_1" data-name="Calque 1" xmlns="http://www.w3.org/2000/svg" viewBox="0 0 595.3 595.3">
  <defs>
    <style>
      .cls-1 {
        fill: #fff;
        stroke-width: 0px;
      }

            .cls-2 {
        fill: #fff;
        stroke-width: 0px;
      }
    </style>
  </defs>
  <g>
    <path class="cls-1" d="M84,401.1h-21.8v5.4h21.8v16.3h-27.2v-5.4h21.8v-5.4h-21.8v-16.3h27.2v5.4Z"/>
    <path class="cls-1" d="M110.4,395.6h27.2v5.4h-10.9v21.8h-5.4v-21.8h-10.9v-5.4Z"/>
    <path class="cls-1" d="M169.3,412v5.4h21.8v5.4h-27.2v-27.2h27.2v5.4h-21.8v5.4h16.3v5.4h-16.3Z"/>
    <path class="cls-1" d="M228.3,412h-5.4v10.9h-5.4v-27.2h27.2v16.3h-9.6l9.6,10.9h-6.7l-9.6-10.9ZM222.8,401.1v5.4h16.3v-5.4h-16.3Z"/>
    <path class="cls-1" d="M284.5,422.8v-5.4h5.3l-5.3-13.6-7.4,19h-6.2l10.9-27.2h5.4l10.9,27.2h-13.6Z"/>
    <path class="cls-1" d="M324.4,422.8v-27.2h21.8l5.4,5.4v16.3l-5.4,5.4h-21.8ZM329.9,417.4h13.6l2.7-2.7v-10.6l-2.7-3h-13.6v16.3Z"/>
    <path class="cls-1" d="M394.3,395.6v27.2h-5.4v-27.2h5.4Z"/>
    <path class="cls-1" d="M445.1,422.8v-5.4h5.3l-5.3-13.6-7.4,19h-6.2l10.9-27.2h5.4l10.9,27.2h-13.6Z"/>
    <path class="cls-1" d="M485,422.8v-27.2h5.4l16.3,19.3v-19.3h5.4v27.2h-5.4l-16.3-18.7v18.7h-5.4Z"/>
  </g>
  <g>
    <path class="cls-1" d="M167,475.7h-2l-2.8-7.5h-11.5c-.4,1.2-.9,2.4-1.3,3.7-.5,1.3-.9,2.6-1.4,3.8h-1.8c.8-2,1.5-4,2.3-5.9.7-1.9,1.5-3.8,2.2-5.7.7-1.9,1.5-3.8,2.2-5.7.7-1.9,1.5-3.9,2.3-5.9h2.4l9.5,23.3ZM161.7,466.9l-5.4-12.9-5.1,12.9h10.5Z"/>
    <path class="cls-1" d="M188.3,476.1c-1.4,0-2.6-.1-3.6-.4s-1.8-.7-2.5-1.2-1.2-1.1-1.6-1.7c-.4-.7-.7-1.4-.9-2.1-.2-.8-.3-1.5-.4-2.3s0-1.6,0-2.4v-13.5h1.7v13.4c0,1.8.2,3.2.5,4.3.3,1.1.8,2,1.4,2.6.6.6,1.4,1,2.3,1.3.9.2,1.9.3,3,.3s2.2-.1,3.1-.3,1.7-.7,2.3-1.3c.6-.6,1.1-1.5,1.4-2.6.3-1.1.5-2.5.5-4.3v-13.4h1.7v13.5c0,1.6-.1,3-.4,4.3-.3,1.3-.7,2.3-1.4,3.2s-1.6,1.5-2.7,2c-1.1.5-2.6.7-4.4.7Z"/>
    <path class="cls-1" d="M227.9,454.1h-8.1v21.6h-1.7v-21.6h-8.1v-1.7h17.9v1.7Z"/>
    <path class="cls-1" d="M250.6,452c1.6,0,3.1.3,4.4.8s2.5,1.4,3.5,2.4c1,1,1.7,2.3,2.3,3.8.5,1.5.8,3.1.8,4.9s-.3,3.4-.8,4.9-1.3,2.8-2.3,3.8c-1,1.1-2.1,1.9-3.5,2.5-1.3.6-2.8.9-4.4.9s-3.1-.3-4.4-.9c-1.3-.6-2.5-1.4-3.5-2.5-1-1.1-1.7-2.3-2.3-3.8s-.8-3.1-.8-5,.3-3.5.8-5c.5-1.5,1.3-2.7,2.3-3.8,1-1,2.1-1.8,3.5-2.4,1.3-.6,2.8-.8,4.4-.8ZM250.6,474.4c1.3,0,2.6-.2,3.7-.7,1.1-.5,2.1-1.1,2.9-2s1.5-2,1.9-3.3.7-2.8.7-4.4-.2-3.1-.7-4.4c-.5-1.3-1.1-2.3-1.9-3.2s-1.8-1.5-2.9-2c-1.1-.4-2.3-.7-3.6-.7s-2.6.2-3.7.7c-1.1.5-2.1,1.1-2.9,2-.8.9-1.5,1.9-1.9,3.2-.5,1.3-.7,2.7-.7,4.4s.2,3.1.7,4.4,1.1,2.4,1.9,3.3,1.8,1.6,2.9,2c1.1.5,2.4.7,3.7.7Z"/>
    <path class="cls-1" d="M296.9,475.7h-1.7v-20.5l-8.4,20.5h-1.8l-8.3-20.5v20.5h-1.7v-23.3h2.5l8.5,21.1,8.5-21.1h2.4v23.3Z"/>
    <path class="cls-1" d="M329.8,475.7h-2l-2.8-7.5h-11.5c-.4,1.2-.9,2.4-1.3,3.7-.5,1.3-.9,2.6-1.4,3.8h-1.8c.8-2,1.5-4,2.3-5.9.7-1.9,1.5-3.8,2.2-5.7.7-1.9,1.5-3.8,2.2-5.7.7-1.9,1.5-3.9,2.3-5.9h2.4l9.5,23.3ZM324.5,466.9l-5.4-12.9-5.1,12.9h10.5Z"/>
    <path class="cls-1" d="M358.2,454.1h-8.1v21.6h-1.7v-21.6h-8.1v-1.7h17.9v1.7Z"/>
    <path class="cls-1" d="M373.5,475.7h-1.7v-23.3h1.7v23.3Z"/>
    <path class="cls-1" d="M398.8,452c1.6,0,3.1.3,4.4.8s2.5,1.4,3.5,2.4c1,1,1.7,2.3,2.3,3.8.5,1.5.8,3.1.8,4.9s-.3,3.4-.8,4.9-1.3,2.8-2.3,3.8c-1,1.1-2.1,1.9-3.5,2.5-1.3.6-2.8.9-4.4.9s-3.1-.3-4.4-.9c-1.3-.6-2.5-1.4-3.5-2.5-1-1.1-1.7-2.3-2.3-3.8s-.8-3.1-.8-5,.3-3.5.8-5c.5-1.5,1.3-2.7,2.3-3.8,1-1,2.1-1.8,3.5-2.4,1.3-.6,2.8-.8,4.4-.8ZM398.8,474.4c1.3,0,2.6-.2,3.7-.7,1.1-.5,2.1-1.1,2.9-2s1.5-2,1.9-3.3.7-2.8.7-4.4-.2-3.1-.7-4.4c-.5-1.3-1.1-2.3-1.9-3.2s-1.8-1.5-2.9-2c-1.1-.4-2.3-.7-3.6-.7s-2.6.2-3.7.7c-1.1.5-2.1,1.1-2.9,2-.8.9-1.5,1.9-1.9,3.2-.5,1.3-.7,2.7-.7,4.4s.2,3.1.7,4.4,1.1,2.4,1.9,3.3,1.8,1.6,2.9,2c1.1.5,2.4.7,3.7.7Z"/>
    <path class="cls-1" d="M441.3,475.7h-2.2l-14.2-21.2v21.2h-1.7v-23.3h2.3l14.1,21.2v-21.2h1.7v23.3Z"/>
  </g>
  <g>
    <polygon class="cls-1" points="331.6 105.1 258.4 105.1 185.1 237 258.3 237 331.6 105.1"/>
    <polygon class="cls-1" points="374.9 212.5 301.6 212.5 228.3 344.4 301.6 344.4 374.9 212.5"/>
    <circle class="cls-2" cx="381" cy="315.2" r="29.2"/>
  </g>
</svg>