<?xml version="1.0" encoding="utf-8"?>
<svg width="996" height="239.3" viewBox="0 0 996 239.3" fill="none" stroke="none" version="1.1" xmlns:xlink="http://www.w3.org/1999/xlink" xmlns="http://www.w3.org/2000/svg">
  <g id="Group">
    <g id="Group">
      <path id="Polygon" d="M146.5 0L73.3 0L0 131.9L73.2 131.9L146.5 0L146.5 0Z" style="fill:#1E1E1C;fill-rule:evenodd;mix-blend-mode:normal;" />
      <path id="Polygon" d="M146.6 0L73.3 0L0 131.9L73.3 131.9L146.6 0L146.6 0Z" style="fill:#1E1E1C;fill-rule:evenodd;mix-blend-mode:normal;" transform="translate(43.2 107.4)" />
      <path id="Circle" d="M0 29.2C0 13.0733 13.0733 0 29.2 0C45.3267 0 58.4 13.0733 58.4 29.2C58.4 45.3267 45.3267 58.4 29.2 58.4C13.0733 58.4 0 45.3267 0 29.2Z" style="fill:#E20E17;fill-rule:evenodd;mix-blend-mode:normal;" transform="translate(166.7 180.9)" />
    </g>
    <g id="Group" transform="translate(294 57)">
      <g id="Group" transform="translate(2 88)">
        <path id="Shape" d="M32.0703 35.6265L28.9866 35.6265L24.6695 24.1093C24.6695 24.1093 6.93828 24.1093 6.93828 24.1093C6.32156 25.9521 5.55064 27.7948 4.93389 29.7912C4.16297 31.7875 3.54624 33.7838 2.77532 35.6265C2.77532 35.6265 0 35.6265 0 35.6265C1.23348 32.5553 2.31276 29.484 3.54624 26.5664C4.62552 23.6487 5.859 20.731 6.93828 17.8133C8.01757 14.8956 9.25104 11.9779 10.3303 9.06018C11.4096 6.1425 12.6431 3.07125 13.8766 0C13.8766 0 17.577 0 17.577 0L32.2245 35.7801L32.0703 35.6265ZM23.8985 22.113L15.5726 2.30344L7.70921 22.113L23.8985 22.113L23.8985 22.113Z" style="fill:#1E1E1C;mix-blend-mode:normal;" transform="translate(0 1.075)" />
        <path id="Path" d="M13.9451 36.2408C11.7865 36.2408 9.93629 36.0872 8.39445 35.6265C6.85261 35.1659 5.61913 34.5516 4.53985 33.7838C3.46057 33.016 2.68964 32.0946 2.0729 31.1732C1.45617 30.0982 0.99361 29.0233 0.685249 27.9484C0.376884 26.7199 0.222691 25.6449 0.0685196 24.4164C-0.0856476 23.188 0.0685196 21.9594 0.0685196 20.731C0.0685196 20.731 0.0685196 0 0.0685196 0L2.68964 0C2.68964 0 2.68964 20.5774 2.68964 20.5774C2.68964 23.3415 2.99801 25.4914 3.46057 27.1806C3.92312 28.8698 4.69404 30.2518 5.61913 31.1732C6.54425 32.0946 7.7777 32.7088 9.16537 33.1695C10.553 33.4766 12.0949 33.6302 13.7909 33.6302C15.4869 33.6302 17.1829 33.4766 18.5706 33.1695C19.9583 32.8624 21.1917 32.0945 22.1168 31.1732C23.042 30.2518 23.8129 28.8698 24.2754 27.1806C24.738 25.4914 25.0463 23.3415 25.0463 20.5774C25.0463 20.5774 25.0463 0 25.0463 0L27.6675 0C27.6675 0 27.6675 20.731 27.6675 20.731C27.6675 23.188 27.5133 25.3378 27.0507 27.3341C26.5882 29.3304 25.9715 30.866 24.8922 32.2481C23.8129 33.6302 22.4252 34.5516 20.7292 35.3194C19.0332 36.0872 16.7204 36.3944 13.9451 36.3944C13.9451 36.3944 13.9451 36.2408 13.9451 36.2408Z" style="fill:#1E1E1C;mix-blend-mode:normal;" transform="translate(50.966 1.075)" />
        <path id="Path" d="M27.599 2.61058L15.11 2.61058L15.11 35.7801L12.4889 35.7801L12.4889 2.61058L0 2.61058L0 0L27.5989 0L27.5989 2.61058L27.599 2.61058Z" style="fill:#1E1E1C;mix-blend-mode:normal;" transform="translate(98.369 0.921)" />
        <path id="Shape" d="M16.9603 0.307144C19.4272 0.307144 21.74 0.767813 23.7443 1.53563C25.7487 2.30344 27.5989 3.68549 29.1408 5.22112C30.6826 6.75675 31.7619 8.75304 32.687 11.0565C33.4579 13.3599 33.9204 15.8169 33.9204 18.581C33.9204 21.3451 33.4579 23.8022 32.687 26.1056C31.9161 28.409 30.6826 30.4053 29.1408 31.941C27.5989 33.6302 25.9029 34.8586 23.7443 35.78C21.7399 36.7014 19.4272 37.1621 16.9603 37.1621C14.4933 37.1621 12.1805 36.7014 10.1762 35.78C8.17175 34.8586 6.32155 33.6302 4.77971 31.941C3.23787 30.2518 2.15858 28.409 1.23347 26.1056C0.308365 23.8022 0 21.3451 0 18.4275C0 15.5098 0.462555 13.0528 1.23347 10.7493C2.00439 8.4459 3.23787 6.60313 4.77971 4.91398C6.32155 3.37835 8.01759 2.14987 10.1762 1.22848C12.1806 0.307097 14.4933 0 16.9603 0C16.9603 0 16.9603 0.307144 16.9603 0.307144ZM16.9602 34.7052C18.9646 34.7052 20.969 34.398 22.665 33.6302C24.3611 32.8624 25.9029 31.941 27.1364 30.559C28.3699 29.1769 29.4491 27.4877 30.0659 25.4914C30.6826 23.4951 31.1452 21.1917 31.1452 18.7347C31.1452 16.2776 30.8368 13.9742 30.0659 11.9779C29.2949 9.98162 28.3698 8.44599 27.1364 7.06389C25.9029 5.68179 24.3611 4.76045 22.665 3.99264C20.969 3.3784 19.1188 2.91768 17.1144 2.91768C15.11 2.91768 13.1056 3.22483 11.4096 3.99264C9.71356 4.76045 8.17172 5.68184 6.93828 7.06389C5.7048 8.44595 4.62552 9.98157 4.00879 11.9779C3.23787 13.9742 2.9295 16.1241 2.9295 18.7347C2.9295 21.3452 3.23787 23.4951 4.00879 25.4914C4.77971 27.4877 5.70482 29.1769 6.93828 30.559C8.17172 31.941 9.71359 33.016 11.4096 33.6302C13.1056 34.398 15.11 34.7052 17.1144 34.7052C17.1144 34.7052 16.9602 34.7052 16.9602 34.7052Z" style="fill:#1E1E1C;mix-blend-mode:normal;" transform="translate(144.008 0)" />
        <path id="Path" d="M33.7663 35.7801L31.1451 35.7801L31.1451 4.29973L18.1937 35.7801L15.4184 35.7801L2.62115 4.29973L2.62115 35.7801L0 35.7801L0 0L3.8546 0L16.9602 32.4017L30.0659 0L33.7663 0L33.7663 35.7801L33.7663 35.7801Z" style="fill:#1E1E1C;mix-blend-mode:normal;" transform="translate(198.589 0.921)" />
        <path id="Shape" d="M32.0702 35.6265L28.9865 35.6265L24.6694 24.1093C24.6694 24.1093 6.93823 24.1093 6.93823 24.1093C6.3215 25.9521 5.5506 27.7948 4.93387 29.7912C4.16295 31.7875 3.54622 33.7838 2.7753 35.6265C2.7753 35.6265 0 35.6265 0 35.6265C1.23346 32.5553 2.31276 29.484 3.54622 26.5664C4.62552 23.6487 5.85898 20.731 6.93829 17.8133C8.01758 14.8956 9.25104 11.9779 10.3304 9.06018C11.4097 6.1425 12.6431 3.07125 13.8766 0C13.8766 0 17.577 0 17.577 0L32.2245 35.7801L32.0702 35.6265ZM23.8985 22.113L15.5726 2.30344L7.70917 22.113L23.8985 22.113L23.8985 22.113Z" style="fill:#1E1E1C;mix-blend-mode:normal;" transform="translate(251.012 1.075)" />
        <path id="Path" d="M27.599 2.61058L15.11 2.61058L15.11 35.7801L12.4889 35.7801L12.4889 2.61058L0 2.61058L0 0L27.5989 0L27.5989 2.61058L27.599 2.61058Z" style="fill:#1E1E1C;mix-blend-mode:normal;" transform="translate(299.271 0.921)" />
        <path id="Path" d="M2.62115 35.7801L0 35.7801L0 0L2.62115 0L2.62115 35.7801L2.62115 35.7801Z" style="fill:#1E1E1C;mix-blend-mode:normal;" transform="translate(347.839 0.921)" />
        <path id="Shape" d="M16.9602 0.307144C19.4272 0.307144 21.7399 0.767813 23.7443 1.53563C25.7487 2.30344 27.5989 3.68549 29.1407 5.22112C30.6826 6.75675 31.7619 8.75304 32.687 11.0565C33.4579 13.3599 33.9204 15.8169 33.9204 18.581C33.9204 21.3451 33.4579 23.8022 32.687 26.1056C31.916 28.409 30.6826 30.4053 29.1407 31.941C27.5989 33.6302 25.9029 34.8586 23.7443 35.78C21.7399 36.7014 19.4272 37.1621 16.9602 37.1621C14.4933 37.1621 12.1805 36.7014 10.1761 35.78C8.17175 34.8586 6.3215 33.6302 4.77966 31.941C3.23782 30.2518 2.15851 28.409 1.23346 26.1056C0.30838 23.8022 0 21.3451 0 18.4275C0 15.5098 0.462524 13.0528 1.23346 10.7493C2.00436 8.4459 3.23782 6.60313 4.77966 4.91398C6.3215 3.37835 8.01755 2.14987 10.1761 1.22848C12.1805 0.307097 14.4933 0 16.9602 0C16.9602 0 16.9602 0.307144 16.9602 0.307144ZM16.9602 34.7052C18.9646 34.7052 20.969 34.398 22.665 33.6302C24.3611 32.8624 25.9029 31.941 27.1364 30.559C28.3698 29.1769 29.4491 27.4877 30.0659 25.4914C30.6826 23.4951 31.1452 21.1917 31.1452 18.7347C31.1452 16.2776 30.8368 13.9742 30.0659 11.9779C29.2949 9.98162 28.3698 8.44599 27.1364 7.06389C25.9029 5.68179 24.3611 4.76045 22.665 3.99264C20.969 3.3784 19.1188 2.91768 17.1144 2.91768C15.11 2.91768 13.1056 3.22483 11.4096 3.99264C9.71353 4.76045 8.17169 5.68184 6.93823 7.06389C5.70477 8.44595 4.62549 9.98157 4.00876 11.9779C3.23782 13.9742 2.92944 16.1241 2.92944 18.7347C2.92944 21.3452 3.23782 23.4951 4.00876 25.4914C4.77966 27.4877 5.70477 29.1769 6.93823 30.559C8.17169 31.941 9.71353 33.016 11.4096 33.6302C13.1056 34.398 15.11 34.7052 17.1144 34.7052C17.1144 34.7052 16.9602 34.7052 16.9602 34.7052Z" style="fill:#1E1E1C;mix-blend-mode:normal;" transform="translate(372.509 0)" />
        <path id="Path" d="M27.9074 35.7801L24.5153 35.7801L2.62115 3.22478L2.62115 35.7801L0 35.7801L0 0L3.5462 0L25.2862 32.5553L25.2862 0L27.9073 0L27.9073 35.7801L27.9074 35.7801Z" style="fill:#1E1E1C;mix-blend-mode:normal;" transform="translate(427.09 0.921)" />
      </g>
      <g id="Group">
        <path id="Path" d="M41.9381 8.29237L8.32594 8.29237L8.32594 16.5847L41.9381 16.5847L41.9381 41.6154L0 41.6154L0 33.3231L33.6121 33.3231L33.6121 25.0307L0 25.0307L0 0L41.9381 0L41.9381 8.29237L41.9381 8.29237Z" style="fill:#1E1E1C;mix-blend-mode:normal;" transform="translate(0 0.154)" />
        <path id="Path" d="M0 0L41.9381 0L41.9381 8.29237L25.132 8.29237L25.132 41.769L16.8061 41.769L16.8061 8.29237L0 8.29237L0 0L0 0Z" style="fill:#1E1E1C;mix-blend-mode:normal;" transform="translate(82.643 0)" />
        <path id="Path" d="M8.32593 25.1843L8.32593 33.4767L41.938 33.4767L41.938 41.7691L0 41.7691L0 0L41.938 0L41.938 8.29237L8.32593 8.29237L8.32593 16.5847L33.4579 16.5847L33.4579 24.8771L8.32593 24.8771L8.32593 25.1843Z" style="fill:#1E1E1C;mix-blend-mode:normal;" transform="translate(165.131 0)" />
        <path id="Shape" d="M16.6519 25.0307L8.32594 25.0307L8.32594 41.7691L0 41.7691L0 0L41.9381 0L41.9381 25.0307L27.1364 25.0307L41.9381 41.769L31.6077 41.769L16.806 25.0307L16.6519 25.0307ZM8.17174 8.29242L8.17174 16.5848L33.3038 16.5848L33.3038 8.29242L8.17174 8.29242L8.17174 8.29242Z" style="fill:#1E1E1C;mix-blend-mode:normal;" transform="translate(247.774 0.154)" />
        <path id="Path" d="M20.969 41.7691L20.969 33.4767L29.1408 33.4767L20.969 12.5922L9.55942 41.7691L0 41.7691L16.806 0L25.132 0L41.938 41.7691L20.969 41.7691L20.969 41.7691Z" style="fill:#1E1E1C;mix-blend-mode:normal;" transform="translate(330.108 0)" />
        <path id="Shape" d="M0 41.7691L0 0L33.6121 0L41.938 8.29237L41.938 33.3231L33.6121 41.6154L0 41.6154L0 41.7691ZM8.4801 33.4767L29.4491 33.4767L33.6121 29.3305L33.6121 13.0528L29.4491 8.44594L8.4801 8.44594L8.4801 33.4766L8.4801 33.4767Z" style="fill:#1E1E1C;mix-blend-mode:normal;" transform="translate(412.597 0)" />
        <path id="Path" d="M8.32587 0L8.32587 41.7691L0 41.7691L0 0L8.32587 0L8.32587 0Z" style="fill:#1E1E1C;mix-blend-mode:normal;" transform="translate(512.045 0)" />
        <path id="Path" d="M20.9691 41.7691L20.9691 33.4767L29.1408 33.4767L20.9691 12.5922L9.55945 41.7691L0 41.7691L16.806 0L25.132 0L41.938 41.7691L20.969 41.7691L20.9691 41.7691Z" style="fill:#1E1E1C;mix-blend-mode:normal;" transform="translate(577.728 0)" />
        <path id="Path" d="M0 41.7691L0 0L8.32593 0L33.4579 29.6376L33.4579 0L41.7839 0L41.7839 41.7691L33.4579 41.7691L8.32593 13.0528L8.32593 41.7691L0 41.7691L0 41.7691Z" style="fill:#1E1E1C;mix-blend-mode:normal;" transform="translate(660.216 0)" />
      </g>
    </g>
  </g>
</svg>