<?xml version="1.0" encoding="utf-8"?>
<svg width="455.3" height="371.1" viewBox="0 0 455.3 371.1" fill="none" stroke="none" version="1.1" xmlns:xlink="http://www.w3.org/1999/xlink" xmlns="http://www.w3.org/2000/svg">
  <g id="Group">
    <g id="Group" transform="translate(0 290.5)">
      <path id="Path" d="M27.2 5.39999L5.4 5.39999L5.4 10.8L27.2 10.8L27.2 27.1L0 27.1L0 21.7L21.8 21.7L21.8 16.3L0 16.3L0 0L27.2 0L27.2 5.39999L27.2 5.39999Z" style="fill:#FFFFFF;mix-blend-mode:normal;" transform="translate(0 0.1)" />
      <path id="Path" d="M0 0L27.2 0L27.2 5.39999L16.3 5.39999L16.3 27.2L10.9 27.2L10.9 5.39999L0 5.39999L0 0L0 0Z" style="fill:#FFFFFF;mix-blend-mode:normal;" transform="translate(53.6 0)" />
      <path id="Path" d="M5.39999 16.4L5.39999 21.8L27.2 21.8L27.2 27.2L0 27.2L0 0L27.2 0L27.2 5.39999L5.39999 5.39999L5.39999 10.8L21.7 10.8L21.7 16.2L5.39999 16.2L5.39999 16.4Z" style="fill:#FFFFFF;mix-blend-mode:normal;" transform="translate(107.1 0)" />
      <path id="Shape" d="M10.8 16.3L5.39999 16.3L5.39999 27.2L0 27.2L0 0L27.2 0L27.2 16.3L17.6 16.3L27.2 27.2L20.5 27.2L10.9 16.3L10.8 16.3ZM5.29999 5.40002L5.29999 10.8L21.6 10.8L21.6 5.40002L5.29999 5.40002L5.29999 5.40002Z" style="fill:#FFFFFF;mix-blend-mode:normal;" transform="translate(160.7 0.1)" />
      <path id="Path" d="M13.6 27.2L13.6 21.8L18.9 21.8L13.6 8.20001L6.20001 27.2L0 27.2L10.9 0L16.3 0L27.2 27.2L13.6 27.2L13.6 27.2Z" style="fill:#FFFFFF;mix-blend-mode:normal;" transform="translate(214.1 0)" />
      <path id="Shape" d="M0 27.2L0 0L21.8 0L27.2 5.39999L27.2 21.7L21.8 27.1L0 27.1L0 27.2ZM5.5 21.8L19.1 21.8L21.8 19.1L21.8 8.5L19.1 5.5L5.5 5.5L5.5 21.8L5.5 21.8Z" style="fill:#FFFFFF;mix-blend-mode:normal;" transform="translate(267.6 0)" />
      <path id="Path" d="M5.39999 0L5.39999 27.2L0 27.2L0 0L5.39999 0L5.39999 0Z" style="fill:#FFFFFF;mix-blend-mode:normal;" transform="translate(332.1 0)" />
      <path id="Path" d="M13.6 27.2L13.6 21.8L18.9 21.8L13.6 8.20001L6.20001 27.2L0 27.2L10.9 0L16.3 0L27.2 27.2L13.6 27.2L13.6 27.2Z" style="fill:#FFFFFF;mix-blend-mode:normal;" transform="translate(374.7 0)" />
      <path id="Path" d="M0 27.2L0 0L5.39999 0L21.7 19.3L21.7 0L27.1 0L27.1 27.2L21.7 27.2L5.39999 8.5L5.39999 27.2L0 27.2L0 27.2Z" style="fill:#FFFFFF;mix-blend-mode:normal;" transform="translate(428.2 0)" />
    </g>
    <g id="Group" transform="translate(89.4 346.7)">
      <path id="Shape" d="M20.8 23.2L18.8 23.2L16 15.7C16 15.7 4.5 15.7 4.5 15.7C4.10001 16.9 3.60001 18.1 3.2 19.4C2.7 20.7 2.3 22 1.8 23.2C1.8 23.2 0 23.2 0 23.2C0.800003 21.2 1.5 19.2 2.3 17.3C3 15.4 3.8 13.5 4.5 11.6C5.2 9.70001 6 7.80002 6.7 5.89999C7.39999 4 8.2 2 9 0C9 0 11.4 0 11.4 0L20.9 23.3L20.8 23.2ZM15.5 14.4L10.1 1.5L5 14.4L15.5 14.4L15.5 14.4Z" style="fill:#FFFFFF;mix-blend-mode:normal;" transform="translate(0 0.7)" />
      <path id="Path" d="M9.04444 23.6C7.64445 23.6 6.44444 23.5 5.44444 23.2C4.44444 22.9 3.64443 22.5 2.94444 22C2.24444 21.5 1.74444 20.9 1.34443 20.3C0.944435 19.6 0.644432 18.9 0.444435 18.2C0.244438 17.4 0.144432 16.7 0.0444412 15.9C-0.0555496 15.1 0.0444412 14.3 0.0444412 13.5C0.0444412 13.5 0.0444412 0 0.0444412 0L1.74444 0C1.74444 0 1.74444 13.4 1.74444 13.4C1.74444 15.2 1.94444 16.6 2.24444 17.7C2.54444 18.8 3.04444 19.7 3.64443 20.3C4.24444 20.9 5.04443 21.3 5.94444 21.6C6.84443 21.8 7.84443 21.9 8.94444 21.9C10.0444 21.9 11.1444 21.8 12.0444 21.6C12.9445 21.4 13.7444 20.9 14.3444 20.3C14.9445 19.7 15.4445 18.8 15.7444 17.7C16.0444 16.6 16.2444 15.2 16.2444 13.4C16.2444 13.4 16.2444 0 16.2444 0L17.9444 0C17.9444 0 17.9444 13.5 17.9444 13.5C17.9444 15.1 17.8444 16.5 17.5444 17.8C17.2444 19.1 16.8444 20.1 16.1444 21C15.4445 21.9 14.5444 22.5 13.4445 23C12.3444 23.5 10.8444 23.7 9.04446 23.7C9.04446 23.7 9.04444 23.6 9.04444 23.6Z" style="fill:#FFFFFF;mix-blend-mode:normal;" transform="translate(33.056 0.7)" />
      <path id="Path" d="M17.9 1.70001L9.8 1.70001L9.8 23.3L8.10001 23.3L8.10001 1.70001L0 1.70001L0 0L17.9 0L17.9 1.70001L17.9 1.70001Z" style="fill:#FFFFFF;mix-blend-mode:normal;" transform="translate(63.8 0.6)" />
      <path id="Shape" d="M11 0.200012C12.6 0.200012 14.1 0.5 15.4 1C16.7 1.5 17.9 2.39999 18.9 3.39999C19.9 4.39999 20.6 5.69998 21.2 7.19998C21.7 8.69998 22 10.3 22 12.1C22 13.9 21.7 15.5 21.2 17C20.7 18.5 19.9 19.8 18.9 20.8C17.9 21.9 16.8 22.7 15.4 23.3C14.1 23.9 12.6 24.2 11 24.2C9.40001 24.2 7.89999 23.9 6.60001 23.3C5.3 22.7 4.10001 21.9 3.10001 20.8C2.10001 19.7 1.40001 18.5 0.800003 17C0.199997 15.5 0 13.9 0 12C0 10.1 0.300003 8.49997 0.800003 6.99997C1.3 5.49997 2.10001 4.29996 3.10001 3.19998C4.10001 2.19998 5.20001 1.39999 6.60001 0.799988C7.90001 0.199982 9.40001 0 11 0C11 0 11 0.200012 11 0.200012ZM11 22.6C12.3 22.6 13.6 22.4 14.7 21.9C15.8 21.4 16.8 20.8 17.6 19.9C18.4 19 19.1 17.9 19.5 16.6C19.9 15.3 20.2 13.8 20.2 12.2C20.2 10.6 20 9.10001 19.5 7.80002C19 6.50003 18.4 5.50003 17.6 4.60001C16.8 3.69998 15.8 3.10001 14.7 2.60001C13.6 2.20001 12.4 1.89999 11.1 1.89999C9.8 1.89999 8.5 2.10001 7.40001 2.60001C6.3 3.10001 5.3 3.70001 4.50002 4.60001C3.70001 5.5 3.00002 6.5 2.60002 7.80002C2.10002 9.10001 1.90002 10.5 1.90002 12.2C1.90002 13.9 2.10002 15.3 2.60002 16.6C3.10002 17.9 3.70003 19 4.50002 19.9C5.3 20.8 6.30002 21.5 7.40001 21.9C8.50002 22.4 9.8 22.6 11.1 22.6C11.1 22.6 11 22.6 11 22.6Z" style="fill:#FFFFFF;mix-blend-mode:normal;" transform="translate(93.4 0)" />
      <path id="Path" d="M21.9 23.3L20.2 23.3L20.2 2.79999L11.8 23.3L10 23.3L1.70001 2.79999L1.70001 23.3L0 23.3L0 0L2.5 0L11 21.1L19.5 0L21.9 0L21.9 23.3L21.9 23.3Z" style="fill:#FFFFFF;mix-blend-mode:normal;" transform="translate(128.8 0.6)" />
      <path id="Shape" d="M20.8 23.2L18.8 23.2L16 15.7C16 15.7 4.49997 15.7 4.49997 15.7C4.09998 16.9 3.59998 18.1 3.19998 19.4C2.69998 20.7 2.29999 22 1.79999 23.2C1.79999 23.2 0 23.2 0 23.2C0.799988 21.2 1.5 19.2 2.29999 17.3C3 15.4 3.79999 13.5 4.5 11.6C5.20001 9.70001 6 7.80002 6.70001 5.89999C7.40002 4 8.20001 2 9 0C9 0 11.4 0 11.4 0L20.9 23.3L20.8 23.2ZM15.5 14.4L10.1 1.5L4.99997 14.4L15.5 14.4L15.5 14.4Z" style="fill:#FFFFFF;mix-blend-mode:normal;" transform="translate(162.8 0.7)" />
      <path id="Path" d="M17.9 1.70001L9.80002 1.70001L9.80002 23.3L8.10001 23.3L8.10001 1.70001L0 1.70001L0 0L17.9 0L17.9 1.70001L17.9 1.70001Z" style="fill:#FFFFFF;mix-blend-mode:normal;" transform="translate(194.1 0.6)" />
      <path id="Path" d="M1.70001 23.3L0 23.3L0 0L1.70001 0L1.70001 23.3L1.70001 23.3Z" style="fill:#FFFFFF;mix-blend-mode:normal;" transform="translate(225.6 0.6)" />
      <path id="Shape" d="M11 0.200012C12.6 0.200012 14.1 0.5 15.3999 1C16.7 1.5 17.8999 2.39999 18.8999 3.39999C19.9 4.39999 20.6 5.69998 21.1999 7.19998C21.7 8.69998 21.9999 10.3 21.9999 12.1C21.9999 13.9 21.7 15.5 21.1999 17C20.7 18.5 19.9 19.8 18.8999 20.8C17.8999 21.9 16.7999 22.7 15.3999 23.3C14.1 23.9 12.6 24.2 11 24.2C9.39996 24.2 7.89996 23.9 6.59998 23.3C5.29999 22.7 4.09998 21.9 3.09998 20.8C2.09998 19.7 1.39996 18.5 0.799988 17C0.200012 15.5 0 13.9 0 12C0 10.1 0.299988 8.49997 0.799988 6.99997C1.29999 5.49997 2.09998 4.29996 3.09998 3.19998C4.09998 2.19998 5.19998 1.39999 6.59998 0.799988C7.89996 0.199982 9.39996 0 11 0C11 0 11 0.200012 11 0.200012ZM11 22.6C12.3 22.6 13.6 22.4 14.7 21.9C15.8 21.4 16.8 20.8 17.6 19.9C18.3999 19 19.1 17.9 19.5 16.6C19.9 15.3 20.2 13.8 20.2 12.2C20.2 10.6 20 9.10001 19.5 7.80002C19 6.50003 18.3999 5.50003 17.6 4.60001C16.8 3.69998 15.8 3.10001 14.7 2.60001C13.6 2.20001 12.4 1.89999 11.1 1.89999C9.79996 1.89999 8.49997 2.10001 7.39996 2.60001C6.29996 3.10001 5.29996 3.70001 4.49997 4.60001C3.69998 5.5 2.99997 6.5 2.59998 7.80002C2.09998 9.10001 1.89996 10.5 1.89996 12.2C1.89996 13.9 2.09998 15.3 2.59998 16.6C3.09998 17.9 3.69998 19 4.49997 19.9C5.29996 20.8 6.29996 21.5 7.39996 21.9C8.49997 22.4 9.79996 22.6 11.1 22.6C11.1 22.6 11 22.6 11 22.6Z" style="fill:#FFFFFF;mix-blend-mode:normal;" transform="translate(241.6 0)" />
      <path id="Path" d="M18.1 23.3L15.9 23.3L1.70001 2.09998L1.70001 23.3L0 23.3L0 0L2.29999 0L16.4 21.2L16.4 0L18.1 0L18.1 23.3L18.1 23.3Z" style="fill:#FFFFFF;mix-blend-mode:normal;" transform="translate(277 0.6)" />
    </g>
    <g id="Group" transform="translate(128.3 0)">
      <path id="Polygon" d="M146.5 0L73.3 0L0 131.9L73.2 131.9L146.5 0L146.5 0Z" style="fill:#FFFFFF;fill-rule:evenodd;mix-blend-mode:normal;" />
      <path id="Polygon" d="M146.6 0L73.3 0L0 131.9L73.3 131.9L146.6 0L146.6 0Z" style="fill:#FFFFFF;fill-rule:evenodd;mix-blend-mode:normal;" transform="translate(43.2 107.4)" />
      <path id="Circle" d="M0 29.2C0 13.0733 13.0733 0 29.2 0C45.3267 0 58.4 13.0733 58.4 29.2C58.4 45.3267 45.3267 58.4 29.2 58.4C13.0733 58.4 0 45.3267 0 29.2Z" style="fill:#FFFFFF;fill-rule:evenodd;mix-blend-mode:normal;" transform="translate(166.7 180.9)" />
    </g>
  </g>
</svg>