<?xml version="1.0" encoding="utf-8"?>
<svg width="996" height="239.3" viewBox="0 0 996 239.3" fill="none" stroke="none" version="1.1" xmlns:xlink="http://www.w3.org/1999/xlink" xmlns="http://www.w3.org/2000/svg">
  <g id="Group">
    <g id="Group" transform="translate(294 58)">
      <g id="Group">
        <path id="Path" d="M41.9381 8.28586L8.32594 8.28586L8.32594 16.5717L41.9381 16.5717L41.9381 41.5828L0 41.5828L0 33.2969L33.6121 33.2969L33.6121 25.011L0 25.011L0 0L41.9381 0L41.9381 8.28586L41.9381 8.28586Z" style="fill:#FFFFFF;mix-blend-mode:normal;" transform="translate(0 0.153)" />
        <path id="Path" d="M0 0L41.9381 0L41.9381 8.28586L25.132 8.28586L25.132 41.7362L16.8061 41.7362L16.8061 8.28586L0 8.28586L0 0L0 0Z" style="fill:#FFFFFF;mix-blend-mode:normal;" transform="translate(82.643 0)" />
        <path id="Path" d="M8.32593 25.1645L8.32593 33.4504L41.9381 33.4504L41.9381 41.7363L0 41.7363L0 0L41.9381 0L41.9381 8.28586L8.32593 8.28586L8.32593 16.5717L33.4579 16.5717L33.4579 24.8576L8.32593 24.8576L8.32593 25.1645Z" style="fill:#FFFFFF;mix-blend-mode:normal;" transform="translate(165.131 0)" />
        <path id="Shape" d="M16.6519 25.0111L8.32594 25.0111L8.32594 41.7363L0 41.7363L0 0L41.9381 0L41.9381 25.011L27.1364 25.011L41.9381 41.7362L31.6077 41.7362L16.806 25.011L16.6519 25.0111ZM8.17172 8.28592L8.17172 16.5718L33.3037 16.5718L33.3037 8.28592L8.17172 8.28592L8.17172 8.28592Z" style="fill:#FFFFFF;mix-blend-mode:normal;" transform="translate(247.774 0.153)" />
        <path id="Path" d="M20.969 41.7363L20.969 33.4504L29.1408 33.4504L20.969 12.5823L9.55942 41.7363L0 41.7363L16.806 0L25.132 0L41.938 41.7363L20.969 41.7363L20.969 41.7363Z" style="fill:#FFFFFF;mix-blend-mode:normal;" transform="translate(330.108 0)" />
        <path id="Shape" d="M0 41.7363L0 0L33.6121 0L41.938 8.28586L41.938 33.2969L33.6121 41.5828L0 41.5828L0 41.7363ZM8.4801 33.4504L29.4491 33.4504L33.6121 29.3075L33.6121 13.0426L29.4491 8.43932L8.4801 8.43932L8.4801 33.4504L8.4801 33.4504Z" style="fill:#FFFFFF;mix-blend-mode:normal;" transform="translate(412.597 0)" />
        <path id="Path" d="M8.32593 0L8.32593 41.7363L0 41.7363L0 0L8.32593 0L8.32593 0Z" style="fill:#FFFFFF;mix-blend-mode:normal;" transform="translate(512.045 0)" />
        <path id="Path" d="M20.9691 41.7363L20.9691 33.4504L29.1408 33.4504L20.9691 12.5823L9.55945 41.7363L0 41.7363L16.806 0L25.132 0L41.938 41.7363L20.969 41.7363L20.9691 41.7363Z" style="fill:#FFFFFF;mix-blend-mode:normal;" transform="translate(577.728 0)" />
        <path id="Path" d="M0 41.7363L0 0L8.32593 0L33.4579 29.6143L33.4579 0L41.7839 0L41.7839 41.7363L33.4579 41.7363L8.32593 13.0426L8.32593 41.7363L0 41.7363L0 41.7363Z" style="fill:#FFFFFF;mix-blend-mode:normal;" transform="translate(660.216 0)" />
      </g>
      <g id="Group" transform="translate(1.288 87.56)">
        <path id="Shape" d="M32.0703 35.5986L28.9866 35.5986L24.6695 24.0904C24.6695 24.0904 6.93828 24.0904 6.93828 24.0904C6.32156 25.9317 5.55064 27.773 4.93389 29.7678C4.16297 31.7625 3.54624 33.7573 2.77532 35.5986C2.77532 35.5986 0 35.5986 0 35.5986C1.23348 32.5297 2.31276 29.4609 3.54624 26.5455C4.62552 23.6301 5.859 20.7147 6.93828 17.7993C8.01757 14.8839 9.25104 11.9685 10.3303 9.05307C11.4096 6.13768 12.6431 3.06884 13.8766 0C13.8766 0 17.577 0 17.577 0L32.2245 35.752L32.0703 35.5986ZM23.8985 22.0956L15.5726 2.30163L7.7092 22.0956L23.8985 22.0956L23.8985 22.0956Z" style="fill:#FFFFFF;mix-blend-mode:normal;" transform="translate(0 1.074)" />
        <path id="Path" d="M13.9451 36.2123C11.7865 36.2123 9.93629 36.0589 8.39445 35.5986C6.85261 35.1383 5.61913 34.5245 4.53985 33.7573C3.46056 32.99 2.68964 32.0694 2.0729 31.1487C1.45617 30.0746 0.99361 29.0005 0.685249 27.9264C0.376884 26.6989 0.222691 25.6248 0.0685196 24.3973C-0.0856476 23.1698 0.0685196 21.9422 0.0685196 20.7147C0.0685196 20.7147 0.0685196 0 0.0685196 0L2.68964 0C2.68964 0 2.68964 20.5612 2.68964 20.5612C2.68964 23.3232 2.99801 25.4714 3.46056 27.1592C3.92312 28.8471 4.69404 30.2281 5.61913 31.1487C6.54425 32.0694 7.7777 32.6831 9.16537 33.1435C10.553 33.4504 12.0949 33.6038 13.7909 33.6038C15.4869 33.6038 17.1829 33.4503 18.5706 33.1435C19.9583 32.8366 21.1917 32.0693 22.1168 31.1487C23.042 30.2281 23.8129 28.8471 24.2754 27.1592C24.738 25.4713 25.0463 23.3232 25.0463 20.5612C25.0463 20.5612 25.0463 0 25.0463 0L27.6675 0C27.6675 0 27.6675 20.7147 27.6675 20.7147C27.6675 23.1698 27.5133 25.3179 27.0507 27.3127C26.5882 29.3074 25.9715 30.8418 24.8922 32.2228C23.8129 33.6039 22.4252 34.5245 20.7292 35.2917C19.0332 36.0589 16.7204 36.3658 13.9451 36.3658C13.9451 36.3658 13.9451 36.2123 13.9451 36.2123Z" style="fill:#FFFFFF;mix-blend-mode:normal;" transform="translate(50.966 1.074)" />
        <path id="Path" d="M27.599 2.60853L15.11 2.60853L15.11 35.752L12.4889 35.752L12.4889 2.60853L0 2.60853L0 0L27.5989 0L27.5989 2.60853L27.599 2.60853Z" style="fill:#FFFFFF;mix-blend-mode:normal;" transform="translate(98.369 0.921)" />
        <path id="Shape" d="M16.9603 0.306903C19.4272 0.306903 21.74 0.76721 23.7443 1.53442C25.7487 2.30163 27.5989 3.6826 29.1408 5.21702C30.6826 6.75144 31.7619 8.74617 32.687 11.0478C33.4579 13.3494 33.9204 15.8045 33.9204 18.5665C33.9204 21.3284 33.4579 23.7835 32.687 26.0851C31.9161 28.3867 30.6826 30.3815 29.1408 31.9159C27.5989 33.6038 25.9029 34.8313 23.7443 35.7519C21.7399 36.6726 19.4272 37.1329 16.9603 37.1329C14.4933 37.1329 12.1805 36.6726 10.1762 35.7519C8.17175 34.8313 6.32155 33.6038 4.77971 31.9159C3.23787 30.228 2.15858 28.3867 1.23347 26.0851C0.308365 23.7835 0 21.3284 0 18.413C0 15.4976 0.462555 13.0425 1.23347 10.7409C2.00439 8.43927 3.23787 6.59794 4.77971 4.91012C6.32155 3.3757 8.01759 2.14818 10.1762 1.22752C12.1806 0.306856 14.4933 0 16.9603 0C16.9603 0 16.9603 0.306903 16.9603 0.306903ZM16.9602 34.6779C18.9646 34.6779 20.969 34.371 22.665 33.6038C24.3611 32.8366 25.9029 31.9159 27.1364 30.535C28.3699 29.154 29.4492 27.4661 30.0659 25.4714C30.6826 23.4767 31.1452 21.175 31.1452 18.72C31.1452 16.2649 30.8368 13.9632 30.0659 11.9685C29.295 9.97378 28.3698 8.43936 27.1364 7.05834C25.9029 5.67733 24.3611 4.75671 22.6651 3.9895C20.969 3.37574 19.1188 2.91539 17.1144 2.91539C15.11 2.91539 13.1056 3.22229 11.4096 3.9895C9.71359 4.75671 8.17175 5.67737 6.93831 7.05834C5.70483 8.43931 4.62555 9.97373 4.00882 11.9685C3.2379 13.9632 2.92953 16.1115 2.92953 18.72C2.92953 21.3284 3.2379 23.4767 4.00882 25.4714C4.77974 27.4661 5.70485 29.154 6.93831 30.535C8.17175 31.9159 9.71362 32.99 11.4096 33.6038C13.1057 34.371 15.11 34.6779 17.1144 34.6779C17.1144 34.6779 16.9602 34.6779 16.9602 34.6779Z" style="fill:#FFFFFF;mix-blend-mode:normal;" transform="translate(144.008 0)" />
        <path id="Path" d="M33.7663 35.752L31.1452 35.752L31.1452 4.29636L18.1937 35.752L15.4184 35.752L2.62115 4.29636L2.62115 35.752L0 35.752L0 0L3.8546 0L16.9603 32.3763L30.0659 0L33.7663 0L33.7663 35.752L33.7663 35.752Z" style="fill:#FFFFFF;mix-blend-mode:normal;" transform="translate(198.589 0.921)" />
        <path id="Shape" d="M32.0702 35.5986L28.9866 35.5986L24.6694 24.0904C24.6694 24.0904 6.93825 24.0904 6.93825 24.0904C6.32152 25.9317 5.55058 27.773 4.93387 29.7678C4.16295 31.7625 3.54622 33.7573 2.7753 35.5986C2.7753 35.5986 0 35.5986 0 35.5986C1.23346 32.5297 2.31276 29.4609 3.54622 26.5455C4.62552 23.6301 5.85896 20.7147 6.93828 17.7993C8.01759 14.8839 9.25105 11.9685 10.3304 9.05307C11.4097 6.13768 12.6431 3.06884 13.8766 0C13.8766 0 17.577 0 17.577 0L32.2245 35.752L32.0702 35.5986ZM23.8985 22.0956L15.5726 2.30163L7.70915 22.0956L23.8985 22.0956L23.8985 22.0956Z" style="fill:#FFFFFF;mix-blend-mode:normal;" transform="translate(251.012 1.074)" />
        <path id="Path" d="M27.599 2.60853L15.11 2.60853L15.11 35.752L12.4889 35.752L12.4889 2.60853L0 2.60853L0 0L27.5989 0L27.5989 2.60853L27.599 2.60853Z" style="fill:#FFFFFF;mix-blend-mode:normal;" transform="translate(299.271 0.921)" />
        <path id="Path" d="M2.62115 35.752L0 35.752L0 0L2.62115 0L2.62115 35.752L2.62115 35.752Z" style="fill:#FFFFFF;mix-blend-mode:normal;" transform="translate(347.839 0.921)" />
        <path id="Shape" d="M16.9602 0.306903C19.4272 0.306903 21.7399 0.76721 23.7443 1.53442C25.7487 2.30163 27.5989 3.6826 29.1407 5.21702C30.6826 6.75144 31.7619 8.74617 32.6869 11.0478C33.4579 13.3494 33.9204 15.8045 33.9204 18.5665C33.9204 21.3284 33.4579 23.7835 32.6869 26.0851C31.916 28.3867 30.6826 30.3815 29.1407 31.9159C27.5989 33.6038 25.9028 34.8313 23.7443 35.7519C21.7399 36.6726 19.4272 37.1329 16.9602 37.1329C14.4932 37.1329 12.1805 36.6726 10.1761 35.7519C8.17172 34.8313 6.3215 33.6038 4.77966 31.9159C3.23782 30.228 2.15851 28.3867 1.23346 26.0851C0.30838 23.7835 0 21.3284 0 18.413C0 15.4976 0.462524 13.0425 1.23346 10.7409C2.00436 8.43927 3.23782 6.59794 4.77966 4.91012C6.3215 3.3757 8.01755 2.14818 10.1761 1.22752C12.1805 0.306856 14.4932 0 16.9602 0C16.9602 0 16.9602 0.306903 16.9602 0.306903ZM16.9602 34.6779C18.9646 34.6779 20.969 34.371 22.665 33.6038C24.3611 32.8366 25.9029 31.9159 27.1364 30.535C28.3698 29.154 29.4491 27.4661 30.0658 25.4714C30.6826 23.4767 31.1451 21.175 31.1451 18.72C31.1451 16.2649 30.8368 13.9632 30.0658 11.9685C29.2949 9.97378 28.3698 8.43936 27.1364 7.05834C25.9029 5.67733 24.3611 4.75671 22.665 3.9895C20.969 3.37574 19.1188 2.91539 17.1144 2.91539C15.11 2.91539 13.1056 3.22229 11.4096 3.9895C9.71353 4.75671 8.17169 5.67737 6.93826 7.05834C5.7048 8.43931 4.62549 9.97373 4.00876 11.9685C3.23785 13.9632 2.92944 16.1115 2.92944 18.72C2.92944 21.3284 3.23785 23.4767 4.00876 25.4714C4.77969 27.4661 5.7048 29.154 6.93826 30.535C8.17169 31.9159 9.71353 32.99 11.4096 33.6038C13.1056 34.371 15.11 34.6779 17.1144 34.6779C17.1144 34.6779 16.9602 34.6779 16.9602 34.6779Z" style="fill:#FFFFFF;mix-blend-mode:normal;" transform="translate(372.509 0)" />
        <path id="Path" d="M27.9074 35.752L24.5153 35.752L2.62115 3.22225L2.62115 35.752L0 35.752L0 0L3.5462 0L25.2862 32.5297L25.2862 0L27.9073 0L27.9073 35.752L27.9074 35.752Z" style="fill:#FFFFFF;mix-blend-mode:normal;" transform="translate(427.09 0.921)" />
      </g>
    </g>
    <g id="Group">
      <path id="Polygon" d="M146.5 0L73.3 0L0 131.9L73.2 131.9L146.5 0L146.5 0Z" style="fill:#FFFFFF;fill-rule:evenodd;mix-blend-mode:normal;" />
      <path id="Polygon" d="M146.6 0L73.3 0L0 131.9L73.3 131.9L146.6 0L146.6 0Z" style="fill:#FFFFFF;fill-rule:evenodd;mix-blend-mode:normal;" transform="translate(43.2 107.4)" />
      <path id="Circle" d="M0 29.2C0 13.0733 13.0733 0 29.2 0C45.3267 0 58.4 13.0733 58.4 29.2C58.4 45.3267 45.3267 58.4 29.2 58.4C13.0733 58.4 0 45.3267 0 29.2Z" style="fill:#FFFFFF;fill-rule:evenodd;mix-blend-mode:normal;" transform="translate(166.7 180.9)" />
    </g>
  </g>
</svg>