<?xml version="1.0" encoding="utf-8"?>

<!DOCTYPE svg PUBLIC "-//W3C//DTD SVG 1.1//EN" "http://www.w3.org/Graphics/SVG/1.1/DTD/svg11.dtd">
<!-- Uploaded to: SVG Repo, www.svgrepo.com, Generator: SVG Repo Mixer Tools -->
<svg stroke="text-slate-500" fill="currentColor" stroke-width="2" viewBox="0 0 16 16" class="inline text-slate-500 hover:text-teal-500  duration-500 hover:scale-150 hover:dura" height="30" width="30" xmlns="http://www.w3.org/2000/svg"><title>envoyer</title><path d="M15.964.686a.5.5 0 0 0-.65-.65L.767 5.855H.766l-.452.18a.5.5 0 0 0-.082.887l.41.26.001.002 4.995 3.178 3.178 4.995.002.002.26.41a.5.5 0 0 0 .886-.083l6-15Zm-1.833 1.89L6.637 10.07l-.215-.338a.5.5 0 0 0-.154-.154l-.338-.215 7.494-7.494 1.178-.471-.47 1.178Z"></path></svg>

