<?xml version="1.0" encoding="utf-8"?>
<svg width="731.83" height="317.788" viewBox="0 0 731.83 317.788" fill="none" stroke="none" version="1.1" xmlns:xlink="http://www.w3.org/1999/xlink" xmlns="http://www.w3.org/2000/svg">
  <g id="Group" transform="matrix(1 0 0 -1 0 317.788)">
    <path id="Shape" d="M106.941 317.333C10.1412 316.667 14.1412 316.933 7.20784 309.067C-0.525497 300.267 0.00783594 310.133 0.00783594 174.267C0.00783594 35.8667 -0.525497 44.1333 9.0745 36.2667C16.4078 30.4 18.5412 29.7333 36.0078 26.5333C54.4078 23.2 59.3412 22.2667 70.6745 19.3333C75.4745 18.1333 83.8745 16.2667 89.3412 15.3333C94.8078 14.2667 103.608 12.5333 108.675 11.3333C113.875 10.1333 120.675 8.8 124.008 8.13333C127.341 7.6 131.341 6.4 132.941 5.6C134.541 4.66667 139.208 4 143.341 4C147.341 4 152.941 3.06667 155.608 2C158.275 0.933333 164.408 0 169.608 0C176.941 0 179.608 0.533333 182.808 2.93333C188.541 7.2 193.341 16.1333 193.341 22.5333C193.341 28.6667 193.875 28.9333 206.408 29.0667C219.075 29.2 228.275 35.0667 232.675 46C234.675 50.6667 234.808 63.0667 234.541 173.867C234.275 287.2 234.008 297.067 231.875 302C229.475 307.467 226.141 311.067 219.608 315.2C214.808 318.133 215.608 318.133 106.941 317.333C106.941 317.333 106.941 317.333 106.941 317.333ZM215.341 312.8C220.408 310.667 228.941 301.333 230.275 296.4C230.941 294.267 231.341 238.4 231.341 172C231.341 172 231.341 51.3333 231.341 51.3333C231.341 51.3333 227.341 45.3333 227.341 45.3333C221.875 37.2 214.541 33.4667 204.408 33.2C199.875 33.0667 195.608 33.4667 194.808 33.8667C193.741 34.5333 193.341 65.7333 193.341 145.467C193.341 255.867 193.341 256.133 190.541 261.733C185.341 271.867 180.275 278.267 175.475 280.533C172.941 281.733 170.408 283.333 170.008 284C169.608 284.8 167.208 285.333 164.674 285.333C162.141 285.333 158.541 286 156.541 286.8C154.408 287.467 147.741 288.667 141.475 289.467C125.208 291.2 104.675 294.267 96.0078 296C73.3412 300.667 60.6745 302.667 54.4078 302.667C46.5412 302.8 33.0745 306.667 32.2745 309.2C32.0078 310 32.1412 311.6 32.5412 312.8C33.2078 314.533 44.2745 314.8 122.275 314.667C190.941 314.533 212.141 314.133 215.341 312.8C215.341 312.8 215.341 312.8 215.341 312.8ZM74.2745 247.067C78.8078 242.133 110.941 202.8 119.608 191.6C122.008 188.533 124.675 185.2 125.475 184.267C126.275 183.2 130.808 178 135.475 172.533C144.008 162.4 146.541 156.533 144.674 150.4C143.608 146.933 140.941 144.267 126.008 132C120.275 127.2 112.275 120.267 108.141 116.667C104.008 112.933 95.3412 105.467 88.6745 100C82.1412 94.6667 74.9412 88.4 72.6745 86.2667C67.6078 81.4667 60.2745 78.2667 56.2745 79.3333C51.6078 80.5333 42.6745 89.8667 42.6745 93.7333C42.6745 99.3333 45.2078 104.667 49.6078 108C51.8745 109.867 54.6745 112.267 55.8745 113.333C61.2078 118.133 75.6078 130.4 79.3412 133.2C81.6078 134.8 85.8745 138.533 88.9412 141.467C92.0079 144.267 94.8078 146.667 95.3412 146.667C96.4078 146.667 106.675 156.533 106.675 157.6C106.675 158.133 102.941 163.067 98.4078 168.533C93.7412 174.133 85.8745 183.733 80.6745 190.133C75.6078 196.533 69.0745 204.4 66.1412 207.867C50.8078 226.4 52.0078 224.8 48.2745 230.933C45.3412 235.733 45.2078 242.667 48.1412 242.667C48.8078 242.667 49.3412 243.467 49.3412 244.533C49.3412 248.4 56.0078 252 62.9412 252C68.9412 252 70.1412 251.467 74.2745 247.067C74.2745 247.067 74.2745 247.067 74.2745 247.067ZM94.6745 235.867C94.6745 233.467 94.4078 233.333 92.6745 234.667C91.6078 235.6 90.6745 236.8 90.6745 237.467C90.6745 238.133 91.6078 238.667 92.6745 238.667C93.8745 238.667 94.6745 237.467 94.6745 235.867C94.6745 235.867 94.6745 235.867 94.6745 235.867ZM61.7412 202.667C62.1412 201.2 61.8745 200 61.2078 200C60.5412 200 60.0078 200.267 60.0078 200.533C60.0078 200.8 59.6078 202 59.2078 203.2C58.8078 204.4 58.9412 205.333 59.7412 205.333C60.4078 205.333 61.3412 204.133 61.7412 202.667C61.7412 202.667 61.7412 202.667 61.7412 202.667ZM138.141 181.6C136.808 180.267 134.275 183.6 135.341 185.333C136.141 186.533 136.675 186.4 137.608 184.8C138.408 183.467 138.541 182.133 138.141 181.6C138.141 181.6 138.141 181.6 138.141 181.6ZM107.341 101.333C107.741 100.667 106.941 100 105.341 100C103.741 100 102.941 100.667 103.341 101.333C103.741 102.133 104.675 102.667 105.341 102.667C106.008 102.667 106.941 102.133 107.341 101.333C107.341 101.333 107.341 101.333 107.341 101.333ZM156.008 97.3333C156.008 96.6667 155.075 96 154.008 96C152.941 96 152.008 96.6667 152.008 97.3333C152.008 98.1333 152.941 98.6667 154.008 98.6667C155.075 98.6667 156.008 98.1333 156.008 97.3333C156.008 97.3333 156.008 97.3333 156.008 97.3333ZM118.675 93.3333C121.208 92.6667 129.075 91.4667 136.008 90.5333C142.941 89.7333 150.941 88.8 153.608 88.4C162.808 87.2 167.741 78 162.541 71.4667C158.141 65.8667 155.208 65.3333 140.541 67.4667C133.341 68.5333 123.741 69.8667 119.341 70.2667C107.608 71.4667 103.208 73.7333 101.341 79.3333C100.008 83.2 100.141 84.5333 102.141 87.8667C105.875 94.1333 110.275 95.6 118.675 93.3333C118.675 93.3333 118.675 93.3333 118.675 93.3333ZM172.408 66.8C172.808 64.9333 172.408 64.5333 170.541 64.9333C169.075 65.3333 168.008 66.5333 168.008 67.4667C168.008 70.2667 171.608 69.7333 172.408 66.8C172.408 66.8 172.408 66.8 172.408 66.8Z" style="fill:#5FA8EC;mix-blend-mode:normal;" />
    <path id="Path" d="M15.0667 69.3316C9.86664 67.0649 5.33331 60.2649 5.33331 54.5316C5.33331 52.1316 4.26666 49.4649 2.66669 47.9982C1.20001 46.6649 0 44.7982 0 43.9982C0 43.0649 1.20001 41.9982 2.66669 41.5982C5.20001 40.9316 5.33331 39.7316 5.33331 22.2649C5.33331 6.79825 5.73334 3.19824 7.46667 1.33157C9.06665 -0.268417 10 -0.401764 11.4667 0.798248C12.9333 1.99825 13.3333 6.6649 13.3333 20.6649C13.3333 39.7316 13.7333 41.1982 19.3333 42.2649C20.8 42.5316 22 43.5982 22 44.6649C22 45.7316 20.8 46.7982 19.3333 47.0649C14.9333 47.9982 13.3333 50.1316 13.3333 55.3316C13.3333 60.5316 16.4 64.6649 20.5333 64.6649C23.4667 64.6649 24.9333 68.5316 22.5333 70.1316C20.1334 71.5983 20.1334 71.5983 15.0667 69.3316C15.0667 69.3316 15.0667 69.3316 15.0667 69.3316Z" style="fill:#5FA8EC;mix-blend-mode:normal;" transform="translate(622.675 180.668)" />
    <path id="Path" d="M0.930298 6.76758C-0.669678 5.03424 -0.136353 1.16757 1.99698 0.367584C5.33029 -0.832428 8.13028 1.03424 7.73029 4.10091C7.33029 6.90091 2.79697 8.63425 0.930298 6.76758C0.930298 6.76758 0.930298 6.76758 0.930298 6.76758Z" style="fill:#5FA8EC;mix-blend-mode:normal;" transform="translate(377.344 241.766)" />
    <path id="Path" d="M1.60001 63.6712C0.399994 62.4712 0 53.5379 0 31.6712C0 5.27121 0.266663 1.13788 2.13333 0.337875C6.39999 -1.26213 7.20001 2.20454 7.20001 24.2045C7.33334 43.8045 7.60001 45.9379 9.73334 46.3379C10.9333 46.6045 12 46.0712 12 45.1379C12 44.2045 14 38.8712 16.5333 33.2712C19.0667 27.8045 23.2 18.4712 25.8667 12.6045C33.4667 -4.72879 34.1333 -4.19547 50.1334 34.3379C55.0667 46.2045 58.5334 49.8045 58.8 43.6712C58.9333 41.9379 58.9333 31.8045 58.8 21.0045C58.6667 2.20454 58.8 1.40454 61.4667 0.604538C63.0667 0.0712128 64.8 0.204544 65.4667 0.871201C66.1334 1.53787 66.5334 15.2712 66.4 32.6045C66 59.8045 65.7333 63.1379 63.7333 64.4712C58.6667 67.6712 56.5334 64.4712 42.5334 32.6045C38.4 23.1379 34.2667 15.2712 33.3333 15.2712C32.4 15.2712 27.6 24.6045 22.8 35.9379C17.8667 47.2712 12.8 58.6045 11.3333 61.0045C8.66666 65.4045 4.53333 66.6045 1.60001 63.6712C1.60001 63.6712 1.60001 63.6712 1.60001 63.6712Z" style="fill:#5FA8EC;mix-blend-mode:normal;" transform="translate(293.341 181.396)" />
    <path id="Path" d="M9.59998 59.521C8.79999 58.5877 8 56.0544 7.73334 53.7877C7.46667 50.9877 6.26666 49.2544 3.73334 48.0544C1.59998 47.121 0 45.7877 0 45.121C0 44.4544 1.59998 43.121 3.73334 42.1877C7.33331 40.4544 7.33331 40.321 8 23.521C8.66669 7.92104 8.93335 6.45436 12 3.12103C14.5333 0.454361 16.2667 -0.212311 20 0.0543671C26.1333 0.587692 26.6667 3.78769 20.9333 6.45436C20.9333 6.45436 16.6667 8.45436 16.6667 8.45436L16.6667 25.121L16.6667 41.7877C16.6667 41.7877 20.6667 42.4544 20.6667 42.4544C26 43.3877 25.7333 46.721 20.4 48.0544C16.9333 48.9877 16 49.921 16 52.5877C16 56.321 13.8666 61.121 12.1333 61.121C11.4667 61.121 10.4 60.321 9.59998 59.521C9.59998 59.521 9.59998 59.521 9.59998 59.521Z" style="fill:#5FA8EC;mix-blend-mode:normal;" transform="translate(650.675 180.212)" />
    <path id="Path" d="M15.5336 47.6514C0.200287 42.318 -5.26639 18.8514 5.93362 6.85136C11.8003 0.584702 23.8003 -1.94864 30.7336 1.65137C35.5336 4.18471 34.2003 5.91803 27.1336 6.05136C16.067 6.18471 15.267 6.45137 11.667 11.6514C9.00027 15.518 8.20029 18.318 8.20029 23.7847C8.20029 36.718 13.5336 42.5847 25.8003 42.5847C34.3336 42.5847 36.3336 44.0514 31.9336 47.118C28.6003 49.5181 21.5336 49.7847 15.5336 47.6514C15.5336 47.6514 15.5336 47.6514 15.5336 47.6514Z" style="fill:#5FA8EC;mix-blend-mode:normal;" transform="translate(397.141 180.082)" />
    <path id="Path" d="M13.6 44.9201C10.2667 42.9201 8.79999 42.5201 7.59998 43.7201C6.79999 44.5201 4.79999 45.1868 3.06665 45.1868C3.06665 45.1868 0 45.1868 0 45.1868C0 45.1868 0.266663 22.9201 0.266663 22.9201C0.666656 2.25345 0.799988 0.520111 3.19998 0.120117C7.06665 -0.679886 8 2.25345 8 16.9201C8 24.5201 8.66666 31.9868 9.46664 33.5868C11.6 37.7201 16.1333 41.1868 19.7333 41.1868C23.2 41.1868 23.8666 45.7201 20.5333 47.0535C18 47.9868 18.8 48.2534 13.6 44.9201C13.6 44.9201 13.6 44.9201 13.6 44.9201Z" style="fill:#5FA8EC;mix-blend-mode:normal;" transform="translate(444.008 181.48)" />
    <path id="Shape" d="M15.3313 47.4822C8.9313 44.5489 2.9313 37.7489 1.33133 31.3489C-0.802032 22.8156 -0.535339 20.0156 3.33133 12.4156C5.86465 7.08223 7.99799 4.81557 12.398 2.81557C23.7313 -2.78444 35.998 0.148895 42.798 10.0156C45.8646 14.5489 46.3979 16.6822 46.5313 24.8156C46.5313 33.3489 46.1313 34.8156 42.3979 39.8822C36.1313 48.6823 25.0646 51.7489 15.3313 47.4822C15.3313 47.4822 15.3313 47.4822 15.3313 47.4822ZM34.6646 38.8156C37.4646 36.0156 38.5313 33.4822 38.6646 29.7489C39.3313 14.6822 36.6646 8.68224 28.798 6.54889C14.9313 2.81557 4.9313 15.0822 9.06464 30.6822C11.3313 38.8156 15.998 42.5489 24.2646 42.6823C29.7313 42.6823 31.3313 42.0156 34.6646 38.8156C34.6646 38.8156 34.6646 38.8156 34.6646 38.8156Z" style="fill:#5FA8EC;mix-blend-mode:normal;" transform="translate(472.143 179.984)" />
    <path id="Path" d="M9.36163 47.0667C0.828308 44.1333 -2.505 35.3333 2.02832 28.5333C2.69501 27.6 6.96167 24.9333 11.6283 22.5333C16.295 20 20.9616 16.8 22.0283 15.2C23.6283 12.8 23.4949 12 21.2283 9.2C18.9616 6.39999 17.7617 6 9.89496 6.26666C5.09497 6.53334 0.96167 6.13333 0.428345 5.46666C-1.03833 3.06667 5.6283 0 12.1616 0C28.5616 0 36.4283 13.0667 25.7616 22.5333C23.095 24.8 19.7617 26.6667 18.4283 26.6667C16.9616 26.6667 13.495 28.6667 10.6949 31.2C10.6949 31.2 5.76166 35.7333 5.76166 35.7333C5.76166 35.7333 9.09497 39.3333 9.09497 39.3333C12.0283 42.4 13.2283 42.8 20.4283 42.5333C26.6949 42.2667 28.5616 42.6667 28.8283 44.1333C29.2283 46.5333 23.7616 49.3333 18.6949 49.2C16.6949 49.2 12.5616 48.2667 9.36163 47.0667C9.36163 47.0667 9.36163 47.0667 9.36163 47.0667Z" style="fill:#5FA8EC;mix-blend-mode:normal;" transform="translate(528.246 180)" />
    <path id="Shape" d="M14.4 47.5651C4.79999 43.2985 0 35.4318 0 23.8318C0.133362 16.8985 0.666687 14.4985 3.73334 10.0985C9.86664 1.16513 21.3333 -2.30153 31.6 1.56514C50 8.49847 52 37.5651 34.6667 46.4985C28.2667 49.6985 20.1334 50.2318 14.4 47.5651C14.4 47.5651 14.4 47.5651 14.4 47.5651ZM32.9333 39.8318C37.3333 34.8985 38.6667 31.2985 38.6667 23.9651C38.6667 14.6318 34.9333 8.63181 27.8666 6.76514C15.8666 3.56514 8 10.6318 8 24.4985C8 37.0318 12.8 42.6318 23.4667 42.7652C28.8 42.7652 30.8 42.0985 32.9333 39.8318C32.9333 39.8318 32.9333 39.8318 32.9333 39.8318Z" style="fill:#5FA8EC;mix-blend-mode:normal;" transform="translate(568.008 179.902)" />
    <path id="Path" d="M1.60001 44.7722C0.533325 43.7056 0 36.6389 0 22.1055C0 4.50555 0.399994 0.772217 2 0.238876C3.06668 -0.294449 4.93332 0.105545 6 1.03888C7.60001 2.37222 8 6.50555 8 21.9722C8 43.8389 6.39999 49.5722 1.60001 44.7722C1.60001 44.7722 1.60001 44.7722 1.60001 44.7722Z" style="fill:#5FA8EC;mix-blend-mode:normal;" transform="translate(377.341 181.628)" />
    <path id="Path" d="M0.976135 68.0079C-0.623901 66.5412 -0.0905762 1.20791 1.3761 0.274574C2.17609 -0.258759 3.64276 0.141243 4.70941 0.941246C6.30945 2.27457 6.70941 6.00791 6.70941 16.8079C6.70941 29.7412 6.97607 31.4746 10.0428 35.8746C12.4427 39.4746 14.7094 41.0746 18.0428 41.7412C28.1761 43.6079 32.0427 36.2746 32.0427 14.5412C32.0427 0.941246 32.7094 -1.05875 36.5761 0.407913C38.4427 1.07458 38.7094 3.87458 38.7094 18.5412C38.7094 36.9412 37.5094 41.4746 31.7761 45.4746C27.7761 48.2746 16.9761 48.2746 14.7094 45.6079C13.7761 44.4079 11.6428 43.6079 10.1761 43.8746C7.64276 44.2746 7.3761 45.3412 6.97607 54.9412C6.57611 66.5412 4.30945 71.4746 0.976135 68.0079C0.976135 68.0079 0.976135 68.0079 0.976135 68.0079Z" style="fill:#5FA8EC;mix-blend-mode:normal;" transform="translate(598.632 67.059)" />
    <path id="Path" d="M1.28003 67.4667C0.213318 66.8 -0.186646 57.6 0.0800171 33.2C0.480042 1.06667 0.613342 0 3.14667 0C5.68005 0 5.81335 1.06667 6.48004 32C6.88 49.6 7.01337 64.6667 6.7467 65.6C6.08002 67.6 3.28003 68.6667 1.28003 67.4667C1.28003 67.4667 1.28003 67.4667 1.28003 67.4667Z" style="fill:#5FA8EC;mix-blend-mode:normal;" transform="translate(702.861 67.333)" />
    <path id="Path" d="M1.59998 67.4389C0.400024 66.2389 0 57.4389 0 34.2389C0 7.97221 0.266663 2.37221 2 1.03888C3.06665 0.105545 4.93329 -0.294456 5.99994 0.238876C7.73328 0.90554 7.99994 5.43887 7.73328 34.6389C7.33331 63.5722 7.06659 68.3722 5.33331 68.7722C4.1333 68.9055 2.53333 68.3722 1.59998 67.4389C1.59998 67.4389 1.59998 67.4389 1.59998 67.4389Z" style="fill:#5FA8EC;mix-blend-mode:normal;" transform="translate(724.008 66.961)" />
    <path id="Path" d="M13.7929 66.4274C7.79291 64.1607 3.92627 61.094 1.25958 55.894C-2.87378 47.7607 3.39288 37.6274 16.7263 31.3607C35.2596 22.4274 38.3262 11.894 23.5262 7.09402C19.9263 6.02736 16.9929 6.16069 10.8596 7.62736C4.32623 9.09402 2.5929 9.09402 1.12622 7.7607C-0.340454 6.29403 -0.0737915 5.49403 2.99292 3.09402C6.45959 0.294029 12.0596 -0.505974 22.1929 0.294029C34.9929 1.09402 43.9263 13.094 38.9929 22.694C36.3262 27.7607 31.2596 32.0274 21.6596 36.9607C10.0596 42.9607 6.99292 46.1607 8.05957 51.3607C9.52625 58.8274 13.2596 60.694 25.2596 60.0274C33.7929 59.494 35.9263 59.7607 36.5929 61.3607C38.7263 67.2274 24.7263 70.294 13.7929 66.4274C13.7929 66.4274 13.7929 66.4274 13.7929 66.4274Z" style="fill:#5FA8EC;mix-blend-mode:normal;" transform="translate(545.815 66.373)" />
    <path id="Shape" d="M1.27997 64.1333C0.213318 62.9333 -0.186676 53.0667 0.0799866 31.2C0.47998 1.06667 0.613312 0 3.14664 0C5.54666 0 5.81332 1.06667 6.21332 10C6.47998 18.1333 7.01331 20.4 9.28 22.2667C10.7466 23.4667 12.7466 24.2667 13.8133 23.8667C16.7467 22.6667 29.4133 27.3333 33.4133 31.0667C39.0133 36.2667 41.1467 44 39.0133 51.4667C36.88 58.6667 33.0133 62.5333 25.8133 64.5333C18.08 66.6667 3.14664 66.4 1.27997 64.1333C1.27997 64.1333 1.27997 64.1333 1.27997 64.1333ZM26.48 56.4C34.48 50.9333 35.0133 42.6667 27.68 35.4667C24.2133 32 22.6133 31.3333 17.1467 31.3333C6.61331 31.3333 6.47998 31.4667 6.47998 43.6C6.47998 49.4667 7.14667 55.3333 7.81332 56.8C9.94666 60.5333 20.6133 60.2667 26.48 56.4C26.48 56.4 26.48 56.4 26.48 56.4Z" style="fill:#5FA8EC;mix-blend-mode:normal;" transform="translate(293.528 67.333)" />
    <path id="Shape" d="M9.73334 44.1333C2.93332 39.2 0 32.9333 0 23.3333C0 14.5333 2.13333 10 8.66666 4.13333C13.0667 0.400002 14.1333 0 22.8 0C31.7333 0 32.2667 0.133331 38 5.46667C42.6667 9.73334 44.1333 12.2667 45.4667 17.8667C47.6 27.8667 44.5333 38.2667 37.7333 43.8667C33.2 47.6 31.7333 48 23.8667 48C16.2667 48 14.4 47.4667 9.73334 44.1333C9.73334 44.1333 9.73334 44.1333 9.73334 44.1333ZM31.4666 40.1333C40.8 34.4 40.9333 13.6 31.6 8C25.3333 4.13333 18.5333 4.53333 13.6 9.06667C5.06668 17.0667 5.06668 30.9333 13.6 38.9333C18.4 43.4667 25.3333 43.8667 31.4666 40.1333C31.4666 40.1333 31.4666 40.1333 31.4666 40.1333Z" style="fill:#5FA8EC;mix-blend-mode:normal;" transform="translate(338.675 66.667)" />
    <path id="Shape" d="M11.4138 45.0667C5.28043 40.8 1.94711 36 0.61377 29.2C-1.38623 18.6667 1.54712 9.6 8.7471 3.46667C12.4804 0.400002 14.0804 0 22.6138 0C30.6138 0 32.7471 0.400002 34.7471 2.66666C38.0804 6.4 35.8138 8.66667 30.8804 6.66667C22.2138 3.46667 12.4804 6.53333 9.41376 13.7333C6.21378 21.4667 8.08044 22.5333 25.1471 22.9333C25.1471 22.9333 40.0804 23.3333 40.0804 23.3333C40.0804 23.3333 40.4804 27.3333 40.4804 27.3333C41.2804 33.8667 38.4804 40.8 33.5471 44.5333C27.4138 49.2 17.8138 49.3333 11.4138 45.0667C11.4138 45.0667 11.4138 45.0667 11.4138 45.0667ZM29.5471 39.3333C31.8138 37.0667 32.7471 34.8 32.4804 32.2667C32.0804 28.6667 31.9471 28.6667 21.5471 28.2667C15.6805 28 10.4804 28.4 9.68045 29.2C7.41376 31.4667 9.94711 37.3333 14.4804 40C20.3471 43.6 25.5471 43.3333 29.5471 39.3333C29.5471 39.3333 29.5471 39.3333 29.5471 39.3333Z" style="fill:#5FA8EC;mix-blend-mode:normal;" transform="translate(461.927 66.667)" />
    <path id="Path" d="M14.5027 45.3333C12.5027 42.9333 9.96942 42.8 6.63605 44.9333C5.30273 45.7333 3.16937 46 1.96942 45.6C-0.0305786 44.8 -0.16394 42.1333 0.102722 22.4C0.102722 22.4 0.502747 0 0.502747 0C0.502747 0 3.83606 0 3.83606 0C7.16937 0 7.16937 0 7.83606 16C8.23608 24.8 9.16943 33.2 10.1027 34.8C11.9694 38.1333 17.5694 42 20.5027 42C21.5694 42 22.5027 43.2 22.5027 44.6667C22.5027 47.8667 17.0361 48.4 14.5027 45.3333C14.5027 45.3333 14.5027 45.3333 14.5027 45.3333Z" style="fill:#5FA8EC;mix-blend-mode:normal;" transform="translate(514.839 67.333)" />
    <path id="Shape" d="M9.6474 44.9333C1.78076 39.4667 -1.41925 29.4667 0.58075 16.4C1.24738 11.3333 2.58075 8.93333 6.71405 5.06667C11.7808 0.133331 12.4474 0 21.3807 0C31.9141 0 35.9141 1.46667 35.9141 5.6C35.9141 7.86667 35.3807 8.13333 32.3141 7.33334C19.2474 4.13333 12.3141 5.86667 9.24738 13.4667C6.18073 20.8 8.04742 22 24.4474 22.4C38.0474 22.8 38.7141 22.9333 40.1807 26C42.4474 31.2 37.1141 42.9333 31.1141 45.7333C24.5807 48.9333 14.9807 48.5333 9.6474 44.9333C9.6474 44.9333 9.6474 44.9333 9.6474 44.9333ZM26.7141 41.3333C28.0474 40.5333 30.1807 38.1333 31.3807 35.8667C34.5807 29.6 32.3141 28 20.5807 28C9.78076 28 6.58075 29.7333 9.11407 34.5333C12.7141 41.2 20.8474 44.4 26.7141 41.3333C26.7141 41.3333 26.7141 41.3333 26.7141 41.3333Z" style="fill:#5FA8EC;mix-blend-mode:normal;" transform="translate(649.427 66.667)" />
    <path id="Path" d="M0.0461426 44.8508C-0.487213 43.2508 3.64612 28.7175 10.1795 9.11748C12.4461 2.45081 13.7794 0.317482 15.9128 0.0508118C17.6461 -0.215851 19.1128 0.584145 19.7794 2.05081C22.7128 9.65082 26.9795 22.3175 27.7794 26.1841C28.3128 28.5842 29.7794 31.1175 31.2461 31.7841C33.3795 32.9841 33.7794 32.5841 34.5795 29.5175C37.1128 18.0508 42.7128 1.91748 44.7128 0.717484C48.0461 -1.41586 50.7128 1.51748 53.2461 10.3175C54.4461 14.4508 57.2461 23.1175 59.2461 29.6508C61.3795 36.1841 63.1128 42.7175 63.1128 44.0508C63.1128 48.0508 57.3795 46.5842 56.1795 42.4508C55.6461 40.5841 54.3128 35.5175 53.1128 31.1175C48.7128 15.3841 48.3128 14.3175 46.0461 14.7175C44.7128 14.9841 43.6461 16.5841 43.3795 18.4508C42.8461 22.8508 37.9128 39.6508 36.0461 43.5175C34.4461 46.8508 30.0461 47.1175 28.3128 43.7841C27.7794 42.7175 25.3795 35.5175 22.8461 27.9175C20.4461 20.1841 17.7794 13.7841 16.9795 13.5175C16.1795 13.2508 14.4461 16.8508 13.1128 21.3841C7.77945 39.7841 6.84613 43.1175 6.31281 44.8508C6.04614 45.6508 4.7128 46.4508 3.24612 46.4508C1.91278 46.4508 0.446136 45.6508 0.0461426 44.8508C0.0461426 44.8508 0.0461426 44.8508 0.0461426 44.8508Z" style="fill:#5FA8EC;mix-blend-mode:normal;" transform="translate(391.562 66.883)" />
  </g>
</svg>