<?xml version="1.0" standalone="no"?>
<!DOCTYPE svg PUBLIC "-//W3C//DTD SVG 20010904//EN"
 "http://www.w3.org/TR/2001/REC-SVG-20010904/DTD/svg10.dtd">
<svg version="1.0" xmlns="http://www.w3.org/2000/svg"
 width="1194.000000pt" height="582.000000pt" viewBox="0 0 1194.000000 582.000000"
 preserveAspectRatio="xMidYMid meet">
<metadata>
Created by potrace 1.10, written by Peter Selinger 2001-2011
</metadata>
<g transform="translate(0.000000,582.000000) scale(0.100000,-0.100000)"
fill="#000000" stroke="none">
<path d="M1250 5066 c-127 -23 -159 -49 -502 -394 -335 -338 -351 -358 -377
-480 -8 -38 -11 -439 -11 -1425 0 -1295 1 -1376 19 -1442 10 -39 30 -91 45
-115 16 -25 166 -182 335 -350 331 -330 365 -357 485 -379 41 -8 485 -11 1430
-11 1504 1 1418 -3 1536 59 55 28 636 603 682 674 16 26 39 74 49 108 18 58
19 115 19 1462 0 1329 -1 1405 -18 1462 -10 33 -31 80 -46 105 -16 25 -164
181 -330 347 -282 282 -306 304 -376 337 -50 24 -101 39 -150 46 -115 15
-2707 11 -2790 -4z m2711 -481 c35 -13 89 -61 270 -241 205 -205 228 -231 242
-278 15 -48 17 -168 17 -1307 0 -1201 -1 -1256 -19 -1294 -26 -56 -439 -471
-494 -496 -40 -18 -89 -19 -1315 -19 -1118 0 -1277 2 -1309 15 -46 19 -467
434 -494 487 -18 36 -19 76 -19 1311 0 1066 2 1281 14 1313 18 50 447 480 504
506 34 15 141 17 1298 17 1113 1 1267 -1 1305 -14z"/>
<path d="M1836 3754 c-38 -9 -82 -22 -97 -30 -16 -8 -32 -14 -38 -14 -23 0
-136 -77 -190 -129 -61 -59 -127 -152 -149 -211 -56 -152 -67 -282 -27 -359
56 -112 187 -168 291 -125 98 41 164 133 164 228 1 65 38 122 100 154 56 29
114 25 170 -12 50 -33 75 -83 84 -165 10 -107 73 -179 184 -212 83 -24 201 24
250 103 39 62 47 118 34 212 -21 144 -79 266 -174 367 -69 72 -112 103 -206
146 -129 59 -264 75 -396 47z"/>
<path d="M3645 3707 c-16 -8 -107 -66 -201 -130 -95 -63 -200 -134 -235 -158
-35 -23 -88 -58 -118 -78 -154 -103 -192 -249 -97 -374 35 -46 124 -97 169
-97 45 0 132 29 174 57 21 15 119 81 218 148 317 214 340 231 366 271 15 21
34 63 42 91 15 50 15 56 -5 114 -22 65 -65 116 -121 145 -43 23 -153 29 -192
11z"/>
<path d="M1560 2250 c-78 -8 -118 -27 -159 -77 -84 -102 -75 -242 21 -328 72
-65 -28 -60 1238 -63 1053 -2 1159 -1 1199 14 95 36 151 119 151 223 -1 94
-51 174 -137 217 -37 18 -79 19 -1143 20 -608 1 -1134 -2 -1170 -6z"/>
<path d="M7237 4397 c-16 -11 -17 -46 -15 -459 3 -426 4 -447 23 -468 14 -15
26 -19 45 -15 52 13 53 17 51 248 -1 118 1 226 4 240 7 28 36 40 69 27 18 -6
182 -267 283 -449 10 -19 30 -43 45 -54 22 -16 29 -17 49 -7 53 28 51 52 -8
154 -26 45 -80 139 -122 210 -68 118 -73 130 -57 141 9 7 33 13 53 13 95 0
166 75 178 187 11 102 -28 183 -108 223 -42 21 -57 22 -259 22 -156 0 -219 -3
-231 -13z m448 -132 c33 -32 36 -114 5 -145 -18 -18 -33 -20 -174 -20 -124 0
-156 3 -166 15 -17 21 -9 153 10 165 8 6 79 10 158 10 138 0 144 -1 167 -25z"/>
<path d="M8425 4403 c-41 -9 -82 -36 -100 -67 -34 -57 -85 -161 -85 -173 0 -6
-6 -18 -12 -25 -17 -18 -44 -73 -63 -127 -19 -55 -19 -107 -1 -159 28 -78 159
-331 185 -356 14 -14 47 -30 72 -37 39 -10 52 -10 91 5 25 10 55 30 66 46 21
28 158 298 181 357 23 58 0 145 -82 306 -94 182 -100 192 -151 217 -41 20 -61
22 -101 13z m59 -138 c31 -31 147 -278 153 -324 5 -42 -1 -58 -72 -198 -74
-147 -93 -171 -126 -158 -8 3 -47 72 -87 153 -94 191 -94 193 -6 372 84 173
101 192 138 155z"/>
<path d="M9092 4398 c-9 -9 -12 -127 -12 -469 0 -388 2 -458 15 -469 10 -9 68
-11 217 -8 186 3 206 5 245 25 49 27 110 98 124 145 25 88 5 221 -43 274 -25
28 -23 45 12 89 17 21 30 41 30 44 0 3 4 31 9 62 24 142 -53 274 -178 309 -53
15 -404 13 -419 -2z m409 -131 c53 -28 74 -75 65 -151 -11 -95 -65 -126 -222
-126 -145 0 -144 -1 -144 149 0 64 4 121 8 127 12 19 34 22 143 23 92 1 111
-2 150 -22z m-8 -411 c66 -27 94 -119 62 -201 -25 -66 -48 -75 -203 -75 -86 0
-132 4 -140 12 -8 8 -12 53 -12 135 0 106 2 123 18 132 26 16 236 14 275 -3z"/>
<path d="M10252 4393 c-51 -25 -79 -66 -161 -233 -74 -151 -76 -156 -76 -230
0 -67 4 -83 39 -155 22 -44 42 -87 45 -95 15 -40 94 -169 116 -190 36 -34 120
-42 172 -18 43 20 70 60 169 258 57 113 58 117 58 200 1 62 -4 93 -16 115 -9
17 -40 77 -68 135 -76 154 -99 186 -146 209 -49 25 -87 26 -132 4z m91 -131
c8 -9 46 -78 84 -152 90 -179 90 -182 -1 -362 -72 -144 -93 -172 -122 -166
-19 3 -158 269 -169 323 -7 36 7 78 73 215 50 106 86 160 106 160 7 0 20 -8
29 -18z"/>
<path d="M10953 4403 c-9 -3 -13 -32 -13 -93 0 -101 12 -123 63 -118 31 3 35
8 67 78 9 20 83 26 98 7 8 -9 12 -132 14 -401 l3 -388 24 -19 c30 -24 46 -24
71 1 19 19 20 33 20 404 l0 385 22 15 c44 31 108 11 108 -33 0 -47 77 -68 104
-29 20 28 22 168 4 186 -9 9 -87 12 -292 11 -155 0 -287 -3 -293 -6z"/>
<path d="M7230 3231 c-6 -13 -10 -175 -10 -458 0 -428 1 -440 20 -461 26 -27
61 -28 84 -3 16 18 18 44 18 246 0 184 3 229 15 240 11 12 46 15 164 15 136 0
151 2 169 20 24 24 25 48 4 78 -15 21 -21 22 -169 22 -185 0 -185 0 -185 100
0 101 -3 100 251 100 l208 0 20 26 c16 21 18 30 9 49 -18 40 -55 45 -329 45
-245 0 -259 -1 -269 -19z"/>
<path d="M8162 3238 c-9 -9 -12 -125 -12 -460 0 -435 1 -449 20 -468 24 -24
63 -26 84 -4 14 13 16 50 16 248 0 246 2 256 48 256 34 0 58 -16 71 -47 6 -16
56 -102 110 -193 165 -274 169 -280 197 -280 32 0 75 45 66 69 -4 9 -60 110
-125 224 -65 113 -116 211 -112 217 3 5 26 10 51 10 97 0 170 68 184 173 17
114 -17 196 -99 240 -49 27 -49 27 -268 27 -157 0 -222 -3 -231 -12z m421
-119 c45 -12 61 -43 54 -108 -8 -72 -17 -76 -186 -79 -180 -5 -181 -4 -181 98
0 57 3 71 19 82 24 17 238 22 294 7z"/>
<path d="M9351 3231 c-15 -15 -37 -74 -76 -211 -7 -25 -27 -92 -44 -150 -33
-111 -45 -150 -110 -373 -23 -75 -41 -144 -41 -152 0 -23 37 -55 63 -55 34 0
52 25 76 105 32 105 33 105 171 105 82 0 121 -4 128 -12 5 -7 19 -44 31 -83
25 -86 45 -115 77 -115 31 0 64 33 64 65 0 13 -8 48 -19 77 -10 29 -28 89 -41
133 -12 44 -32 116 -46 160 -13 44 -47 161 -75 260 -66 228 -71 240 -109 254
-26 8 -34 7 -49 -8z m66 -366 c8 -27 25 -87 39 -133 32 -106 28 -112 -71 -112
-73 0 -106 15 -90 40 3 6 15 43 26 83 47 171 49 178 66 175 10 -2 22 -23 30
-53z"/>
<path d="M10022 3238 c-9 -9 -12 -124 -12 -458 0 -492 0 -490 60 -490 59 0 60
8 60 392 0 191 4 349 8 352 11 6 52 -21 52 -35 0 -5 14 -28 30 -51 17 -22 30
-51 30 -63 0 -32 37 -75 64 -75 29 0 54 28 62 70 9 41 90 160 110 160 12 0 14
-55 14 -355 0 -342 1 -356 20 -375 27 -27 65 -26 84 2 14 20 16 81 16 468 0
334 -3 449 -12 458 -7 7 -38 12 -69 12 -54 0 -58 -2 -95 -43 -22 -24 -56 -70
-77 -101 -24 -35 -45 -56 -54 -54 -9 2 -42 41 -75 88 -32 47 -66 91 -75 98
-21 15 -125 16 -141 0z"/>
<path d="M10951 3236 c-8 -9 -10 -143 -9 -477 l3 -464 282 -3 c272 -2 283 -2
303 18 25 25 25 41 -1 74 l-20 26 -213 0 c-151 0 -215 3 -224 12 -8 8 -12 54
-12 140 0 152 -3 148 123 148 91 0 117 13 117 58 0 42 -33 57 -138 62 l-97 5
-3 135 c-2 118 0 136 15 147 12 10 74 13 229 13 209 0 213 0 228 22 22 31 20
45 -9 73 l-24 25 -269 0 c-216 0 -272 -3 -281 -14z"/>
<path d="M9220 2080 l-135 -5 -3 -449 c-2 -497 -3 -496 58 -496 56 0 60 13 62
218 1 103 1 201 -1 217 -1 17 1 40 4 53 5 20 11 23 47 20 41 -3 43 -5 96 -92
29 -49 65 -110 78 -135 14 -25 33 -58 42 -73 9 -14 34 -57 56 -95 50 -88 73
-113 106 -113 31 0 60 28 59 56 0 10 -14 42 -30 69 -16 28 -32 57 -36 65 -4 8
-44 77 -90 154 -46 76 -83 145 -83 152 0 8 8 14 17 14 57 0 128 27 168 65 37
35 44 48 55 107 19 106 -15 199 -93 246 -38 23 -158 30 -377 22z m324 -141
c22 -17 26 -28 26 -70 0 -40 -5 -55 -25 -74 -23 -24 -28 -25 -174 -25 -174 0
-171 -2 -171 99 0 96 -9 91 165 91 139 0 155 -2 179 -21z"/>
<path d="M7240 2060 c-19 -19 -20 -33 -20 -402 l0 -382 40 -67 c22 -38 44 -71
50 -74 17 -11 152 -14 178 -4 18 7 55 6 114 -1 114 -15 143 -6 183 57 17 26
34 56 38 67 4 11 9 189 10 396 2 345 1 378 -16 403 -23 35 -59 35 -86 1 -20
-26 -21 -38 -21 -386 0 -404 -2 -417 -68 -418 -43 0 -52 47 -52 267 0 226 -5
243 -65 243 -24 0 -38 -6 -45 -20 -6 -12 -12 -106 -13 -234 -2 -196 -4 -216
-22 -236 -27 -30 -66 -23 -85 15 -12 25 -16 94 -18 395 -2 319 -5 366 -19 382
-21 24 -58 23 -83 -2z"/>
<path d="M8371 2053 c-39 -25 -51 -45 -129 -202 -123 -249 -123 -253 16 -527
40 -81 83 -151 98 -163 60 -47 152 -45 206 5 16 16 66 101 111 189 l81 160 0
90 0 90 -84 164 c-69 133 -92 170 -124 193 -53 38 -115 39 -175 1z m118 -119
c11 -14 48 -83 82 -152 86 -173 86 -185 -4 -362 -78 -154 -88 -170 -110 -170
-21 0 -43 34 -112 175 -85 174 -85 184 4 364 63 128 91 170 113 171 4 0 16
-12 27 -26z"/>
<path d="M10032 2064 l-22 -15 0 -440 c0 -284 4 -447 10 -460 15 -27 85 -27
100 1 6 11 11 77 11 152 0 72 2 135 5 139 9 15 36 -4 207 -153 95 -82 183
-154 196 -159 20 -8 30 -6 50 9 46 34 38 70 -25 123 -11 8 -62 53 -114 98 -52
46 -106 93 -120 105 -104 87 -150 130 -150 139 0 12 43 52 225 206 198 168
215 185 215 210 0 28 -34 61 -63 61 -16 0 -85 -53 -211 -161 -106 -90 -194
-158 -201 -155 -10 4 -14 38 -14 143 -1 128 -3 139 -22 156 -26 21 -48 22 -77
1z"/>
<path d="M11448 2063 c-9 -10 -49 -74 -89 -143 -40 -69 -79 -137 -88 -151 -18
-30 -105 -179 -240 -409 -50 -85 -91 -164 -91 -176 0 -47 71 -72 103 -36 8 9
91 145 182 302 266 454 325 558 325 574 0 22 -40 56 -65 56 -12 0 -29 -8 -37
-17z"/>
</g>
</svg>
