<?xml version="1.0" encoding="utf-8"?>
<svg width="600.1" height="204.2" viewBox="0 0 600.1 204.2" fill="none" stroke="none" version="1.1" xmlns:xlink="http://www.w3.org/1999/xlink" xmlns="http://www.w3.org/2000/svg">
  <path id="UiPath_Logo_full" d="M0 0L204.2 0L204.2 204.2L0 204.2L0 0L0 0ZM183 183L183 21.2L21.2 21.2L21.2 182.9L183 182.9L183 183L183 183ZM39.6 52.7C39.6 52.7 39.6 114.4 39.6 114.4C39.6 142.6 55.1 159.3 81.3 159.3C108.3 159.3 123.8 142.6 123.8 114.4C123.8 114.4 123.8 52.7 123.8 52.7L102.6 52.7C102.6 52.7 102.6 114.4 102.6 114.4C102.6 130.3 95.7 139.3 81.8 139.3C67.1 139.3 60.6 129.9 60.6 114.4C60.6 114.4 60.6 52.7 60.6 52.7L39.6 52.7L39.6 52.7ZM151.1 65.3C158.5 65.3 164.2 60 164.2 52.6C164.2 44.8 158.9 39.5 151.1 39.5C143.7 39.5 138 44.8 138 52.6C138.1 60 143.8 65.3 151.1 65.3C151.1 65.3 151.1 65.3 151.1 65.3ZM140.5 75.1L140.5 158.1L161.7 158.1L161.7 75.1L140.5 75.1L140.5 75.1ZM267.1 124.2C290 124.2 305.1 110.7 305.1 88.3C305.1 66.7 290.4 52.8 267.1 52.8C267.1 52.8 227.1 52.8 227.1 52.8L227.1 158.6L248.3 158.6L248.3 124.7L267.1 124.7L267.1 124.2C267.1 124.2 267.1 124.2 267.1 124.2ZM264.7 107.4L248 107.4L248 69.8C248 69.8 264.7 69.8 264.7 69.8C277 69.8 283.5 76.7 283.5 88.2C283.5 100.5 276.9 107.4 264.7 107.4C264.7 107.4 264.7 107.4 264.7 107.4ZM312.1 116.8C312.1 141.7 328 159.3 350.5 159.3C364 159.3 372.6 154.4 377.5 146.6C377.5 146.6 377.5 158.4 377.5 158.4L398.7 158.4L398.7 75.1L377.5 75.1C377.5 75.1 377.5 88.2 377.5 88.2C372.2 79.6 363.6 74.3 350.5 74.3C327.6 74.3 312.1 92.3 312.1 116.8C312.1 116.8 312.1 116.8 312.1 116.8ZM377.4 116.8C377.4 131.1 368.4 140.5 355.3 140.5C341 140.5 333.7 130.3 333.7 116.8C333.7 102.1 341.9 92.7 355.3 92.7C368.7 92.7 377.4 102.5 377.4 116.8C377.4 116.8 377.4 116.8 377.4 116.8ZM451.7 140.1C443.5 140.1 441.5 136.4 441.5 129.1C441.5 129.1 441.5 93.1 441.5 93.1L459.9 93.1L459.9 75.1L441.5 75.1L441.5 52.2L420.3 52.2L420.3 75.1L410.5 75.1L410.5 93.1L420.3 93.1C420.3 93.1 420.3 129.1 420.3 129.1C420.3 148.7 428.9 158.1 449.3 158.1C449.3 158.1 460.3 158.1 460.3 158.1L460.3 140.1L451.7 140.1C451.7 140.1 451.7 140.1 451.7 140.1ZM493 87L493 47.8L471.8 47.8L471.8 158.5L493 158.5C493 158.5 493 114.4 493 114.4C493 100.1 500.4 91.5 513 91.5C525.3 91.5 531.8 99.7 531.8 112.3C531.8 112.3 531.8 158.1 531.8 158.1L553 158.1C553 158.1 553 110.3 553 110.3C553 88.7 537.5 74.4 517.9 74.4C505.7 74.3 497.9 78.8 493 87C493 87 493 87 493 87ZM551.4 47.4L551.4 50.7L558.3 50.7L558.3 71.9L562.4 71.9L562.4 50.7L568.9 50.7L568.9 47.4L551.4 47.4L551.4 47.4ZM595.5 47.4L586.9 67L578.7 47.4L573.8 47.4L573.8 71.9L577.5 71.9L577.5 53.1L585.7 71.9L588.6 71.9L596.4 53.1L596.4 71.9L600.1 71.9L600.1 47.4L595.5 47.4L595.5 47.4L595.5 47.4Z" style="fill:#FA4616;mix-blend-mode:normal;" />
</svg>