<?xml version="1.0" standalone="no"?>
<!DOCTYPE svg PUBLIC "-//W3C//DTD SVG 20010904//EN"
 "http://www.w3.org/TR/2001/REC-SVG-20010904/DTD/svg10.dtd">
<svg version="1.0" xmlns="http://www.w3.org/2000/svg"
 width="512.000000pt" height="512.000000pt" viewBox="0 0 512.000000 512.000000"
 preserveAspectRatio="xMidYMid meet">

<g transform="translate(0.000000,512.000000) scale(0.100000,-0.100000)"
fill="white" stroke="none">
<path d="M546 4869 c-62 -15 -153 -68 -197 -116 -22 -24 -55 -74 -72 -111
l-32 -67 -3 -1130 c-1 -621 0 -1140 3 -1152 7 -29 59 -57 91 -49 14 4 33 15
44 26 20 20 20 38 20 1131 0 844 3 1122 12 1153 16 55 99 138 154 154 60 18
3928 18 3988 0 55 -16 138 -99 154 -154 17 -60 17 -2808 0 -2868 -16 -55 -99
-138 -154 -154 -60 -18 -3928 -18 -3988 0 -55 16 -138 99 -154 154 -7 24 -12
102 -12 187 0 80 -3 153 -6 162 -10 25 -62 47 -95 40 -56 -12 -61 -35 -57
-233 l3 -178 37 -76 c45 -91 103 -147 196 -191 l67 -32 688 -3 687 -3 0 -238
0 -239 -167 -4 c-164 -3 -169 -4 -235 -35 -92 -43 -151 -101 -194 -189 -31
-63 -37 -85 -42 -163 l-5 -91 -209 0 c-115 0 -217 -4 -227 -10 -10 -5 -24 -23
-31 -40 -15 -35 0 -84 31 -100 24 -13 3414 -13 3438 0 31 16 46 65 31 100 -7
17 -21 35 -31 40 -10 6 -112 10 -227 10 l-209 0 -5 91 c-5 78 -11 100 -42 163
-43 88 -102 146 -194 189 -66 31 -71 32 -234 35 l-168 4 0 239 0 238 688 3
688 3 76 37 c91 45 147 103 191 196 l32 67 0 1455 0 1455 -32 67 c-44 93 -100
151 -191 196 l-76 37 -1995 2 c-1182 0 -2012 -3 -2035 -8z m2494 -3749 l0
-240 -291 0 c-167 0 -298 -4 -308 -10 -10 -5 -24 -23 -31 -40 -15 -35 0 -84
31 -100 11 -6 219 -10 525 -10 369 0 518 -3 548 -12 55 -16 138 -99 154 -154
7 -23 12 -67 12 -98 l0 -56 -1120 0 -1120 0 0 56 c0 31 5 75 12 98 16 55 99
138 154 154 28 8 128 12 308 12 152 0 275 4 285 10 31 16 46 65 31 100 -16 40
-37 50 -99 50 l-51 0 0 240 0 240 480 0 480 0 0 -240z"/>
<path d="M585 4535 l-25 -24 0 -1231 0 -1231 25 -24 24 -25 1951 0 1951 0 24
25 25 24 0 985 c0 541 -3 992 -6 1001 -10 25 -62 47 -95 40 -62 -14 -59 41
-59 -982 l0 -933 -1840 0 -1840 0 0 119 0 119 70 4 c104 6 159 54 168 148 4
48 7 53 40 67 34 14 36 13 66 -15 36 -34 63 -45 117 -44 52 1 73 13 157 96 85
83 104 113 104 170 0 48 -12 80 -46 121 -22 27 -23 33 -11 61 12 28 18 32 65
36 54 5 90 26 124 72 19 25 21 42 21 166 0 124 -2 141 -21 166 -34 46 -70 67
-124 72 -48 4 -53 7 -67 40 -14 34 -13 36 15 66 34 36 45 63 44 117 -1 52 -13
73 -96 157 -83 85 -113 104 -170 104 -48 0 -80 -12 -121 -46 -27 -22 -33 -23
-61 -11 -28 12 -32 18 -36 65 -9 94 -64 142 -168 148 l-70 4 0 119 0 119 1840
0 1840 0 0 -49 c0 -27 3 -57 6 -66 10 -25 62 -47 95 -40 49 11 59 37 59 158 0
101 -2 109 -25 132 l-24 25 -1951 0 -1951 0 -24 -25z m215 -570 c0 -80 41
-131 138 -170 92 -37 148 -31 205 23 l28 26 56 -57 57 -56 -26 -28 c-54 -57
-60 -113 -23 -205 39 -97 90 -138 170 -138 l35 0 0 -80 0 -80 -35 0 c-80 0
-131 -41 -170 -138 -37 -92 -31 -148 23 -205 l26 -28 -57 -56 -56 -57 -28 26
c-57 54 -113 60 -205 23 -97 -39 -138 -90 -138 -170 0 -34 -1 -35 -40 -35
l-40 0 0 480 c0 537 -7 492 74 468 55 -16 138 -99 154 -154 24 -81 12 -145
-40 -221 -35 -52 -35 -83 -2 -117 56 -56 113 -25 171 91 36 73 38 82 38 172 0
87 -3 102 -32 163 -17 37 -50 87 -73 112 -52 56 -160 112 -235 121 l-55 7 0
159 0 159 40 0 c39 0 40 -1 40 -35z"/>
<path d="M2882 4147 c-43 -13 -116 -78 -132 -116 l-12 -30 -238 -3 c-223 -3
-240 -4 -266 -24 -53 -39 -68 -70 -72 -144 l-4 -70 -248 0 c-137 0 -256 -3
-265 -6 -25 -10 -47 -62 -40 -95 13 -58 24 -60 333 -57 265 3 282 4 308 24 53
39 68 70 72 144 l4 70 208 0 208 0 12 -30 c17 -42 90 -104 138 -118 91 -28
167 -8 237 63 98 97 101 222 8 325 -64 72 -159 97 -251 67z m133 -172 c16 -15
25 -36 25 -55 0 -19 -9 -40 -25 -55 -15 -16 -36 -25 -55 -25 -19 0 -40 9 -55
25 -16 15 -25 36 -25 55 0 19 9 40 25 55 15 16 36 25 55 25 19 0 40 -9 55 -25z"/>
<path d="M3389 4141 c-18 -14 -24 -29 -24 -61 0 -32 6 -47 24 -61 22 -18 45
-19 368 -19 201 0 352 4 362 10 10 5 24 23 31 40 15 35 0 84 -31 100 -10 6
-161 10 -362 10 -323 0 -346 -1 -368 -19z"/>
<path d="M3392 3820 c-30 -28 -30 -92 0 -120 21 -19 33 -20 370 -20 l349 0 24
25 c16 15 25 36 25 55 0 19 -9 40 -25 55 l-24 25 -349 0 c-337 0 -349 -1 -370
-20z"/>
<path d="M2482 3507 c-43 -13 -116 -78 -132 -117 l-12 -30 -258 0 c-142 0
-266 -3 -275 -6 -25 -10 -47 -62 -40 -95 13 -57 24 -59 311 -59 l262 0 12 -30
c7 -17 32 -48 56 -69 100 -88 238 -80 327 19 90 100 90 220 0 320 -64 72 -159
97 -251 67z m133 -172 c16 -15 25 -36 25 -55 0 -19 -9 -40 -25 -55 -49 -50
-135 -15 -135 55 0 41 39 80 80 80 19 0 40 -9 55 -25z"/>
<path d="M3385 3495 c-16 -15 -25 -36 -25 -55 0 -19 9 -40 25 -55 l24 -25 349
0 c337 0 349 1 370 20 15 15 22 33 22 60 0 27 -7 45 -22 60 -21 19 -33 20
-370 20 l-349 0 -24 -25z"/>
<path d="M3389 3181 c-18 -14 -24 -29 -24 -61 0 -32 6 -47 24 -61 22 -18 45
-19 368 -19 201 0 352 4 362 10 10 5 24 23 31 40 15 35 0 84 -31 100 -10 6
-161 10 -362 10 -323 0 -346 -1 -368 -19z"/>
<path d="M1638 2948 c-42 -32 -40 -115 2 -138 11 -6 125 -10 268 -10 l250 0 4
-70 c4 -74 19 -105 72 -144 26 -20 43 -21 266 -24 l238 -3 12 -30 c28 -67 129
-129 212 -129 124 0 238 115 238 240 0 124 -116 240 -240 240 -81 0 -182 -62
-210 -130 l-12 -30 -208 0 -208 0 -4 70 c-4 74 -19 105 -72 144 -26 20 -43 21
-309 24 -219 2 -286 0 -299 -10z m1377 -253 c16 -15 25 -36 25 -55 0 -19 -9
-40 -25 -55 -15 -16 -36 -25 -55 -25 -19 0 -40 9 -55 25 -16 15 -25 36 -25 55
0 19 9 40 25 55 15 16 36 25 55 25 19 0 40 -9 55 -25z"/>
<path d="M3392 2860 c-30 -28 -30 -92 0 -120 21 -19 33 -20 370 -20 l349 0 24
25 c16 15 25 36 25 55 0 19 -9 40 -25 55 l-24 25 -349 0 c-337 0 -349 -1 -370
-20z"/>
<path d="M3385 2535 c-16 -15 -25 -36 -25 -55 0 -19 9 -40 25 -55 l24 -25 349
0 c337 0 349 1 370 20 15 15 22 33 22 60 0 27 -7 45 -22 60 -21 19 -33 20
-370 20 l-349 0 -24 -25z"/>
<path d="M4122 1833 c-22 -9 -44 -63 -37 -94 11 -49 37 -59 153 -59 57 0 111
4 121 10 10 5 24 23 31 40 15 35 0 84 -31 100 -18 10 -214 13 -237 3z"/>
</g>
</svg>
