<?xml version="1.0" standalone="no"?>
<!DOCTYPE svg PUBLIC "-//W3C//DTD SVG 20010904//EN"
 "http://www.w3.org/TR/2001/REC-SVG-20010904/DTD/svg10.dtd">
<svg version="1.0" xmlns="http://www.w3.org/2000/svg"
 width="512.000000pt" height="512.000000pt" viewBox="0 0 512.000000 512.000000"
 preserveAspectRatio="xMidYMid meet">

<g transform="translate(0.000000,512.000000) scale(0.100000,-0.100000)"
fill="white" stroke="none">
<path d="M3135 5101 c-166 -46 -313 -181 -373 -344 -49 -130 -49 -260 -2 -395
56 -160 207 -296 384 -347 90 -26 346 -9 346 23 0 4 -64 116 -142 247 l-143
240 -5 296 -5 296 -60 -16z"/>
<path d="M3372 4878 l3 -233 234 -3 234 -2 -7 42 c-9 59 -64 172 -114 235 -73
91 -246 193 -327 193 l-25 0 2 -232z"/>
<path d="M1175 5073 c-178 -16 -402 -86 -419 -130 -7 -18 54 -57 131 -82 214
-71 656 -81 896 -20 133 34 220 80 202 109 -25 40 -223 101 -388 119 -89 10
-330 12 -422 4z"/>
<path d="M752 4616 l3 -111 65 -33 c251 -126 990 -110 1150 25 30 24 30 26 30
124 0 73 -3 99 -12 99 -7 0 -36 -9 -64 -19 -77 -30 -242 -58 -407 -71 -234
-18 -536 14 -703 74 l-65 24 3 -112z"/>
<path d="M0 2850 l0 -1640 2560 0 2560 0 0 1640 0 1640 -550 0 -549 0 -6 -37
c-4 -21 -11 -54 -16 -73 -5 -19 -9 -41 -9 -47 0 -10 98 -13 458 -13 l459 0 24
-26 24 -26 3 -1376 c2 -757 0 -1397 -3 -1421 -4 -26 -16 -53 -30 -67 l-24 -24
-2341 0 -2341 0 -24 24 c-14 14 -26 41 -30 67 -3 24 -5 664 -3 1421 l3 1376
24 26 24 26 184 0 183 0 0 85 0 85 -290 0 -290 0 0 -1640z"/>
<path d="M2170 4405 l0 -85 211 0 211 0 -6 23 c-4 12 -12 50 -19 85 l-11 62
-193 0 -193 0 0 -85z"/>
<path d="M3452 4448 c8 -13 54 -92 103 -175 l89 -153 34 33 c47 44 115 150
141 220 38 104 51 97 -180 97 l-201 0 14 -22z"/>
<path d="M752 4204 l3 -108 34 -23 c181 -122 863 -137 1123 -24 82 35 88 46
88 162 0 92 -2 101 -17 94 -60 -23 -197 -56 -290 -71 -149 -23 -476 -23 -636
0 -102 15 -234 47 -290 71 -16 7 -18 0 -15 -101z"/>
<path d="M340 2850 l0 -1300 2220 0 2220 0 0 1300 0 1300 -445 0 c-245 0 -445
-4 -445 -8 0 -18 -115 -135 -175 -177 -132 -94 -266 -137 -430 -136 -220 0
-435 100 -561 262 l-47 59 -253 0 -253 0 -3 -457 c-3 -442 -4 -459 -24 -498
-67 -128 -318 -209 -689 -222 -414 -14 -727 61 -839 200 l-31 39 -3 469 -3
469 -119 0 -120 0 0 -1300z m4001 941 l29 -29 0 -911 0 -910 -24 -28 -24 -28
-198 -3 c-215 -3 -235 -1 -264 28 -20 20 -20 37 -20 940 l0 921 25 24 c24 25
24 25 235 25 l212 0 29 -29z m-1346 -376 l25 -24 0 -726 0 -727 -29 -29 -29
-29 -205 0 -205 0 -31 26 -31 26 0 729 0 730 25 24 c24 25 24 25 240 25 216 0
216 0 240 -25z m676 -251 l24 -26 3 -574 c2 -385 -1 -588 -8 -614 -18 -67 -38
-72 -275 -68 -197 3 -205 4 -227 26 l-23 23 -3 587 c-1 323 0 597 3 610 3 12
14 31 25 42 19 19 34 20 238 20 l219 0 24 -26z m-1354 -408 l28 -24 0 -401 0
-400 -23 -23 c-22 -22 -30 -23 -224 -26 -143 -2 -210 0 -231 9 -55 23 -57 42
-57 439 0 389 4 420 52 440 13 5 114 9 225 9 199 1 202 1 230 -23z m-1282 -91
c21 -8 39 -25 45 -40 6 -15 10 -82 10 -151 l0 -124 141 0 141 0 -31 35 c-22
26 -31 46 -31 71 0 63 65 103 120 74 31 -16 219 -238 226 -266 4 -14 2 -36 -4
-48 -19 -41 -214 -256 -238 -262 -30 -8 -81 13 -94 37 -20 37 -11 75 30 127
22 27 40 53 40 56 0 3 -95 6 -210 6 -280 0 -260 -19 -260 242 0 162 3 197 16
216 13 19 39 36 62 41 1 1 18 -6 37 -14z"/>
<path d="M4010 2850 l0 -800 95 0 95 0 0 800 0 800 -95 0 -95 0 0 -800z"/>
<path d="M2660 2660 l0 -610 95 0 95 0 0 610 0 610 -95 0 -95 0 0 -610z"/>
<path d="M3330 2535 l0 -485 95 0 95 0 0 485 0 485 -95 0 -95 0 0 -485z"/>
<path d="M1990 2330 l0 -281 93 3 92 3 3 278 2 277 -95 0 -95 0 0 -280z"/>
<path d="M752 3787 l3 -111 55 -28 c119 -60 303 -89 567 -89 287 0 496 38 591
108 l32 24 0 101 c0 115 13 107 -112 70 -152 -46 -249 -56 -518 -56 -279 0
-414 17 -554 67 l-67 25 3 -111z"/>
<path d="M752 3374 l3 -108 32 -22 c42 -28 146 -60 263 -81 120 -21 495 -24
615 -5 156 25 278 66 319 107 13 13 16 38 16 116 0 54 -2 99 -5 99 -2 0 -37
-11 -77 -24 -303 -102 -862 -91 -1155 21 -11 4 -13 -13 -11 -103z"/>
<path d="M1772 976 c-32 -172 -109 -366 -206 -515 l-46 -71 1040 0 1040 0 -44
68 c-98 151 -178 350 -206 510 l-13 72 -777 0 -777 0 -11 -64z"/>
<path d="M1064 210 c-46 -18 -64 -57 -64 -136 l0 -74 1560 0 1560 0 0 75 c0
68 -2 77 -29 107 l-29 33 -1489 2 c-818 1 -1498 -2 -1509 -7z"/>
</g>
</svg>
