<?xml version="1.0" standalone="no"?>
<!DOCTYPE svg PUBLIC "-//W3C//DTD SVG 20010904//EN"
 "http://www.w3.org/TR/2001/REC-SVG-20010904/DTD/svg10.dtd">
<svg version="1.0" xmlns="http://www.w3.org/2000/svg"
 width="512.000000pt" height="512.000000pt" viewBox="0 0 512.000000 512.000000"
 preserveAspectRatio="xMidYMid meet">

<g transform="translate(0.000000,512.000000) scale(0.100000,-0.100000)"
fill="white" stroke="none">
<path d="M922 5109 c-107 -21 -231 -109 -286 -203 -52 -90 -56 -115 -57 -425
l-1 -289 -147 -4 c-142 -3 -148 -4 -201 -34 -62 -35 -114 -96 -130 -152 -6
-25 -10 -549 -10 -1583 0 -1699 -4 -1593 60 -1671 17 -20 56 -49 88 -65 l57
-28 908 -3 907 -2 0 -23 c-1 -64 -23 -221 -41 -289 -28 -105 -66 -161 -127
-192 -27 -14 -52 -32 -56 -41 -13 -34 -5 -64 20 -84 26 -21 35 -21 650 -21
383 0 633 4 649 10 14 5 30 22 36 37 15 39 -4 70 -65 103 -40 21 -57 39 -83
87 -36 66 -67 196 -78 330 l-6 83 908 2 908 3 57 28 c64 31 110 83 133 147 23
64 23 3116 0 3180 -21 61 -66 112 -127 146 -51 28 -59 29 -200 32 l-146 4 -1
284 c-1 260 -3 290 -22 346 -50 148 -176 259 -329 288 -65 12 -3205 12 -3268
-1z m3275 -144 c75 -22 136 -74 172 -146 31 -62 31 -63 31 -226 l0 -163 -1846
0 -1847 0 6 158 c5 166 13 201 59 269 34 51 77 82 143 105 47 16 157 17 1641
18 1382 0 1597 -2 1641 -15z m203 -1889 c0 -668 -3 -1222 -6 -1231 -18 -47 56
-45 -1836 -45 -1407 0 -1778 3 -1798 13 -14 7 -30 28 -37 47 -9 27 -12 323
-12 1226 0 656 3 1194 6 1198 4 3 834 6 1845 6 l1838 0 0 -1214z m-3820 -152
l5 -1120 27 -42 c15 -22 49 -54 75 -69 l48 -28 1825 0 1825 0 46 27 c25 15 59
46 75 69 l29 42 3 1124 2 1123 120 0 c139 0 179 -12 210 -62 20 -33 20 -47 20
-1270 l0 -1238 -2330 0 -2330 0 0 1235 c0 1365 -4 1274 63 1316 28 17 47 19
157 17 l125 -3 5 -1121z m4310 -1811 c0 -211 -2 -230 -20 -261 -41 -67 134
-62 -2310 -62 -2444 0 -2269 -5 -2310 62 -18 31 -20 50 -20 261 l0 227 2330 0
2330 0 0 -227z m-2015 -550 c3 -49 8 -98 11 -110 l4 -23 -327 0 -328 0 9 110
9 110 308 0 307 0 7 -87z m56 -310 c6 -21 20 -55 31 -75 l18 -38 -419 0 -419
0 32 75 31 74 357 1 356 0 13 -37z"/>
<path d="M985 4881 c-136 -63 -153 -239 -32 -335 29 -23 50 -31 95 -34 90 -6
162 38 197 120 66 160 -102 322 -260 249z m117 -138 c35 -31 10 -93 -38 -93
-48 0 -70 55 -37 92 20 22 51 23 75 1z"/>
<path d="M1465 4882 c-52 -24 -102 -82 -111 -127 -23 -125 50 -232 166 -243
164 -15 274 157 188 296 -48 78 -161 112 -243 74z m115 -142 c24 -24 25 -38 4
-68 -28 -41 -94 -22 -94 28 0 55 52 78 90 40z"/>
<path d="M1945 4882 c-79 -38 -115 -96 -115 -186 0 -137 146 -226 276 -167 72
33 124 131 109 204 -11 51 -52 113 -90 137 -49 31 -129 36 -180 12z m115 -142
c24 -24 25 -38 4 -68 -17 -24 -62 -30 -82 -10 -17 17 -15 64 4 82 21 22 50 20
74 -4z"/>
<path d="M1581 4021 c-11 -11 -24 -43 -30 -73 -53 -263 -131 -686 -131 -713 0
-57 64 -85 109 -47 18 14 32 73 92 382 38 201 71 380 72 399 2 60 -70 94 -112
52z"/>
<path d="M3472 4024 l-22 -15 0 -404 0 -404 22 -15 c19 -14 70 -16 354 -16
l333 0 20 26 c20 26 21 37 21 411 l0 384 -25 24 -24 25 -328 0 c-281 0 -332
-2 -351 -16z m588 -419 l0 -295 -240 0 -240 0 0 295 0 295 240 0 240 0 0 -295z"/>
<path d="M1088 3802 c-141 -141 -168 -172 -168 -197 0 -25 27 -56 168 -197
176 -177 191 -186 240 -152 16 11 22 25 22 52 0 34 -10 47 -130 167 l-130 130
130 130 c114 113 130 134 130 162 0 40 -30 73 -67 73 -22 0 -60 -33 -195 -168z"/>
<path d="M1780 3950 c-12 -12 -20 -33 -20 -53 0 -28 16 -49 130 -162 l130
-129 -130 -132 c-118 -119 -130 -134 -130 -167 0 -26 6 -40 22 -51 49 -34 64
-25 240 152 141 141 168 172 168 197 0 25 -27 56 -168 197 -179 180 -199 191
-242 148z"/>
<path d="M2359 3649 c-36 -13 -55 -59 -38 -91 6 -12 17 -26 23 -30 6 -4 173
-8 371 -8 198 0 365 4 371 8 46 30 35 103 -18 121 -39 14 -672 13 -709 0z"/>
<path d="M2339 3292 c-15 -13 -22 -30 -22 -52 0 -22 7 -39 22 -52 22 -17 51
-18 491 -18 455 0 467 1 485 20 26 29 24 79 -4 102 -22 17 -51 18 -486 18
-435 0 -464 -1 -486 -18z"/>
<path d="M1020 2900 c-19 -19 -20 -33 -20 -415 0 -393 0 -394 22 -415 22 -20
31 -20 784 -20 735 0 763 1 785 19 l24 19 0 395 c0 374 -1 396 -19 416 l-19
21 -769 0 c-755 0 -768 0 -788 -20z m1460 -415 l0 -295 -670 0 -670 0 0 295 0
295 670 0 670 0 0 -295z"/>
<path d="M2950 2900 c-27 -27 -25 -66 5 -95 l24 -25 586 0 586 0 24 25 c30 30
31 54 4 89 l-20 26 -595 0 c-581 0 -594 0 -614 -20z"/>
<path d="M2973 2550 c-44 -18 -56 -77 -23 -110 20 -20 33 -20 614 -20 527 0
596 2 610 16 38 37 27 96 -20 114 -32 13 -1151 12 -1181 0z"/>
<path d="M2952 2167 c-30 -32 -28 -71 4 -96 26 -21 35 -21 611 -21 l584 0 24
25 c30 30 31 54 4 89 l-20 26 -593 0 -593 0 -21 -23z"/>
<path d="M2374 1126 c-48 -21 -54 -89 -10 -118 6 -4 95 -8 197 -8 165 0 188 2
202 18 34 38 22 95 -24 111 -47 16 -326 14 -365 -3z"/>
</g>
</svg>
