<?xml version="1.0" standalone="no"?>
<!DOCTYPE svg PUBLIC "-//W3C//DTD SVG 20010904//EN"
 "http://www.w3.org/TR/2001/REC-SVG-20010904/DTD/svg10.dtd">
<svg version="1.0" xmlns="http://www.w3.org/2000/svg"
 width="512.000000pt" height="512.000000pt" viewBox="0 0 512.000000 512.000000"
 preserveAspectRatio="xMidYMid meet">

<g transform="translate(0.000000,512.000000) scale(0.100000,-0.100000)"
fill="white" stroke="none">
<path d="M3482 4936 c-103 -34 -170 -130 -159 -233 7 -68 46 -135 98 -170 39
-26 39 -26 39 -91 l0 -66 -150 -151 -150 -151 0 -193 c0 -173 -2 -192 -16
-187 -29 11 -228 44 -304 51 -41 3 -90 8 -107 11 l-33 5 0 132 0 132 148 147
147 148 3 93 4 93 34 19 c19 10 48 38 64 63 86 130 20 303 -130 343 -186 49
-339 -140 -256 -317 22 -48 79 -104 104 -104 8 0 12 -23 12 -67 l0 -67 -150
-151 -150 -151 0 -161 0 -160 -110 -7 c-107 -6 -302 -35 -367 -55 l-33 -10 0
142 0 141 150 151 150 151 0 101 0 101 28 10 c75 26 132 109 132 192 0 128
-92 220 -220 220 -180 0 -286 -193 -190 -344 16 -25 47 -55 69 -68 41 -23 41
-23 41 -83 l0 -60 -141 -140 c-78 -77 -147 -154 -155 -172 -10 -24 -14 -79
-14 -206 l0 -173 -57 -18 c-32 -10 -97 -34 -144 -52 -47 -19 -89 -34 -92 -34
-3 0 -7 121 -9 270 -3 265 -3 270 -26 292 -22 23 -25 23 -332 26 l-309 3 -19
33 c-47 80 -155 122 -247 96 -96 -27 -164 -117 -165 -218 0 -128 96 -222 229
-222 77 0 164 55 192 121 l12 29 256 -2 256 -3 3 -248 2 -248 -27 -15 c-16 -8
-76 -41 -134 -73 -322 -178 -644 -416 -929 -688 -178 -171 -180 -162 75 -401
173 -163 391 -333 598 -466 l87 -56 0 -315 0 -315 -255 0 -255 0 -10 24 c-16
44 -80 96 -138 112 -226 66 -386 -216 -215 -378 86 -82 242 -76 317 13 15 18
32 43 37 56 l9 23 310 0 c297 0 311 1 330 20 19 19 20 33 20 340 l0 320 108
-53 c59 -30 160 -76 225 -103 l117 -49 0 -180 0 -180 -136 -135 c-74 -74 -142
-147 -150 -162 -9 -17 -14 -57 -14 -110 l0 -83 -40 -23 c-47 -27 -88 -91 -96
-155 -10 -72 12 -134 65 -187 89 -88 207 -93 302 -11 80 67 100 170 55 267
-22 48 -79 104 -104 104 -8 0 -12 23 -12 67 l0 67 150 151 150 151 0 188 0
188 23 -6 c95 -27 279 -69 353 -79 l89 -13 3 -103 3 -103 -161 -157 -161 -156
1 -91 0 -91 -39 -26 c-129 -85 -147 -241 -41 -347 88 -88 206 -93 301 -11 81
69 101 172 53 269 -25 50 -77 102 -102 102 -8 0 -12 23 -12 67 l0 67 150 151
150 151 0 127 0 127 123 0 c113 0 233 9 342 26 l45 6 0 -89 0 -88 -136 -135
c-74 -74 -142 -147 -150 -162 -9 -17 -14 -58 -14 -113 0 -50 -4 -85 -10 -85
-20 0 -94 -76 -111 -115 -25 -55 -24 -134 2 -190 66 -140 252 -170 363 -59 46
46 60 83 61 154 0 84 -31 142 -97 185 l-47 30 0 65 -1 64 150 151 150 151 0
137 0 136 43 11 c111 29 190 52 222 66 19 7 37 14 40 14 3 0 5 -92 5 -204 0
-112 3 -212 6 -221 16 -41 49 -45 364 -45 220 0 300 -3 300 -12 0 -22 51 -78
93 -102 80 -46 162 -42 240 12 110 74 125 243 30 333 -54 52 -93 69 -160 69
-78 0 -137 -30 -183 -92 l-35 -48 -252 0 -253 0 0 189 0 190 63 27 c265 117
586 318 867 543 168 135 428 383 436 418 9 36 -32 88 -172 217 -278 257 -548
462 -797 607 l-77 44 0 298 0 297 254 0 254 0 20 -34 c85 -144 304 -136 386
15 25 44 28 59 24 119 -3 57 -9 77 -33 112 -60 86 -187 122 -281 79 -37 -17
-114 -93 -114 -113 0 -4 -137 -8 -304 -8 l-305 0 -28 -24 -28 -24 -3 -317 c-2
-243 -6 -316 -15 -312 -7 3 -57 25 -112 50 -55 24 -148 62 -207 83 l-108 39 0
190 0 190 150 150 150 150 0 92 c0 91 0 93 28 107 71 37 121 119 122 199 0
147 -148 257 -288 213z m-630 -1369 c199 -52 362 -150 511 -307 137 -145 219
-296 269 -497 17 -70 22 -118 22 -233 1 -153 -8 -212 -51 -345 -151 -468 -631
-787 -1107 -736 -261 29 -475 125 -653 295 -219 207 -333 474 -333 776 0 296
107 556 314 764 159 158 350 259 573 301 119 22 331 14 455 -18z m-1151 -183
c-159 -174 -259 -357 -314 -572 -19 -75 -22 -115 -22 -282 0 -173 3 -205 24
-285 58 -221 153 -395 312 -569 28 -31 49 -56 47 -56 -19 0 -227 93 -351 157
-323 167 -650 402 -915 658 l-97 93 40 42 c164 173 506 436 787 606 139 85
500 262 537 264 1 0 -20 -25 -48 -56z"/>
<path d="M2473 3350 c-28 -11 -48 -44 -62 -96 -10 -36 -16 -42 -53 -53 -24 -7
-62 -23 -86 -36 l-42 -24 -43 25 c-71 41 -98 34 -179 -43 -101 -97 -113 -140
-63 -216 16 -24 15 -29 -17 -115 -32 -87 -35 -91 -68 -97 -93 -18 -115 -56
-108 -196 4 -76 7 -92 28 -114 13 -14 28 -25 34 -25 6 0 27 -5 47 -10 30 -8
38 -17 47 -48 7 -21 23 -60 37 -86 l26 -48 -26 -43 c-42 -72 -36 -96 46 -181
93 -96 121 -105 194 -69 l54 28 43 -21 c24 -11 62 -25 85 -32 39 -12 43 -16
53 -60 6 -27 23 -58 37 -71 23 -22 33 -24 133 -24 100 0 110 2 133 24 14 13
31 44 37 71 10 44 14 48 53 60 23 6 63 23 89 37 l47 25 31 -22 c17 -12 49 -24
70 -27 38 -5 42 -2 111 63 39 38 78 82 86 98 18 34 12 76 -18 117 l-21 29 31
75 c17 40 31 80 31 89 0 8 13 17 33 21 100 20 117 45 117 175 0 130 -13 149
-118 176 -29 8 -36 16 -52 62 -11 30 -28 68 -39 85 l-19 30 25 41 c15 23 26
56 27 78 1 35 -6 45 -75 113 -92 93 -121 102 -188 57 l-43 -29 -87 36 -86 37
-12 49 c-20 80 -36 90 -156 92 -56 2 -112 -2 -124 -7z m250 -429 c110 -38 191
-113 244 -227 25 -53 28 -70 28 -169 0 -103 -2 -114 -32 -178 -80 -168 -266
-269 -440 -240 -121 21 -219 85 -283 185 -149 230 -45 536 215 629 69 25 194
25 268 0z"/>
<path d="M2503 2717 c-22 -12 -22 -13 -2 -25 48 -30 44 -107 -7 -131 -35 -16
-48 -14 -78 10 l-26 20 0 -53 c0 -66 26 -123 73 -165 114 -100 293 -22 314
137 11 77 -49 175 -124 206 -40 17 -120 17 -150 1z"/>
</g>
</svg>
