<?xml version="1.0" standalone="no"?>
<!DOCTYPE svg PUBLIC "-//W3C//DTD SVG 20010904//EN"
 "http://www.w3.org/TR/2001/REC-SVG-20010904/DTD/svg10.dtd">
<svg version="1.0" xmlns="http://www.w3.org/2000/svg"
 width="512.000000pt" height="512.000000pt" viewBox="0 0 512.000000 512.000000"
 preserveAspectRatio="xMidYMid meet">

<g transform="translate(0.000000,512.000000) scale(0.100000,-0.100000)"
fill="white" stroke="none">
<path d="M814 5099 c-140 -18 -251 -67 -334 -149 -100 -97 -148 -206 -157
-356 -15 -244 90 -545 313 -895 l42 -67 -24 -78 c-88 -282 -112 -630 -63 -910
l11 -63 -65 -103 c-256 -411 -353 -756 -280 -1001 26 -88 63 -149 132 -217
122 -121 251 -170 451 -170 154 0 294 26 513 94 l77 24 5 -21 c2 -12 6 -81 7
-153 3 -128 4 -131 41 -206 41 -83 101 -146 180 -188 36 -19 47 -32 57 -64 34
-113 126 -253 227 -346 334 -306 892 -306 1226 0 101 93 193 233 227 345 10
35 20 45 66 69 70 37 138 111 177 194 30 63 32 75 35 197 4 193 -8 179 119
138 248 -78 510 -106 658 -68 87 22 195 78 256 133 271 243 228 662 -128 1240
l-64 103 17 107 c41 269 7 653 -80 900 l-15 42 55 88 c82 129 206 385 243 499
103 321 72 563 -93 727 -115 114 -247 159 -466 159 -223 0 -479 -64 -791 -198
l-146 -62 -119 34 c-385 111 -788 108 -1149 -8 l-93 -29 -127 55 c-250 109
-501 183 -697 204 -108 12 -154 12 -244 0z m351 -134 c162 -33 516 -152 549
-185 5 -5 -29 -27 -78 -52 l-87 -44 -172 58 c-217 72 -322 92 -464 86 -155 -6
-233 -45 -286 -143 -19 -34 -22 -55 -21 -150 1 -99 4 -121 38 -222 79 -239
266 -554 512 -861 84 -104 84 -99 11 -171 l-45 -43 -86 108 c-328 412 -527
777 -582 1061 -57 298 64 508 327 568 80 18 269 13 384 -10z m3170 10 c268
-57 391 -271 329 -573 -33 -163 -120 -372 -230 -555 l-46 -78 -42 83 -41 83
51 100 c181 349 211 601 87 716 -61 57 -137 80 -267 80 -217 0 -528 -99 -906
-288 -905 -452 -1895 -1320 -2455 -2151 -152 -227 -245 -445 -281 -658 -19
-110 -11 -198 21 -248 10 -14 51 -43 93 -64 l76 -37 156 1 c138 1 168 4 268
30 l112 30 63 -57 c42 -39 59 -60 52 -68 -15 -15 -237 -77 -344 -95 -118 -20
-257 -20 -340 -1 -226 54 -356 238 -337 475 33 404 425 1025 1031 1635 412
414 862 778 1305 1057 547 344 1011 544 1375 591 72 10 206 5 270 -8z m-1548
-150 c143 -19 298 -54 286 -65 -4 -5 -66 -41 -138 -81 -71 -40 -190 -110 -264
-157 -88 -55 -139 -81 -146 -76 -7 5 -31 24 -55 42 -128 97 -308 51 -386 -98
-28 -52 -26 -173 2 -221 l22 -37 -132 -105 c-156 -125 -349 -294 -523 -458
-69 -65 -130 -119 -134 -119 -13 0 -165 198 -266 346 l-95 142 51 76 c391 579
1095 900 1778 811z m1528 -134 c70 -32 80 -50 79 -155 0 -78 -5 -107 -36 -197
-20 -59 -57 -146 -81 -195 l-44 -87 -70 94 c-93 126 -225 263 -347 361 -56 45
-102 84 -104 88 -3 8 120 50 238 80 165 42 286 46 365 11z m-3218 4 c90 -17
313 -85 313 -95 0 -4 -37 -35 -82 -70 -115 -88 -279 -258 -363 -373 -38 -53
-73 -96 -76 -97 -9 0 -103 205 -127 275 -48 142 -54 273 -16 316 52 59 186 75
351 44z m2564 -215 c307 -216 556 -557 678 -925 222 -671 52 -1402 -447 -1917
l-55 -57 -70 26 c-187 67 -460 198 -654 313 -71 42 -93 60 -93 76 0 21 6 22
108 26 161 6 243 52 299 166 27 56 28 61 31 260 l3 202 34 50 c70 104 55 240
-37 326 -57 54 -95 69 -178 69 -83 0 -121 -15 -178 -69 -92 -86 -107 -221 -36
-327 l34 -51 0 -134 0 -134 -88 0 c-147 0 -242 -43 -301 -135 l-28 -44 -91 67
-91 67 -1 443 0 442 514 0 514 0 51 -34 c129 -87 298 -42 374 99 17 31 22 58
22 115 0 57 -5 84 -22 115 -76 141 -245 186 -374 99 l-51 -34 -514 0 -514 0 0
174 0 173 143 100 c146 102 298 200 447 286 99 58 462 238 472 234 4 -1 49
-31 99 -67z m-1270 -83 c19 -12 32 -27 29 -32 -2 -6 -51 -43 -108 -83 -70 -50
-107 -71 -114 -64 -6 6 -12 30 -15 54 -11 109 117 186 208 125z m-11 -732 c0
-152 2 -167 20 -185 19 -19 33 -20 543 -20 l522 0 0 -60 0 -60 -522 0 c-510 0
-524 -1 -543 -20 -19 -19 -20 -33 -20 -455 l0 -436 -60 48 -60 48 1 610 0 610
52 42 c29 23 55 42 60 42 4 1 7 -73 7 -164z m-242 -779 l-3 -254 -65 55 c-109
92 -404 371 -443 418 l-37 44 160 150 c87 82 210 193 272 246 l113 97 3 -250
c1 -138 1 -365 0 -506z m1650 634 c94 -57 94 -183 0 -240 -117 -71 -259 71
-188 188 26 42 76 72 120 72 19 0 50 -9 68 -20z m-2962 -97 c32 -43 93 -122
136 -176 l79 -97 -98 -118 c-54 -64 -129 -158 -168 -209 -38 -51 -71 -90 -73
-88 -13 13 -21 246 -12 360 12 143 60 405 75 405 2 0 29 -35 61 -77z m783
-470 c386 -391 968 -851 1421 -1123 322 -193 689 -352 990 -428 89 -23 126
-27 245 -26 157 0 202 12 263 74 63 63 77 103 76 220 0 90 -5 119 -32 200 -17
52 -60 152 -94 222 l-63 128 30 89 c16 49 33 92 36 95 9 10 128 -206 180 -327
143 -332 141 -569 -5 -725 -99 -106 -227 -147 -431 -139 -370 15 -946 256
-1515 632 -387 256 -820 608 -1160 942 l-155 152 55 55 c30 31 56 56 59 56 2
0 47 -44 100 -97z m1739 7 c94 -57 94 -183 0 -240 -117 -71 -259 71 -188 188
26 42 76 72 120 72 19 0 50 -9 68 -20z m-1874 -267 c167 -164 345 -322 539
-480 l127 -104 0 -65 0 -64 -270 0 -270 0 0 54 c0 45 6 63 34 105 87 129 42
298 -99 374 -53 29 -173 30 -225 3 -145 -76 -192 -246 -105 -375 32 -49 33
-53 37 -173 3 -97 8 -133 24 -169 31 -66 78 -114 142 -146 l57 -28 338 -3 337
-3 0 -179 0 -180 -298 0 -297 0 -18 49 c-23 66 -78 133 -174 213 -188 157
-350 363 -465 591 l-49 99 66 99 c120 180 392 529 412 529 3 0 74 -66 157
-147z m1866 -256 c0 -110 -4 -157 -15 -184 -36 -87 -76 -106 -232 -113 -112
-5 -124 -7 -148 -30 -15 -14 -30 -33 -34 -42 -5 -15 -13 -13 -63 20 -32 20
-58 42 -58 48 0 22 46 78 80 98 28 17 58 22 157 26 122 5 123 5 155 38 l33 32
3 128 3 127 60 0 59 0 0 -148z m-1852 -37 c42 -26 72 -76 72 -120 0 -44 -30
-94 -72 -120 -117 -71 -259 71 -188 188 42 68 124 91 188 52z m-708 -338 c0
-16 104 -189 160 -267 32 -44 92 -119 134 -167 l75 -87 -72 -17 c-108 -25
-282 -30 -344 -10 -71 24 -93 47 -93 100 0 92 42 258 102 404 19 45 38 68 38
44z m3613 -71 c63 -137 89 -228 91 -311 2 -149 -40 -185 -219 -185 -95 0 -259
24 -287 41 -5 3 23 41 62 84 114 130 274 362 295 431 4 10 10 19 14 19 5 0 24
-36 44 -79z m-2910 -14 c3 -38 11 -56 36 -80 l31 -32 335 -3 c325 -3 335 -2
355 18 15 15 20 33 20 75 0 30 2 55 5 55 3 0 30 -19 60 -41 l55 -41 0 -334 0
-334 -60 0 -60 0 0 220 c0 207 -1 221 -20 240 -19 19 -33 20 -377 20 -326 0
-362 2 -398 19 -74 34 -105 92 -105 198 l0 68 59 0 59 0 5 -48z m1119 -204
l58 -38 0 -237 0 -238 -80 0 -80 0 0 291 0 291 23 -15 c12 -9 48 -33 79 -54z
m246 -158 l52 -30 0 -162 0 -163 -60 0 -60 0 0 196 c0 108 3 194 8 192 4 -1
31 -16 60 -33z m338 -187 c83 -42 196 -96 250 -119 55 -23 101 -43 103 -45 2
-2 -113 -4 -257 -4 l-262 0 0 126 c0 69 3 124 8 122 4 -2 75 -38 158 -80z
m372 -395 c-3 -92 -8 -115 -30 -159 -31 -59 -83 -108 -147 -138 -46 -21 -54
-21 -821 -21 -767 0 -775 0 -821 21 -68 32 -119 82 -151 149 -25 53 -28 71
-28 158 l0 97 1001 0 1001 0 -4 -107z m-320 -525 c-50 -97 -168 -222 -261
-277 -381 -224 -904 -92 -1095 277 l-43 82 721 0 721 0 -43 -82z"/>
</g>
</svg>
