<?xml version="1.0" standalone="no"?>
<!DOCTYPE svg PUBLIC "-//W3C//DTD SVG 20010904//EN"
 "http://www.w3.org/TR/2001/REC-SVG-20010904/DTD/svg10.dtd">
<svg version="1.0" xmlns="http://www.w3.org/2000/svg"
 width="512.000000pt" height="512.000000pt" viewBox="0 0 512.000000 512.000000"
 preserveAspectRatio="xMidYMid meet">

<g transform="translate(0.000000,512.000000) scale(0.100000,-0.100000)"
fill="white" stroke="none">
<path d="M340 4834 c-75 -20 -129 -54 -183 -114 -83 -93 -77 49 -77 -1700 0
-1739 -6 -1607 72 -1695 42 -48 95 -83 168 -112 41 -16 110 -18 811 -23 l767
-5 -99 -315 c-89 -281 -99 -322 -96 -376 4 -81 43 -146 111 -189 l49 -30 671
-3 c482 -2 686 0 725 8 62 14 121 62 153 124 39 77 31 128 -76 467 -53 169
-96 309 -96 312 0 3 343 7 763 9 755 3 762 3 820 25 119 45 205 134 227 236 8
37 10 490 8 1587 l-3 1535 -28 57 c-50 102 -138 173 -252 202 -53 14 -298 16
-2220 15 -1868 0 -2167 -2 -2215 -15z m1270 -1529 l0 -1385 -690 0 -690 0 0
1309 c0 904 3 1318 11 1338 21 57 76 97 152 113 23 4 306 8 630 9 l587 1 0
-1385z m3181 1357 c42 -21 59 -38 77 -72 l22 -44 0 -583 0 -583 -478 0 -479 0
-21 -23 -22 -23 -2 -705 -3 -704 -1057 -3 -1058 -2 0 1385 0 1385 1484 0 1484
0 53 -28z m-277 -1662 c9 -8 18 -30 22 -47 5 -27 1 -37 -25 -63 l-31 -32 -121
4 c-113 3 -122 5 -140 27 -29 35 -25 85 8 111 26 20 37 21 150 18 93 -2 126
-7 137 -18z m196 -370 c12 -12 20 -33 20 -55 0 -22 -8 -43 -20 -55 -19 -19
-33 -20 -245 -20 -212 0 -226 1 -245 20 -27 27 -26 77 2 107 21 23 24 23 245
23 210 0 224 -1 243 -20z m-21 -345 c50 -25 57 -91 15 -124 -25 -20 -39 -21
-239 -21 -200 0 -214 1 -239 21 -43 33 -33 97 19 127 32 18 408 16 444 -3z
m201 -653 c0 -123 -2 -143 -22 -182 -25 -49 -70 -84 -127 -100 -53 -15 -4297
-14 -4356 1 -24 6 -62 26 -83 45 -63 54 -72 82 -72 238 l0 136 2330 0 2330 0
0 -138z"/>
<path d="M710 4472 c-13 -11 -23 -33 -27 -60 l-6 -42 -119 0 c-113 0 -120 -1
-143 -25 -33 -32 -33 -78 0 -110 23 -24 30 -25 143 -25 l119 0 6 -42 c4 -27
14 -49 27 -60 53 -43 130 -3 130 67 l0 35 280 0 c302 0 322 3 339 51 13 39 -3
83 -35 98 -17 7 -117 11 -304 11 l-280 0 0 35 c0 70 -77 110 -130 67z"/>
<path d="M1051 3974 c-12 -15 -21 -41 -21 -60 l0 -34 -294 0 c-282 0 -294 -1
-320 -21 -32 -25 -35 -75 -7 -110 l19 -24 301 -3 301 -3 0 -35 c0 -69 78 -108
130 -66 13 11 23 33 27 60 l6 42 98 0 c108 0 141 10 158 47 17 37 13 62 -14
88 -23 24 -31 25 -133 25 l-109 0 -6 41 c-7 55 -31 79 -78 79 -29 0 -42 -6
-58 -26z"/>
<path d="M743 3500 c-28 -12 -43 -40 -43 -84 l0 -36 -135 0 c-122 0 -137 -2
-155 -20 -27 -27 -27 -83 0 -110 18 -18 33 -20 155 -20 l135 0 0 -39 c0 -53
27 -85 73 -85 49 0 75 26 79 78 l3 41 287 5 c255 4 289 7 305 22 26 26 22 86
-6 109 -21 18 -45 19 -307 19 l-284 0 0 43 c0 63 -51 100 -107 77z"/>
<path d="M878 3000 c-20 -15 -28 -31 -30 -63 l-3 -42 -213 -5 c-197 -5 -215
-7 -228 -24 -22 -30 -17 -79 9 -104 22 -20 34 -22 227 -24 l205 -3 3 -41 c4
-58 32 -79 95 -75 31 2 57 38 57 81 l0 40 205 0 c205 0 206 0 230 25 30 30 32
64 4 99 l-20 26 -210 0 -209 0 0 39 c0 73 -69 114 -122 71z"/>
<path d="M1025 2505 c-18 -18 -25 -35 -25 -65 l0 -40 -285 0 c-272 0 -286 -1
-305 -20 -30 -30 -27 -83 6 -109 26 -20 39 -21 305 -21 l279 0 0 -31 c0 -32
15 -69 34 -81 6 -4 27 -8 47 -8 45 0 69 25 76 79 l6 41 127 0 c110 0 131 3
151 19 29 23 31 81 4 111 -16 18 -30 20 -152 20 -133 0 -133 0 -133 24 0 91
-79 138 -135 81z"/>
<path d="M2675 4364 c-159 -80 -298 -156 -307 -167 -16 -20 -18 -56 -18 -378
l0 -356 22 -20 c34 -31 604 -313 633 -313 27 0 614 289 633 312 8 10 12 116
12 377 1 328 0 365 -15 382 -29 31 -603 309 -639 308 -19 0 -140 -55 -321
-145z m47 -456 l198 -103 0 -232 0 -233 -205 102 -205 103 0 232 c0 128 3 233
7 233 3 0 95 -46 205 -102z m788 -126 l0 -227 -202 -105 c-111 -58 -205 -106
-210 -108 -4 -2 -8 102 -8 232 l0 236 198 99 c108 55 203 100 210 100 9 1 12
-51 12 -227z"/>
<path d="M2080 2953 c-56 -21 -70 -96 -24 -132 26 -20 37 -21 401 -21 225 0
382 4 393 10 28 15 43 67 27 98 -23 50 -35 52 -422 51 -198 0 -367 -3 -375 -6z"/>
<path d="M2050 2610 c-30 -30 -30 -83 1 -115 19 -20 33 -20 760 -20 l741 0 19
24 c28 35 25 85 -7 110 -26 21 -33 21 -760 21 -721 0 -734 0 -754 -20z"/>
<path d="M2080 2293 c-33 -12 -50 -37 -50 -72 0 -20 4 -41 8 -47 22 -33 49
-34 775 -34 718 0 725 0 751 21 26 20 34 57 20 94 -18 45 -21 45 -776 44 -392
0 -720 -3 -728 -6z"/>
<path d="M2473 1630 c-47 -20 -57 -87 -18 -125 22 -22 32 -25 105 -25 73 0 83
3 105 25 30 29 33 74 6 106 -17 21 -29 24 -98 26 -43 2 -88 -1 -100 -7z"/>
</g>
</svg>
