<?xml version="1.0" standalone="no"?>
<!DOCTYPE svg PUBLIC "-//W3C//DTD SVG 20010904//EN"
 "http://www.w3.org/TR/2001/REC-SVG-20010904/DTD/svg10.dtd">
<svg version="1.0" xmlns="http://www.w3.org/2000/svg"
 width="20" height="10" viewBox="0 0 512.000000 512.000000"
 preserveAspectRatio="xMidYMid meet">

<g transform="translate(0.000000,512.000000) scale(0.100000,-0.100000)"
fill="white" stroke="none">
<path d="M2441 5104 c-169 -45 -301 -180 -346 -351 -10 -37 -15 -105 -15 -194
l0 -137 -187 -4 -188 -3 -63 -34 c-35 -19 -79 -53 -98 -76 -59 -72 -68 -105
-74 -265 l-5 -145 -240 -6 c-132 -3 -253 -10 -270 -16 -110 -38 -221 -124
-271 -209 -64 -109 -67 -130 -73 -488 l-6 -330 -248 -81 c-244 -79 -250 -81
-292 -126 -24 -26 -48 -63 -54 -85 -16 -58 -15 -1163 1 -1218 8 -25 30 -59 58
-86 43 -43 54 -48 292 -125 l246 -80 4 -133 c3 -132 3 -134 31 -158 34 -29 56
-30 90 -3 l27 20 2 1357 3 1357 29 63 c36 77 105 143 182 171 54 21 66 21
1584 21 1518 0 1530 0 1584 -21 114 -42 195 -151 211 -281 5 -45 12 -62 32
-78 31 -24 51 -25 81 -4 34 23 40 51 31 127 -20 164 -146 320 -307 380 -50 19
-85 22 -297 27 l-240 5 -5 145 c-6 160 -15 193 -74 265 -19 23 -63 57 -98 76
l-63 34 -187 3 -188 4 0 137 c0 89 -5 157 -15 194 -67 259 -333 419 -584 351z
m251 -161 c65 -30 133 -95 165 -162 26 -52 28 -66 31 -208 l4 -153 -331 0
-331 0 0 133 c0 192 28 266 132 350 85 68 227 85 330 40z m715 -694 c29 -14
52 -35 68 -63 23 -39 25 -53 25 -169 l0 -127 -940 0 -940 0 0 127 c0 116 2
130 25 168 16 28 39 50 67 64 43 21 48 21 847 21 797 0 805 0 848 -21z m-2797
-2305 c0 -410 -3 -743 -7 -741 -5 3 -101 35 -215 71 -154 50 -211 73 -223 89
-13 19 -15 96 -15 583 0 520 1 563 18 583 11 14 85 44 222 90 113 38 208 70
213 70 4 1 7 -335 7 -745z"/>
<path d="M4387 3139 l-27 -20 -2 -1357 -3 -1357 -33 -67 c-36 -73 -87 -124
-161 -160 l-46 -23 -1555 0 -1555 0 -46 23 c-108 53 -173 141 -191 260 -11 77
-36 112 -80 112 -31 0 -67 -30 -69 -57 -16 -217 137 -420 358 -478 86 -23
3080 -23 3166 0 163 42 287 158 340 318 19 56 21 92 25 390 3 222 7 327 15
327 5 0 116 35 246 77 226 74 238 80 281 123 28 27 50 61 58 86 16 55 17 1160
1 1218 -6 22 -30 59 -54 85 -43 45 -49 47 -292 127 l-248 81 -5 132 c-5 130
-6 133 -33 157 -34 29 -56 30 -90 3z m338 -519 c145 -48 215 -76 228 -91 16
-20 17 -63 17 -583 0 -490 -2 -564 -15 -584 -12 -16 -68 -38 -223 -88 -114
-37 -210 -68 -214 -71 -5 -2 -8 331 -8 741 0 410 1 746 3 746 1 0 97 -31 212
-70z"/>
<path d="M1659 2912 c-122 -32 -225 -120 -282 -240 -30 -63 -32 -74 -32 -183
0 -113 1 -116 38 -191 64 -131 178 -214 325 -240 159 -27 336 49 428 186 147
217 66 524 -168 638 -102 49 -197 59 -309 30z m246 -167 c63 -30 99 -69 133
-144 51 -110 12 -262 -87 -338 -140 -106 -339 -67 -428 85 -37 63 -45 188 -16
253 37 82 114 149 196 170 55 14 144 3 202 -26z"/>
<path d="M3245 2916 c-198 -49 -335 -223 -335 -426 0 -214 150 -392 365 -431
185 -34 376 65 462 239 37 75 38 78 38 192 0 114 -1 117 -38 192 -91 186 -295
283 -492 234z m223 -165 c103 -52 153 -126 160 -236 8 -129 -45 -228 -151
-280 -197 -96 -417 39 -417 256 0 168 140 298 307 285 34 -3 80 -14 101 -25z"/>
<path d="M1612 1524 c-29 -14 -68 -44 -87 -67 -59 -68 -67 -115 -63 -364 l3
-218 30 -54 c34 -61 98 -114 160 -131 28 -7 305 -10 925 -8 l885 3 49 25 c53
27 85 61 119 124 20 38 22 57 25 259 4 249 -4 296 -63 364 -19 23 -58 53 -87
67 l-52 26 -896 0 -896 0 -52 -26z m378 -229 l0 -105 -190 0 -190 0 0 60 c0
35 7 74 15 90 27 52 54 59 218 60 l147 0 0 -105z m490 0 l0 -105 -170 0 -170
0 0 105 0 105 170 0 170 0 0 -105z m500 0 l0 -105 -170 0 -170 0 0 105 0 105
170 0 170 0 0 -105z m470 90 c41 -21 60 -63 60 -135 l0 -60 -190 0 -190 0 0
105 0 105 145 0 c111 0 153 -4 175 -15z m-1460 -450 l0 -105 -146 0 c-120 0
-151 3 -175 17 -39 23 -59 70 -59 137 l0 56 190 0 190 0 0 -105z m490 0 l0
-105 -170 0 -170 0 0 105 0 105 170 0 170 0 0 -105z m500 0 l0 -105 -170 0
-170 0 0 105 0 105 170 0 170 0 0 -105z m530 49 c0 -67 -20 -114 -59 -137 -24
-14 -55 -17 -175 -17 l-146 0 0 105 0 105 190 0 190 0 0 -56z"/>
</g>
</svg>
