<?xml version="1.0" standalone="no"?>
<!DOCTYPE svg PUBLIC "-//W3C//DTD SVG 20010904//EN"
 "http://www.w3.org/TR/2001/REC-SVG-20010904/DTD/svg10.dtd">
<svg version="1.0" xmlns="http://www.w3.org/2000/svg"
 width="512.000000pt" height="512.000000pt" viewBox="0 0 512.000000 512.000000"
 preserveAspectRatio="xMidYMid meet">

<g transform="translate(0.000000,512.000000) scale(0.100000,-0.100000)"
fill="white" stroke="none">
<path d="M1603 5101 c-160 -55 -239 -217 -186 -382 23 -73 108 -159 178 -182
65 -21 713 -142 721 -135 6 7 115 580 111 585 -8 7 -704 133 -736 133 -20 -1
-59 -9 -88 -19z"/>
<path d="M2669 4635 c-30 -162 -55 -295 -55 -295 1 0 71 -14 156 -30 85 -16
164 -30 175 -30 27 0 535 507 514 514 -16 6 -711 136 -725 136 -6 0 -35 -133
-65 -295z"/>
<path d="M1035 4692 c-111 -84 -160 -185 -160 -327 0 -80 4 -97 32 -157 36
-76 108 -155 171 -187 l40 -21 4 -119 c3 -129 11 -150 71 -195 37 -27 117 -27
154 0 59 45 68 66 73 194 l5 119 60 39 c61 39 108 90 138 148 l16 30 -68 17
c-93 22 -164 55 -237 110 -104 79 -191 212 -216 330 -7 31 -17 57 -23 57 -5 0
-32 -17 -60 -38z"/>
<path d="M3840 4693 c-39 -13 -158 -128 -893 -862 -942 -940 -901 -894 -901
-1026 0 -169 130 -298 299 -298 132 0 80 -46 1009 881 739 738 841 844 867
897 96 199 -51 427 -274 424 -34 0 -82 -7 -107 -16z m178 -163 c91 -56 97
-182 13 -253 -74 -61 -185 -35 -229 55 -19 37 -22 56 -17 87 18 106 143 166
233 111z m-1590 -1590 c91 -56 97 -182 13 -253 -74 -61 -185 -35 -229 55 -19
37 -22 56 -17 87 18 106 143 166 233 111z"/>
<path d="M2900 2506 c-184 -182 -255 -234 -374 -272 -93 -30 -225 -36 -316
-15 -75 18 -186 72 -237 115 -22 20 -45 36 -51 36 -19 0 -22 -109 -22 -850 l0
-758 -192 -4 c-214 -3 -239 -10 -279 -74 -18 -29 -19 -52 -19 -306 0 -269 0
-276 23 -309 49 -74 -29 -69 1142 -69 1172 0 1093 -5 1143 70 23 34 23 36 20
317 l-3 283 -36 36 c-47 47 -81 53 -281 54 l-168 0 0 768 c0 732 -1 772 -20
846 -23 91 -75 194 -127 254 l-38 42 -165 -164z m-471 -614 c108 -54 105 -209
-4 -262 -34 -16 -62 -20 -157 -20 -100 0 -120 3 -158 23 -57 30 -83 77 -77
140 5 57 30 95 78 119 27 14 60 18 159 18 99 0 132 -4 159 -18z m8 -408 c94
-70 96 -190 4 -251 -31 -21 -45 -23 -171 -23 -126 0 -140 2 -171 23 -84 56
-91 165 -16 235 37 35 71 41 204 39 106 -2 125 -5 150 -23z"/>
</g>
</svg>
