<?xml version="1.0" standalone="no"?>
<!DOCTYPE svg PUBLIC "-//W3C//DTD SVG 20010904//EN"
 "http://www.w3.org/TR/2001/REC-SVG-20010904/DTD/svg10.dtd">
<svg version="1.0" xmlns="http://www.w3.org/2000/svg"
 width="512.000000pt" height="512.000000pt" viewBox="0 0 512.000000 512.000000"
 preserveAspectRatio="xMidYMid meet">

<g transform="translate(0.000000,512.000000) scale(0.100000,-0.100000)"
fill="white" stroke="none">
<path d="M1042 4947 c-43 -13 -116 -78 -132 -117 l-12 -30 -105 0 c-97 0 -106
-2 -128 -25 l-25 -24 0 -270 c0 -266 0 -270 23 -294 12 -14 149 -133 305 -266
l282 -241 191 0 c188 0 190 0 214 25 33 32 33 78 0 110 -24 24 -28 25 -185 25
l-160 0 -255 218 -254 217 -1 183 0 182 49 0 c45 0 50 -2 61 -30 17 -42 90
-104 138 -118 112 -34 233 17 290 123 23 42 23 169 -1 212 -56 105 -183 156
-295 120z m133 -172 c50 -49 15 -135 -55 -135 -41 0 -80 39 -80 80 0 41 39 80
80 80 19 0 40 -9 55 -25z"/>
<path d="M2239 4947 c-121 -45 -185 -174 -147 -299 14 -48 76 -121 118 -138
l30 -12 0 -103 c0 -83 3 -107 18 -124 10 -12 58 -35 117 -54 l100 -34 3 -91 3
-92 -120 0 -119 0 -10 30 c-9 26 -39 43 -241 145 -204 102 -231 118 -231 139
0 17 9 27 30 36 68 28 130 129 130 212 0 82 -58 174 -134 216 -43 23 -170 23
-213 -1 -104 -56 -155 -177 -121 -289 14 -48 76 -121 118 -138 29 -12 30 -15
30 -72 0 -33 5 -68 10 -79 6 -11 95 -62 203 -115 l191 -96 -36 -19 c-47 -24
-102 -89 -116 -138 -7 -21 -12 -100 -12 -175 l0 -136 -345 0 -344 0 -93 88
c-51 48 -110 102 -131 120 l-38 32 -133 0 -134 0 -12 30 c-17 42 -90 104 -138
118 -112 34 -233 -17 -289 -121 -24 -43 -24 -170 -1 -213 42 -76 134 -134 216
-134 83 0 184 62 212 130 l12 30 105 0 105 0 129 -120 128 -120 376 0 375 0 0
-80 0 -80 -296 0 -296 0 -26 -29 c-15 -16 -88 -105 -162 -199 l-135 -171 -71
-1 c-70 0 -72 0 -84 30 -28 68 -129 130 -212 130 -125 0 -238 -113 -238 -240
0 -127 113 -240 238 -240 83 0 184 62 212 130 l12 30 105 0 c124 0 94 -24 293
228 l135 171 105 1 105 0 -3 -82 -3 -83 -62 -29 c-205 -96 -309 -382 -227
-620 11 -33 20 -61 20 -63 0 -1 -33 -3 -74 -3 -73 0 -74 0 -86 30 -28 68 -129
130 -212 130 -82 0 -174 -58 -216 -134 -23 -42 -23 -170 0 -212 42 -76 134
-134 216 -134 83 0 184 62 212 130 l12 30 143 0 c110 0 145 -3 154 -14 7 -8
37 -24 69 -37 31 -12 58 -23 59 -24 2 -1 14 -45 27 -98 48 -187 145 -354 286
-492 l80 -77 0 -77 c-1 -85 -15 -135 -54 -186 -39 -51 -105 -79 -241 -104 -66
-12 -132 -26 -146 -32 -28 -11 -49 -46 -49 -80 0 -30 44 -69 78 -69 41 0 280
49 321 66 37 15 25 22 155 -81 7 -5 15 -34 18 -63 5 -56 26 -92 72 -126 27
-21 38 -21 486 -21 448 0 459 0 486 21 47 35 67 70 72 128 4 50 8 58 61 110
l57 57 45 -20 c25 -11 201 -50 391 -86 190 -36 364 -72 387 -80 137 -48 244
-189 258 -341 5 -52 12 -74 29 -91 32 -31 78 -30 111 3 24 25 25 30 20 99 -7
80 -38 177 -81 250 -65 111 -209 215 -341 248 -33 8 -199 41 -370 72 -341 63
-381 77 -432 143 -40 53 -53 98 -53 188 l0 72 80 77 c141 138 238 305 286 492
13 53 25 97 27 98 1 1 22 9 46 19 144 56 248 198 273 374 l12 82 53 0 53 0 75
-150 c41 -82 83 -154 94 -160 11 -5 64 -10 119 -10 l100 0 12 -30 c28 -68 129
-130 212 -130 96 0 204 81 228 171 14 52 8 135 -13 176 -39 74 -134 133 -215
133 -83 0 -184 -62 -212 -130 -12 -29 -15 -30 -76 -30 l-64 0 -75 150 c-41 82
-83 154 -94 160 -11 5 -65 10 -121 10 l-100 0 -11 28 c-43 115 -125 208 -226
256 l-62 29 -3 84 -3 83 171 0 172 0 12 -30 c28 -68 129 -130 212 -130 96 0
204 81 228 171 15 53 8 135 -14 177 -53 102 -176 154 -288 120 -48 -14 -121
-76 -138 -118 l-12 -30 -374 0 c-252 0 -381 -4 -397 -11 -40 -18 -47 -49 -47
-208 l0 -149 -112 -21 c-150 -27 -294 -41 -440 -41 -113 0 -120 -1 -143 -25
-34 -33 -33 -78 1 -112 l26 -26 191 6 c185 6 339 25 497 61 63 15 246 68 283
81 16 7 17 -10 17 -267 l0 -274 -145 -58 c-114 -45 -153 -66 -184 -97 -48 -49
-71 -112 -71 -198 l0 -65 -138 -138 -138 -138 -204 0 -204 0 -138 138 -138
138 0 65 c0 86 -23 149 -71 198 -31 31 -70 52 -184 97 l-145 58 0 274 c0 257
1 274 18 267 50 -20 266 -77 358 -96 118 -23 152 -18 173 27 32 71 -2 104
-132 129 l-97 18 0 479 0 479 25 24 24 25 511 0 511 0 24 -25 c25 -24 25 -26
25 -215 0 -189 0 -191 25 -215 l24 -25 226 0 c125 0 234 4 244 9 10 6 69 96
132 200 l114 191 306 0 307 0 12 -30 c28 -68 129 -130 212 -130 96 0 204 81
228 171 14 52 8 135 -13 176 -39 74 -134 133 -215 133 -83 0 -184 -62 -212
-130 l-12 -30 -340 0 c-195 0 -347 -4 -357 -9 -10 -6 -69 -96 -132 -200 l-114
-191 -137 0 -138 0 0 80 0 80 94 0 c75 0 98 4 114 18 11 9 71 135 132 280
l112 262 103 0 103 0 12 -30 c17 -42 90 -104 138 -118 112 -34 233 17 290 123
23 41 23 169 0 211 -42 76 -134 134 -216 134 -83 0 -184 -62 -212 -130 l-12
-30 -143 0 c-122 0 -146 -3 -163 -17 -11 -10 -71 -136 -132 -280 l-112 -263
-63 0 c-60 0 -63 1 -75 30 -25 61 -129 130 -194 130 -37 0 -15 45 64 126 l80
82 0 105 0 105 30 12 c68 28 130 129 130 212 0 82 -58 174 -134 216 -43 23
-170 23 -213 -1 -104 -56 -155 -177 -121 -289 14 -48 76 -121 118 -138 29 -12
30 -14 30 -83 l0 -71 -80 -82 -80 -82 0 -56 0 -56 -120 0 -120 0 0 134 c0 113
-3 137 -17 155 -11 12 -59 35 -118 54 l-100 34 -3 60 c-3 59 -2 60 28 73 68
28 130 129 130 212 0 82 -59 176 -134 215 -41 21 -142 27 -187 10z m136 -172
c50 -49 15 -135 -55 -135 -41 0 -80 39 -80 80 0 41 39 80 80 80 19 0 40 -9 55
-25z m800 -80 c16 -15 25 -36 25 -55 0 -19 -9 -40 -25 -55 -15 -16 -36 -25
-55 -25 -19 0 -40 9 -55 25 -16 15 -25 36 -25 55 0 19 9 40 25 55 15 16 36 25
55 25 19 0 40 -9 55 -25z m-1440 -80 c50 -49 15 -135 -55 -135 -41 0 -80 39
-80 80 0 41 39 80 80 80 19 0 40 -9 55 -25z m2480 -240 c16 -15 25 -36 25 -55
0 -19 -9 -40 -25 -55 -15 -16 -36 -25 -55 -25 -19 0 -40 9 -55 25 -16 15 -25
36 -25 55 0 19 9 40 25 55 15 16 36 25 55 25 19 0 40 -9 55 -25z m560 -480
c16 -15 25 -36 25 -55 0 -19 -9 -40 -25 -55 -15 -16 -36 -25 -55 -25 -19 0
-40 9 -55 25 -16 15 -25 36 -25 55 0 19 9 40 25 55 15 16 36 25 55 25 19 0 40
-9 55 -25z m-4320 -160 c50 -49 15 -135 -55 -135 -41 0 -80 39 -80 80 0 41 39
80 80 80 19 0 40 -9 55 -25z m3760 -560 c16 -15 25 -36 25 -55 0 -19 -9 -40
-25 -55 -15 -16 -36 -25 -55 -25 -19 0 -40 9 -55 25 -16 15 -25 36 -25 55 0
19 9 40 25 55 15 16 36 25 55 25 19 0 40 -9 55 -25z m-2378 -291 c-8 -8 -157
50 -157 61 0 6 35 22 78 36 l77 25 3 -59 c2 -33 1 -61 -1 -63z m1603 61 c0 -6
-30 -22 -67 -35 -38 -13 -74 -25 -80 -28 -10 -3 -13 13 -13 61 l0 65 80 -26
c44 -14 80 -31 80 -37z m-2825 -170 c50 -49 15 -135 -55 -135 -41 0 -80 39
-80 80 0 41 39 80 80 80 19 0 40 -9 55 -25z m903 -526 l-3 -151 -47 41 c-27
24 -59 66 -75 99 -25 51 -28 67 -28 162 0 95 3 111 28 162 16 33 48 75 75 99
l47 41 3 -151 c1 -83 1 -219 0 -302z m2172 371 c67 -85 90 -237 52 -342 -21
-59 -70 -128 -111 -157 l-31 -22 0 301 0 301 29 -21 c16 -11 44 -38 61 -60z
m1005 -405 c50 -49 15 -135 -55 -135 -41 0 -80 39 -80 80 0 41 39 80 80 80 19
0 40 -9 55 -25z m-3760 -80 c16 -15 25 -36 25 -55 0 -19 -9 -40 -25 -55 -15
-16 -36 -25 -55 -25 -19 0 -40 9 -55 25 -16 15 -25 36 -25 55 0 19 9 40 25 55
15 16 36 25 55 25 19 0 40 -9 55 -25z m862 -140 c51 -20 98 -44 105 -52 7 -9
16 -55 19 -102 4 -52 13 -100 24 -121 24 -48 269 -295 325 -328 l45 -27 245 0
245 0 45 27 c56 33 301 280 325 328 11 21 20 69 24 122 4 57 11 93 21 102 16
16 211 99 217 92 9 -9 -21 -159 -48 -240 -99 -299 -363 -526 -674 -581 -460
-80 -904 211 -1008 660 -26 112 -31 169 -15 163 7 -3 54 -22 105 -43z m509
-922 c87 -23 118 -26 254 -26 135 0 167 3 250 25 52 14 126 39 163 56 l67 31
0 -33 c0 -42 27 -131 54 -178 l21 -37 -61 -63 c-73 -74 -94 -112 -94 -168 l0
-40 -400 0 -400 0 0 35 c0 60 -24 100 -98 161 l-71 57 25 36 c29 43 64 150 64
197 l0 33 63 -30 c35 -16 108 -41 163 -56z"/>
<path d="M2320 3587 c-49 -16 -133 -102 -148 -153 -8 -26 -12 -112 -12 -233 0
-190 0 -192 25 -216 15 -16 36 -25 55 -25 51 0 80 38 80 105 l0 55 80 0 80 0
0 -55 c0 -67 29 -105 80 -105 19 0 40 9 55 25 25 24 25 26 25 216 0 119 -4
207 -12 231 -17 59 -88 133 -145 152 -53 18 -112 19 -163 3z m135 -172 c21
-20 25 -34 25 -80 l0 -55 -80 0 -80 0 0 55 c0 67 29 105 80 105 19 0 40 -9 55
-25z"/>
<path d="M2825 3575 l-25 -24 0 -271 0 -271 25 -24 c15 -16 36 -25 55 -25 19
0 40 9 55 25 l25 24 0 271 0 271 -25 24 c-15 16 -36 25 -55 25 -19 0 -40 -9
-55 -25z"/>
<path d="M1964 2468 c-23 -11 -44 -48 -44 -77 0 -32 39 -69 106 -102 109 -54
229 -41 330 36 54 42 53 118 -2 144 -38 17 -57 14 -102 -20 -34 -25 -53 -31
-92 -31 -39 0 -58 6 -92 31 -44 32 -68 37 -104 19z"/>
<path d="M2764 2468 c-23 -11 -44 -48 -44 -77 0 -32 39 -69 106 -102 109 -54
229 -41 330 36 54 42 53 118 -2 144 -38 17 -57 14 -102 -20 -34 -25 -53 -31
-92 -31 -39 0 -58 6 -92 31 -44 32 -68 37 -104 19z"/>
<path d="M2345 1815 c-16 -15 -25 -36 -25 -55 0 -19 9 -40 25 -55 24 -25 26
-25 215 -25 189 0 191 0 215 25 16 15 25 36 25 55 0 19 -9 40 -25 55 -24 25
-26 25 -215 25 -189 0 -191 0 -215 -25z"/>
<path d="M1105 794 c-107 -22 -226 -85 -299 -158 -100 -100 -165 -252 -166
-384 0 -80 81 -122 134 -69 17 18 24 39 29 92 13 135 103 267 221 324 24 12
77 28 117 36 90 19 113 30 128 62 17 37 14 52 -18 84 -33 33 -46 34 -146 13z"/>
</g>
</svg>
