<?xml version="1.0" encoding="utf-8"?>
<svg width="2103.72" height="1109.33" viewBox="0 0 2103.72 1109.33" fill="none" stroke="none" version="1.1" xmlns:xlink="http://www.w3.org/1999/xlink" xmlns="http://www.w3.org/2000/svg">
  <g id="Group">
    <g id="XMLID_00000000920569329653466380000005313891979378965415_" transform="translate(0 121.92)">
      <g id="Group">
        <path id="Path" d="M140.023 777.535C692.243 777.535 1244.45 777.535 1796.67 777.535C1811.03 775.755 1913.26 761.325 1971.12 668.975C2037.03 563.795 1986.92 450.825 1980.24 436.425C1971.23 417.025 1945.6 363.015 1887.56 330.085C1815.39 289.135 1772.39 325.655 1679.97 303.665C1570.96 277.735 1571.73 212.885 1472.38 179.115C1353.71 138.775 1320.12 220.255 1183.66 208.065C985.953 190.415 957.113 9.13474 745.363 0.694733C706.433 -0.855255 623.053 -4.17526 551.433 46.6947C471.423 103.535 489.533 168.745 415.553 216.845C328.133 273.685 270.213 212.765 166.443 262.135C84.5028 301.135 6.41281 394.855 0.372833 511.255C-8.16714 675.605 132.763 772.715 140.023 777.535C140.023 777.535 140.023 777.535 140.023 777.535Z" style="fill:#DEF1FF;mix-blend-mode:normal;" transform="translate(36.677 151.465)" />
        <path id="Path" d="M0 25.7637C42.9 25.7637 85.8 25.7637 128.71 25.7637C109.94 3.08374 96.0399 -0.906281 86.48 0.153748C73.08 1.64374 72.25 12.6237 53.5 16.4037C39.21 19.2838 31.59 14.5438 14.3 19.7538C8 21.6537 3.10999 24.0537 0 25.7637C0 25.7637 0 25.7637 0 25.7637Z" style="fill:#FFFFFF;mix-blend-mode:normal;" transform="translate(812.48 279.766)" />
        <g id="Group" transform="translate(1230.249 0)">
          <path id="Path" d="M52.12 4.37C47.08 1.58 41.29 0 35.13 0C15.73 0 0 15.73 0 35.13C0 54.53 15.73 70.26 35.13 70.26C54.53 70.26 70.26 54.53 70.26 35.13C70.26 29.18 68.78 23.57 66.1701 18.66" style="fill:none;stroke-width:1.887;stroke:#030303;stroke-linecap:round;mix-blend-mode:normal;" transform="translate(11.511 38.24)" />
          <path id="Path" d="M10.66 0C4.77002 0 0 4.77 0 10.66C0 16.55 4.77002 21.32 10.66 21.32C16.55 21.32 21.3201 16.55 21.3201 10.66" style="fill:none;stroke-width:1.887;stroke:#030303;stroke-linecap:round;mix-blend-mode:normal;" transform="translate(35.981 62.71)" />
          <path id="Path" d="M86.5607 22.5506C90.8507 29.6706 93.3307 37.9906 93.2906 46.8806C93.1606 72.6306 72.1106 93.4206 46.4106 93.2906C20.5607 93.1606 -0.129396 72.1606 0.000609311 46.4106C0.130614 20.7106 21.0306 -0.1294 46.8806 0.00060463C55.7706 0.0506077 64.0706 2.61061 71.0906 6.9306" style="fill:none;stroke-width:1.887;stroke:#030303;stroke-linecap:round;mix-blend-mode:normal;" transform="translate(0 26.719)" />
          <path id="Path" d="M45.3203 15.7104C46.1803 18.1404 46.6603 20.7204 46.6402 23.4404C46.5703 36.3604 36.0303 46.7104 23.2003 46.6404C10.2803 46.5703 -0.0697155 36.1203 0.000352859 23.2003C0.0702991 10.3203 10.5204 -0.0696564 23.4403 0.000350952C26.1603 0.0103455 28.7303 0.510345 31.1603 1.40034" style="fill:none;stroke-width:1.887;stroke:#030303;stroke-linecap:round;mix-blend-mode:normal;" transform="translate(23.32 50.04)" />
          <g id="Group" transform="translate(48.861 0)">
            <path id="Path" d="M18.8999 0C18.8999 0 13.8999 20.95 13.8999 20.95C13.8999 20.95 5.08984 27.12 0.959961 30.63C0.959961 30.63 0 31.43 0 31.43L2.71997 16.01L18.8999 0L18.8999 0Z" style="fill:#008FF5;mix-blend-mode:normal;" transform="translate(35.91 0)" />
            <path id="Path" d="M31.6901 0L15.52 16.01L0 18.65C0 18.65 1.10999 17.33 1.10999 17.33C4.80994 13.16 10.6799 4.80998 10.6799 4.80998C10.6799 4.80998 31.6901 0 31.6901 0L31.6901 0Z" style="fill:#008FF5;mix-blend-mode:normal;" transform="translate(40.22 17.29)" />
            <path id="Path" d="M22.8101 23.95C5.45007 41.13 0 52.82 0 52.82C0 52.82 11.74 47.41 29.02 30.3C41.3 18.14 48.91 7.21001 53.36 0C46.28 4.27 34.91 11.97 22.8101 23.95C22.8101 23.95 22.8101 23.95 22.8101 23.95Z" style="fill:#BDE3FF;mix-blend-mode:normal;" transform="translate(0 18.55)" />
          </g>
        </g>
        <g id="Group" transform="translate(840.19 290.6)">
          <path id="Polygon" d="M114.63 0L171.94 76.42L229.26 152.84L114.63 152.84L0 152.84L57.3199 76.42L114.63 0Z" style="fill:#BDE3FF;fill-rule:evenodd;mix-blend-mode:normal;" />
          <line id="Line" x1="0" y1="0" x2="0" y2="517.48" style="fill:none;stroke-width:81.019;stroke:#BDE3FF;mix-blend-mode:normal;" transform="translate(113.63 120.92)" />
        </g>
        <g id="Group" transform="translate(95.61 99.22)">
          <g id="Group" transform="translate(0 29.64)">
            <g id="Group">
              <g id="Group">
                <path id="Path" d="M0 5.38C0.539978 3.58002 1.12 1.78003 1.76001 0" style="fill:none;stroke-width:1.887;stroke:#030303;mix-blend-mode:normal;" transform="translate(0 234.15)" />
                <path id="Path" d="M0 215.38C3.54999 208.27 8.09998 201.73 13.97 196.4C32.98 179.12 61.15 177.85 85.1 168.57C113.02 157.75 135.43 135.59 151.44 110.28C167.44 84.97 177.63 56.48 186.91 28.01C189.99 18.56 194.14 8.16 199.96 0" style="fill:none;stroke-width:1.887;stroke:#030303;stroke-dasharray:11.3224 11.3224;mix-blend-mode:normal;" transform="translate(6.16 8.34)" />
                <path id="Path" d="M0 3.92001C1.28998 2.49002 2.64001 1.18002 4.07001 0" style="fill:none;stroke-width:1.887;stroke:#030303;mix-blend-mode:normal;" transform="translate(209.64 0)" />
              </g>
            </g>
          </g>
          <g id="Group" transform="translate(187.06 0)">
            <path id="Polygon" d="M0 26.33L49.32 0L16.18 28.04L0 26.33Z" style="fill:#BDE3FF;fill-rule:evenodd;mix-blend-mode:normal;" />
            <path id="Path" d="M0.00162506 40.85C-0.078392 40.58 2.82163 30.96 2.82163 30.96C2.82163 30.96 31.1516 0 31.1516 0L0.00162506 40.85C0.00162506 40.85 0.00162506 40.85 0.00162506 40.85Z" style="fill:#008FF5;mix-blend-mode:normal;" transform="translate(18.168 0.01)" />
            <path id="Polygon" d="M0 30.96L17.22 45.45L28.33 0L0 30.96Z" style="fill:#BDE3FF;fill-rule:evenodd;mix-blend-mode:normal;" transform="translate(20.99 0)" />
            <path id="Polygon" d="M33.14 0L0 28.04L1.98999 40.86L4.81 30.96L33.14 0Z" style="fill:#59BAFF;fill-rule:evenodd;mix-blend-mode:normal;" transform="translate(16.18 0)" />
          </g>
        </g>
        <g id="Group" transform="translate(0 266.816)">
          <g id="Group" transform="translate(377.074 0)">
            <path id="Oval" d="M60.3735 351.883C-20.1245 271.385 -20.1245 140.871 60.3735 60.3735C140.871 -20.1245 271.385 -20.1245 351.883 60.3735C432.38 140.871 432.38 271.385 351.883 351.883C271.385 432.38 140.871 432.38 60.3735 351.883Z" style="fill:#BDE3FF;fill-rule:evenodd;mix-blend-mode:normal;" />
            <path id="Oval" d="M51.086 297.751C-17.0287 229.636 -17.0287 119.201 51.086 51.0859C119.201 -17.0286 229.636 -17.0286 297.751 51.0859C365.865 119.201 365.865 229.636 297.751 297.751C229.636 365.865 119.201 365.865 51.086 297.751Z" style="fill:#DEF1FF;fill-rule:evenodd;mix-blend-mode:normal;" transform="translate(31.71 31.71)" />
            <path id="Oval" d="M41.7955 243.602C-13.9318 187.875 -13.9318 97.5227 41.7955 41.7954C97.5228 -13.9318 187.874 -13.9318 243.602 41.7954C299.329 97.5227 299.329 187.875 243.602 243.602C187.874 299.329 97.5228 299.329 41.7955 243.602Z" style="fill:#BDE3FF;fill-rule:evenodd;mix-blend-mode:normal;" transform="translate(63.43 63.429)" />
            <path id="Oval" d="M32.5079 189.47C-10.836 146.126 -10.836 75.8518 32.5079 32.5079C75.8518 -10.836 146.126 -10.836 189.47 32.5079C232.814 75.8518 232.814 146.126 189.47 189.47C146.126 232.814 75.8518 232.814 32.5079 189.47Z" style="fill:#DEF1FF;fill-rule:evenodd;mix-blend-mode:normal;" transform="translate(95.139 95.139)" />
            <path id="Oval" d="M23.2203 135.338C-7.74011 104.378 -7.74011 54.1808 23.2203 23.2203C54.1809 -7.74011 104.378 -7.74011 135.338 23.2203C166.299 54.1808 166.299 104.378 135.338 135.338C104.378 166.299 54.1809 166.299 23.2203 135.338Z" style="fill:#FFFFFF;fill-rule:evenodd;mix-blend-mode:normal;" transform="translate(126.849 126.849)" />
            <path id="Oval" d="M29.3786 91.5336C5.1057 81.4792 -6.42067 53.6515 3.63377 29.3786C13.6881 5.10577 41.5159 -6.42065 65.7887 3.63373C90.0615 13.6881 101.588 41.5158 91.5336 65.7887C81.4792 90.0616 53.6515 101.588 29.3786 91.5336Z" style="fill:#BDE3FF;fill-rule:evenodd;mix-blend-mode:normal;" transform="translate(158.589 158.529)" />
          </g>
          <g id="Group" transform="translate(0 158.554)">
            <path id="Polygon" d="M98.52 0L0 0L37.06 47.57L135.58 47.57L98.52 0Z" style="fill:#9CD6FF;fill-rule:evenodd;mix-blend-mode:normal;" />
            <path id="Polygon" d="M37.06 0L135.58 0L98.52 47.56L0 47.56L37.06 0Z" style="fill:#9CD6FF;fill-rule:evenodd;mix-blend-mode:normal;" transform="translate(0 47.57)" />
            <line id="Line" x1="310.56" y1="0" x2="0" y2="0" style="fill:none;stroke-width:19.027;stroke:#BDE3FF;stroke-linecap:round;mix-blend-mode:normal;" transform="translate(11.77 46.57)" />
            <line id="Line" x1="93" y1="0" x2="0" y2="0" style="fill:none;stroke-width:19.027;stroke:#9CD6FF;stroke-linecap:round;mix-blend-mode:normal;" transform="translate(263.06 46.57)" />
            <line id="Line" x1="60.46" y1="0" x2="0" y2="0" style="fill:none;stroke-width:19.027;stroke:#BDE3FF;stroke-linecap:round;mix-blend-mode:normal;" transform="translate(304.13 46.57)" />
            <line id="Line" x1="60.47" y1="0" x2="0" y2="0" style="fill:none;stroke-width:19.027;stroke:#9CD6FF;stroke-linecap:round;mix-blend-mode:normal;" transform="translate(345.56 46.57)" />
            <line id="Line" x1="40.89" y1="0" x2="0" y2="0" style="fill:none;stroke-width:19.027;stroke:#FFFFFF;stroke-linecap:round;mix-blend-mode:normal;" transform="translate(384.5 46.57)" />
            <line id="Line" x1="153.54" y1="0" x2="0" y2="0" style="fill:none;stroke-width:19.027;stroke:#BDE3FF;stroke-linecap:round;mix-blend-mode:normal;" transform="translate(429.67 46.57)" />
          </g>
        </g>
        <g id="Group" transform="translate(1146.4 210.94)">
          <path id="Path" d="M0 98.52C0 98.52 0 65.68 0 65.68C0 29.41 29.4 0 65.6801 0C65.6801 0 65.6801 0 65.6801 0C101.95 0 131.36 29.4 131.36 65.68C131.36 65.68 131.36 98.52 131.36 98.52" style="fill:none;stroke-width:23.682;stroke:#9CD6FF;stroke-linecap:round;mix-blend-mode:normal;" transform="translate(51.08 0)" />
          <path id="Path" d="M218.04 213.44C218.04 213.44 15.48 213.44 15.48 213.44C6.92993 213.44 0 206.51 0 197.96C0 197.96 0 15.48 0 15.48C0 6.93002 6.93005 0 15.48 0C15.48 0 218.04 0 218.04 0C226.59 0 233.52 6.92999 233.52 15.48C233.52 15.48 233.52 197.97 233.52 197.97C233.52 206.51 226.59 213.44 218.04 213.44C218.04 213.44 218.04 213.44 218.04 213.44Z" style="fill:#BDE3FF;mix-blend-mode:normal;" transform="translate(0 98.52)" />
          <path id="Path" d="M59.6001 29.8C59.6001 13.34 46.2601 0 29.8 0C13.3401 0 0 13.34 0 29.8C0 39.52 4.71997 48.06 11.92 53.5C11.92 53.5 11.92 84.14 11.92 84.14L47.6801 84.14C47.6801 84.14 47.6801 53.5 47.6801 53.5C54.8801 48.06 59.6001 39.5099 59.6001 29.8C59.6001 29.8 59.6001 29.8 59.6001 29.8Z" style="fill:#FFFFFF;mix-blend-mode:normal;" transform="translate(86.96 162.68)" />
        </g>
        <g id="Group" transform="translate(1550.5 425.505)">
          <line id="Line" x1="226.23" y1="0" x2="0" y2="0" style="fill:none;stroke-width:18.153;stroke:#BDE3FF;mix-blend-mode:normal;" transform="translate(0 38.275)" />
          <line id="Line" x1="0" y1="0" x2="0" y2="45.24" style="fill:none;stroke-width:18.153;stroke:#BDE3FF;mix-blend-mode:normal;" transform="translate(16.06 39.275)" />
          <line id="Line" x1="0" y1="0" x2="0" y2="36.45" style="fill:none;stroke-width:18.153;stroke:#BDE3FF;mix-blend-mode:normal;" transform="translate(57.4 39.275)" />
          <path id="Oval" d="M30.361 77.7712C9.17886 72.7695 -3.93808 51.5433 1.06363 30.361C6.06534 9.17883 27.2917 -3.93811 48.4738 1.06366C69.6562 6.06537 82.7731 27.2916 77.7714 48.4739C72.7694 69.6561 51.5434 82.773 30.361 77.7712Z" style="fill:none;stroke-width:18.153;stroke:#BDE3FF;mix-blend-mode:normal;" transform="translate(226.306 0)" />
        </g>
      </g>
    </g>
    <g id="XMLID_00000182495317076903626600000008694084500326572176_" transform="translate(230.63 0)">
      <g id="Group">
        <g id="Group" transform="translate(1043.52 245.796)">
          <g id="Group" transform="translate(194.25 432.954)">
            <path id="Path" d="M145.11 47.06C162.44 47.06 176.48 33.01 176.48 15.69C176.48 9.97003 174.95 4.62 172.28 0C172.28 0 243.14 0 243.14 0L243.14 196.08L47.0601 196.08C47.0601 196.08 47.0601 125.22 47.0601 125.22C42.4399 127.89 37.0801 129.42 31.3701 129.42C14.04 129.42 0 115.37 0 98.0499C0 80.7199 14.05 66.6799 31.3701 66.6799C37.0801 66.6799 42.4402 68.21 47.0601 70.8799C47.0601 70.8799 47.0601 0.0199585 47.0601 0.0199585C47.0601 0.0199585 117.92 0.0199585 117.92 0.0199585C115.25 4.62994 113.72 9.98993 113.72 15.71C113.74 33.01 127.79 47.06 145.11 47.06C145.11 47.06 145.11 47.06 145.11 47.06Z" style="fill:#006BB8;mix-blend-mode:normal;" transform="translate(149.02 196.09)" />
            <path id="Path" d="M98.0497 0C115.38 0 129.42 14.05 129.42 31.37C129.42 37.09 127.89 42.44 125.22 47.06C125.22 47.06 196.08 47.06 196.08 47.06C196.08 47.06 196.08 117.92 196.08 117.92C191.46 115.25 186.1 113.72 180.39 113.72C163.06 113.72 149.02 127.77 149.02 145.09C149.02 162.42 163.07 176.46 180.39 176.46C186.1 176.46 191.46 174.93 196.08 172.26C196.08 172.26 196.08 243.12 196.08 243.12L0 243.12L0 47.06C0 47.06 70.86 47.06 70.86 47.06C68.1899 42.45 66.66 37.09 66.66 31.37C66.6797 14.04 80.7196 0 98.0497 0C98.0497 0 98.0497 0 98.0497 0Z" style="fill:#5B85AA;mix-blend-mode:normal;" transform="translate(0 149.03)" />
            <path id="Path" d="M243.121 98.03C243.121 80.7 229.071 66.66 211.75 66.66C206.031 66.66 200.68 68.19 196.061 70.86C196.061 70.86 196.061 0 196.061 0C196.061 0 125.2 0 125.2 0C127.87 4.62 129.4 9.97998 129.4 15.69C129.4 33.02 115.35 47.06 98.0303 47.06C80.7002 47.06 66.6602 33.01 66.6602 15.69C66.6602 9.97998 68.1902 4.62 70.8601 0C70.8601 0 0 0 0 0L0 196.08L196.08 196.08C196.08 196.08 196.08 125.22 196.08 125.22C200.69 127.89 206.05 129.42 211.77 129.42C229.071 129.4 243.121 115.35 243.121 98.03C243.121 98.03 243.121 98.03 243.121 98.03Z" style="fill:#2C4256;mix-blend-mode:normal;" transform="translate(392.199 196.1)" />
            <path id="Path" d="M196.061 0C196.061 0 196.061 70.86 196.061 70.86C200.681 68.19 206.041 66.66 211.75 66.66C229.081 66.66 243.121 80.71 243.121 98.03C243.121 115.36 229.071 129.4 211.75 129.4C206.041 129.4 200.68 127.87 196.061 125.2C196.061 125.2 196.061 196.06 196.061 196.06C196.061 196.06 125.2 196.06 125.2 196.06C127.87 200.67 129.4 206.03 129.4 211.75C129.4 229.08 115.35 243.12 98.0303 243.12C80.7002 243.12 66.6602 229.07 66.6602 211.75C66.6602 206.03 68.1902 200.68 70.8601 196.06C70.8601 196.06 0 196.06 0 196.06C0 196.06 0 125.2 0 125.2C4.62012 127.87 9.97998 129.4 15.6899 129.4C33.02 129.4 47.0601 115.35 47.0601 98.03C47.0601 80.7 33.01 66.66 15.6899 66.66C9.97998 66.66 4.61987 68.19 0 70.86C0 70.86 0 0 0 0L196.061 0L196.061 0Z" style="fill:#008FF5;mix-blend-mode:normal;" transform="translate(196.109 0)" />
            <path id="Path" d="M98.03 47.06C115.36 47.06 129.4 33.01 129.4 15.69C129.4 9.97003 127.87 4.62 125.2 0C125.2 0 196.06 0 196.06 0C196.06 0 196.06 70.86 196.06 70.86C200.68 68.19 206.04 66.66 211.75 66.66C229.08 66.66 243.12 80.71 243.12 98.03C243.12 115.36 229.07 129.4 211.75 129.4C206.04 129.4 200.68 127.87 196.06 125.2C196.06 125.2 196.06 196.06 196.06 196.06C196.06 196.06 125.2 196.06 125.2 196.06C127.87 191.45 129.4 186.09 129.4 180.37C129.4 163.04 115.35 149 98.03 149C80.71 149 66.66 163.05 66.66 180.37C66.66 186.09 68.1901 191.44 70.86 196.06C70.86 196.06 0 196.06 0 196.06L0 0C0 0 70.86 0 70.86 0C68.1899 4.60999 66.66 9.96997 66.66 15.69C66.66 33.02 80.7 47.06 98.03 47.06C98.03 47.06 98.03 47.06 98.03 47.06Z" style="fill:#005999;mix-blend-mode:normal;" transform="translate(0.02 0)" />
          </g>
          <g id="Group" transform="translate(248.12 0)">
            <g id="Group" transform="translate(138.038 171.307)">
              <g id="Group">
                <g id="Group" transform="translate(0 41.617)">
                  <path id="Path" d="M20.1623 12.92C16.0622 14.14 8.22237 14.3801 4.66231 11.33C4.66231 11.33 4.66231 11.33 4.66231 11.33C4.66231 11.33 6.04219 6.10004 6.04219 6.10004C6.04219 6.10004 1.17208 5.39001 0.16231 2.37006C0.16231 2.37006 0.0124073 1.43005 0.0124073 1.43005C-0.0977001 0.720032 0.542437 0.120056 1.24239 0.280029C1.24239 0.280029 3.92232 0.890015 3.92232 0.890015C6.39229 1.45001 8.96236 1.45001 11.4323 0.880005C11.4323 0.880005 15.2724 0 15.2724 0C15.2724 0 23.8024 8.37 23.8024 8.37C22.7023 11.28 20.1623 12.92 20.1623 12.92C20.1623 12.92 20.1623 12.92 20.1623 12.92Z" style="fill:#FFC6BA;mix-blend-mode:normal;" transform="translate(0 33.75)" />
                  <path id="Group" d="M10.4158 39.4048L10.4208 39.41L41.9308 11.78L30.5309 0L1.87075 30.57C-0.569196 32.93 -0.629254 36.82 1.73085 39.26C4.0891 41.6983 7.97554 41.7599 10.4158 39.4048Z" style="fill:#FFC6BA;fill-rule:evenodd;mix-blend-mode:normal;" transform="translate(13.641 2.38)" />
                  <path id="Path" d="M14.0192 39.25L40.7192 15.55L28.4091 0C28.4091 0 0.439159 29.84 0.439159 29.84C-2.59063 32.77 10.9394 42.24 14.0192 39.25C14.0192 39.25 14.0192 39.25 14.0192 39.25Z" style="fill:#179EFF;mix-blend-mode:normal;" transform="translate(15.743 0)" />
                </g>
                <g id="Group" transform="translate(40.082 0)">
                  <path id="Group" d="M16.3694 5.96726C18.7295 0.827244 24.8194 -1.42276 29.9595 0.93726C35.0994 3.29725 37.3494 9.38727 34.9895 14.5273C34.8457 14.8406 34.688 15.1431 34.5174 15.4346L15.6494 51.6972L15.6452 51.6953C15.6434 51.6993 15.6415 51.7033 15.6397 51.7072C13.7498 55.8172 8.87967 57.6272 4.76956 55.7273C0.669462 53.8373 -1.1406 48.9673 0.74954 44.8572L15.9938 6.90255C16.1026 6.58804 16.2277 6.27593 16.3694 5.96726Z" style="fill:#FFC6BA;fill-rule:evenodd;mix-blend-mode:normal;" transform="translate(1.651 1.63)" />
                  <path id="Path" d="M5.74044 58.8469C10.6704 61.1069 16.5205 58.9469 18.7805 54.0169C18.7805 54.0169 38.0805 16.9169 38.0805 16.9169C40.8505 10.8869 38.2304 3.81691 32.2805 1.08693C26.3305 -1.65306 19.2505 0.966936 16.5205 6.92693C16.5205 6.92693 0.870568 45.8869 0.870568 45.8869C-1.3494 50.7269 0.820519 56.5769 5.74044 58.8469C5.74044 58.8469 5.74044 58.8469 5.74044 58.8469Z" style="fill:#179EFF;mix-blend-mode:normal;" />
                </g>
              </g>
            </g>
            <g id="Group">
              <g id="Group" transform="translate(176.77 254.494)">
                <g id="Group" transform="translate(6.46 0)">
                  <path id="Path" d="M0 0.539978L1.08008 66.04C1.08008 66.04 19.1101 65.74 19.1101 65.74C18.8701 51.25 33.1702 23.48 32.78 0C32.78 0 0 0.539978 0 0.539978L0 0.539978Z" style="fill:#25292D;mix-blend-mode:normal;" transform="translate(0 16.011)" />
                  <path id="Oval" d="M4.99212 28.1676C-1.51252 21.8729 -1.68293 11.4969 4.61199 4.99216C10.9067 -1.5126 21.2826 -1.68283 27.7873 4.61191C34.2922 10.9066 34.4623 21.2826 28.1677 27.7873C21.873 34.2921 11.4968 34.4623 4.99212 28.1676Z" style="fill:#25292D;fill-rule:evenodd;mix-blend-mode:normal;" transform="translate(0.019 0)" />
                  <path id="Path" d="M0.00119042 9.16116C-0.0788877 4.18118 3.89108 0.0811462 8.87131 0.00119019C13.8513 -0.0788269 17.9514 3.8912 18.0312 8.87119C18.1113 13.8512 14.1413 17.9512 9.1611 18.0312C4.18137 18.1011 0.0812685 14.1311 0.00119042 9.16116C0.00119042 9.16116 0.00119042 9.16116 0.00119042 9.16116Z" style="fill:#25292D;mix-blend-mode:normal;" transform="translate(1.079 72.899)" />
                </g>
                <g id="Group" transform="translate(0 79.16)">
                  <path id="Path" d="M14.4299 91.46L0 2.90002C0 2.90002 17.8 0 17.8 0C19.27 5.37 22.02 10.79 22.02 10.79C29.6599 26.02 26.1301 51.1 29 89.09C29 89.09 14.4299 91.46 14.4299 91.46L14.4299 91.46Z" style="fill:#25292D;mix-blend-mode:normal;" transform="translate(7.54 0)" />
                  <path id="Path" d="M0 12.79L0 12.79L39.4099 12.79L36.8499 2.15002L21.2 0L18.6399 2.88C18.6399 2.88 4.22998 7.97003 4.22998 7.97003C2.06982 8.72003 0.469971 10.55 0 12.79C0 12.79 0 12.79 0 12.79Z" style="fill:#090A0B;mix-blend-mode:normal;" transform="translate(0 86.95)" />
                </g>
              </g>
              <g id="Group" transform="translate(209.381 254.343)">
                <g id="Group">
                  <path id="Path" d="M0 10.83L21.6602 72.66C21.6602 72.66 38.6802 66.7 38.6802 66.7C33.8901 53.02 38.7102 22.16 30.9502 0C30.9502 0 0 10.83 0 10.83L0 10.83Z" style="fill:#40474F;mix-blend-mode:normal;" transform="translate(0.969 11.022)" />
                  <path id="Oval" d="M2.63718 25.3046C-2.28519 17.7082 -0.117463 7.55972 7.47873 2.63723C15.0752 -2.28519 25.2238 -0.117531 30.1462 7.47884C35.0686 15.0753 32.9011 25.2238 25.3047 30.1462C17.7082 35.0687 7.55978 32.901 2.63718 25.3046Z" style="fill:#40474F;fill-rule:evenodd;mix-blend-mode:normal;" />
                  <path id="Path" d="M0.510742 12.0008C-1.13916 7.30077 1.34082 2.16076 6.04077 0.510796C10.7407 -1.13923 15.8809 1.34081 17.5308 6.04082C19.1807 10.7408 16.7007 15.8809 12.0007 17.5308C7.30054 19.1808 2.16064 16.7008 0.510742 12.0008C0.510742 12.0008 0.510742 12.0008 0.510742 12.0008Z" style="fill:#40474F;mix-blend-mode:normal;" transform="translate(22.118 71.681)" />
                </g>
                <g id="Group" transform="translate(22.679 77.162)">
                  <path id="Path" d="M32.8999 90.09L0 6.60998C0 6.60998 16.78 0 16.78 0C19.3601 4.92999 23.1899 9.65002 23.1899 9.65002C33.8899 22.92 37.0601 55.27 47.9299 91.79C47.9299 91.79 32.8999 90.09 32.8999 90.09L32.8999 90.09Z" style="fill:#40474F;mix-blend-mode:normal;" />
                  <path id="Path" d="M0 12.79L0 12.79L39.4099 12.79L36.8499 2.15002L21.2 0L18.6399 2.88C18.6399 2.88 4.22998 7.97003 4.22998 7.97003C2.06982 8.72003 0.469971 10.55 0 12.79C0 12.79 0 12.79 0 12.79Z" style="fill:#090A0B;mix-blend-mode:normal;" transform="translate(11.45 89.1)" />
                </g>
              </g>
              <g id="Group" transform="translate(180.52 137.189)">
                <path id="Polygon" d="M77.4099 12.11L27.22 0L0 94.9L65.8799 108.31L77.4099 12.11Z" style="fill:#179EFF;fill-rule:evenodd;mix-blend-mode:normal;" transform="translate(0 34.725)" />
                <line id="Line" x1="20.53" y1="0" x2="0" y2="72.41" style="fill:none;stroke-width:0.82;stroke:#0B1115;mix-blend-mode:normal;" transform="translate(2.24 49.415)" />
                <g id="Group" transform="translate(38.521 0)">
                  <path id="Path" d="M25.8594 6.14999C24.1594 13.19 17.0794 17.52 10.0393 15.82C2.99929 14.12 -1.33079 7.04001 0.369409 0C0.369409 0 25.8594 6.14999 25.8594 6.14999C25.8594 6.14999 25.8594 6.14999 25.8594 6.14999Z" style="fill:#FFC6BA;mix-blend-mode:normal;" transform="translate(0 37.545)" />
                  <g id="Group" transform="translate(2.227 0)">
                    <path id="Path" d="M7.00061 29.64C7.00061 29.64 7.00061 29.64 7.00061 29.64C2.68055 29.15 -0.439328 25.25 0.0506623 20.93C0.0506623 20.93 2.41077 0 2.41077 0L18.0707 1.76001C18.0707 1.76001 15.7106 22.69 15.7106 22.69C15.2306 27.01 11.3307 30.12 7.00061 29.64C7.00061 29.64 7.00061 29.64 7.00061 29.64Z" style="fill:#FFC6BA;mix-blend-mode:normal;" transform="translate(2.632 19.235)" />
                    <path id="Path" d="M1.29004 3.75998L0 15.23C0 15.23 7.11011 12.3 7.11011 12.3C11.5601 10.47 14.53 6.84998 15 2.67999C15 2.67999 15.3 0 15.3 0L1.29004 3.75998L1.29004 3.75998Z" style="fill:#FFB3A3;fill-opacity:0.6;mix-blend-mode:normal;" transform="translate(2.613 25.635)" />
                    <path id="Path" d="M24.2429 6.08652C18.4229 -1.16348 10.853 -0.553499 6.29298 0.956511C6.26295 0.966521 6.23292 0.9765 6.20289 0.98651C1.63282 2.67651 1.16285 7.77652 1.16285 7.77652C1.03297 8.94653 2.48292 12.6065 0.722911 16.0165C0.333018 16.7765 -0.467031 18.8565 0.362803 21.5165C0.362803 21.5165 2.17286 28.7665 2.92286 30.2665C3.26295 30.9565 3.93287 31.4265 4.70289 31.5165C4.70289 31.5165 8.53297 31.9465 8.53297 31.9465C9.39308 32.0465 10.2629 31.8465 10.9929 31.3865C10.9929 31.3865 15.9829 28.2765 15.9829 28.2765C18.043 26.9965 19.4028 24.8365 19.6729 22.4265C19.6729 22.4265 19.8128 21.1565 19.8128 21.1565C19.8128 21.1565 22.0227 20.2365 22.0227 20.2365C22.0227 20.2365 25.5029 12.8965 24.2429 6.08652C24.2429 6.08652 24.2429 6.08652 24.2429 6.08652Z" style="fill:#FFC6BA;mix-blend-mode:normal;" transform="translate(0 1.109)" />
                    <path id="Path" d="M1.75773 5.74538C1.75773 5.74538 8.06779 10.5654 19.3278 7.72539C19.3278 7.72539 17.6579 22.5854 17.6579 22.5854L23.1479 19.5954C23.1479 19.5954 24.3578 8.85539 24.3578 8.85539C24.5878 6.82539 23.6579 4.8354 21.9679 3.69539C18.318 1.22539 11.3578 -2.0146 3.38786 1.6454C1.63786 2.4554 0.417888 4.10539 0.207927 6.02541C0.207927 6.02541 0.0580244 7.3354 0.0580244 7.3354C-0.141927 9.10539 0.178142 10.9054 0.967937 12.5054C0.967937 12.5054 0.967937 12.5054 0.967937 12.5054L1.75773 5.74538C1.75773 5.74538 1.75773 5.74538 1.75773 5.74538Z" style="fill:#000000;mix-blend-mode:normal;" transform="translate(0.605 0)" />
                    <path id="Path" d="M4.61011 0.51646C3.25 -0.883533 1.57007 0.866467 0.620117 2.16645C0.620117 2.16645 0 7.64647 0 7.64647C2.61011 7.93644 6.62012 2.59645 4.61011 0.51646C4.61011 0.51646 4.61011 0.51646 4.61011 0.51646Z" style="fill:#FFC6BA;mix-blend-mode:normal;" transform="translate(19.373 17.139)" />
                    <path id="Path" d="M17.6199 0.970032C17.6199 0.970032 17.5298 1.80002 17.5298 1.80002C17.3799 3.14001 16.4297 4.25003 15.1299 4.60001C15.1299 4.60001 13.7898 4.95999 13.7898 4.95999C12.3298 5.35001 10.7698 4.97998 9.63989 3.97C9.63989 3.97 9.63989 3.97 9.63989 3.97C8.96997 3.37 8.12988 2.98999 7.22998 2.89001C7.22998 2.89001 0 2.08002 0 2.08002C0 2.08002 1 9.08002 1 9.08002C1.22998 10.71 2.54004 11.98 4.17993 12.17C4.17993 12.17 9.15991 12.73 9.15991 12.73C10.0999 12.83 11.0398 12.57 11.78 11.99C11.78 11.99 15.8201 8.85001 15.8201 8.85001C16.48 8.34 17.05 7.72 17.5 7.02002C17.5 7.02002 17.5 7.02002 17.5 7.02002C18.1299 6.05002 18.53 4.94003 18.6599 3.79001C18.6599 3.79001 19.0898 0 19.0898 0L17.6199 0.970032L17.6199 0.970032Z" style="fill:#000000;mix-blend-mode:normal;" transform="translate(0.633 21.615)" />
                  </g>
                </g>
              </g>
              <path id="Path" d="M150.6 0.824329C133.72 -3.10566 116.86 7.39434 112.93 24.2743C111.63 29.8443 111.91 35.4043 113.46 40.5044C113.46 40.5044 44.4401 24.4444 44.4401 24.4444C44.4401 24.4444 28.38 93.4643 28.38 93.4643C33.4801 91.9143 39.0499 91.6344 44.61 92.9343C61.4899 96.8643 71.9801 113.724 68.0599 130.604C64.13 147.474 47.2699 157.974 30.39 154.054C24.83 152.764 19.9601 150.054 16.0601 146.414C16.0601 146.414 0 215.434 0 215.434L190.98 259.874L235.42 68.8943C235.42 68.8943 166.4 52.8343 166.4 52.8343C170.04 48.9443 172.75 44.0743 174.04 38.5043C177.98 21.6143 167.48 4.75435 150.6 0.824329C150.6 0.824329 150.6 0.824329 150.6 0.824329Z" style="fill:#37536B;mix-blend-mode:normal;" />
              <g id="Group" transform="translate(175.88 183.73)">
                <g id="Group">
                  <g id="Group" transform="translate(0 36.194)">
                    <path id="Path" d="M17.4102 16.3643C13.1501 16.7143 5.42017 15.3342 2.57007 11.6143C2.57007 11.6143 2.57007 11.6143 2.57007 11.6143C2.57007 11.6143 4.98999 6.77425 4.98999 6.77425C4.98999 6.77425 0.369873 5.07424 0 1.91426C0 1.91426 0.0500488 0.964252 0.0500488 0.964252C0.0900879 0.244282 0.840088 -0.20573 1.48999 0.0942574C1.48999 0.0942574 3.98999 1.24428 3.98999 1.24428C6.30005 2.30428 8.81006 2.8243 11.3501 2.77431C11.3501 2.77431 15.29 2.7043 15.29 2.7043C15.29 2.7043 21.9102 12.6443 21.9102 12.6443C20.2402 15.2843 17.4102 16.3643 17.4102 16.3643C17.4102 16.3643 17.4102 16.3643 17.4102 16.3643Z" style="fill:#FFC6BA;mix-blend-mode:normal;" transform="translate(0 24.356)" />
                    <path id="Group" d="M9.49888 34.3741C9.47515 34.3895 9.45128 34.4048 9.42727 34.42C6.55715 36.2299 2.75735 35.36 0.947291 32.49C-0.862767 29.61 -0.0026598 25.82 2.87722 24.01L37.2173 0L45.9373 13.88L9.49888 34.3741Z" style="fill:#FFC6BA;fill-rule:evenodd;mix-blend-mode:normal;" transform="translate(12.823 2.33)" />
                    <path id="Path" d="M12.0455 35.44L43.0555 17.75L34.2054 0C34.2054 0 0.685375 23.44 0.685375 23.44C-2.87468 25.68 8.41536 37.73 12.0455 35.44C12.0455 35.44 12.0455 35.44 12.0455 35.44Z" style="fill:#179EFF;mix-blend-mode:normal;" transform="translate(16.295 0)" />
                  </g>
                  <g id="Group" transform="translate(44.616 0)">
                    <path id="Group" d="M24.8992 4.1416C28.2693 -0.398404 34.6892 -1.3584 39.2292 2.02161C43.7677 5.40043 44.7286 11.8071 41.3529 16.3468L41.3594 16.3516L41.2302 16.509C41.1036 16.6729 40.9731 16.8319 40.8387 16.9861L14.8462 48.6601C14.8241 48.6907 14.8018 48.7212 14.7793 48.7516C12.0793 52.3916 6.94922 53.1516 3.30933 50.4516C-0.3208 47.7416 -1.08081 42.6116 1.60938 38.9816L24.3402 4.9778C24.5111 4.6931 24.6974 4.41402 24.8992 4.1416Z" style="fill:#FFC6BA;fill-rule:evenodd;mix-blend-mode:normal;" transform="translate(1.645 1.632)" />
                    <path id="Path" d="M3.98379 53.3939C8.34389 56.6239 14.5138 55.7139 17.7438 51.354C17.7438 51.354 44.2738 19.0239 44.2738 19.0239C48.2238 13.694 47.1239 6.24395 41.8639 2.33394C36.6039 -1.56605 29.1439 -0.466043 25.234 4.79394C25.234 4.79394 1.89394 39.6939 1.89394 39.6939C-1.28623 43.984 -0.37632 50.164 3.98379 53.3939C3.98379 53.3939 3.98379 53.3939 3.98379 53.3939Z" style="fill:#179EFF;mix-blend-mode:normal;" />
                  </g>
                </g>
                <line id="Line" x1="30.42" y1="0" x2="0" y2="21.27" style="fill:none;stroke-width:0.82;stroke:#0B1115;mix-blend-mode:normal;" transform="translate(16.99 38.364)" />
                <line id="Line" x1="16.11" y1="0" x2="0" y2="24.11" style="fill:none;stroke-width:0.82;stroke:#0B1115;mix-blend-mode:normal;" transform="translate(47.41 14.254)" />
                <line id="Line" x1="33" y1="0" x2="0" y2="19.12" style="fill:none;stroke-width:0.82;stroke:#0B1115;mix-blend-mode:normal;" transform="translate(28.34 52.514)" />
                <line id="Line" x1="15.19" y1="0" x2="0" y2="18.43" style="fill:none;stroke-width:0.82;stroke:#0B1115;mix-blend-mode:normal;" transform="translate(61.34 34.084)" />
              </g>
            </g>
          </g>
          <rect id="Rectangle" width="196.08" height="196.08" style="fill:#179EFF;fill-rule:evenodd;mix-blend-mode:normal;" transform="translate(0 629.044)" />
          <rect id="Rectangle" width="196.08" height="196.08" style="fill:#007DD6;fill-rule:evenodd;mix-blend-mode:normal;" transform="translate(0 432.964)" />
          <path id="Oval" d="M0.846649 38.5848C-3.13467 21.7239 7.30624 4.828 24.1671 0.84668C41.0279 -3.13464 57.9238 7.30627 61.9052 24.1671C65.8864 41.028 55.4455 57.9239 38.5847 61.9052C21.7238 65.8865 4.82797 55.4456 0.846649 38.5848Z" style="fill:#007DD6;fill-rule:evenodd;mix-blend-mode:normal;" transform="translate(66.615 613.216)" />
          <path id="Path" d="M196.06 0C196.06 0 125.2 0 125.2 0C127.87 4.60999 129.4 9.96997 129.4 15.69C129.4 33.02 115.35 47.06 98.03 47.06C80.7101 47.06 66.66 33.01 66.66 15.69C66.66 9.97003 68.1901 4.60999 70.86 0C70.86 0 0 0 0 0L0 196.08C0 196.08 70.88 196.08 70.88 196.08C68.21 200.7 66.67 206.05 66.67 211.77C66.67 229.1 80.7201 243.14 98.04 243.14C115.37 243.14 129.41 229.09 129.41 211.77C129.41 206.05 127.87 200.7 125.2 196.08C125.2 196.08 196.07 196.08 196.07 196.08L196.07 0L196.06 0Z" style="fill:#005999;mix-blend-mode:normal;" transform="translate(0.02 236.874)" />
        </g>
        <path id="Path" d="M62.7499 31.37C62.7499 37.09 61.2198 42.44 58.5499 47.06C58.5499 47.06 4.19995 47.06 4.19995 47.06C1.52991 42.45 0 37.09 0 31.37C0 14.04 14.05 0 31.37 0C48.6998 0 62.7499 14.05 62.7499 31.37C62.7499 31.37 62.7499 31.37 62.7499 31.37Z" style="fill:#38ACFF;mix-blend-mode:normal;" transform="translate(458.83 857.78)" />
        <g id="Group" transform="translate(0 189.18)">
          <g id="Group" transform="translate(229.06 0)">
            <g id="Group" transform="translate(68.089 198.367)">
              <g id="Group" transform="translate(46.301 0)">
                <path id="Polygon" d="M33.23 6.10999L22.5599 0L0 35.31L14.23 43.45L33.23 6.10999Z" style="fill:#FFB3A3;fill-rule:evenodd;mix-blend-mode:normal;" transform="translate(0 15.443)" />
                <path id="Group" d="M16.7983 15.979C16.6637 16.1603 13.495 20.3841 9.96275 20.893L1.6428 14.633L1.90281 11.213C2.06284 9.01295 1.73289 6.80296 0.932838 4.74296L0.0628433 2.51295C-0.167259 1.93297 0.262794 1.30296 0.892799 1.30296L1.72276 1.30296C4.45606 1.78177 5.69667 5.86295 5.70271 5.88288C5.86376 5.81356 6.49776 5.52248 7.40907 5.10409C10.9735 3.46763 18.7802 -0.116535 19.1227 0.00291347C20.8626 0.59291 22.1627 2.06291 22.5227 3.8629L22.5926 4.2129C23.1126 6.81291 22.4027 9.51289 20.6626 11.5229L16.8026 15.9829L16.7983 15.979Z" style="fill:#FFB3A3;fill-rule:evenodd;mix-blend-mode:normal;" transform="translate(21.847 0)" />
                <path id="Path" d="M0.813654 3.09583C-0.876287 6.04585 0.15362 9.79585 3.09368 11.4858C6.04363 13.1759 9.79363 12.1459 11.4837 9.20585C13.1736 6.25584 12.1437 2.50584 9.20367 0.815835C6.25372 -0.874167 2.50372 0.145822 0.813654 3.09583C0.813654 3.09583 0.813654 3.09583 0.813654 3.09583Z" style="fill:#FFB3A3;mix-blend-mode:normal;" transform="translate(21.746 12.347)" />
              </g>
              <g id="Group" transform="translate(0 38.082)">
                <g id="Group" transform="translate(1.64 1.64)">
                  <path id="Polygon" d="M0 20.37L41.8199 22.88L43.6 6.57999L2.21997 0L0 20.37Z" style="fill:#FFB3A3;fill-rule:evenodd;mix-blend-mode:normal;" transform="translate(9.141 0.061)" />
                  <path id="Path" d="M11.3607 0.0606523C5.74071 -0.549333 0.680648 3.51066 0.0606531 9.13066C-0.549332 14.7507 3.5106 19.8107 9.1306 20.4306C14.7506 21.0406 19.8107 16.9806 20.4306 11.3606C21.0508 5.73064 16.9907 0.680647 11.3607 0.0606523C11.3607 0.0606523 11.3607 0.0606523 11.3607 0.0606523Z" style="fill:#FFB3A3;mix-blend-mode:normal;" />
                  <path id="Oval" d="M1.80704 13.3354C-1.02889 9.80432 -0.465416 4.64288 3.06571 1.807C6.59672 -1.0289 11.7582 -0.465367 14.594 3.0657C17.43 6.59674 16.8665 11.7582 13.3354 14.5941C9.80436 17.43 4.64286 16.8664 1.80704 13.3354Z" style="fill:#FFB3A3;fill-rule:evenodd;mix-blend-mode:normal;" transform="translate(43.685 6.584)" />
                </g>
                <path id="Path" d="M13.1805 0.0705528L28.4405 2.49057L26.0205 24.6206C26.0205 24.6206 10.6805 23.7006 10.6805 23.7006C4.09054 22.9806 -0.639441 17.1106 0.0705204 10.5906C0.780481 4.09054 6.6705 -0.639439 13.1805 0.0705528C13.1805 0.0705528 13.1805 0.0705528 13.1805 0.0705528Z" style="fill:#006BB8;mix-blend-mode:normal;" />
              </g>
            </g>
            <path id="Path" d="M183.56 208.49L250.36 184.79L184.79 0L0 65.57L65.57 250.36C65.57 250.36 132.37 226.66 132.37 226.66C131.4 231.9 131.74 237.46 133.65 242.85C139.44 259.18 157.38 267.72 173.71 261.93C190.04 256.14 198.58 238.2 192.79 221.87C190.86 216.48 187.62 211.94 183.56 208.49C183.56 208.49 183.56 208.49 183.56 208.49Z" style="fill:#37536B;mix-blend-mode:normal;" transform="translate(24.46 0)" />
            <g id="Group" transform="translate(0 197.448)">
              <g id="Group" transform="translate(0 112.817)">
                <g id="Group" transform="translate(48.47 0)">
                  <path id="Group" d="M32.8343 17.4554C33.4242 8.42538 26.5743 0.625394 17.5342 0.035428C8.50419 -0.554599 0.704202 6.29544 0.114237 15.3354C0.099326 15.5636 0.0891668 15.791 0.0836744 16.0176C-0.597858 28.9673 3.01377 43.3713 6.19819 56.0716C8.7446 66.2272 11.0178 75.2934 10.6043 81.6554L10.6049 81.6555C10.6047 81.6588 10.6045 81.6621 10.6043 81.6654C10.2843 86.6353 14.0442 90.9254 19.0143 91.2454C23.9843 91.5654 28.2742 87.8054 28.5943 82.8354C28.5965 82.8005 28.5986 82.7655 28.6004 82.7306L32.8328 17.4785L32.8343 17.4554Z" style="fill:#25292D;fill-rule:evenodd;mix-blend-mode:normal;" transform="translate(0.456 0)" />
                  <g id="Group" transform="translate(0 81.735)">
                    <path id="Path" d="M14.7115 91.27L25.8315 2.22998C25.8315 2.22998 7.94145 0 7.94145 0C6.67143 5.41998 4.13145 10.94 4.13145 10.94C-2.92855 26.45 1.53147 51.37 0.0814619 89.44C0.0814619 89.44 14.7115 91.27 14.7115 91.27L14.7115 91.27Z" style="fill:#25292D;mix-blend-mode:normal;" transform="translate(3.078 0)" />
                    <path id="Path" d="M39.41 12.79L39.41 12.79L0 12.79L2.56 2.15002L18.21 0L20.7701 2.88C20.7701 2.88 35.1801 7.97003 35.1801 7.97003C37.3399 8.72003 38.94 10.55 39.41 12.79C39.41 12.79 39.41 12.79 39.41 12.79Z" style="fill:#006BB8;mix-blend-mode:normal;" transform="translate(0 84.8)" />
                  </g>
                </g>
                <g id="Group" transform="translate(0 1.213)">
                  <g id="Group" transform="translate(32.211 0)">
                    <path id="Path" d="M36.49 9.63L17.24 72.25C17.24 72.25 0 66.95 0 66.95C4.26001 53.1 -1.75 22.45 5.15002 0C5.15002 0 36.49 9.63 36.49 9.63L36.49 9.63Z" style="fill:#40474F;mix-blend-mode:normal;" transform="translate(0.389 11.532)" />
                    <path id="Oval" d="M1.90981 24.0658C-2.32744 16.0666 0.722247 6.14701 8.72145 1.90977C16.7207 -2.32742 26.6403 0.722267 30.8775 8.72147C35.1146 16.7207 32.065 26.6402 24.0658 30.8775C16.0666 35.1147 6.14699 32.065 1.90981 24.0658Z" style="fill:#40474F;fill-rule:evenodd;mix-blend-mode:normal;" transform="translate(4.847 0)" />
                    <path id="Path" d="M17.6392 11.6692C19.0992 6.90919 16.4291 1.86921 11.6692 0.399178C6.90919 -1.06084 1.86921 1.6092 0.399176 6.36915C-1.06085 11.1292 1.6092 16.1691 6.36915 17.6392C11.1292 19.0992 16.1692 16.4292 17.6392 11.6692C17.6392 11.6692 17.6392 11.6692 17.6392 11.6692Z" style="fill:#40474F;mix-blend-mode:normal;" transform="translate(0 72.113)" />
                  </g>
                  <g id="Group" transform="translate(0 77.552)">
                    <path id="Path" d="M14.58 90.15L47.14 6.53998C47.14 6.53998 30.34 0 30.34 0C27.78 4.94 23.97 9.66998 23.97 9.66998C13.33 22.98 10.72 53.48 0 90.04C0 90.04 14.58 90.15 14.58 90.15L14.58 90.15Z" style="fill:#40474F;mix-blend-mode:normal;" transform="translate(2.57 0)" />
                    <path id="Path" d="M39.41 12.8L39.41 12.8L0 12.8L2.56 2.15997L18.21 0L20.77 2.88C20.77 2.88 35.18 7.97003 35.18 7.97003C37.34 8.72998 38.94 10.56 39.41 12.8C39.41 12.8 39.41 12.8 39.41 12.8Z" style="fill:#006BB8;mix-blend-mode:normal;" transform="translate(0 87.88)" />
                  </g>
                </g>
              </g>
              <path id="Polygon" d="M56.11 90.98L0 100.25L17.01 10.64L28.83 0L52.41 0L61.85 24.57L56.11 90.98Z" style="fill:#006BB8;fill-rule:evenodd;mix-blend-mode:normal;" transform="translate(27.98 38.962)" />
              <g id="Group" transform="translate(52.136 0)">
                <path id="Path" d="M11.59 29.43C11.59 29.43 11.59 29.43 11.59 29.43C15.9 28.86 18.9299 24.89 18.36 20.58C18.36 20.58 15.62 0 15.62 0L0 2.07999C0 2.07999 2.73999 22.66 2.73999 22.66C3.30994 26.98 7.27991 30.01 11.59 29.43C11.59 29.43 11.59 29.43 11.59 29.43Z" style="fill:#FFC6BA;mix-blend-mode:normal;" transform="translate(5.894 19.153)" />
                <path id="Path" d="M8.79993 4.97L9.97998 13.85C9.97998 13.85 7.96997 13.13 7.96997 13.13C4.01001 11.71 1.15991 8.20999 0.569946 4.04001C0.569946 4.04001 0 0 0 0L8.79993 4.97L8.79993 4.97Z" style="fill:#FFB3A3;fill-opacity:0.6;mix-blend-mode:normal;" transform="translate(13.914 23.223)" />
                <path id="Path" d="M27.3792 18.1342C27.3792 18.1342 24.9092 14.2541 24.9092 14.2541C24.5392 10.1642 24.1692 6.69415 24.0492 6.23416C24.0492 6.23416 22.8193 1.25415 18.0492 0.274168C18.0192 0.264158 17.9892 0.264158 17.9593 0.254179C14.6293 -0.305818 9.04925 -0.135835 4.40929 2.79419C0.26928 5.40417 -1.18073 10.7942 1.02929 15.1642C3.00927 19.0542 5.89928 21.9142 5.89928 21.9142C5.89928 21.9142 11.1093 21.7942 11.1093 21.7942C11.1093 21.7942 11.4393 23.0342 11.4393 23.0342C12.0693 25.3742 13.7393 27.3042 15.9693 28.2642C15.9693 28.2642 21.3693 30.5942 21.3693 30.5942C22.1594 30.9342 24.1193 30.2442 24.1193 30.2442C24.8593 30.0442 25.4593 29.4842 25.6893 28.7442C25.8892 28.1242 25.7293 24.7142 25.4393 20.7342C25.4393 20.7342 27.0993 19.5742 27.0993 19.5742C27.5591 19.2442 27.6891 18.6042 27.3792 18.1342C27.3792 18.1342 27.3792 18.1342 27.3792 18.1342Z" style="fill:#FFC6BA;mix-blend-mode:normal;" transform="translate(0.265 1.138)" />
                <path id="Path" d="M23.0443 4.8525C19.3543 6.17251 15.1943 3.62249 12.0443 7.21248C12.0443 7.21248 14.0142 22.0325 14.0142 22.0325L11.0743 23.4725L5.8243 23.6025C5.8243 23.6025 1.67428 16.9125 1.67428 16.9125C0.124292 14.4225 -0.415747 11.3925 0.334253 8.55251C0.90426 6.39251 2.06423 4.71252 3.33425 3.80251C6.92428 1.24251 14.1643 -1.9575 22.2142 1.5425C23.9843 2.3225 23.4843 4.6925 23.0443 4.8525C23.0443 4.8525 23.0443 4.8525 23.0443 4.8525Z" style="fill:#000000;mix-blend-mode:normal;" />
                <path id="Path" d="M0.520762 0.541662C1.85072 -0.88833 3.5608 0.821661 4.55079 2.11167C4.55079 2.11167 5.28077 7.57166 5.28077 7.57166C2.66078 7.92167 -1.45928 2.66166 0.520762 0.541662C0.520762 0.541662 0.520762 0.541662 0.520762 0.541662Z" style="fill:#FFC6BA;mix-blend-mode:normal;" transform="translate(7.503 16.691)" />
              </g>
              <g id="Group" transform="translate(44.909 0.92)">
                <g id="Group" transform="translate(46.311 0)">
                  <path id="Polygon" d="M33.23 6.10999L22.5601 0L0 35.31L14.23 43.45L33.23 6.10999Z" style="fill:#FFC6BA;fill-rule:evenodd;mix-blend-mode:normal;" transform="translate(0 15.443)" />
                  <path id="Group" d="M11.0956 15.9789L11.1 15.9829L14.9599 11.5229C16.7001 9.51289 17.41 6.81291 16.89 4.2129L16.8201 3.8629C16.4601 2.06291 15.16 0.59291 13.42 0.00291347C13.0776 -0.116535 5.27084 3.46763 1.70645 5.10409C0.794949 5.52257 0.160873 5.81368 -1.52588e-05 5.88292L0 5.88293L11.0956 15.9789Z" style="fill:#FFC6BA;fill-rule:evenodd;mix-blend-mode:normal;" transform="translate(21.847 0)" />
                  <path id="Path" d="M0.813654 3.09583C-0.876287 6.04585 0.15362 9.79585 3.09368 11.4858C6.04363 13.1759 9.79363 12.1459 11.4837 9.20585C13.1736 6.25584 12.1437 2.50584 9.20367 0.815835C6.2536 -0.874167 2.49359 0.145822 0.813654 3.09583C0.813654 3.09583 0.813654 3.09583 0.813654 3.09583Z" style="fill:#FFC6BA;mix-blend-mode:normal;" transform="translate(21.746 12.347)" />
                </g>
                <g id="Group" transform="translate(0 38.082)">
                  <path id="Group" d="M11.3606 0.0606524C5.74064 -0.549333 0.680647 3.51066 0.0606524 9.13066C-0.549333 14.7507 3.51066 19.8107 9.13066 20.4306C9.47015 20.4675 9.80759 20.4873 10.1421 20.4908L50.9607 22.9407C55.4607 23.4307 59.5107 20.1806 60.0007 15.6806C60.4907 11.1806 57.2407 7.13063 52.7407 6.64064L12.3444 0.217091C12.0224 0.149871 11.6943 0.0974565 11.3606 0.0606524Z" style="fill:#FFC6BA;fill-rule:evenodd;mix-blend-mode:normal;" transform="translate(1.65 1.64)" />
                  <path id="Path" d="M13.1806 0.0705528L28.4406 2.49057L26.0205 24.6206C26.0205 24.6206 10.6805 23.7006 10.6805 23.7006C4.09049 22.9806 -0.63949 17.1106 0.0705318 10.5906C0.790625 4.09054 6.67063 -0.639439 13.1806 0.0705528C13.1806 0.0705528 13.1806 0.0705528 13.1806 0.0705528Z" style="fill:#006BB8;mix-blend-mode:normal;" />
                  <path id="Polygon" d="M10.15 0L9.96997 1.63L0 1.03" style="fill:none;stroke-width:0.82;stroke:#0B1115;mix-blend-mode:normal;" transform="translate(16.061 23.001)" />
                </g>
              </g>
            </g>
          </g>
          <rect id="Rectangle" width="196.08" height="196.08" style="fill:#007DD6;fill-rule:evenodd;mix-blend-mode:normal;" transform="translate(392.16 685.66)" />
          <rect id="Rectangle" width="196.08" height="196.08" style="fill:#005999;fill-rule:evenodd;mix-blend-mode:normal;" transform="translate(196.08 685.66)" />
          <rect id="Rectangle" width="196.08" height="196.08" style="fill:#179EFF;fill-rule:evenodd;mix-blend-mode:normal;" transform="translate(0 685.66)" />
          <path id="Path" d="M196.06 0L196.06 196.08C196.06 196.08 125.2 196.08 125.2 196.08C127.87 191.47 129.4 186.11 129.4 180.39C129.4 163.06 115.35 149.02 98.03 149.02C80.7101 149.02 66.66 163.06 66.66 180.39C66.66 186.11 68.1901 191.46 70.86 196.08C70.86 196.08 0 196.08 0 196.08L0 0C0 0 70.86 0 70.86 0C68.1899 4.60999 66.66 9.96997 66.66 15.69C66.66 33.02 80.7101 47.06 98.03 47.06C115.35 47.06 129.4 33.01 129.4 15.69C129.4 9.97003 127.87 4.62 125.2 0C125.2 0 196.06 0 196.06 0L196.06 0Z" style="fill:#008FF5;mix-blend-mode:normal;" transform="translate(392.19 293.5)" />
          <path id="Oval" d="M9.18796 53.5514C-3.06265 41.3008 -3.06265 21.4386 9.18796 9.18799C21.4386 -3.06268 41.3008 -3.06268 53.5514 9.18799C65.802 21.4386 65.802 41.3008 53.5514 53.5514C41.3008 65.802 21.4386 65.802 9.18796 53.5514Z" style="fill:#007DD6;fill-rule:evenodd;mix-blend-mode:normal;" transform="translate(345.097 752.328)" />
          <path id="Oval" d="M0.846649 38.5848C-3.13467 21.7239 7.30624 4.828 24.1671 0.84668C41.028 -3.13464 57.9239 7.30627 61.9052 24.1671C65.8866 41.028 55.4456 57.9239 38.5848 61.9052C21.7239 65.8865 4.82797 55.4456 0.846649 38.5848Z" style="fill:#005999;fill-rule:evenodd;mix-blend-mode:normal;" transform="translate(149.017 752.233)" />
          <g id="Group" transform="translate(30.34 399.336)">
            <g id="Group" transform="translate(102.515 40.543)">
              <g id="Group">
                <g id="Group" transform="translate(17.085 44.311)">
                  <path id="Group" d="M3.69878 16.1734C3.69459 16.1723 3.69041 16.1712 3.68622 16.17C3.68622 16.17 -0.283751 10.82 0.0161762 6.78998L8.7262 0L12.3862 1.09003L24.4162 4.05005C24.8662 4.16003 25.1462 4.61005 25.0362 5.06006L24.9362 5.48004C23.7784 8.31009 17.4213 6.50866 17.2883 6.47064C17.3313 6.69118 17.5151 7.52532 17.7752 8.70548C18.7342 13.0575 20.7301 22.1151 20.5262 22.46C19.4763 24.22 17.5662 25.28 15.5262 25.25L15.1362 25.24C12.1762 25.19 9.40625 23.78 7.63623 21.42L3.69878 16.1734Z" style="fill:#FFC6BA;fill-rule:evenodd;mix-blend-mode:normal;" transform="translate(29.534 36.35)" />
                  <path id="Group" d="M27.816 41.5951L27.81 41.6L0 10.27L12.77 0L37.4 33.9C39.52 36.55 39.1 40.42 36.46 42.54C33.8199 44.67 29.95 44.25 27.8199 41.6C27.8186 41.5984 27.8173 41.5967 27.816 41.5951Z" style="fill:#FFC6BA;fill-rule:evenodd;mix-blend-mode:normal;" transform="translate(1.07 2.35)" />
                  <path id="Path" d="M23.54 40.73L0 13.89L14.16 0C14.16 0 38.19 33.1 38.19 33.1C40.83 36.37 26.23 44.08 23.54 40.73C23.54 40.73 23.54 40.73 23.54 40.73Z" style="fill:#00477A;mix-blend-mode:normal;" />
                </g>
                <g id="Group">
                  <path id="Group" d="M20.0105 7.16141C18.3105 1.76138 12.5505 -1.22861 7.16052 0.481416C1.77153 2.19113 -1.22842 7.93938 0.479611 13.3285L0.470457 13.3314L0.558718 13.5697C0.616286 13.7383 0.677853 13.9045 0.743279 14.0681L15.0205 52.6214C16.3805 56.9415 20.9905 59.3315 25.3005 57.9715C29.6205 56.6114 32.0205 52.0014 30.6505 47.6914L20.2661 8.13487C20.1974 7.80976 20.1124 7.48495 20.0105 7.16141Z" style="fill:#FFC6BA;fill-rule:evenodd;mix-blend-mode:normal;" transform="translate(1.635 1.65)" />
                  <path id="Path" d="M27.4352 61.181C22.2652 62.8111 16.7252 59.931 15.0952 54.7611C15.0952 54.7611 0.565142 15.5411 0.565142 15.5411C-1.43486 9.22109 2.04512 2.53109 8.29512 0.551106C14.5451 -1.41886 21.2351 2.06112 23.2051 8.30111C23.2051 8.30111 33.8751 48.9011 33.8751 48.9011C35.4852 54.0111 32.6052 59.551 27.4352 61.181C27.4352 61.181 27.4352 61.181 27.4352 61.181Z" style="fill:#00477A;mix-blend-mode:normal;" />
                </g>
              </g>
            </g>
            <path id="Path" d="M149.02 98.04C149.02 115.37 163.07 129.41 180.39 129.41C186.11 129.41 191.46 127.88 196.08 125.21C196.08 125.21 196.08 196.07 196.08 196.07L0 196.07L0 0L196.08 0C196.08 0 196.08 70.86 196.08 70.86C191.47 68.19 186.11 66.66 180.39 66.66C163.07 66.67 149.02 80.71 149.02 98.04C149.02 98.04 149.02 98.04 149.02 98.04Z" style="fill:#37536B;mix-blend-mode:normal;" transform="translate(142.84 90.244)" />
            <g id="Group">
              <g id="Group">
                <g id="Group" transform="translate(0 107.308)">
                  <g id="Group" transform="translate(48.47 0)">
                    <g id="Group" transform="translate(0.456 0)">
                      <path id="Path" d="M32.8343 2.13L28.5943 67.5C28.5943 67.5 10.6043 66.33 10.6043 66.33C11.5443 51.87 -1.39571 23.44 0.124307 0C0.124307 0 32.8343 2.13 32.8343 2.13L32.8343 2.13Z" style="fill:#00538F;mix-blend-mode:normal;" transform="translate(0 15.336)" />
                      <path id="Oval" d="M4.07428 27.2038C-1.8982 20.4022 -1.22608 10.0467 5.57556 4.07425C12.3772 -1.89822 22.7327 -1.22604 28.7051 5.57559C34.6776 12.3772 34.0054 22.7327 27.2038 28.7052C20.4022 34.6776 10.0468 34.0055 4.07428 27.2038Z" style="fill:#00538F;fill-rule:evenodd;mix-blend-mode:normal;" transform="translate(0.056 0)" />
                      <path id="Path" d="M18.009 9.59902C18.329 4.62905 14.569 0.339012 9.59902 0.0190048C4.62905 -0.301003 0.339008 3.45901 0.019001 8.42898C-0.301006 13.3989 3.459 17.689 8.42897 18.009C13.399 18.339 17.689 14.569 18.009 9.59902C18.009 9.59902 18.009 9.59902 18.009 9.59902Z" style="fill:#00538F;mix-blend-mode:normal;" transform="translate(10.585 73.237)" />
                    </g>
                    <g id="Group" transform="translate(0 81.736)">
                      <path id="Path" d="M14.7115 91.27L25.8315 2.22998C25.8315 2.22998 7.94145 0 7.94145 0C6.67143 5.41998 4.13145 10.94 4.13145 10.94C-2.92855 26.45 1.53147 51.37 0.0814619 89.44C0.0814619 89.44 14.7115 91.27 14.7115 91.27L14.7115 91.27Z" style="fill:#00538F;mix-blend-mode:normal;" transform="translate(3.078 0)" />
                      <path id="Path" d="M39.41 12.79L39.41 12.79L0 12.79L2.56 2.15002L18.21 0L20.77 2.88C20.77 2.88 35.18 7.97003 35.18 7.97003C37.34 8.72003 38.94 10.55 39.41 12.79C39.41 12.79 39.41 12.79 39.41 12.79Z" style="fill:#090A0B;mix-blend-mode:normal;" transform="translate(0 84.8)" />
                    </g>
                  </g>
                  <g id="Group" transform="translate(0 1.19)">
                    <g id="Group" transform="translate(32.211 0)">
                      <path id="Path" d="M36.49 9.63L17.24 72.25C17.24 72.25 0 66.95 0 66.95C4.26001 53.1 -1.75 22.45 5.15002 0C5.15002 0 36.49 9.63 36.49 9.63L36.49 9.63Z" style="fill:#006BB8;mix-blend-mode:normal;" transform="translate(0.399 11.555)" />
                      <path id="Oval" d="M4.09837 27.2328C-1.88948 20.4439 -1.24007 10.0862 5.54887 4.09837C12.3379 -1.88949 22.6955 -1.24007 28.6834 5.54887C34.6712 12.3378 34.0218 22.6955 27.2328 28.6834C20.4439 34.6712 10.0862 34.0218 4.09837 27.2328Z" style="fill:#006BB8;fill-rule:evenodd;mix-blend-mode:normal;" transform="translate(4.875 0)" />
                      <path id="Path" d="M17.6392 11.6692C19.0992 6.90919 16.4291 1.86921 11.6692 0.399178C6.90919 -1.06084 1.86921 1.6092 0.399176 6.36915C-1.06085 11.1292 1.6092 16.1691 6.36915 17.6392C11.1292 19.0992 16.1791 16.4292 17.6392 11.6692C17.6392 11.6692 17.6392 11.6692 17.6392 11.6692Z" style="fill:#006BB8;mix-blend-mode:normal;" transform="translate(0 72.136)" />
                    </g>
                    <g id="Group" transform="translate(0 77.575)">
                      <path id="Path" d="M14.58 90.15L47.14 6.53998C47.14 6.53998 30.34 0 30.34 0C27.78 4.94 23.97 9.66998 23.97 9.66998C13.33 22.98 10.72 53.48 0 90.04C0 90.04 14.58 90.15 14.58 90.15L14.58 90.15Z" style="fill:#006BB8;mix-blend-mode:normal;" transform="translate(2.58 0)" />
                      <path id="Path" d="M39.41 12.8L39.41 12.8L0 12.8L2.56 2.15997L18.21 0L20.77 2.88C20.77 2.88 35.18 7.97003 35.18 7.97003C37.34 8.72998 38.9399 10.56 39.41 12.8C39.41 12.8 39.41 12.8 39.41 12.8Z" style="fill:#090A0B;mix-blend-mode:normal;" transform="translate(0 87.88)" />
                    </g>
                  </g>
                </g>
                <path id="Polygon" d="M66.4 0L92.0699 9.58997L95.2599 32.9L56.66 97L0 87.68L53.5099 4.39996L66.4 0Z" style="fill:#00477A;fill-rule:evenodd;mix-blend-mode:normal;" transform="translate(25.24 31.374)" />
                <g id="Group" transform="translate(100.16 0)">
                  <path id="Path" d="M4.55012 29.29C4.55012 29.29 4.55012 29.29 4.55012 29.29C8.49012 31.13 13.1801 29.42 15.0201 25.48C15.0201 25.48 23.7901 6.65997 23.7901 6.65997L9.51008 0C9.51008 0 0.740058 18.82 0.740058 18.82C-1.09991 22.77 0.610114 27.45 4.55012 29.29C4.55012 29.29 4.55012 29.29 4.55012 29.29Z" style="fill:#FFC6BA;mix-blend-mode:normal;" transform="translate(0 16.084)" />
                  <path id="Path" d="M7.44988 8.92004L3.66985 17.04C3.66985 17.04 2.36987 15.35 2.36987 15.35C-0.210151 12.02 -0.72016 7.54004 1.01989 3.71002C1.01989 3.71002 2.70989 0 2.70989 0L7.44988 8.92004L7.44988 8.92004Z" style="fill:#FFB3A3;fill-opacity:0.6;mix-blend-mode:normal;" transform="translate(12.49 22.094)" />
                  <path id="Path" d="M20.7363 25.2901C20.7363 25.2901 20.7363 20.6901 20.7363 20.6901C22.6263 17.0501 24.1863 13.9201 24.3263 13.4701C24.3263 13.4701 25.9764 8.61016 22.4764 5.22015C22.4563 5.20013 22.4264 5.18017 22.4064 5.16015C19.9064 2.90014 15.1064 0.0401567 9.61638 0.000178635C4.71635 -0.0298507 0.596358 3.73016 0.116378 8.60015C-0.313615 12.9402 0.586349 16.9102 0.586349 16.9102C0.586349 16.9102 5.04637 19.6102 5.04637 19.6102C5.04637 19.6102 4.65636 20.8301 4.65636 20.8301C3.92638 23.1401 4.29637 25.6702 5.65636 27.6801C5.65636 27.6801 8.95634 32.5401 8.95634 32.5401C9.44633 33.2601 11.4563 33.7201 11.4563 33.7201C12.1963 33.9501 12.9963 33.8001 13.5863 33.3001C14.0964 32.8801 15.7864 29.9301 17.6963 26.4201C17.6963 26.4201 19.7164 26.3401 19.7164 26.3401C20.2864 26.3201 20.7363 25.8501 20.7363 25.2901C20.7363 25.2901 20.7363 25.2901 20.7363 25.2901Z" style="fill:#FFC6BA;mix-blend-mode:normal;" transform="translate(8.164 0.854)" />
                  <path id="Path" d="M24.6 11.5137C20.78 10.6337 18.65 6.2537 14.06 7.57371C14.06 7.57371 7.75 21.1237 7.75 21.1237L4.48999 20.7537L0 18.0337C0 18.0337 0.0999756 10.1637 0.0999756 10.1637C0.139954 7.23375 1.31 4.39372 3.46997 2.40373C5.10999 0.893719 7 0.103741 8.56 0.0237237C12.96 -0.196247 20.78 1.0037 25.68 8.28373C26.75 9.88371 25.05 11.6137 24.6 11.5137C24.6 11.5137 24.6 11.5137 24.6 11.5137Z" style="fill:#000000;mix-blend-mode:normal;" transform="translate(8.18 0)" />
                  <path id="Path" d="M1.8458 0.0654449C3.73582 -0.424545 4.25577 1.94545 4.39579 3.55544C4.39579 3.55544 2.06577 8.54543 2.06577 8.54543C-0.314234 7.43544 -0.954248 0.785477 1.8458 0.0654449C1.8458 0.0654449 1.8458 0.0654449 1.8458 0.0654449Z" style="fill:#FFC6BA;mix-blend-mode:normal;" transform="translate(11.604 13.798)" />
                </g>
                <g id="Group" transform="translate(76.479 30.895)">
                  <g id="Group">
                    <g id="Group" transform="translate(29.011 38.109)">
                      <path id="Group" d="M16.9178 4.89599L16.58 4.21022C16.58 4.21022 23.32 4.32021 23.7 1.2502L23.69 0.820206C23.67 0.360184 23.29 -0.0098114 22.83 0.000198364L10.45 0.290176L6.63 0.190201L0 9.02022C0.743786 12.9868 5.9027 17.0713 5.98896 17.1394L5.9801 17.1502L11.1601 21.1901C13.4901 23.0101 16.5301 23.6501 19.4001 22.9201L19.7801 22.8201C21.7601 22.3201 23.3301 20.7901 23.8801 18.8201C23.9902 18.4269 19.6647 10.1523 17.6086 6.21901C17.3317 5.68932 17.096 5.23837 16.9178 4.89599Z" style="fill:#FFC6BA;fill-rule:evenodd;mix-blend-mode:normal;" transform="translate(36.18 28.56)" />
                      <path id="Group" d="M42.28 26.28C45.03 28.28 45.63 32.12 43.63 34.8701C41.63 37.61 37.78 38.22 35.04 36.22C35.0143 36.2013 34.9888 36.1824 34.9635 36.1633L0 13.25L9.65002 0L42.28 26.28Z" style="fill:#FFC6BA;fill-rule:evenodd;mix-blend-mode:normal;" transform="translate(0.69 2.35)" />
                      <path id="Path" d="M29.74 36.86L0 17.11L10.03 0C10.03 0 41.88 25.66 41.88 25.66C45.29 28.13 33.21 39.38 29.74 36.86C29.74 36.86 29.74 36.86 29.74 36.86Z" style="fill:#00477A;mix-blend-mode:normal;" />
                    </g>
                    <g id="Group">
                      <path id="Group" d="M18.875 4.71505C15.815 -0.044958 9.48501 -1.43497 4.71505 1.62502C-0.044958 4.68502 -1.43497 11.015 1.62502 15.785C1.82776 16.1004 2.04486 16.4009 2.2749 16.6864L25.9546 49.8945L25.955 49.895C28.395 53.7051 33.4651 54.8151 37.2751 52.3651C41.085 49.925 42.195 44.8551 39.745 41.0451L19.3763 5.58765C19.225 5.2918 19.058 5.00058 18.875 4.71505Z" style="fill:#FFC6BA;fill-rule:evenodd;mix-blend-mode:normal;" transform="translate(1.616 1.644)" />
                      <path id="Path" d="M39.7813 55.3891C35.2213 58.3191 29.1213 56.9891 26.1913 52.4192C26.1913 52.4192 1.91124 18.3692 1.91124 18.3692C-1.66878 12.7892 -0.0687444 5.41917 5.45121 1.87919C10.9712 -1.66078 18.3312 -0.0507992 21.8712 5.45921C21.8712 5.45921 42.7912 41.8592 42.7912 41.8592C45.6713 46.3692 44.3413 52.4591 39.7813 55.3891C39.7813 55.3891 39.7813 55.3891 39.7813 55.3891Z" style="fill:#00477A;mix-blend-mode:normal;" />
                    </g>
                  </g>
                  <line id="Line" x1="0" y1="0" x2="28.91" y2="23.29" style="fill:none;stroke-width:0.82;stroke:#0B1115;mix-blend-mode:normal;" transform="translate(41.981 40.469)" />
                  <line id="Line" x1="0" y1="0" x2="7.22" y2="12.56" style="fill:none;stroke-width:0.82;stroke:#0B1115;mix-blend-mode:normal;" transform="translate(34.761 27.909)" />
                  <line id="Line" x1="0" y1="0" x2="8.51" y2="5.74" style="fill:none;stroke-width:0.82;stroke:#0B1115;mix-blend-mode:normal;" transform="translate(27.121 53.649)" />
                  <line id="Line" x1="0" y1="0" x2="20.96" y2="29.27" style="fill:none;stroke-width:0.82;stroke:#0B1115;mix-blend-mode:normal;" transform="translate(6.161 24.379)" />
                </g>
              </g>
            </g>
          </g>
        </g>
        <g id="Group" transform="translate(753.93 215.386)">
          <g id="Group" transform="translate(31.25 10.114)">
            <rect id="Rectangle" width="74.54" height="855.42" style="fill:#37536B;fill-rule:evenodd;mix-blend-mode:normal;" transform="translate(1 0)" />
            <line id="Line" x1="0" y1="0" x2="0" y2="813.21" style="fill:none;stroke-width:16.471;stroke:#6F94B5;stroke-linecap:round;mix-blend-mode:normal;" transform="translate(0 23.02)" />
            <line id="Line" x1="0" y1="0" x2="0" y2="813.21" style="fill:none;stroke-width:16.471;stroke:#6F94B5;stroke-linecap:round;mix-blend-mode:normal;" transform="translate(37.27 23.02)" />
            <line id="Line" x1="0" y1="0" x2="0" y2="813.21" style="fill:none;stroke-width:16.471;stroke:#6F94B5;stroke-linecap:round;mix-blend-mode:normal;" transform="translate(74.54 23.02)" />
          </g>
          <g id="Group" transform="translate(0 834.574)">
            <rect id="Rectangle" width="139.03" height="20.64" style="fill:#426481;fill-rule:evenodd;mix-blend-mode:normal;" transform="translate(0 10.32)" />
            <rect id="Rectangle" width="106.32" height="10.32" style="fill:#213240;fill-rule:evenodd;mix-blend-mode:normal;" transform="translate(16.36 0)" />
          </g>
          <g id="Group" transform="translate(0.01 0)">
            <rect id="Rectangle" width="139.03" height="20.64" style="fill:#426481;fill-rule:evenodd;mix-blend-mode:normal;" />
            <rect id="Rectangle" width="106.32" height="10.32" style="fill:#213240;fill-rule:evenodd;mix-blend-mode:normal;" transform="translate(16.35 20.645)" />
          </g>
        </g>
        <g id="Group" transform="translate(663.06 0)">
          <path id="Path" d="M0 37.45C0.0600586 36.61 15.59 0 15.59 0C15.59 0 54.21 0 54.21 0L69.7999 37.45L0 37.45C0 37.45 0 37.45 0 37.45Z" style="fill:#006BB8;mix-blend-mode:normal;" transform="translate(126.11 174.86)" />
          <path id="Polygon" d="M91.3199 0L0 2.61L24.96 34.53L24.99 34.53L63.54 34.53L63.58 34.53L91.3199 0Z" style="fill:#007DD6;fill-rule:evenodd;mix-blend-mode:normal;" transform="translate(116.74 140.33)" />
          <rect id="Rectangle" width="89.55" height="13.19" style="fill:#007DD6;fill-rule:evenodd;mix-blend-mode:normal;" transform="translate(115.06 202.59)" />
          <g id="Group">
            <path id="Shape" d="M24.78 1.52588e-05C16.48 30.23 8.23999 60.39 0 90.56C11.1 89.88 34.73 86.68 58.6899 68.77C90.3999 45.13 101.88 11.21 105.18 0C105.18 0 24.78 0 24.78 0C24.78 0 24.78 1.52588e-05 24.78 1.52588e-05ZM49.51 53.44C40.72 60.03 31.87 64.34 23.63 67.23C23.63 67.23 36.98 18.47 36.98 18.47C36.98 18.47 79.4 18.47 79.4 18.47C72.97 30.23 63.47 43.04 49.51 53.44C49.51 53.44 49.51 53.44 49.51 53.44Z" style="fill:#007DD6;mix-blend-mode:normal;" transform="translate(215.61 34.97)" />
            <path id="Shape" d="M0 7.62939e-06C3.30005 11.2 14.78 45.13 46.49 68.77C70.45 86.69 94.08 89.89 105.18 90.56C96.9399 60.39 88.7 30.23 80.3999 0C80.3999 0 0 0 0 0C0 0 0 7.62939e-06 0 7.62939e-06ZM25.77 18.47L68.1901 18.47C68.1901 18.47 81.54 67.23 81.54 67.23C73.3 64.34 64.4501 60.03 55.66 53.44C41.7 43.04 32.2 30.23 25.77 18.47C25.77 18.47 25.77 18.47 25.77 18.47Z" style="fill:#007DD6;mix-blend-mode:normal;" transform="translate(0 34.97)" />
            <path id="Path" d="M149.89 119.38C150.27 118.34 150.61 117.29 150.88 116.24C150.88 116.24 187.34 0 187.34 0L184.36 0L0 0C0 0 37.29 116.26 37.29 116.26C39.25 124.14 44.55 131.69 53.29 137.77C75.8101 153.45 112.33 153.45 134.86 137.77C142.23 132.64 147.14 126.46 149.69 119.93C149.69 119.93 149.71 119.93 149.71 119.93L149.89 119.38C149.89 119.38 149.89 119.38 149.89 119.38Z" style="fill:#008FF5;mix-blend-mode:normal;" transform="translate(66.92 13.19)" />
            <rect id="Rectangle" width="197.4" height="13.19" style="fill:#38ACFF;fill-rule:evenodd;mix-blend-mode:normal;" transform="translate(61.13 0)" />
          </g>
        </g>
        <path id="Path" d="M243.12 47.06C243.12 47.06 172.26 47.06 172.26 47.06C174.93 42.45 176.46 37.09 176.46 31.37C176.46 14.04 162.41 0 145.09 0C127.76 0 113.72 14.04 113.72 31.37C113.72 37.09 115.25 42.45 117.92 47.06C117.92 47.06 47.0599 47.06 47.0599 47.06C47.0599 47.06 47.0599 117.92 47.0599 117.92C42.45 115.25 37.09 113.72 31.37 113.72C14.04 113.72 0 127.77 0 145.09C0 162.42 14.05 176.46 31.37 176.46C37.09 176.46 42.4399 174.93 47.0599 172.26C47.0599 172.26 47.0599 243.12 47.0599 243.12C47.0599 243.12 117.19 243.12 117.19 243.12C114.98 247.41 113.73 252.28 113.73 257.43C113.73 263.15 115.26 268.5 117.93 273.12C123.36 282.5 133.5 288.81 145.11 288.81C156.72 288.81 166.86 282.5 172.29 273.12C174.96 268.51 176.49 263.15 176.49 257.43C176.49 252.27 175.24 247.41 173.03 243.12C173.03 243.12 243.16 243.12 243.16 243.12L243.16 47.06L243.12 47.06Z" style="fill:#2C4256;mix-blend-mode:normal;" transform="translate(345.13 631.7)" />
        <g id="Group" transform="translate(1567.227 785.059)">
          <g id="Group" transform="translate(55.676 29.695)">
            <path id="Group" d="M8.7383 0.0172043C4.22829 -0.272774 0.318376 3.13726 0.0183268 7.65722C-0.281722 12.1772 3.1382 16.0772 7.65822 16.3772C7.66551 16.3777 7.6728 16.3781 7.68009 16.3786L48.2873 21.0411C48.6188 21.0958 48.956 21.1348 49.2984 21.1572C54.9382 21.5272 59.8181 17.2573 60.1882 11.6072C60.5581 5.96722 56.2881 1.08721 50.6382 0.717216C50.2967 0.694855 49.9581 0.689442 49.6231 0.700256L8.7383 0.0172043Z" style="fill:#FFB3A3;fill-rule:evenodd;mix-blend-mode:normal;" transform="translate(10.198 45.649)" />
            <path id="Path" d="M16.9099 0.26001L1.45996 0L0 22.21C0 22.21 15.27 23.97 15.27 23.97C21.8901 24.4 27.5601 19.44 27.99 12.89C28.4199 6.36005 23.4399 0.690063 16.9099 0.26001C16.9099 0.26001 16.9099 0.26001 16.9099 0.26001Z" style="fill:#006BB8;mix-blend-mode:normal;" transform="translate(44.037 44.466)" />
            <path id="Group" d="M12.1148 4.6949L23.9747 44.8849L8.04478 48.7549L0.164892 7.59486L0.174346 7.59257C-0.62421 4.29334 1.39564 0.974682 4.69492 0.174879C7.98472 -0.625109 11.3148 1.39491 12.1148 4.6949Z" style="fill:#FFB3A3;fill-rule:evenodd;mix-blend-mode:normal;" transform="translate(2.562 7.881)" />
            <path id="Path" d="M16.4265 4.19576L16.9565 6.70577C16.9565 6.70577 17.3267 8.56576 17.3267 8.56576C17.6567 10.2658 16.9468 11.9857 15.5266 12.9757C15.1665 13.2257 3.44653 15.0757 3.44653 15.0757C0.72656 14.0457 -0.383547 5.64571 0.116453 2.8857C0.336423 1.65572 1.28637 0.675683 2.50635 0.415734C6.5166 -0.444252 14.6265 -0.314247 16.4265 4.19576C16.4265 4.19576 16.4265 4.19576 16.4265 4.19576Z" style="fill:#FFB3A3;mix-blend-mode:normal;" />
          </g>
          <g id="Group" transform="translate(67.693 144.874)">
            <g id="Group" transform="translate(28.47 0.988)">
              <g id="Group">
                <path id="Path" d="M0 9.63L19.25 72.2501C19.25 72.2501 36.49 66.95 36.49 66.95C32.23 53.1 34.76 23.31 31.3401 0C31.3401 0 0 9.63 0 9.63L0 9.63Z" style="fill:#008FF5;mix-blend-mode:normal;" transform="translate(0.76 11.709)" />
                <path id="Oval" d="M8.72148 30.8775C0.722212 26.6402 -2.32735 16.7207 1.90971 8.72147C6.14702 0.722267 16.0665 -2.32742 24.0657 1.90977C32.065 6.14701 35.1145 16.0666 30.8775 24.0658C26.6402 32.065 16.7207 35.1147 8.72148 30.8775Z" style="fill:#008FF5;fill-rule:evenodd;mix-blend-mode:normal;" />
                <path id="Path" d="M0.399158 11.6692C-1.0608 6.90916 1.60912 1.86913 6.36913 0.399155C11.1291 -1.06081 16.1692 1.60912 17.6391 6.36913C19.0991 11.1291 16.4292 16.1692 11.6692 17.6391C6.90917 19.0991 1.85912 16.4291 0.399158 11.6692C0.399158 11.6692 0.399158 11.6692 0.399158 11.6692Z" style="fill:#008FF5;mix-blend-mode:normal;" transform="translate(19.611 72.29)" />
              </g>
              <g id="Group" transform="translate(20.14 77.729)">
                <path id="Path" d="M32.5601 90.15L0 6.54004C0 6.54004 16.8 0 16.8 0C19.3601 4.93994 23.1702 9.67004 23.1702 9.67004C33.8101 22.9801 36.4202 53.4801 47.1401 90.04C47.1401 90.04 32.5601 90.15 32.5601 90.15L32.5601 90.15Z" style="fill:#008FF5;mix-blend-mode:normal;" />
                <path id="Path" d="M0 12.79L0 12.79L39.4099 12.79L36.8499 2.15002L21.2 0L18.6399 2.88C18.6399 2.88 4.22998 7.96997 4.22998 7.96997C2.07007 8.71997 0.459961 10.55 0 12.79C0 12.79 0 12.79 0 12.79Z" style="fill:#090A0B;mix-blend-mode:normal;" transform="translate(10.31 87.89)" />
              </g>
            </g>
            <g id="Group">
              <g id="Group" transform="translate(6.01 0)">
                <path id="Path" d="M0 2.13007L4.23999 67.5001C4.23999 67.5001 22.23 66.33 22.23 66.33C21.29 51.8701 30.22 25.56 32.71 0C32.71 0 0 2.13007 0 2.13007L0 2.13007Z" style="fill:#38ACFF;mix-blend-mode:normal;" transform="translate(0.099 15.276)" />
                <path id="Oval" d="M5.57556 28.7052C-1.22596 22.7327 -1.89832 12.3772 4.07434 5.57559C10.0468 -1.22604 20.4022 -1.89822 27.2037 4.07425C34.0055 10.0467 34.6776 20.4022 28.7052 27.2038C22.7328 34.0055 12.3773 34.6776 5.57556 28.7052Z" style="fill:#38ACFF;fill-rule:evenodd;mix-blend-mode:normal;" />
                <path id="Path" d="M0.0190082 9.59895C-0.30106 4.62898 3.45895 0.338943 8.42892 0.0189972C13.3989 -0.300949 17.6889 3.45894 18.009 8.42903C18.3291 13.3991 14.5691 17.689 9.59909 18.009C4.63913 18.3289 0.349086 14.5689 0.0190082 9.59895C0.0190082 9.59895 0.0190082 9.59895 0.0190082 9.59895Z" style="fill:#38ACFF;mix-blend-mode:normal;" transform="translate(4.32 73.187)" />
              </g>
              <g id="Group" transform="translate(0 81.686)">
                <path id="Path" d="M11.1201 91.27L0 2.22998C0 2.22998 17.8899 0 17.8899 0C19.1599 5.42004 21.7 10.9399 21.7 10.9399C28.76 26.45 24.3 51.37 25.75 89.4399C25.75 89.4399 11.1201 91.27 11.1201 91.27L11.1201 91.27Z" style="fill:#38ACFF;mix-blend-mode:normal;" transform="translate(10.5 0)" />
                <path id="Path" d="M0 12.8L0 12.8L39.4099 12.8L36.8499 2.16003L21.2 0L18.6399 2.88C18.6399 2.88 4.22998 7.96997 4.22998 7.96997C2.05981 8.72998 0.459961 10.5601 0 12.8C0 12.8 0 12.8 0 12.8Z" style="fill:#090A0B;mix-blend-mode:normal;" transform="translate(0 84.79)" />
              </g>
            </g>
          </g>
          <g id="Group" transform="translate(90.384 33.898)">
            <path id="Path" d="M27.6585 9.12075C27.6385 7.42074 26.8985 5.79074 25.6485 4.63076C19.8785 -0.729222 11.4686 -0.519261 7.32841 0.750758C7.29838 0.760768 7.26836 0.770778 7.23833 0.780788C2.63823 2.37081 2.0684 7.47079 2.0684 7.47079C1.64848 10.6408 1.63847 11.8308 1.46831 15.7008C1.42827 16.5608 -0.601762 18.5108 0.178268 21.1908C0.178268 21.1908 2.65825 28.4708 3.37822 29.9907C3.7083 30.6908 4.36821 31.1707 5.12822 31.2708C5.12822 31.2708 8.94829 31.7808 8.94829 31.7808C9.80839 31.8908 10.6783 31.7208 11.4183 31.2708C11.4183 31.2708 16.4683 28.2608 16.4683 28.2608C18.5584 27.0208 19.9583 24.8908 20.2784 22.4807C20.2784 22.4807 20.4483 21.2107 20.4483 21.2107C20.4483 21.2107 24.9483 20.6907 24.9483 20.6907C24.9385 20.7008 27.7286 15.1007 27.6585 9.12075C27.6585 9.12075 27.6585 9.12075 27.6585 9.12075Z" style="fill:#FFC6BA;mix-blend-mode:normal;" transform="translate(0 1.242)" />
            <path id="Path" d="M6.83892 29.73C6.83892 29.73 6.83892 29.73 6.83892 29.73C2.52886 29.16 -0.501168 25.19 0.0688999 20.88C0.0688999 20.88 2.84893 0 2.84893 0L18.469 2.08002C18.469 2.08002 15.689 22.96 15.689 22.96C15.1189 27.27 11.149 30.31 6.83892 29.73C6.83892 29.73 6.83892 29.73 6.83892 29.73Z" style="fill:#FFC6BA;mix-blend-mode:normal;" transform="translate(2.89 19.122)" />
            <path id="Path" d="M0.000239611 5.5924C0.000239611 5.5924 0.000239611 5.5924 0.000239611 5.5924C3.84033 6.10241 3.93017 9.38238 3.55029 11.3524C3.55029 11.3524 2.17041 21.5124 2.17041 21.5124L7.4104 20.8124C7.4104 20.8124 11.0105 24.7724 11.0105 24.7724C12.2605 26.1424 13.9404 27.0224 15.7805 27.2724C15.7805 27.2724 17.4304 27.4924 17.4304 27.4924C17.4304 27.4924 17.9905 27.1224 17.9905 27.1224C26.7004 21.7024 27.6304 8.37237 21.6204 4.02239C17.5103 1.05242 9.55029 -1.87763 1.71044 1.5324C-0.0595748 2.29241 0.000239611 5.5924 0.000239611 5.5924C0.000239611 5.5924 0.000239611 5.5924 0.000239611 5.5924Z" style="fill:#000000;mix-blend-mode:normal;" transform="translate(3.328 0)" />
            <path id="Path" d="M4.76001 0.541658C3.42993 -0.888334 1.71997 0.821688 0.72998 2.11167C0.72998 2.11167 0 7.57169 0 7.57169C2.62012 7.92166 6.73999 2.66165 4.76001 0.541658C4.76001 0.541658 4.76001 0.541658 4.76001 0.541658Z" style="fill:#FFC6BA;mix-blend-mode:normal;" transform="translate(6.888 16.121)" />
          </g>
          <path id="Path" d="M44.53 2.25L13.8501 0L3.77002 13.43L0 89.48C0 89.48 21.49 95.56 21.49 95.56C34.7 99.29 48.8699 97.07 60.3 89.48C60.3 89.48 60.3 89.48 60.3 89.48L60.3 89.48L51.3401 60.32L55.6001 14.89L44.53 2.25L44.53 2.25Z" style="fill:#006BB8;mix-blend-mode:normal;" transform="translate(72.093 72.171)" />
          <g id="Group">
            <path id="Polygon" d="M4.95996 0L27.6899 14.21L24.8401 19.79L0 9.72003L4.95996 0Z" style="fill:#030303;fill-rule:evenodd;mix-blend-mode:normal;" transform="translate(53.803 29.481)" />
            <path id="Polygon" d="M51.75 40.89L0 16.79L8.56006 0L58.45 27.75L51.75 40.89Z" style="fill:#414154;fill-rule:evenodd;mix-blend-mode:normal;" transform="translate(2.073 0.481)" />
            <line id="Line" x1="4.24" y1="2.16" x2="0" y2="0" style="fill:none;stroke-width:6.27;stroke:#030303;mix-blend-mode:normal;" transform="translate(80.073 46.481)" />
            <line id="Line" x1="0" y1="0" x2="24.04" y2="12.27" style="fill:none;stroke-width:19.179;stroke:#030303;mix-blend-mode:normal;" transform="translate(6.353 8.871)" />
            <path id="Path" d="M1.73262 6.51064C4.14253 1.79067 8.16255 -0.979345 10.7126 0.320643C13.2626 1.62063 13.3825 6.50064 10.9726 11.2207C8.5627 15.9407 4.54268 18.7107 1.99263 17.4007C-0.557175 16.1106 -0.677293 11.2306 1.73262 6.51064C1.73262 6.51064 1.73262 6.51064 1.73262 6.51064Z" style="fill:#030303;mix-blend-mode:normal;" />
            <path id="Path" d="M1.72882 6.51064C4.13873 1.79067 8.15875 -0.979345 10.7088 0.320642C13.2588 1.62063 13.3787 6.50064 10.9688 11.2207C8.5589 15.9406 4.53888 18.7107 1.98883 17.4007C-0.561222 16.1106 -0.671085 11.2306 1.72882 6.51064C1.72882 6.51064 1.72882 6.51064 1.72882 6.51064Z" style="fill:#030303;mix-blend-mode:normal;" transform="translate(24.044 12.27)" />
            <path id="Path" d="M1.32698 4.99328C3.17707 1.37329 6.25691 -0.746706 8.21687 0.243284C10.1768 1.24328 10.2669 4.98327 8.41682 8.60327C6.56672 12.2233 3.48689 14.3433 1.52693 13.3533C-0.433033 12.3633 -0.513111 8.61328 1.32698 4.99328C1.32698 4.99328 1.32698 4.99328 1.32698 4.99328Z" style="fill:#414154;mix-blend-mode:normal;" transform="translate(52.296 27.997)" />
            <path id="Path" d="M0.563332 2.13313C1.35337 0.583138 2.67344 -0.316887 3.50327 0.103096C4.34336 0.533089 4.38316 2.13313 3.59336 3.6731C2.80332 5.22309 1.48325 6.12312 0.653419 5.70313C-0.186668 5.28315 -0.216698 3.68311 0.563332 2.13313C0.563332 2.13313 0.563332 2.13313 0.563332 2.13313Z" style="fill:#9CD6FF;mix-blend-mode:normal;" transform="translate(82.229 45.737)" />
          </g>
          <g id="Group" transform="translate(31.991 20.134)">
            <path id="Group" d="M9.81177 0.161438C5.37159 -0.728577 1.05176 2.15143 0.16187 6.58142C-0.728251 11.0213 2.14175 15.3413 6.58156 16.2314L6.58155 16.2314L46.2243 26.2201C46.549 26.3194 46.8817 26.4035 47.2217 26.4715C52.7717 27.5815 58.1716 23.9915 59.2817 18.4415C60.3916 12.8915 56.8018 7.49146 51.2517 6.38147C50.9183 6.31477 50.5853 6.26505 50.2538 6.23169L9.81177 0.161438Z" style="fill:#FFC6BA;fill-rule:evenodd;mix-blend-mode:normal;" transform="translate(2.38 47.265)" />
            <path id="Path" d="M19.6599 2.29999L4.37988 0L0 21.83C0 21.83 14.8999 25.59 14.8999 25.59C21.3999 26.89 27.6799 22.72 28.97 16.29C30.2598 9.85999 26.0798 3.58002 19.6599 2.29999C19.6599 2.29999 19.6599 2.29999 19.6599 2.29999Z" style="fill:#006BB8;mix-blend-mode:normal;" transform="translate(34.292 49.746)" />
            <path id="Group" d="M12.2632 5.51316L18.6033 46.9331L2.3032 48.6231L0.0331849 6.78318C-0.316913 3.40317 2.14329 0.383152 5.51317 0.0331764C8.89329 -0.31686 11.9133 2.14316 12.2632 5.51316Z" style="fill:#FFC6BA;fill-rule:evenodd;mix-blend-mode:normal;" transform="translate(0.279 8.423)" />
            <path id="Path" d="M16.2018 2.2364L17.4018 7.07643C17.4018 7.07643 17.8317 8.92641 17.8317 8.92641C18.2216 10.6064 17.5717 12.3564 16.1918 13.3964C15.8417 13.6664 12.2218 16.8464 12.2218 16.8464C12.2218 16.8464 0.731857 13.5864 0.731857 13.5864C-0.428055 11.5064 0.0419154 6.62636 0.441818 3.8564C0.621749 2.61641 1.53191 1.61641 2.75188 1.30641C6.71159 0.296403 15.3818 -1.44359 16.2018 2.2364C16.2018 2.2364 16.2018 2.2364 16.2018 2.2364Z" style="fill:#FFC6BA;mix-blend-mode:normal;" />
          </g>
        </g>
      </g>
    </g>
  </g>
</svg>
