<?xml version="1.0" encoding="utf-8"?>
<svg width="484.37" height="291.074" viewBox="0 0 484.37 291.074" fill="none" stroke="none" version="1.1" xmlns:xlink="http://www.w3.org/1999/xlink" xmlns="http://www.w3.org/2000/svg">
  <defs>
    <linearGradient id="gradient_1" gradientUnits="userSpaceOnUse" x1="-9.935" y1="82.792" x2="39.824" y2="-49.018">
      <stop offset="0" stop-color="#FFFFFF" />
      <stop offset="0.095" stop-color="#F2F2F3" />
      <stop offset="0.269" stop-color="#D0D0D1" />
      <stop offset="0.506" stop-color="#98999C" />
      <stop offset="0.79" stop-color="#4C4E53" />
      <stop offset="1" stop-color="#101219" />
    </linearGradient>
    <linearGradient id="gradient_2" gradientUnits="userSpaceOnUse" x1="-17.692" y1="102.225" x2="40.46" y2="-51.818">
      <stop offset="0" stop-color="#FFFFFF" />
      <stop offset="0.095" stop-color="#F2F2F3" />
      <stop offset="0.269" stop-color="#D0D0D1" />
      <stop offset="0.506" stop-color="#98999C" />
      <stop offset="0.79" stop-color="#4C4E53" />
      <stop offset="1" stop-color="#101219" />
    </linearGradient>
    <linearGradient id="gradient_3" gradientUnits="userSpaceOnUse" x1="-3.852" y1="61.361" x2="28.716" y2="-24.911">
      <stop offset="0" stop-color="#FFFFFF" />
      <stop offset="0.095" stop-color="#F2F2F3" />
      <stop offset="0.269" stop-color="#D0D0D1" />
      <stop offset="0.506" stop-color="#98999C" />
      <stop offset="0.79" stop-color="#4C4E53" />
      <stop offset="1" stop-color="#101219" />
    </linearGradient>
    <linearGradient id="gradient_4" gradientUnits="userSpaceOnUse" x1="1.794" y1="0.003" x2="1.794" y2="6.914">
      <stop offset="0" stop-color="#FFFFFF" />
      <stop offset="1" stop-color="#E06F47" />
    </linearGradient>
  </defs>
  <g id="Group">
    <g id="Group" transform="translate(0 61.454)">
      <g id="Group">
        <path id="Polygon" d="M311 0L210.93 1.09L226.64 8.05L0 108.49L66.19 137.83L292.83 37.38L308.54 44.34L311 0Z" style="fill:#90CAF9;fill-rule:evenodd;mix-blend-mode:normal;" transform="translate(53.22 4.55)" />
        <path id="Polygon" d="M168.67 0L114.4 0.600006L122.92 4.37L0 58.84L35.9 74.75L158.81 20.28L167.33 24.05L168.67 0Z" style="fill:#90CAF9;fill-rule:evenodd;mix-blend-mode:normal;" transform="translate(295.33 114.91)" />
        <path id="Polygon" d="M326.84 36.53L315.69 4.93999L244.42 0L258.89 6.40999L0 121.15L53.48 144.85L312.37 30.11L326.84 36.53Z" style="fill:#BBDEFB;fill-rule:evenodd;mix-blend-mode:normal;" transform="translate(121.11 21.99)" />
        <path id="Polygon" d="M276.45 0L212.12 0L225.92 6.11L0 106.23L36.74 122.51L262.66 22.39L276.45 28.51L276.45 0Z" style="fill:#BBDEFB;fill-rule:evenodd;mix-blend-mode:normal;" transform="translate(207.92 70.32)" />
        <path id="Polygon" d="M251.04 0L198.12 0.0500031L207.11 4.02L0 96.03L34.97 111.49L242.08 19.48L251.07 23.46L251.04 0Z" style="fill:#E3F2FD;fill-rule:evenodd;mix-blend-mode:normal;" transform="translate(160.37 74.78)" />
        <path id="Polygon" d="M142.73 0L121.15 0.019989L124.82 1.64L0 57.27L14.25 63.57L139.07 7.95L142.74 9.56999L142.73 0Z" style="fill:#E3F2FD;fill-rule:evenodd;mix-blend-mode:normal;" transform="translate(129.76 56.88)" />
        <path id="Polygon" d="M251.04 0L198.12 0.0500031L207.11 4.02L0 96.03L34.97 111.49L242.07 19.48L251.06 23.45L251.04 0Z" style="fill:#E3F2FD;fill-rule:evenodd;mix-blend-mode:normal;" transform="translate(0 14.57)" />
        <path id="Polygon" d="M178.19 0L161.8 0.449997L164.95 1.81999L0 73.3L9.03999 77.22L173.99 5.73L177.14 7.09999L178.19 0Z" style="fill:#448AFF;fill-rule:evenodd;mix-blend-mode:normal;" transform="translate(45.2 44.86)" />
        <path id="Polygon" d="M392.44 0L361.23 0.889999L370.27 4.89999L0 168.9L11.12 173.83L381.39 9.83L390.44 13.84L392.44 0Z" style="fill:#E3F2FD;fill-rule:evenodd;mix-blend-mode:normal;" transform="translate(50.81 0)" />
        <path id="Polygon" d="M339.37 0L308.16 0.890015L314.16 3.55L0 142.78L17.21 150.41L331.37 11.18L337.37 13.83L339.37 0Z" style="fill:#448AFF;fill-rule:evenodd;mix-blend-mode:normal;" transform="translate(42.2 38.96)" />
        <path id="Polygon" d="M302.81 0L271.6 0.889999L280.64 4.89999L0 129.28L11.12 134.2L291.76 9.83L300.81 13.83L302.81 0Z" style="fill:#E3F2FD;fill-rule:evenodd;mix-blend-mode:normal;" transform="translate(159.94 95.42)" />
        <path id="Polygon" d="M106.98 0L95.95 0.310028L99.15 1.72L0 45.66L3.92999 47.41L103.07 3.47L106.27 4.88L106.98 0Z" style="fill:#448AFF;fill-rule:evenodd;mix-blend-mode:normal;" transform="translate(297.41 127.14)" />
        <path id="Polygon" d="M106.97 0L95.95 0.309998L99.14 1.73001L0 45.67L3.92 47.41L103.07 3.47L106.27 4.88L106.97 0Z" style="fill:#448AFF;fill-rule:evenodd;mix-blend-mode:normal;" transform="translate(64.01 34.87)" />
      </g>
    </g>
    <g id="Group" transform="translate(197.55 0)">
      <g id="Group">
        <g id="Group">
          <path id="Path" d="M5.94919 2.92854C3.93918 7.41854 -1.73081 14.3785 0.519195 28.0785C0.519195 28.0785 1.57919 37.3285 0.989196 40.3185C0.3992 43.3085 -0.900819 49.6485 2.99921 48.4885C6.8992 47.3185 6.97922 43.4785 13.7492 42.1285C13.7492 42.1285 16.9892 42.2485 17.8492 38.2285C17.8492 38.2285 12.9492 34.9185 9.50922 38.1085C9.50922 38.1085 6.65921 38.1085 6.65921 38.1085C6.65921 38.1085 9.50922 25.4785 9.50922 25.4785C9.50922 25.4785 11.9092 19.9485 13.5092 11.5785C13.5092 11.5785 15.9092 4.80854 17.5392 0.44854C17.5392 0.448524 7.9592 -1.56147 5.94919 2.92854C5.94919 2.92854 5.94919 2.92854 5.94919 2.92854Z" style="fill:#262626;mix-blend-mode:normal;" transform="translate(1.521 125.686)" />
          <g id="Group" transform="translate(0 161.617)">
            <path id="Path" d="M1.51971 8.97292C1.51971 8.97292 0.869721 9.55291 0.0697027 11.3329C-0.650299 12.9329 4.3197 17.2129 9.79971 10.3429C9.79971 10.3429 15.1597 7.3329 19.0597 4.96291C22.7097 2.7529 21.0197 -0.877087 17.6797 0.192905C14.3397 1.2629 1.51971 8.97292 1.51971 8.97292C1.51971 8.97292 1.51971 8.97292 1.51971 8.97292Z" style="fill:#18191F;mix-blend-mode:normal;" transform="translate(0 0.814)" />
            <path id="Path" d="M1.94397 4.59682C1.94397 4.59682 1.96396 5.73682 3.35398 5.60682C6.47397 5.30682 11.124 3.59682 7.65396 2.18682C7.06397 1.87682 14.414 -1.52319 18.534 0.816826C23.244 3.49682 13.294 7.61683 8.73398 10.5368C7.05399 11.6068 4.42398 15.0968 0.993991 13.2268C-1.02603 12.1168 0.413974 6.67683 1.94397 4.59682C1.94397 4.59682 1.94397 4.59682 1.94397 4.59682Z" style="fill:#000000;mix-blend-mode:normal;" transform="translate(0.526 0)" />
          </g>
          <path id="Path" d="M16.6113 55.13C11.8413 69.62 9.22124 83.76 9.22124 83.76C8.77123 84.06 8.35125 84.32 7.96123 84.55C1.84124 88.13 1.03124 84.7 1.03124 84.7C-0.49876 73.07 -0.528759 61.74 2.33123 56.4C9.26122 43.45 10.2412 12.98 10.2412 12.98C9.45122 2.70999 15.0012 0 15.0012 0C15.0012 0 25.1812 3.62 25.1812 3.62C25.1812 3.62 35.3212 7.22 35.3212 7.22C35.9213 18.06 16.6113 55.13 16.6113 55.13C16.6113 55.13 16.6113 55.13 16.6113 55.13Z" style="fill:#304FFE;mix-blend-mode:normal;" transform="translate(0.498 77.744)" />
          <path id="Path" d="M8.65002 48.65C3.88004 63.14 1.26001 77.28 1.26001 77.28C0.809998 77.58 0.390015 77.84 0 78.07C0.779999 68.06 2.70001 55.72 7.29001 46.18C13.61 33.02 13.79 10.38 12.22 0C12.22 0 27.37 0.740005 27.37 0.740005C27.96 11.58 8.65002 48.65 8.65002 48.65C8.65002 48.65 8.65002 48.65 8.65002 48.65Z" style="fill:url(#gradient_1);mix-blend-mode:normal;" transform="translate(8.46 84.224)" />
          <path id="Path" d="M4.32458 0C4.32458 0 -2.53541 12.75 1.02459 28.25C1.02459 28.25 3.3146 37.96 3.3146 43.27C3.3146 43.27 -1.16541 48.35 5.0346 51.98C5.0346 51.98 9.90459 49.06 12.0346 49.59C14.1646 50.12 18.4146 51.1 21.5146 48.88C24.6146 46.67 25.0546 44.7 24.2646 42.54C23.4646 40.38 18.1546 42.54 18.1546 42.54C18.1546 42.54 11.1546 41.8 11.1546 41.8L10.9746 25.95L15.2246 1.94998L4.32458 0C4.32458 0 4.32458 0 4.32458 0Z" style="fill:#262626;mix-blend-mode:normal;" transform="translate(21.595 141.424)" />
          <path id="Path" d="M25.3678 0.0087738C25.3678 0.0087738 26.9778 -0.191238 27.8178 1.31877C29.0278 3.47878 25.5278 10.1588 13.2778 9.44878C11.9478 9.36879 11.0178 9.88878 10.3878 10.0788C8.12779 10.7588 6.36782 11.7188 4.0378 11.9088C0.0577869 12.2388 -0.822187 8.52876 0.707811 6.23875C2.04781 4.2188 25.3678 0.0087738 25.3678 0.0087738C25.3678 0.0087738 25.3678 0.0087738 25.3678 0.0087738Z" style="fill:#18191F;mix-blend-mode:normal;" transform="translate(22.242 184.055)" />
          <path id="Path" d="M10.2746 0.68454C10.2746 0.68454 15.5846 0.564545 15.5846 0.564545C15.5846 0.564545 21.7446 -0.685455 24.6146 0.534546C27.4746 1.76456 27.9946 4.87454 23.2546 7.89453C18.5046 10.9245 14.4746 9.96454 10.6846 10.4545C7.61463 10.8545 3.72465 13.2345 1.43464 11.6845C-0.855371 10.1346 0.12464 5.38455 0.784643 4.40454C1.41465 4.75455 2.50464 5.24454 3.91465 5.38455C7.04465 5.69455 10.9046 4.17456 11.1946 1.99454C11.2346 1.62454 10.8946 1.57455 10.2746 0.68454C10.2746 0.68454 10.2746 0.68454 10.2746 0.68454Z" style="fill:#000000;mix-blend-mode:normal;" transform="translate(22.775 182.57)" />
          <path id="Path" d="M20.0149 59.6C15.1949 75.62 14.8649 97.67 14.8649 97.67C7.07486 104.81 4.29486 100.27 4.29486 100.27C0.634855 84.28 2.04486 73.11 3.93487 66.47C5.82489 59.83 6.48486 52.91 5.85489 46.04C5.85489 46.04 3.3949 19.21 3.3949 19.21C-3.2551 15.03 1.91488 1.87 1.91488 1.87C7.66488 3.45 11.6949 3.56999 14.4849 3.11C19.0949 2.36 20.2949 0 20.2949 0C20.2949 0 22.6149 12 22.6149 12C30.8849 29.33 20.0149 59.6 20.0149 59.6C20.0149 59.6 20.0149 59.6 20.0149 59.6Z" style="fill:#2962FF;mix-blend-mode:normal;" transform="translate(19.235 81.124)" />
          <path id="Path" d="M8.82001 59.6C4 75.62 3.67001 97.67 3.67001 97.67C2.70001 98.06 2.22 99.32 1.41 99.53C0.570007 87.78 -0.309998 72.47 5.41 60.12C12.98 43.76 8.36002 16.3 0 3.34C4.60999 2.59 9.10001 0 9.10001 0C9.10001 0 11.42 12 11.42 12C19.69 29.33 8.82001 59.6 8.82001 59.6C8.82001 59.6 8.82001 59.6 8.82001 59.6Z" style="fill:url(#gradient_2);fill-opacity:0.6;mix-blend-mode:normal;" transform="translate(30.43 79.884)" />
          <path id="Path" d="M1.20946 7.53514C1.20946 7.53514 0.0294685 4.20514 0.0294685 4.20514C0.0294685 4.20514 0.459461 2.10514 0.0294685 0.75514C-0.330517 -0.35486 2.72948 -0.67486 2.57946 2.88514C2.57946 2.88514 3.58947 3.40513 4.58947 2.57514C5.57949 1.74514 3.37947 8.27514 1.20946 7.53514C1.20946 7.53514 1.20946 7.53514 1.20946 7.53514Z" style="fill:#F7E4D0;mix-blend-mode:normal;" transform="translate(39.25 15.259)" />
          <g id="Group" transform="translate(27.74 1.163)">
            <path id="Path" d="M24.98 5.90068C24.98 3.88069 23.35 1.43068 21.33 0.430681C20.31 -0.0793208 19.4 -0.119322 18.74 0.220682C18.74 0.220682 18.74 0.220682 18.74 0.220682L0 10.9007L4.20001 16.5207C4.20001 16.5207 23.83 7.97068 23.83 7.97068C23.87 7.95069 23.91 7.94068 23.95 7.92068C23.95 7.92068 23.97 7.91068 23.97 7.91068C23.97 7.91068 23.97 7.91068 23.97 7.91068C24.59 7.57068 24.98 6.88068 24.98 5.90068C24.98 5.90068 24.98 5.90068 24.98 5.90068Z" style="fill:#1A237E;mix-blend-mode:normal;" transform="translate(0.56 0)" />
            <path id="Path" d="M5.5 4.44678C5.5 5.96677 4.26999 6.57677 2.75 5.81678C1.23001 5.05678 0 3.21678 0 1.69678C0 0.176781 1.23001 -0.43322 2.75 0.326775C4.26999 1.08678 5.5 2.93678 5.5 4.44678C5.5 4.44678 5.5 4.44678 5.5 4.44678Z" style="fill:#FDD835;mix-blend-mode:normal;" transform="translate(0 10.564)" />
            <path id="Path" d="M3 2.41407C3 3.24407 2.32999 3.57407 1.5 3.16407C0.670013 2.75406 0 1.74407 0 0.924067C0 0.104068 0.670013 -0.235936 1.5 0.174067C2.32999 0.584064 3 1.58406 3 2.41407C3 2.41407 3 2.41407 3 2.41407Z" style="fill:#FAFAFA;mix-blend-mode:normal;" transform="translate(1.25 11.977)" />
          </g>
          <g id="Group" transform="translate(35.82 9.534)">
            <path id="Path" d="M4.31998 2.62019C4.31998 1.73019 3.58997 0.640183 2.69998 0.190186C2.27997 -0.0198129 1.89999 -0.0498116 1.60999 0.0701835C1.60999 0.0701835 1.60999 0.0701835 1.60999 0.0701835C1.60999 0.0701835 1.57999 0.0801856 1.57999 0.0801856C1.56 0.0901878 1.53998 0.100182 1.51999 0.110184C1.51999 0.110184 0 0.870187 0 0.870187L2.35999 4.25018C2.35999 4.25018 3.70999 3.57018 3.70999 3.57018C3.79999 3.54018 3.88 3.50018 3.94998 3.45018C3.94998 3.45018 3.97998 3.43018 3.97998 3.43018C3.97998 3.43018 3.97998 3.43018 3.97998 3.43018C4.18997 3.26019 4.31998 2.99019 4.31998 2.62019C4.31998 2.62019 4.31998 2.62019 4.31998 2.62019Z" style="fill:#1A1C2F;fill-opacity:0.1;mix-blend-mode:normal;" transform="translate(0.39 0)" />
            <path id="Path" d="M3.23999 2.62193C3.23999 3.51193 2.50998 3.88194 1.61999 3.43193C0.72998 2.98193 0 1.89193 0 1.00193C0 0.111931 0.730011 -0.258071 1.61999 0.191933C2.51999 0.64193 3.23999 1.72193 3.23999 2.62193C3.23999 2.62193 3.23999 2.62193 3.23999 2.62193Z" style="fill:#304FFE;mix-blend-mode:normal;" transform="translate(0 0.728)" />
          </g>
          <g id="Group" transform="translate(34.65 4.613)">
            <path id="Path" d="M24.98 5.90068C24.98 3.88069 23.35 1.43068 21.33 0.430681C20.31 -0.0793208 19.4 -0.119322 18.74 0.220682C18.74 0.220682 18.74 0.220682 18.74 0.220682L0 10.9107L4.20001 16.5307C4.20001 16.5307 23.83 7.98068 23.83 7.98068C23.87 7.96069 23.91 7.95069 23.95 7.93068C23.95 7.93068 23.97 7.92068 23.97 7.92068C23.97 7.92068 23.97 7.92068 23.97 7.92068C24.59 7.57068 24.98 6.88069 24.98 5.90068C24.98 5.90068 24.98 5.90068 24.98 5.90068Z" style="fill:#1A237E;mix-blend-mode:normal;" transform="translate(0.55 0)" />
            <path id="Path" d="M5.5 4.44678C5.5 5.96677 4.26999 6.57678 2.75 5.81678C1.23001 5.05678 0 3.21678 0 1.69678C0 0.176774 1.23001 -0.433219 2.75 0.326776C4.26999 1.08677 5.5 2.92677 5.5 4.44678C5.5 4.44678 5.5 4.44678 5.5 4.44678Z" style="fill:#1A237E;mix-blend-mode:normal;" transform="translate(0 10.574)" />
            <path id="Path" d="M3.02002 2.4456C3.02002 3.2856 2.34003 3.6156 1.51001 3.2056C0.670013 2.78561 0 1.7756 0 0.935607C0 0.0956106 0.679993 -0.234391 1.51001 0.175605C2.34003 0.595603 3.02002 1.60561 3.02002 2.4456C3.02002 2.4456 3.02002 2.4456 3.02002 2.4456Z" style="fill:#304FFE;mix-blend-mode:normal;" transform="translate(1.25 11.955)" />
          </g>
          <path id="Path" d="M24.9058 0C24.9058 0 16.5158 12.77 16.5158 12.77C13.0058 12.39 10.6558 14.03 10.6558 14.03C3.58584 11.78 0.275839 15.48 0.275839 15.48C0.275839 15.48 0.275839 15.84 0.275839 15.84C-2.49415 28.48 16.3758 24.86 22.0758 21.76C26.6058 19.29 27.6458 11.06 27.6458 11.06C28.7858 8.66 29.5758 0.629997 29.5758 0.629997C29.5758 0.629997 24.9058 0 24.9058 0L24.9058 0Z" style="fill:#2962FF;mix-blend-mode:normal;" transform="translate(4.534 18.724)" />
          <g id="Group" transform="translate(2.831 24.213)">
            <path id="Path" d="M8.26901 43.7416C3.93902 35.9516 1.77902 23.3915 1.77902 23.3915C-2.98099 12.1415 3.079 7.37154 5.23901 7.37154C7.39901 7.37154 8.699 8.67155 8.699 8.67155C9.99899 6.94154 10.159 -0.328453 10.429 0.0115437C12.159 2.17155 15.189 1.31155 15.189 1.31155C13.889 7.37154 16.919 16.8915 16.919 16.8915C20.189 32.7315 20.239 48.8715 19.719 59.6115C19.139 59.4015 18.539 59.1616 17.929 58.8816C17.929 58.8816 12.519 57.0916 10.529 55.0015C11.299 54.0115 11.879 53.2116 11.729 51.9515C11.299 48.5015 8.26901 44.6115 8.26901 43.7416C8.26901 43.7416 8.26901 43.7416 8.26901 43.7416Z" style="fill:#F7E4D0;mix-blend-mode:normal;" transform="translate(0.72 0)" />
            <path id="Path" d="M27.1847 56.12C27.0547 56.24 26.9247 56.38 26.7747 56.51C25.9547 57.26 24.8347 58.13 23.4147 58.87C20.4047 60.44 16.0847 61.43 10.5847 59.42C10.5847 59.42 10.5847 59.42 10.5847 59.42C10.2947 59.31 10.0047 59.2 9.70468 59.08C9.40469 58.96 9.10468 58.83 8.80469 58.69C8.80469 58.69 8.70468 58.66 8.5347 58.6C8.5047 58.59 8.48471 58.58 8.46469 58.57C8.46469 58.57 8.46469 58.56 8.46469 58.56C8.4147 58.24 8.3447 57.88 8.2547 57.48C7.77469 55.25 6.6947 51.87 4.33469 47.86C0.154694 40.76 -1.9953 24.01 2.5047 15.83C2.6647 15.53 2.8447 15.23 3.0347 14.96C3.0347 14.96 3.3147 13.85 3.43469 11.89C3.43469 11.87 3.4447 11.85 3.4447 11.83C3.58472 9.55 3.52469 6.13 2.60471 1.98C2.60471 1.98 3.99472 2.27 5.86472 2.34C8.50473 2.45 12.0947 2.14 14.0247 0C14.0247 0 13.6147 7.55 14.4447 11.64C14.5147 12.01 14.6047 12.36 14.6947 12.66C14.7547 12.84 14.8147 13.01 14.8747 13.15C14.9547 13.35 15.0547 13.52 15.1447 13.67C15.2647 13.85 15.4347 14.03 15.6647 14.21C15.6647 14.21 15.6747 14.21 15.6747 14.21C15.7947 14.32 15.9347 14.42 16.0747 14.52C16.5647 14.88 17.2047 15.25 17.9147 15.69C20.5747 17.33 24.2547 19.76 25.4347 24.59C25.4347 24.59 25.4347 24.61 25.4347 24.61C25.6647 25.58 25.8047 26.64 25.8047 27.81C25.8047 27.81 25.8047 27.82 25.8047 27.82C25.8147 30.04 25.3547 32.66 24.2447 35.75C24.2447 35.75 23.8147 44.84 25.9747 51.34C26.3847 52.55 26.7947 54.25 27.1847 56.12C27.1847 56.12 27.1847 56.12 27.1847 56.12Z" style="fill:#F7E4D0;mix-blend-mode:normal;" transform="translate(9.854 0.202)" />
            <path id="Path" d="M8.56 1.92C8.45001 1.87 7.60999 0 7.60999 0C7.60999 0 2.70999 1.74 0 1.79C0 1.79 2.10999 7.35001 6.45999 5.72C10.8 4.08 8.56 1.92 8.56 1.92C8.56 1.92 8.56 1.92 8.56 1.92Z" style="fill:#F0F4FF;mix-blend-mode:normal;" transform="translate(16.829 11.802)" />
            <path id="Path" d="M41.4889 64.61C39.9789 65.94 38.1589 66.91 36.1989 67.62C25.9389 71.28 11.2589 67.55 11.2589 67.55C11.2989 67.21 11.4189 66.63 11.5789 65.87C11.5689 65.86 11.5589 65.85 11.5489 65.85C10.8389 65.47 10.2089 65.07 9.62886 64.68C9.24885 64.41 8.89885 64.15 8.56886 63.88C7.75886 63.23 7.12886 62.59 6.67885 62.05C6.16884 61.44 5.88884 60.96 5.80885 60.67C5.26884 58.71 10.1688 49.43 9.41884 45.29C8.64885 41.14 5.80885 39.72 1.23884 19.98C-3.35115 0.229996 6.25883 0 6.69884 0C7.03883 0 8.97883 0.699997 9.78883 0.989998C9.84883 1 9.88884 1.02 9.93883 1.04C10.0588 1.1 10.1388 1.12 10.1388 1.12C10.4388 1.97 10.8288 2.71 11.2789 3.36C11.2889 3.37 11.2889 3.37 11.2889 3.38C11.8789 4.21 12.5589 4.91 13.3089 5.48C13.4888 5.62 13.6589 5.74 13.8389 5.85C13.8489 5.86 13.8588 5.87 13.8888 5.88C14.8089 6.49 15.8188 6.93999 16.8389 7.25999C16.8688 7.27999 16.9188 7.28999 16.9488 7.31C19.6688 8.14 22.5088 8.13 24.3088 7.99C24.8088 7.96 25.2088 7.91 25.5388 7.87C25.6488 7.85999 25.7488 7.85 25.8288 7.81999C26.0889 7.78999 26.2189 7.75999 26.2189 7.75999C26.9489 8.24 27.6389 8.73 28.2688 9.20999C30.1889 10.63 31.6688 11.96 32.7688 13C34.1488 14.32 34.9989 16.07 35.2588 17.96C35.2688 18.05 35.2788 18.14 35.2888 18.23C35.2888 18.23 35.2888 18.25 35.2888 18.25C35.4088 19.17 35.5488 20.27 35.6588 21.44C35.6588 21.44 35.6588 21.45 35.6588 21.45C36.0288 25.1 36.2588 29.58 35.7088 32.73C34.6988 38.52 40.5888 61.19 41.3988 64.25C41.4589 64.44 41.4889 64.55 41.4889 64.61C41.4889 64.61 41.4889 64.61 41.4889 64.61Z" style="fill:#2962FF;mix-blend-mode:normal;" transform="translate(0 6.552)" />
            <path id="Path" d="M16.51 58.49C15 59.82 13.19 60.8 11.22 61.5C11.14 61.19 11.05 60.87 10.97 60.55C9.82002 56.21 8.8 51.34 8.3 46.4C8.10999 44.5 7.99 42.58 7.97001 40.69C7.95002 39.63 7.98002 38.59 8.03001 37.55C8.94001 19.77 7.16001 7.82999 7.16001 7.82999C7.16001 7.82999 -0.0100002 0.119995 9.53674e-06 0.0899963C0.210001 0.0299988 0.320017 0 0.320017 0C0.320017 0 3.48002 3.05 3.48002 3.05C3.42002 3.07 3.36003 3.08 3.30003 3.09C5.21003 4.51 6.71003 5.84 7.79002 6.88C9.17002 8.2 10.03 9.95 10.28 11.84C10.29 11.93 10.31 12.02 10.32 12.12C10.32 12.12 10.32 12.14 10.32 12.14C10.55 13.11 10.69 14.17 10.69 15.34C10.69 15.34 10.69 15.36 10.69 15.36C11.06 19.01 11.29 23.48 10.74 26.64C9.72001 32.44 15.62 55.11 16.43 58.16C16.47 58.33 16.51 58.44 16.51 58.49C16.51 58.49 16.51 58.49 16.51 58.49Z" style="fill:url(#gradient_3);mix-blend-mode:normal;" transform="translate(24.979 12.662)" />
            <path id="Path" d="M19.2472 10.07C19.1872 10.09 19.1272 10.1 19.0672 10.11C18.8972 10.16 18.7372 10.2 18.5672 10.24C17.6672 10.47 16.8072 10.66 15.9872 10.82C15.6672 10.88 15.3472 10.95 15.0372 11C13.3272 11.31 11.8072 11.49 10.4672 11.56C9.76721 11.6 9.12723 11.61 8.51721 11.59C6.13721 11.53 4.40723 11.06 3.15723 10.38C-1.21277 8.02 0.227234 3.02 0.227234 3.02C0.227234 3.02 0.57724 1.89 0.57724 1.89L1.14725 0C1.14725 0 1.14725 0.18 1.14725 0.18C1.15726 1.87 1.50723 3.21 2.07724 4.26C2.08725 4.27 2.08725 4.27 2.08725 4.28C2.59726 5.21 3.28726 5.91 4.09726 6.44C4.27725 6.55 4.44727 6.66 4.63727 6.75C4.64728 6.76 4.65726 6.77 4.67728 6.78C5.54727 7.24 6.52728 7.53 7.52728 7.69C7.93729 7.76 8.35727 7.8 8.76727 7.83C11.4573 8.03 14.1173 7.51 15.3673 7.2C15.4973 7.17001 15.6073 7.14001 15.7073 7.12C15.7373 7.11 15.7573 7.11 15.7773 7.10001C15.9873 7.04001 16.0973 7.01001 16.0973 7.01001C16.0973 7.01001 19.2472 10.07 19.2472 10.07C19.2472 10.07 19.2472 10.07 19.2472 10.07Z" style="fill:#1A237E;mix-blend-mode:normal;" transform="translate(9.202 5.662)" />
          </g>
          <path id="Polygon" d="M0 3.75L3.03998 6.73L10.54 2.98L7.5 0L0 3.75Z" style="fill:#1A237E;fill-rule:evenodd;mix-blend-mode:normal;" transform="translate(39.42 5.534)" />
          <path id="Polygon" d="M0 3.76L3.62 4.09L11.12 0.340004L7.5 0L0 3.76Z" style="fill:#304FFE;fill-rule:evenodd;mix-blend-mode:normal;" transform="translate(35.82 5.194)" />
          <path id="Group" d="M15.164 0.356608C15.564 -0.0833945 16.244 -0.123395 16.684 0.276606L17.6293 1.12891C17.6742 1.02821 17.7357 0.932802 17.814 0.846606C18.214 0.406603 18.894 0.366602 19.334 0.766604L20.665 1.96669C20.9157 1.86087 21.2107 1.86933 21.464 2.0166L24.074 3.52661C24.1568 3.57473 24.2292 3.63396 24.2903 3.70132C24.4192 3.78732 24.531 3.90343 24.614 4.0466L26.144 6.70661C26.2013 6.80533 26.2406 6.90951 26.263 7.01537C26.3656 7.08933 26.4575 7.18024 26.534 7.28661C26.564 7.31661 27.074 10.5566 27.074 10.5566L27.394 13.1266C27.4955 13.9415 27.4001 14.7394 27.1437 15.4702C28.3872 18.9218 31.364 24.6566 31.364 24.6566C36.244 32.9966 37.214 42.8966 37.214 42.8966C37.8741 45.1166 36.784 47.4766 34.674 48.4266C33.954 48.7566 33.174 48.9366 32.384 48.9666L28.974 49.4466C22.424 50.5466 14.184 50.1566 14.184 50.1566C4.44399 51.5766 -3.53599 44.3066 1.61401 37.5466C6.574 31.0466 16.044 37.0566 16.044 37.0566C21.5319 35.9963 24.5356 37.2457 25.7279 37.7417C26.1998 37.938 26.3879 38.0163 26.334 37.7866C26.154 36.9766 25.514 29.0266 25.514 29.0266L23.2261 18.8402C23.1955 18.846 23.1648 18.8514 23.134 18.8566C23.094 18.8666 23.064 18.8666 23.064 18.8666C21.1139 18.9066 15.784 15.4266 15.784 15.4266C18.5956 13.1262 18.4363 10.7033 18.3331 9.13352C18.3111 8.79946 18.2917 8.50402 18.3039 8.25662L16.7039 5.48662L14.1139 3.14662C13.674 2.74663 13.634 2.06663 14.034 1.62663C14.2637 1.37394 14.5857 1.25318 14.9016 1.27191C14.843 0.954113 14.9298 0.614223 15.164 0.356608Z" style="fill:#F7E4D0;fill-rule:evenodd;mix-blend-mode:normal;" transform="translate(24.666 7.388)" />
          <path id="Path" d="M0.168961 0.651561C0.168961 0.651561 0.298965 0.451564 0.298965 0.451564C0.608963 -0.0184374 1.23897 -0.138433 1.69896 0.171565C1.69896 0.171565 4.63896 2.13156 4.63896 2.13156C5.10896 2.44156 5.22896 3.07157 4.91896 3.53157C4.91896 3.53157 4.78896 3.73156 4.78896 3.73156C4.47896 4.19156 3.84895 4.32156 3.38896 4.01156C3.38896 4.01156 0.448959 2.05156 0.448959 2.05156C-0.0110321 1.74156 -0.141037 1.11156 0.168961 0.651561C0.168961 0.651561 0.168961 0.651561 0.168961 0.651561Z" style="fill:#FFCCBC;mix-blend-mode:normal;" transform="translate(32.231 4.213)" />
          <path id="Path" d="M0.185829 0.502839C0.185829 0.502839 0.185829 0.502839 0.185829 0.502839C0.535835 -0.0171576 1.23582 -0.157165 1.75584 0.192842C1.75584 0.192842 5.82584 2.90284 5.82584 2.90284C6.34583 3.25284 6.48585 3.95284 6.13584 4.47284C6.13584 4.47284 6.13584 4.47284 6.13584 4.47284C5.78584 4.99284 5.08585 5.13284 4.56583 4.78284C4.56583 4.78284 0.495827 2.07284 0.495827 2.07284C-0.0141525 1.72283 -0.154167 1.02284 0.185829 0.502839C0.185829 0.502839 0.185829 0.502839 0.185829 0.502839Z" style="fill:#FFCCBC;mix-blend-mode:normal;" transform="translate(30.934 4.531)" />
          <path id="Path" d="M0.185837 0.502839C0.185837 0.502839 0.185837 0.502839 0.185837 0.502839C0.535843 -0.0171576 1.23582 -0.157165 1.75584 0.192842C1.75584 0.192842 5.82585 2.90284 5.82585 2.90284C6.34584 3.25284 6.48586 3.95284 6.13585 4.47284C6.13585 4.47284 6.13585 4.47284 6.13585 4.47284C5.78584 4.99284 5.08586 5.13284 4.56584 4.78284C4.56584 4.78284 0.495834 2.07284 0.495834 2.07284C-0.0141754 1.72283 -0.15416 1.02284 0.185837 0.502839C0.185837 0.502839 0.185837 0.502839 0.185837 0.502839Z" style="fill:#FFCCBC;mix-blend-mode:normal;" transform="translate(29.984 5.351)" />
          <g id="Group" transform="translate(5.945 0)">
            <path id="Path" d="M14.5417 27.4557C14.5417 27.4557 7.85166 28.6757 4.05167 25.7557C0.24167 22.8357 -5.68832 2.68572 12.5117 0.0757153C12.5117 0.0757153 25.9317 -1.86429 26.9017 13.8957C26.9017 13.8957 27.0117 15.3157 26.3317 16.5657C25.8617 17.4257 25.7117 18.4257 26.0117 19.3557C26.0217 19.3857 26.0317 19.4057 26.0417 19.4357C26.6216 21.1557 26.5016 23.0557 25.5916 24.6257C25.3517 25.0357 25.0516 25.4757 24.6917 25.9157C24.0817 26.6557 23.5817 27.4657 23.1717 28.3357C23.1717 28.3357 23.1717 28.3357 23.1717 28.3357C22.7017 29.3557 21.6617 29.9857 20.5316 29.9457C19.3616 29.8957 17.9517 29.8457 17.3517 29.8457C17.3517 29.8457 14.5417 27.4557 14.5417 27.4557C14.5417 27.4557 14.5417 27.4557 14.5417 27.4557Z" style="fill:#F7E4D0;mix-blend-mode:normal;" transform="translate(2.113 2.128)" />
            <path id="Path" d="M15.5647 21.92C15.5647 21.92 20.1047 16.55 23.2947 14.46C23.2947 14.46 24.6147 16.97 24.6147 16.97C24.6147 16.97 25.9147 15.73 25.9147 15.73C25.9147 15.73 22.6647 10.65 25.9147 4.93C25.9147 4.93 24.8547 0 24.8547 0C24.8547 0 13.5747 2.1 13.5747 2.1C13.5747 2.1 7.36472 2.22 4.5047 0C4.5047 0 -7.20529 7.21 7.13471 21.33C7.13471 21.33 8.98468 22.58 15.5647 21.92C15.5647 21.92 15.5647 21.92 15.5647 21.92Z" style="fill:#283593;mix-blend-mode:normal;" transform="translate(0 7.664)" />
            <path id="Path" d="M11.4603 9.76418C11.4603 9.76418 22.7403 6.81418 22.7403 6.81418C22.7403 6.81418 24.6303 3.78418 22.1503 1.61418C19.6703 -0.565818 2.00028 -2.50582 0.000283718 9.77419C-0.00972605 9.76418 0.180276 12.7142 11.4603 9.76418C11.4603 9.76418 11.4603 9.76418 11.4603 9.76418Z" style="fill:#1A237E;mix-blend-mode:normal;" transform="translate(2.114 0)" />
            <path id="Path" d="M3.59867 6.10108C3.59867 6.10108 3.39866 0.0410786 3.39866 0.0410786C3.39866 0.0410786 -1.78133 -0.888922 0.648661 6.10108C0.638681 6.10108 1.22868 7.93108 3.59867 6.10108C3.59867 6.10108 3.59867 6.10108 3.59867 6.10108Z" style="fill:url(#gradient_4);fill-opacity:0.3;mix-blend-mode:normal;" transform="translate(19.896 22.083)" />
            <path id="Path" d="M3.60008 6.00053C3.60008 6.00053 3.45009 1.27053 3.45009 1.27053C3.42009 0.410528 2.58009 -0.199472 1.75007 0.0605297C0.490065 0.460531 -0.819933 1.79053 0.650068 6.00053C0.650068 6.00053 1.24006 7.83053 3.60008 6.00053C3.60008 6.00053 3.60008 6.00053 3.60008 6.00053Z" style="fill:#F7E4D0;mix-blend-mode:normal;" transform="translate(20.655 21.654)" />
            <path id="Path" d="M3.64999 1.4091C3.64999 1.4091 4.09 5.6391 0 9.1691C0 9.1691 0.230011 11.7291 0.230011 11.7291C0.230011 11.7291 2.75 12.3091 5.17001 11.2091C7.40002 10.1991 7.48001 2.7291 7.48001 2.7291C7.48001 2.7291 5.95001 2.2791 5.17001 0.589098C4.38 -1.1109 3.64999 1.4091 3.64999 1.4091C3.64999 1.4091 3.64999 1.4091 3.64999 1.4091Z" style="fill:#1A237E;mix-blend-mode:normal;" transform="translate(20.745 22.815)" />
          </g>
          <path id="Path" d="M0.619995 4.37144C0.619995 4.37144 0 2.00144 0 2.00144C0 2.00144 2.76001 -1.67856 6.54999 0.941441C6.54999 0.941441 7.66998 4.81144 7.66998 4.81144L0.619995 4.37144L0.619995 4.37144Z" style="fill:#F6F8FE;mix-blend-mode:normal;" transform="translate(47.65 25.503)" />
          <path id="Path" d="M33.9903 30.0136C32.5003 30.4636 31.2503 30.5936 31.2503 30.5936C31.2503 30.5936 0.880314 36.8536 0.0303078 23.1536C-0.809689 9.45358 16.0903 16.3136 16.0903 16.3136C16.0903 16.3136 25.7703 16.3136 25.7703 16.3136C25.7703 16.3136 23.6103 2.78358 23.6103 2.78358C23.9103 -0.426422 27.6103 -0.176422 29.7503 0.243576C30.6403 0.423576 31.2603 0.623573 31.2603 0.623573C37.5503 11.8336 37.8903 19.3736 37.8903 19.3736C37.8903 19.3736 39.0103 25.0236 39.0103 25.0236C39.1903 27.8936 36.2903 29.3236 33.9903 30.0136C33.9903 30.0136 33.9903 30.0136 33.9903 30.0136Z" style="fill:#2962FF;mix-blend-mode:normal;" transform="translate(24.189 27.141)" />
          <path id="Path" d="M5.71002 0C5.71002 0 1.98001 14.6 1.98001 14.6C1.96002 14.61 1.93002 14.63 1.92001 14.65C1.21002 14.27 0.580017 13.87 0 13.48C0 13.48 5.71002 0 5.71002 0L5.71002 0Z" style="fill:#2962FF;fill-opacity:0.4;mix-blend-mode:normal;" transform="translate(12.46 81.964)" />
        </g>
      </g>
    </g>
  </g>
</svg>
