<?xml version="1.0" encoding="UTF-8"?>
<svg version="1.1" xmlns="http://www.w3.org/2000/svg" width="630" height="630">
<path d="M0 0 C1.05793762 -0.00817749 2.11587524 -0.01635498 3.20587158 -0.02478027 C6.7036484 -0.04956318 10.20138449 -0.0661421 13.69921875 -0.08056641 C15.50324661 -0.08855192 15.50324661 -0.08855192 17.34371948 -0.09669876 C23.72328045 -0.12341361 30.10282206 -0.14278439 36.48242188 -0.15722656 C41.72348748 -0.17049836 46.96415753 -0.1982285 52.20507812 -0.23925781 C58.56633027 -0.28904332 64.92722719 -0.31340458 71.28866577 -0.32045364 C73.69318523 -0.32709645 76.09769898 -0.34213176 78.50210571 -0.36634445 C94.18182728 -0.51509281 108.26428853 1.02258441 123.38671875 5.19287109 C124.710693 5.53940689 126.03521456 5.883863 127.36044312 6.22557068 C159.26821557 14.56855413 189.76466445 28.2076715 217.38671875 46.19287109 C218.1770752 46.7060791 218.96743164 47.21928711 219.78173828 47.74804688 C230.09994246 54.50017452 239.68742922 61.68126796 248.88574219 69.88623047 C251.02341862 71.74713552 253.27086514 73.45846427 255.51171875 75.19287109 C267.53848158 84.96461589 278.97926756 96.46970701 288.47265625 108.72412109 C290.60045934 111.46855284 292.86439726 114.06707737 295.13671875 116.69287109 C310.51743383 135.16877652 323.21566041 156.44803372 333.38671875 178.19287109 C333.70560059 178.86398926 334.02448242 179.53510742 334.35302734 180.2265625 C342.6379842 197.75544042 349.16649533 215.99338737 354.26171875 234.69287109 C354.5357251 235.69318359 354.80973145 236.69349609 355.09204102 237.72412109 C359.44512854 254.32068934 360.86237809 269.95419368 360.85546875 287.06787109 C360.8625958 289.24813017 360.87029834 291.42838743 360.87854004 293.60864258 C360.89190022 298.15711691 360.8935932 302.70541794 360.88769531 307.25390625 C360.88182343 313.0076421 360.91232784 318.76052712 360.95281219 324.51409912 C360.97900237 329.0136136 360.98153836 333.51293206 360.97792053 338.01251221 C360.97958432 340.12984341 360.98895309 342.24718653 361.00706482 344.36444092 C361.52745143 412.73079123 324.92722924 483.97158663 278.109375 532.55615234 C276.53981392 534.106455 274.96410843 535.65053452 273.38671875 537.19287109 C273.05671875 537.85287109 272.72671875 538.51287109 272.38671875 539.19287109 C271.72671875 539.19287109 271.06671875 539.19287109 270.38671875 539.19287109 C270.12632812 539.78970703 269.8659375 540.38654297 269.59765625 541.00146484 C268.29771514 543.35393892 267.07500335 544.55337894 265.01171875 546.25537109 C261.54820291 549.17364651 258.24107252 552.2071372 254.94921875 555.31787109 C213.25931213 593.93800645 158.65356313 618.19999213 103.38671875 629.19287109 C102.55386353 629.36341003 101.7210083 629.53394897 100.86291504 629.70965576 C96.37525779 630.33347116 91.97341646 630.3648446 87.44775391 630.38574219 C86.46130386 630.39391968 85.47485382 630.40209717 84.45851135 630.41052246 C81.19760725 630.43529928 77.93674693 630.45188561 74.67578125 630.46630859 C72.99133974 630.47429411 72.99133974 630.47429411 71.27286911 630.48244095 C65.31245356 630.50915731 59.35205869 630.52852482 53.39160156 630.54296875 C48.5037122 630.55622098 43.61624894 630.58391349 38.72851562 630.625 C32.78870086 630.67491256 26.84926758 630.69916215 20.90925217 630.70619583 C18.66826584 630.71282043 16.42728501 630.72780525 14.18642044 630.75208664 C-1.68386307 630.91404305 -16.21535596 629.04131343 -31.61328125 625.19287109 C-32.29915093 625.02334332 -32.98502062 624.85381556 -33.69167423 624.67915058 C-37.02620179 623.84767287 -40.32412538 622.93880196 -43.61328125 621.94287109 C-45.08051636 621.50309937 -45.08051636 621.50309937 -46.57739258 621.05444336 C-89.86810768 607.79568899 -129.6811906 586.27006108 -163.61328125 556.19287109 C-164.55816406 555.35884766 -165.50304687 554.52482422 -166.4765625 553.66552734 C-179.04426906 542.35629208 -191.23774528 530.56495175 -201.61328125 517.19287109 C-202.56083696 516.03159119 -203.5115772 514.8729052 -204.46484375 513.71630859 C-211.43651597 505.22309871 -217.76281372 496.49226592 -223.61328125 487.19287109 C-224.07702148 486.46003906 -224.54076172 485.72720703 -225.01855469 484.97216797 C-251.27294606 443.19664341 -270.49763714 395.18326373 -270.3125 345.39599609 C-270.31843446 342.98247938 -270.32569166 340.56896561 -270.33418274 338.15545654 C-270.34596011 333.13326508 -270.33952998 328.11151964 -270.32006836 323.08935547 C-270.29722987 316.73497846 -270.32396509 310.3819434 -270.36513042 304.02769852 C-270.39102493 299.05282943 -270.3880429 294.07826787 -270.37723732 289.10335541 C-270.37577655 286.76439954 -270.38313051 284.42541688 -270.4004879 282.08652496 C-270.80316206 217.33333291 -236.55680375 151.1169746 -194.01123047 103.78808594 C-192.57916852 102.1539447 -191.22446132 100.47137065 -189.8671875 98.77490234 C-189.12339844 97.92283203 -188.37960938 97.07076172 -187.61328125 96.19287109 C-186.95328125 96.19287109 -186.29328125 96.19287109 -185.61328125 96.19287109 C-185.37867188 95.63212891 -185.1440625 95.07138672 -184.90234375 94.49365234 C-180.61735971 86.84560508 -172.25574095 80.82960626 -165.61328125 75.19287109 C-164.2675 74.01337891 -164.2675 74.01337891 -162.89453125 72.81005859 C-121.28733706 36.5767613 -70.56570292 12.30995914 -16.61328125 1.19287109 C-15.35281982 0.92994766 -15.35281982 0.92994766 -14.06689453 0.66171265 C-9.36948771 0.02402124 -4.73561367 0.02035364 0 0 Z M-138.61328125 65.19287109 C-139.22848633 65.65258301 -139.84369141 66.11229492 -140.47753906 66.5859375 C-148.30673144 72.47140238 -155.61331645 78.78045348 -162.734375 85.50146484 C-164.96072567 87.58281574 -167.20817798 89.56066222 -169.55078125 91.50537109 C-224.69271075 139.31830996 -259.10685246 216.86031196 -264.44580078 288.73193359 C-270.14397554 372.46021579 -244.45101867 453.31071517 -189.61328125 517.19287109 C-177.94063279 530.49295611 -165.58551282 543.30617399 -151.61328125 554.19287109 C-150.48587291 555.11833039 -149.36102659 556.04691651 -148.23828125 556.97802734 C-86.27927044 608.0752323 -4.97527952 631.49983857 74.67260742 624.36816406 C154.31250913 616.02755557 230.9379947 576.61170756 282.26171875 514.56787109 C283.64828625 512.78514145 285.02216186 510.99250409 286.38671875 509.19287109 C287.39568192 507.91047617 288.4062318 506.62932879 289.41796875 505.34912109 C326.17196868 458.5115404 349.70860495 400.67774931 354.38671875 341.19287109 C354.44311523 340.49436035 354.49951172 339.79584961 354.55761719 339.07617188 C360.53086818 262.00709616 337.05694592 180.44168107 286.57421875 121.13037109 C284.85730134 119.13991705 283.1244079 117.1653831 281.38671875 115.19287109 C280.75121094 114.45810547 280.11570312 113.72333984 279.4609375 112.96630859 C277.78278776 111.02968522 276.08750369 109.10962873 274.38671875 107.19287109 C273.72542969 106.43876953 273.06414063 105.68466797 272.3828125 104.90771484 C263.97974535 95.42232062 255.27380299 86.39753042 245.3125 78.53637695 C242.44497071 76.23953002 239.65599715 73.86885787 236.86328125 71.48193359 C230.64266316 66.24884456 224.05430095 61.65573749 217.26171875 57.19287109 C216.67345306 56.80412811 216.08518738 56.41538513 215.47909546 56.01486206 C185.79799558 36.42931305 153.06250797 21.46624335 118.38671875 13.19287109 C117.50258301 12.98178711 116.61844727 12.77070313 115.70751953 12.55322266 C28.05406945 -7.91377529 -66.50484378 10.93434947 -138.61328125 65.19287109 Z " fill="#02D898" transform="translate(269.61328125,-0.19287109375)"/>
<path d="M0 0 C1.72863281 0.02707031 1.72863281 0.02707031 3.4921875 0.0546875 C4.36101562 0.07789062 5.22984375 0.10109375 6.125 0.125 C6.17150717 11.52189269 6.20696216 22.9187625 6.22862434 34.31573105 C6.23902535 39.6087964 6.25311672 44.90179644 6.27587891 50.19482422 C6.29773932 55.31064743 6.30959627 60.42640813 6.31475449 65.54227448 C6.31842668 67.48612704 6.32559701 69.4299765 6.33646011 71.37380219 C6.44104814 90.87874327 4.66726876 112.5176399 -6.875 129.125 C-7.535 129.125 -8.195 129.125 -8.875 129.125 C-9.143125 129.8675 -9.41125 130.61 -9.6875 131.375 C-10.82776751 134.01561949 -11.96880306 135.98052844 -13.875 138.125 C-14.535 138.125 -15.195 138.125 -15.875 138.125 C-15.875 139.115 -15.875 140.105 -15.875 141.125 C-16.535 141.125 -17.195 141.125 -17.875 141.125 C-18.143125 141.8675 -18.41125 142.61 -18.6875 143.375 C-19.82776751 146.01561949 -20.96880306 147.98052844 -22.875 150.125 C-23.535 150.125 -24.195 150.125 -24.875 150.125 C-24.875 151.115 -24.875 152.105 -24.875 153.125 C-25.535 153.125 -26.195 153.125 -26.875 153.125 C-27.143125 153.8675 -27.41125 154.61 -27.6875 155.375 C-28.82776751 158.01561949 -29.96880306 159.98052844 -31.875 162.125 C-32.535 162.125 -33.195 162.125 -33.875 162.125 C-33.875 163.115 -33.875 164.105 -33.875 165.125 C-34.535 165.125 -35.195 165.125 -35.875 165.125 C-36.143125 165.8675 -36.41125 166.61 -36.6875 167.375 C-37.82776751 170.01561949 -38.96880306 171.98052844 -40.875 174.125 C-41.535 174.125 -42.195 174.125 -42.875 174.125 C-42.875 175.115 -42.875 176.105 -42.875 177.125 C-43.535 177.125 -44.195 177.125 -44.875 177.125 C-45.143125 177.8675 -45.41125 178.61 -45.6875 179.375 C-46.82776751 182.01561949 -47.96880306 183.98052844 -49.875 186.125 C-50.535 186.125 -51.195 186.125 -51.875 186.125 C-51.875 187.115 -51.875 188.105 -51.875 189.125 C-52.535 189.125 -53.195 189.125 -53.875 189.125 C-54.143125 189.8675 -54.41125 190.61 -54.6875 191.375 C-55.82776751 194.01561949 -56.96880306 195.98052844 -58.875 198.125 C-59.535 198.125 -60.195 198.125 -60.875 198.125 C-60.875 199.115 -60.875 200.105 -60.875 201.125 C-61.535 201.125 -62.195 201.125 -62.875 201.125 C-63.12773682 201.86733887 -63.38047363 202.60967773 -63.64086914 203.37451172 C-64.94939277 206.29079801 -66.40748739 207.86021725 -68.62109375 210.1328125 C-70.88684656 212.97396661 -71.84472909 214.44750811 -72.00830078 218.10839844 C-71.50939499 221.47871561 -70.78976598 224.70152094 -69.9375 228 C-69.42817511 230.2265144 -68.91905854 232.45307647 -68.41015625 234.6796875 C-68.14750977 235.76306396 -67.88486328 236.84644043 -67.61425781 237.96264648 C-66.71686382 241.80146562 -66.00789041 245.65568939 -65.32885742 249.53808594 C-64.89439708 252.01443978 -64.42734633 254.48173077 -63.9453125 256.94921875 C-62.1340073 266.2589277 -60.44978317 275.57432858 -58.9375 284.9375 C-57.59821491 293.2221458 -56.01198337 301.42037934 -54.25 309.625 C-53.64039532 312.56610009 -53.03626796 315.50824535 -52.43554688 318.45117188 C-52.07961004 320.14900296 -51.7077276 321.84363022 -51.31445312 323.53320312 C-48.57586053 335.34532139 -48.57586053 335.34532139 -51.6953125 340.765625 C-53.79491852 343.85508279 -56.12479398 346.58634829 -58.875 349.125 C-59.535 349.125 -60.195 349.125 -60.875 349.125 C-61.101875 349.805625 -61.32875 350.48625 -61.5625 351.1875 C-63.18726146 354.8238709 -65.20303257 358.15329263 -67.875 361.125 C-68.535 361.125 -69.195 361.125 -69.875 361.125 C-70.1534375 361.69734375 -70.431875 362.2696875 -70.71875 362.859375 C-71.85773792 365.09117566 -73.07436383 367.23370874 -74.375 369.375 C-74.7978125 370.08140625 -75.220625 370.7878125 -75.65625 371.515625 C-76.0584375 372.04671875 -76.460625 372.5778125 -76.875 373.125 C-77.535 373.125 -78.195 373.125 -78.875 373.125 C-79.10058594 373.64707031 -79.32617188 374.16914063 -79.55859375 374.70703125 C-81.3511302 377.99955369 -83.63351537 380.86978695 -85.9375 383.8125 C-86.39705078 384.40611328 -86.85660156 384.99972656 -87.33007812 385.61132812 C-90.69599011 389.94599011 -90.69599011 389.94599011 -91.875 391.125 C-93.87458364 391.16580783 -95.87545254 391.16754356 -97.875 391.125 C-101.66947627 384.02859967 -104.80245849 376.69614555 -107.84375 369.25463867 C-109.52786962 365.17209165 -111.31096643 361.19548138 -113.3203125 357.26171875 C-116.10772403 351.77526664 -118.43195717 346.13478098 -120.75 340.4375 C-125.97667948 327.74594278 -131.63156653 315.3529227 -137.875 303.125 C-138.596875 303.970625 -139.31875 304.81625 -140.0625 305.6875 C-142.875 308.125 -142.875 308.125 -145.0546875 308.171875 C-149.32601536 306.58639596 -152.37669278 303.75064155 -155.8125 300.8125 C-157.1945282 299.64726053 -158.57860927 298.48445102 -159.96484375 297.32421875 C-160.62339355 296.77169434 -161.28194336 296.21916992 -161.96044922 295.64990234 C-163.7131952 294.25387437 -165.48741541 293.02954981 -167.37890625 291.83203125 C-168.20261719 291.26871094 -169.02632812 290.70539063 -169.875 290.125 C-169.875 289.465 -169.875 288.805 -169.875 288.125 C-170.68710937 287.75375 -170.68710937 287.75375 -171.515625 287.375 C-174.4032849 285.84511396 -176.97276018 284.03349003 -179.625 282.125 C-180.60984375 281.42375 -181.5946875 280.7225 -182.609375 280 C-183.35703125 279.38125 -184.1046875 278.7625 -184.875 278.125 C-184.875 277.465 -184.875 276.805 -184.875 276.125 C-185.865 276.125 -186.855 276.125 -187.875 276.125 C-189.5625 274.625 -189.5625 274.625 -190.875 273.125 C-191.205 274.115 -191.535 275.105 -191.875 276.125 C-192.535 276.125 -193.195 276.125 -193.875 276.125 C-193.96724854 276.68364746 -194.05949707 277.24229492 -194.15454102 277.81787109 C-195.06715378 280.74033487 -196.53354303 282.61518389 -198.40234375 285.0390625 C-199.11197266 285.96460938 -199.82160156 286.89015625 -200.55273438 287.84375 C-201.29845703 288.8028125 -202.04417969 289.761875 -202.8125 290.75 C-203.9252832 292.20019531 -203.9252832 292.20019531 -205.06054688 293.6796875 C-210.52813925 300.77813925 -210.52813925 300.77813925 -212.875 303.125 C-215.5 302.75 -215.5 302.75 -217.875 302.125 C-218.78125 299.70703125 -218.78125 299.70703125 -218.875 296.125 C-217.09520425 292.72954176 -214.7471807 289.81330859 -212.375 286.8125 C-211.76140625 286.00876953 -211.1478125 285.20503906 -210.515625 284.37695312 C-208.65320038 281.94523694 -206.76683067 279.53388582 -204.875 277.125 C-203.55139028 275.42371606 -202.22844062 273.72191831 -200.90625 272.01953125 C-199.89594515 270.72126714 -198.88557228 269.42305595 -197.875 268.125 C-198.535 266.805 -199.195 265.485 -199.875 264.125 C-200.865 264.125 -201.855 264.125 -202.875 264.125 C-202.875 263.465 -202.875 262.805 -202.875 262.125 C-203.40480469 261.89425781 -203.93460938 261.66351563 -204.48046875 261.42578125 C-207.63826848 259.71036965 -210.37463832 257.52999765 -213.1875 255.3125 C-216.79759676 252.4896281 -220.40025993 249.7093257 -224.1875 247.125 C-225.074375 246.465 -225.96125 245.805 -226.875 245.125 C-226.875 244.465 -226.875 243.805 -226.875 243.125 C-227.43832031 242.86847656 -228.00164062 242.61195313 -228.58203125 242.34765625 C-231.14663223 240.98016033 -233.28479635 239.36583892 -235.5625 237.5625 C-236.35011719 236.94246094 -237.13773437 236.32242188 -237.94921875 235.68359375 C-240.84420052 233.34059633 -240.84420052 233.34059633 -241.1875 230.9375 C-240.77260294 227.2034265 -239.08806849 225.09881078 -236.875 222.125 C-238.009375 222.16625 -239.14375 222.2075 -240.3125 222.25 C-244.17697687 222.25 -247.55701079 221.60093105 -251.296875 220.69140625 C-255.45595225 219.77766958 -259.66636915 219.26782769 -263.8828125 218.6875 C-275.315646 217.10104347 -286.70378542 215.1712682 -298.0847168 213.25244141 C-302.02306107 212.59093446 -305.96359121 211.95055861 -309.91015625 211.33984375 C-311.16989258 211.14455078 -311.16989258 211.14455078 -312.45507812 210.9453125 C-314.0510303 210.69920186 -315.64735842 210.45551033 -317.24414062 210.21484375 C-321.1173683 209.61739584 -324.96882666 208.94589418 -328.80859375 208.16015625 C-329.90578735 207.93598022 -329.90578735 207.93598022 -331.02514648 207.70727539 C-332.875 207.125 -332.875 207.125 -334.875 205.125 C-335.30650804 202.04049266 -335.10160946 200.51694861 -333.53320312 197.80419922 C-332.91380859 197.02061035 -332.29441406 196.23702148 -331.65625 195.4296875 C-330.97522217 194.5545752 -330.29419434 193.67946289 -329.5925293 192.77783203 C-328.49485229 191.40280518 -328.49485229 191.40280518 -327.375 190 C-325.89117174 188.09954784 -324.40808953 186.19851294 -322.92578125 184.296875 C-321.86157959 182.94239258 -321.86157959 182.94239258 -320.77587891 181.56054688 C-318.02766951 178.03933741 -315.41458362 174.43608522 -312.80859375 170.80859375 C-311.25009872 168.64559156 -309.67887153 166.49400861 -308.09765625 164.34765625 C-307.60628174 163.68040527 -307.11490723 163.0131543 -306.60864258 162.32568359 C-305.64975786 161.02455419 -304.69001859 159.72405392 -303.72924805 158.42431641 C-301.64295485 155.58957552 -299.64179716 152.76285472 -297.734375 149.80078125 C-295.875 147.125 -295.875 147.125 -292.875 145.125 C-290.60929868 144.78626302 -288.3271161 144.55445143 -286.04296875 144.37890625 C-285.35210175 144.32335068 -284.66123474 144.2677951 -283.94943237 144.21055603 C-281.65435083 144.02799453 -279.35852126 143.8578006 -277.0625 143.6875 C-275.43995918 143.56070724 -273.8174827 143.43308856 -272.19506836 143.3046875 C-268.79608329 143.03709602 -265.39676519 142.77452896 -261.99707031 142.51611328 C-257.10923277 142.14424022 -252.22245932 141.7598333 -247.3359375 141.37109375 C-245.76757999 141.24647714 -244.19922062 141.12188402 -242.63085938 140.99731445 C-241.85653564 140.93581207 -241.08221191 140.87430969 -240.28442383 140.8109436 C-237.14413777 140.56214298 -234.00368462 140.31549223 -230.86322021 140.06895447 C-220.90796593 139.28740025 -210.95337143 138.49783488 -200.99972534 137.69604492 C-199.39700274 137.56712552 -197.79424084 137.43869352 -196.19143677 137.31079102 C-192.61144269 137.02495708 -189.03238628 136.73310758 -185.45458984 136.42089844 C-183.31165877 136.24375804 -181.1660207 136.09228347 -179.01806641 135.99316406 C-175.31221751 135.77207865 -173.19324314 135.36729346 -170.20703125 133.09375 C-167.24525037 129.32330868 -164.36445072 125.51570871 -161.5625 121.625 C-156.41751569 114.55819658 -151.19253915 107.56288302 -145.875 100.625 C-140.08254662 93.05923248 -134.38733204 85.4299625 -128.75537109 77.74414062 C-124.62641159 72.11818022 -120.40532325 66.57470133 -116.12109375 61.06640625 C-113.22573247 57.27474183 -110.47950572 53.38529567 -107.76171875 49.46484375 C-105.71077014 46.92132778 -103.44477366 45.1265825 -100.875 43.125 C-100.545 42.465 -100.215 41.805 -99.875 41.125 C-98.885 41.125 -97.895 41.125 -96.875 41.125 C-96.545 40.135 -96.215 39.145 -95.875 38.125 C-93.732388 36.59929173 -91.64102291 35.25547839 -89.375 33.9375 C-88.71008545 33.54530273 -88.0451709 33.15310547 -87.36010742 32.74902344 C-76.04486003 26.20342599 -64.00604546 20.95660512 -51.875 16.125 C-51.24078125 15.86895996 -50.6065625 15.61291992 -49.953125 15.34912109 C-38.51226752 10.73890714 -26.92898422 6.6920434 -15.19824219 2.88354492 C-13.50298516 2.33003887 -11.82493894 1.72299898 -10.15948486 1.08540344 C-6.59873403 0.04421814 -3.69907713 -0.07549137 0 0 Z M-23.48046875 15.23046875 C-26.25661871 16.26756229 -29.06182594 17.19318038 -31.875 18.125 C-47.21276671 23.42315221 -61.70123117 29.23427916 -75.875 37.125 C-76.74125 37.59035156 -77.6075 38.05570313 -78.5 38.53515625 C-90.63844861 45.08907555 -99.29096275 52.51606856 -107.3125 63.75 C-108.53876621 65.44126423 -109.76669431 67.13132448 -110.99609375 68.8203125 C-111.63015137 69.69204102 -112.26420898 70.56376953 -112.91748047 71.46191406 C-116.17647399 75.89557599 -119.52672758 80.2586034 -122.875 84.625 C-127.94216738 91.24396082 -132.94936358 97.90004434 -137.875 104.625 C-143.4616242 112.25240017 -149.16776338 119.78144565 -154.9140625 127.2890625 C-159.29564326 133.02402727 -163.61042958 138.80259563 -167.875 144.625 C-173.4616242 152.25240017 -179.16776338 159.78144565 -184.9140625 167.2890625 C-189.8773644 173.78543063 -194.74264675 180.34763065 -199.57275391 186.94335938 C-204.06178402 193.05814634 -208.64202637 199.09947604 -213.25 205.125 C-219.60516318 213.43659787 -219.60516318 213.43659787 -225.875 221.8125 C-226.473125 222.62074219 -227.07125 223.42898438 -227.6875 224.26171875 C-229.05414911 226.03784597 -229.05414911 226.03784597 -228.875 228.125 C-229.535 228.125 -230.195 228.125 -230.875 228.125 C-230.545 229.115 -230.215 230.105 -229.875 231.125 C-229.215 231.125 -228.555 231.125 -227.875 231.125 C-227.875 231.785 -227.875 232.445 -227.875 233.125 C-225.90366014 234.50035339 -223.89818078 235.82711044 -221.875 237.125 C-220.51375 238.23875 -220.51375 238.23875 -219.125 239.375 C-217.08695569 241.32964687 -217.08695569 241.32964687 -214.875 241.125 C-214.875 241.785 -214.875 242.445 -214.875 243.125 C-212.67614456 244.80612764 -210.47509427 246.38577521 -208.1875 247.9375 C-204.5869183 250.3885654 -201.2904851 252.70092289 -198.23046875 255.82421875 C-195.79964322 258.1986072 -194.01628216 258.98185623 -190.875 260.125 C-190.5032666 259.61751221 -190.1315332 259.11002441 -189.74853516 258.5871582 C-188.00058848 256.20278657 -186.25049285 253.82000298 -184.5 251.4375 C-183.86819824 250.57640625 -183.23639648 249.7153125 -182.58544922 248.828125 C-179.67480742 244.87360078 -176.75318438 240.93488962 -173.71875 237.07421875 C-173.02338135 236.18899536 -173.02338135 236.18899536 -172.31396484 235.28588867 C-171.07254877 233.7167037 -169.82171368 232.15498363 -168.5703125 230.59375 C-166.59195706 228.21195975 -166.59195706 228.21195975 -166.875 225.125 C-165.885 224.795 -164.895 224.465 -163.875 224.125 C-160.90297988 220.49539924 -160.90297988 220.49539924 -159.875 216.125 C-159.215 216.125 -158.555 216.125 -157.875 216.125 C-157.875 215.135 -157.875 214.145 -157.875 213.125 C-156.885 212.795 -155.895 212.465 -154.875 212.125 C-151.90297988 208.49539924 -151.90297988 208.49539924 -150.875 204.125 C-150.215 204.125 -149.555 204.125 -148.875 204.125 C-148.875 203.135 -148.875 202.145 -148.875 201.125 C-147.885 200.795 -146.895 200.465 -145.875 200.125 C-142.90297988 196.49539924 -142.90297988 196.49539924 -141.875 192.125 C-141.215 192.125 -140.555 192.125 -139.875 192.125 C-139.875 191.135 -139.875 190.145 -139.875 189.125 C-138.885 188.795 -137.895 188.465 -136.875 188.125 C-133.90297988 184.49539924 -133.90297988 184.49539924 -132.875 180.125 C-132.215 180.125 -131.555 180.125 -130.875 180.125 C-130.875 179.135 -130.875 178.145 -130.875 177.125 C-130.215 177.125 -129.555 177.125 -128.875 177.125 C-128.215 176.135 -127.555 175.145 -126.875 174.125 C-124.25 173.9375 -124.25 173.9375 -121.875 174.125 C-121.22070312 175.86743164 -121.22070312 175.86743164 -120.875 178.125 C-121.82617188 180.13061523 -121.82617188 180.13061523 -123.34375 182.24609375 C-123.90191406 183.0335498 -124.46007812 183.82100586 -125.03515625 184.63232422 C-125.64230469 185.45490723 -126.24945313 186.27749023 -126.875 187.125 C-127.47183594 187.9411377 -128.06867188 188.75727539 -128.68359375 189.59814453 C-130.56352965 192.1413242 -132.46544351 194.66649967 -134.375 197.1875 C-135.01308594 198.03376953 -135.65117187 198.88003906 -136.30859375 199.75195312 C-137.56731461 201.42123836 -138.82689697 203.08987437 -140.08740234 204.7578125 C-142.69205902 208.20697272 -145.28524265 211.66464537 -147.875 215.125 C-148.64585937 216.15367187 -149.41671875 217.18234375 -150.2109375 218.2421875 C-150.88382812 219.15226563 -151.55671875 220.06234375 -152.25 221 C-152.93835938 221.92554688 -153.62671875 222.85109375 -154.3359375 223.8046875 C-156.05925205 225.93872392 -156.05925205 225.93872392 -155.875 228.125 C-156.535 228.125 -157.195 228.125 -157.875 228.125 C-157.875 229.115 -157.875 230.105 -157.875 231.125 C-158.535 231.125 -159.195 231.125 -159.875 231.125 C-161.16633839 232.88459402 -161.16633839 232.88459402 -162.375 235.0625 C-164.66408189 239.01954094 -164.66408189 239.01954094 -166.875 240.125 C-166.875 241.115 -166.875 242.105 -166.875 243.125 C-167.535 243.125 -168.195 243.125 -168.875 243.125 C-170.16633839 244.88459402 -170.16633839 244.88459402 -171.375 247.0625 C-173.66408189 251.01954094 -173.66408189 251.01954094 -175.875 252.125 C-175.875 253.115 -175.875 254.105 -175.875 255.125 C-176.535 255.125 -177.195 255.125 -177.875 255.125 C-179.16633839 256.88459402 -179.16633839 256.88459402 -180.375 259.0625 C-182.66408189 263.01954094 -182.66408189 263.01954094 -184.875 264.125 C-184.875 265.115 -184.875 266.105 -184.875 267.125 C-182.83027578 268.97044381 -182.83027578 268.97044381 -180.125 270.75 C-179.13242187 271.44609375 -178.13984375 272.1421875 -177.1171875 272.859375 C-176.04726563 273.60703125 -174.97734375 274.3546875 -173.875 275.125 C-171.65297751 276.73187175 -169.44929569 278.36221241 -167.25 280 C-166.24710937 280.73992187 -165.24421875 281.47984375 -164.2109375 282.2421875 C-161.875 284.125 -161.875 284.125 -160.875 286.125 C-159.885 286.125 -158.895 286.125 -157.875 286.125 C-157.38 287.61 -157.38 287.61 -156.875 289.125 C-154.62529381 290.95656473 -154.62529381 290.95656473 -151.9375 292.6875 C-147.02717391 295.97282609 -147.02717391 295.97282609 -144.875 298.125 C-144.194375 296.9184375 -144.194375 296.9184375 -143.5 295.6875 C-141.875 293.125 -141.875 293.125 -139.875 292.125 C-139.875 291.135 -139.875 290.145 -139.875 289.125 C-139.215 289.125 -138.555 289.125 -137.875 289.125 C-136.58366161 287.36540598 -136.58366161 287.36540598 -135.375 285.1875 C-133.08591811 281.23045906 -133.08591811 281.23045906 -130.875 280.125 C-130.875 279.135 -130.875 278.145 -130.875 277.125 C-130.215 277.125 -129.555 277.125 -128.875 277.125 C-127.47325815 275.27917184 -126.15537491 273.36949428 -124.875 271.4375 C-120.62285752 265.13345654 -116.07653436 259.10272093 -111.40771484 253.10253906 C-102.50643091 241.61792615 -93.75714562 230.02149121 -85.17163086 218.29931641 C-80.08143203 211.36567916 -74.8670069 204.53054157 -69.64038086 197.69946289 C-64.78924564 191.34993039 -60.0324883 184.93912278 -55.328125 178.48046875 C-52.97792101 175.25587784 -50.58749476 172.06274814 -48.1875 168.875 C-46.74916933 166.95895662 -45.31166399 165.04229339 -43.875 163.125 C-43.10414063 162.09632813 -42.33328125 161.06765625 -41.5390625 160.0078125 C-40.80429687 159.01523437 -40.06953125 158.02265625 -39.3125 157 C-38.65121094 156.11054688 -37.98992187 155.22109375 -37.30859375 154.3046875 C-35.69183117 152.28131601 -35.69183117 152.28131601 -35.875 150.125 C-35.215 150.125 -34.555 150.125 -33.875 150.125 C-32.053958 147.95041722 -32.053958 147.95041722 -30.25 145.25 C-29.61835938 144.34507812 -28.98671875 143.44015625 -28.3359375 142.5078125 C-26.70076895 140.30666294 -26.70076895 140.30666294 -26.875 138.125 C-26.215 138.125 -25.555 138.125 -24.875 138.125 C-23.053958 135.95041722 -23.053958 135.95041722 -21.25 133.25 C-20.61835938 132.34507812 -19.98671875 131.44015625 -19.3359375 130.5078125 C-17.70076895 128.30666294 -17.70076895 128.30666294 -17.875 126.125 C-17.215 126.125 -16.555 126.125 -15.875 126.125 C6.82884193 103.352773 3.19710943 48.4578088 3.1875 19.1875 C3.17533833 15.16658314 3.15518983 11.14582086 3.125 7.125 C-5.08113094 7.125 -15.90748966 12.35542822 -23.48046875 15.23046875 Z M-193.3515625 145.67578125 C-194.06215317 145.73421204 -194.77274384 145.79264282 -195.50486755 145.85284424 C-197.03664497 145.9791683 -198.56831483 146.10680227 -200.09988403 146.23562622 C-202.54742017 146.44148851 -204.99522145 146.64389663 -207.44311523 146.84545898 C-210.87120598 147.12805834 -214.29917751 147.41204046 -217.72705078 147.69726562 C-225.02279833 148.30402774 -232.31918247 148.90284708 -239.61593628 149.49737549 C-241.92846094 149.68675975 -244.24072722 149.87908718 -246.55297852 150.07177734 C-253.79253809 150.6699376 -261.02809305 151.21310693 -268.28125 151.6171875 C-269.57925537 151.69380615 -270.87726074 151.7704248 -272.21459961 151.84936523 C-274.62600168 151.98741717 -277.03833948 152.11030273 -279.45141602 152.21508789 C-281.03974243 152.30777954 -281.03974243 152.30777954 -282.66015625 152.40234375 C-284.03506226 152.46796509 -284.03506226 152.46796509 -285.43774414 152.53491211 C-288.58525097 153.29695999 -289.86778877 154.63128081 -291.875 157.125 C-291.875 157.785 -291.875 158.445 -291.875 159.125 C-292.535 159.125 -293.195 159.125 -293.875 159.125 C-293.875 160.115 -293.875 161.105 -293.875 162.125 C-294.865 162.455 -295.855 162.785 -296.875 163.125 C-299.84702012 166.75460076 -299.84702012 166.75460076 -300.875 171.125 C-301.535 171.125 -302.195 171.125 -302.875 171.125 C-302.875 172.115 -302.875 173.105 -302.875 174.125 C-303.865 174.455 -304.855 174.785 -305.875 175.125 C-307.0289808 176.72424507 -307.0289808 176.72424507 -307.9375 178.625 C-309.67142366 182.02321183 -309.67142366 182.02321183 -311.875 183.125 C-311.875 184.115 -311.875 185.105 -311.875 186.125 C-312.535 186.125 -313.195 186.125 -313.875 186.125 C-315.16633839 187.88459402 -315.16633839 187.88459402 -316.375 190.0625 C-318.66408189 194.01954094 -318.66408189 194.01954094 -320.875 195.125 C-320.875 196.115 -320.875 197.105 -320.875 198.125 C-321.535 198.125 -322.195 198.125 -322.875 198.125 C-322.875 198.785 -322.875 199.445 -322.875 200.125 C-320.09482818 201.51508591 -317.46332853 201.62385742 -314.375 202 C-306.37100776 203.01585783 -298.4317632 204.32571611 -290.47949219 205.68212891 C-270.31400605 209.11109327 -250.12772138 212.25842562 -229.875 215.125 C-226.96328211 211.45519796 -226.96328211 211.45519796 -225.875 207.125 C-225.215 207.125 -224.555 207.125 -223.875 207.125 C-223.875 206.135 -223.875 205.145 -223.875 204.125 C-222.885 203.795 -221.895 203.465 -220.875 203.125 C-217.90297988 199.49539924 -217.90297988 199.49539924 -216.875 195.125 C-216.215 195.125 -215.555 195.125 -214.875 195.125 C-214.875 194.135 -214.875 193.145 -214.875 192.125 C-213.885 191.795 -212.895 191.465 -211.875 191.125 C-208.90297988 187.49539924 -208.90297988 187.49539924 -207.875 183.125 C-207.215 183.125 -206.555 183.125 -205.875 183.125 C-205.38 182.17625 -204.885 181.2275 -204.375 180.25 C-202.10204073 176.28407797 -199.33076851 172.89020858 -196.44140625 169.359375 C-192.9725638 165.05007669 -189.71736338 160.57856037 -186.4375 156.125 C-185.8098877 155.27518555 -185.18227539 154.42537109 -184.53564453 153.54980469 C-181.45926465 149.49098427 -181.45926465 149.49098427 -178.875 145.125 C-183.73810416 145.06979974 -188.50571581 145.27160428 -193.3515625 145.67578125 Z M-79.875 225.125 C-86.1998343 232.10899817 -91.66922862 239.84613013 -97.22290039 247.44189453 C-101.74584365 253.61966116 -106.35132996 259.72889752 -111 265.8125 C-111.66515625 266.68769287 -112.3303125 267.56288574 -113.015625 268.46459961 C-116.16785365 272.60809269 -119.34287995 276.72709217 -122.58984375 280.796875 C-123.15751465 281.52044189 -123.72518555 282.24400879 -124.31005859 282.98950195 C-125.36251508 284.33009722 -126.42847276 285.66024904 -127.51025391 286.97729492 C-129.73632 289.8396572 -130.88168038 291.53712689 -130.83984375 295.21875 C-129.85827189 298.17538751 -128.74564275 300.88910439 -127.375 303.6875 C-124.08748775 310.58015854 -121.08673388 317.57605285 -118.12304688 324.61352539 C-116.14127026 329.28768458 -114.03913771 333.84507511 -111.73242188 338.36694336 C-110.60180067 340.68516754 -109.75368885 343.05519468 -108.9375 345.5 C-107.33650229 350.04658334 -105.38481476 354.23219433 -103.171875 358.5078125 C-100.02008238 364.86835786 -97.50367284 371.53531329 -94.875 378.125 C-92.01292848 376.84200242 -89.8504912 375.594364 -87.875 373.125 C-87.875 372.135 -87.875 371.145 -87.875 370.125 C-87.215 370.125 -86.555 370.125 -85.875 370.125 C-84.58366161 368.36540598 -84.58366161 368.36540598 -83.375 366.1875 C-81.08591811 362.23045906 -81.08591811 362.23045906 -78.875 361.125 C-78.875 360.135 -78.875 359.145 -78.875 358.125 C-77.885 357.795 -76.895 357.465 -75.875 357.125 C-72.90297988 353.49539924 -72.90297988 353.49539924 -71.875 349.125 C-71.215 349.125 -70.555 349.125 -69.875 349.125 C-69.875 348.135 -69.875 347.145 -69.875 346.125 C-68.885 345.795 -67.895 345.465 -66.875 345.125 C-62.31611972 340.86105653 -58.97191496 336.6866982 -58.73046875 330.3046875 C-59.40293826 325.21818881 -60.50207723 320.41909767 -61.921875 315.4921875 C-62.73057643 312.63521771 -63.3110428 309.92936746 -63.75 307 C-64.6730507 301.18331544 -65.75887151 295.40695328 -66.875 289.625 C-67.93708857 284.11282773 -68.99170445 278.60675691 -69.875 273.0625 C-70.86276811 266.93484117 -72.10713639 260.86308707 -73.3371582 254.78051758 C-75.32841771 244.92289865 -77.25108388 235.05061813 -78.875 225.125 C-79.205 225.125 -79.535 225.125 -79.875 225.125 Z " fill="#000000" transform="translate(478.875,106.875)"/>
<path d="M0 0 C0.92425781 0.53753906 0.92425781 0.53753906 1.8671875 1.0859375 C3.5625 2.125 3.5625 2.125 6 4 C6 4.66 6 5.32 6 6 C6.99 6.33 7.98 6.66 9 7 C9 7.66 9 8.32 9 9 C9.66 9 10.32 9 11 9 C11.79831456 10.37115097 12.5883061 11.74714884 13.375 13.125 C14.03628906 14.27355469 14.03628906 14.27355469 14.7109375 15.4453125 C19.16741641 24.27724343 19.59389473 35.28934095 17.3125 44.89453125 C16.38039972 47.11215316 15.33608361 49.00211797 14 51 C13.57589844 51.680625 13.15179688 52.36125 12.71484375 53.0625 C7.40746274 60.86834171 0.14497463 66.53528779 -9 69 C-11.99374646 69.41051932 -14.91861992 69.47899995 -17.9375 69.4375 C-18.73091797 69.42775146 -19.52433594 69.41800293 -20.34179688 69.40795898 C-30.90826435 69.08726887 -36.41219047 65.09415728 -44.12890625 58.0234375 C-46 56 -46 56 -46 54 C-46.66 54 -47.32 54 -48 54 C-48.81604999 52.0848421 -49.62770632 50.16781166 -50.4375 48.25 C-50.88996094 47.18265625 -51.34242188 46.1153125 -51.80859375 45.015625 C-55.45068575 35.79695278 -54.66568917 27.01177769 -51.2578125 17.7890625 C-47.32441371 9.06717822 -40.1911983 1.7376766 -31.5625 -2.4375 C-21.61074819 -5.99609856 -8.99687198 -5.72528217 0 0 Z M-36 11 C-36.33 11.99 -36.66 12.98 -37 14 C-37.99 14.33 -38.98 14.66 -40 15 C-44.41760108 21.44561012 -46.65093002 28.91544416 -45.55078125 36.65625 C-44.31847576 41.90010316 -41.97285019 46.54072472 -39 51 C-38.34 51 -37.68 51 -37 51 C-36.67 51.99 -36.34 52.98 -36 54 C-35.34 54 -34.68 54 -34 54 C-34 54.66 -34 55.32 -34 56 C-25.60116493 60.73388886 -18.74463244 61.93855576 -9.28125 59.71875 C-2.08265205 57.45069859 3.70378008 51.36778922 7.875 45.25 C10.42259326 37.89028614 11.42113939 28.22562585 8.0625 20.9765625 C3.95633142 13.92583883 -1.36064421 8.09924043 -9 5 C-11.85806176 4.63568185 -14.39821034 4.42889106 -17.25 4.4375 C-18.36955078 4.43786255 -18.36955078 4.43786255 -19.51171875 4.43823242 C-26.0231606 4.63924639 -31.18831427 6.42221566 -36 11 Z " fill="#01D897" transform="translate(424,182)"/>
<path d="M0 0 C0.680625 0.433125 1.36125 0.86625 2.0625 1.3125 C2.0625 3.6225 2.0625 5.9325 2.0625 8.3125 C-4.6875 12.3125 -4.6875 12.3125 -6.9375 12.3125 C-6.9375 12.9725 -6.9375 13.6325 -6.9375 14.3125 C-7.9275 14.3125 -8.9175 14.3125 -9.9375 14.3125 C-9.9375 14.9725 -9.9375 15.6325 -9.9375 16.3125 C-11.3984375 17.6015625 -11.3984375 17.6015625 -13.3125 18.9375 C-13.93898438 19.38351562 -14.56546875 19.82953125 -15.2109375 20.2890625 C-16.9375 21.3125 -16.9375 21.3125 -18.9375 21.3125 C-18.9375 21.9725 -18.9375 22.6325 -18.9375 23.3125 C-22.39903846 26.3125 -22.39903846 26.3125 -24.9375 26.3125 C-25.4325 27.7975 -25.4325 27.7975 -25.9375 29.3125 C-26.5975 29.3125 -27.2575 29.3125 -27.9375 29.3125 C-28.4325 30.7975 -28.4325 30.7975 -28.9375 32.3125 C-29.5975 32.3125 -30.2575 32.3125 -30.9375 32.3125 C-31.2675 33.3025 -31.5975 34.2925 -31.9375 35.3125 C-32.5975 35.3125 -33.2575 35.3125 -33.9375 35.3125 C-34.2675 36.3025 -34.5975 37.2925 -34.9375 38.3125 C-35.5975 38.3125 -36.2575 38.3125 -36.9375 38.3125 C-37.2675 39.3025 -37.5975 40.2925 -37.9375 41.3125 C-38.5975 41.3125 -39.2575 41.3125 -39.9375 41.3125 C-40.246875 41.93125 -40.55625 42.55 -40.875 43.1875 C-41.5625 44.5625 -42.25 45.9375 -42.9375 47.3125 C-43.5975 47.3125 -44.2575 47.3125 -44.9375 47.3125 C-45.20949219 47.88613281 -45.48148438 48.45976562 -45.76171875 49.05078125 C-46.94944934 51.33548561 -48.28775734 53.38187013 -49.75 55.5 C-52.2906029 59.26773876 -54.57799701 63.09475558 -56.7265625 67.09765625 C-57.49469631 68.50259777 -58.29856332 69.88903659 -59.1484375 71.24609375 C-62.22471616 76.27198851 -64.19239597 81.50221247 -66.0625 87.0625 C-66.30411865 87.77656006 -66.5457373 88.49062012 -66.79467773 89.22631836 C-70.3876945 100.28828335 -72.47926139 110.84306834 -72.375 122.5 C-72.36960205 123.67111328 -72.3642041 124.84222656 -72.35864258 126.04882812 C-72.1872009 135.920616 -70.65695896 144.85775021 -67.9375 154.3125 C-67.62941406 155.48039063 -67.32132813 156.64828125 -67.00390625 157.8515625 C-66.34343249 160.3480901 -65.65843293 162.83292766 -64.9375 165.3125 C-66.39492463 165.39346803 -67.85362807 165.45167774 -69.3125 165.5 C-70.12460938 165.53480469 -70.93671875 165.56960938 -71.7734375 165.60546875 C-72.48757812 165.50878906 -73.20171875 165.41210938 -73.9375 165.3125 C-85.36415013 148.1725248 -83.3720291 118.44826467 -79.7890625 99.0703125 C-79.07782279 95.93172257 -78.19537871 93.25448079 -76.9375 90.3125 C-76.69 89.1575 -76.4425 88.0025 -76.1875 86.8125 C-74.22098854 78.53741976 -69.7361216 70.86776949 -65.9375 63.3125 C-65.380625 62.19875 -64.82375 61.085 -64.25 59.9375 C-63.816875 59.07125 -63.38375 58.205 -62.9375 57.3125 C-62.2775 57.3125 -61.6175 57.3125 -60.9375 57.3125 C-60.9375 56.3225 -60.9375 55.3325 -60.9375 54.3125 C-60.2775 54.3125 -59.6175 54.3125 -58.9375 54.3125 C-58.504375 53.19875 -58.504375 53.19875 -58.0625 52.0625 C-57.69125 51.155 -57.32 50.2475 -56.9375 49.3125 C-56.669375 48.6525 -56.40125 47.9925 -56.125 47.3125 C-54.47787961 44.5384025 -52.22626157 42.58500616 -49.9375 40.3125 C-48.19938373 38.42486835 -46.47061149 36.52860119 -44.75 34.625 C-30.94834653 19.4709824 -30.94834653 19.4709824 -23.9375 14.3125 C-23.2775 14.3125 -22.6175 14.3125 -21.9375 14.3125 C-21.6075 13.3225 -21.2775 12.3325 -20.9375 11.3125 C-18.6796875 9.6640625 -18.6796875 9.6640625 -15.8125 7.9375 C-12.38949627 5.8579809 -9.1768493 3.76490596 -6.0625 1.25 C-2.9375 -0.6875 -2.9375 -0.6875 0 0 Z " fill="#01D897" transform="translate(239.9375,356.6875)"/>
<path d="M0 0 C0.66 1.65 1.32 3.3 2 5 C-1.11279013 9.15038684 -3.53964684 11.43427397 -8.1875 13.8984375 C-11.68189058 16.0221835 -14.28596142 18.97690941 -17 22 C-17.73605469 22.81726563 -18.47210938 23.63453125 -19.23046875 24.4765625 C-27.69368091 34.31486944 -32.85234347 43.97500927 -34 57 C-34.10634766 58.11955078 -34.10634766 58.11955078 -34.21484375 59.26171875 C-34.54173562 66.33565891 -32.63313775 73.16609622 -31 80 C-19.0051986 80.7343756 -6.86611637 77.99987308 3 71 C3.33 70.34 3.66 69.68 4 69 C4.99 69 5.98 69 7 69 C7.495 67.515 7.495 67.515 8 66 C8.66 66 9.32 66 10 66 C10.495 64.515 10.495 64.515 11 63 C11.66 63 12.32 63 13 63 C13 62.01 13 61.02 13 60 C14.30876858 58.64254637 15.64653096 57.31288884 17 56 C22.02091112 48.74382867 25.2120779 41.29495114 27.859375 32.93359375 C28.93216647 30.17446225 29.73209246 28.83127017 32 27 C33.65 27.66 35.3 28.32 37 29 C37.78706666 39.62539998 32.95963661 47.44234814 27.5859375 56.3359375 C26.28328729 58.52413317 25.098593 60.70491957 24 63 C23.34 63 22.68 63 22 63 C21.76023437 63.72832031 21.52046875 64.45664062 21.2734375 65.20703125 C19.81947132 68.39594481 18.12341542 70.24303707 15.625 72.6875 C14.85414063 73.45449219 14.08328125 74.22148437 13.2890625 75.01171875 C11.22303685 76.80627004 9.43490641 77.82545264 7 79 C6.67 79.66 6.34 80.32 6 81 C-4.34171118 86.74019565 -13.64663874 89.11547 -25.3125 89.25 C-25.99481689 89.25950684 -26.67713379 89.26901367 -27.38012695 89.27880859 C-31.33210433 89.25253668 -34.56360217 89.02579691 -38 87 C-45.0749314 75.80496149 -44.59855442 57.50615078 -41.9609375 44.9296875 C-39.21434408 36.55592708 -35.00919768 27.51205941 -29 21 C-28.34 21 -27.68 21 -27 21 C-27 20.01 -27 19.02 -27 18 C-25.3603279 16.63360658 -23.68889872 15.3050581 -22 14 C-21.29875 13.0925 -20.5975 12.185 -19.875 11.25 C-19.25625 10.5075 -18.6375 9.765 -18 9 C-17.01 9 -16.02 9 -15 9 C-14.67 8.01 -14.34 7.02 -14 6 C-13.01 6 -12.02 6 -11 6 C-10.67 5.01 -10.34 4.02 -10 3 C-6.58517997 0.43888497 -4.25191465 -0.36444983 0 0 Z " fill="#01D897" transform="translate(242,396)"/>
<path d="M0 0 C1.2065625 0.0309375 1.2065625 0.0309375 2.4375 0.0625 C5.01376168 5.21502336 2.45054315 12.55466141 0.8125 17.75 C-1.79172723 25.09260458 -5.13906828 32.07641462 -8.5625 39.0625 C-8.87155273 39.69575195 -9.18060547 40.32900391 -9.49902344 40.98144531 C-12.66521427 47.45004295 -15.87705946 53.87095989 -19.5625 60.0625 C-20.2225 60.0625 -20.8825 60.0625 -21.5625 60.0625 C-21.63855469 60.60003906 -21.71460938 61.13757813 -21.79296875 61.69140625 C-25.94855869 74.49568591 -41.64278988 88.0464883 -51.9375 96.25 C-52.79359863 96.93666748 -52.79359863 96.93666748 -53.66699219 97.63720703 C-57.14375751 100.305304 -60.33591265 101.91966143 -64.5625 103.0625 C-64.5625 103.7225 -64.5625 104.3825 -64.5625 105.0625 C-70.46268235 109.06244569 -76.52331772 108.40217444 -83.4375 108.25 C-84.6028125 108.23646484 -85.768125 108.22292969 -86.96875 108.20898438 C-89.83381118 108.17375821 -92.69791377 108.12449715 -95.5625 108.0625 C-92.84463257 106.25058838 -90.43327832 105.26074243 -87.37011719 104.21044922 C-80.6255084 101.88168657 -74.42691049 99.12699433 -68.3125 95.4375 C-67.3838916 94.87953735 -67.3838916 94.87953735 -66.43652344 94.31030273 C-63.78516151 92.65852039 -61.522077 91.0213703 -59.328125 88.7890625 C-57.5625 87.0625 -57.5625 87.0625 -54.5625 87.0625 C-54.0675 85.5775 -54.0675 85.5775 -53.5625 84.0625 C-51.85546875 82.4140625 -51.85546875 82.4140625 -49.75 80.6875 C-46.60218063 78.03522286 -44.11333424 75.3000973 -41.5625 72.0625 C-40.9025 72.0625 -40.2425 72.0625 -39.5625 72.0625 C-39.253125 71.44375 -38.94375 70.825 -38.625 70.1875 C-37.9375 68.8125 -37.25 67.4375 -36.5625 66.0625 C-35.9025 66.0625 -35.2425 66.0625 -34.5625 66.0625 C-34.17771484 64.98355469 -34.17771484 64.98355469 -33.78515625 63.8828125 C-32.49134605 60.89836852 -30.91934394 58.55806563 -29 55.9375 C-27.01898138 53.22749947 -25.62788377 51.2586513 -24.5625 48.0625 C-23.9025 48.0625 -23.2425 48.0625 -22.5625 48.0625 C-22.32273437 47.27359375 -22.08296875 46.4846875 -21.8359375 45.671875 C-20.21833356 41.08700986 -18.2161376 36.72777007 -16.1875 32.3125 C-11.80608072 22.76100598 -7.88433807 13.1281197 -4.39453125 3.21484375 C-3.18176892 0.07760412 -3.18176892 0.07760412 0 0 Z " fill="#01D897" transform="translate(312.5625,413.9375)"/>
</svg>
