<?xml version="1.0" encoding="UTF-8"?>
<svg version="1.1" xmlns="http://www.w3.org/2000/svg" width="650" height="651">
<path d="M0 0 C3.13802584 0.00856448 6.27425994 -0.02041779 9.41210938 -0.05200195 C11.42773384 -0.05361309 13.44336149 -0.05303811 15.45898438 -0.05004883 C16.38624329 -0.06128281 17.3135022 -0.07251678 18.26885986 -0.08409119 C24.46276009 -0.01818433 28.58671782 1.30437285 33.88085938 4.44604492 C34.59445618 4.77798355 35.30805298 5.10992218 36.04327393 5.45191956 C37.88085938 6.44604492 37.88085938 6.44604492 38.88085938 8.44604492 C39.54085937 8.44604492 40.20085937 8.44604492 40.88085938 8.44604492 C41.21085938 7.78604492 41.54085937 7.12604492 41.88085938 6.44604492 C43.47215621 5.53062148 45.10439225 4.68534418 46.75585938 3.88354492 C47.64015625 3.44913086 48.52445313 3.0147168 49.43554688 2.56713867 C52.88016116 0.98789858 55.5765691 0.31586412 59.32958984 0.26904297 C60.2283786 0.25620773 61.12716736 0.2433725 62.05319214 0.23014832 C63.0249942 0.22276138 63.99679626 0.21537445 64.99804688 0.20776367 C66.51025314 0.19565605 66.51025314 0.19565605 68.05300903 0.18330383 C70.19319949 0.16946199 72.33341203 0.15874029 74.47363281 0.15087891 C76.64394684 0.13941712 78.81423398 0.1190587 80.984375 0.08935547 C103.71050943 -0.22165203 103.71050943 -0.22165203 114.88085938 4.44604492 C116.16821754 4.89883674 117.45700937 5.34760308 118.74804688 5.78979492 C124.42040618 7.97033824 129.72907321 10.21120244 134.88085938 13.44604492 C134.88085938 14.10604492 134.88085938 14.76604492 134.88085938 15.44604492 C136.11835937 15.72448242 136.11835937 15.72448242 137.38085938 16.00854492 C142.00528389 17.90786213 145.48272564 20.78917004 148.88085938 24.44604492 C148.88085938 25.10604492 148.88085938 25.76604492 148.88085938 26.44604492 C149.87085938 26.77604492 150.86085938 27.10604492 151.88085938 27.44604492 C153.26757813 29.00463867 153.26757813 29.00463867 154.56835938 30.88354492 C155.00535156 31.50100586 155.44234375 32.1184668 155.89257812 32.75463867 C156.88085938 34.44604492 156.88085938 34.44604492 156.88085938 36.44604492 C157.54085938 36.44604492 158.20085937 36.44604492 158.88085938 36.44604492 C161.88085938 42.94604492 161.88085938 42.94604492 161.88085938 47.44604492 C163.82992187 47.78635742 163.82992187 47.78635742 165.81835938 48.13354492 C180.58283093 51.45555102 194.76036368 63.86566449 203.88085938 75.44604492 C204.78835938 76.31229492 205.69585937 77.17854492 206.63085938 78.07104492 C208.88085938 80.44604492 208.88085938 80.44604492 208.88085938 83.44604492 C209.54085938 83.44604492 210.20085937 83.44604492 210.88085938 83.44604492 C217.76522787 91.92062494 218.82209777 99.58986078 218.31835938 110.19604492 C218.28677734 111.47737305 218.25519531 112.75870117 218.22265625 114.07885742 C218.14103605 117.20374514 218.02660318 120.32360396 217.88085938 123.44604492 C216.16048557 120.12986537 215.0877205 116.92134168 214.06835938 113.32104492 C211.21662238 103.93757209 207.12592376 96.39844388 201.23632812 88.57495117 C199.88085938 86.44604492 199.88085938 86.44604492 199.88085938 83.44604492 C199.29433594 83.19854492 198.7078125 82.95104492 198.10351562 82.69604492 C195.55399563 81.26221997 194.16968872 79.69911688 192.31835938 77.44604492 C190.20729622 74.8883203 188.68115687 73.31290992 185.88085938 71.44604492 C185.88085938 70.78604492 185.88085938 70.12604492 185.88085938 69.44604492 C184.89085937 69.44604492 183.90085937 69.44604492 182.88085938 69.44604492 C182.32011719 68.87112305 181.759375 68.29620117 181.18164062 67.70385742 C178.15479726 64.73354254 174.85592056 63.16061758 171.06835938 61.32104492 C170.38193359 60.97428711 169.69550781 60.6275293 168.98828125 60.27026367 C165.6183159 58.60600453 162.76306051 57.4195462 159.06054688 56.58666992 C155.88085938 55.44604492 155.88085938 55.44604492 154.09570312 52.68823242 C153.67417969 51.57706055 153.25265625 50.46588867 152.81835938 49.32104492 C150.7214856 44.21733328 148.51221728 40.1610299 144.98242188 35.93432617 C143.88085938 34.44604492 143.88085938 34.44604492 143.88085938 32.44604492 C143.22085937 32.44604492 142.56085938 32.44604492 141.88085938 32.44604492 C140.19152016 30.80236352 138.52826013 29.13175732 136.88085938 27.44604492 C128.10032659 19.44026503 115.4577524 13.82842805 103.88085938 11.44604492 C102.7078125 11.19854492 101.53476562 10.95104492 100.32617188 10.69604492 C85.67892359 7.65126839 70.27837632 4.7585786 55.88085938 10.44604492 C54.66684196 10.81058777 54.66684196 10.81058777 53.42829895 11.18249512 C50.11647114 12.54908106 48.25301256 13.73035443 45.88085938 16.44604492 C43.89627653 22.72694278 44.57994248 29.7817154 44.68554688 36.28198242 C44.68175821 38.24640191 44.67356806 40.21081744 44.66116333 42.17520142 C44.64037533 47.334764 44.67925266 52.49220811 44.73065186 57.65148926 C44.77992701 63.84727337 44.75494073 70.0431512 44.74243164 76.23905945 C44.73174646 85.64268441 44.8152535 95.04124994 44.88085938 104.44604492 C70.95085937 104.44604492 97.02085937 104.44604492 123.88085938 104.44604492 C124.21085937 102.79604492 124.54085938 101.14604492 124.88085938 99.44604492 C127.95149281 92.95047419 131.70565638 88.29014702 138.39257812 85.33666992 C146.45241765 82.71520999 154.01107704 83.2781622 161.63085938 87.07104492 C167.75975672 91.02898345 172.02072056 96.4091047 173.88085938 103.44604492 C174.95398664 112.34735322 173.66311336 118.87983594 168.88085938 126.44604492 C168.22085937 126.44604492 167.56085938 126.44604492 166.88085938 126.44604492 C166.65398437 127.04416992 166.42710937 127.64229492 166.19335938 128.25854492 C163.81246407 132.22670376 160.46207182 133.24902375 156.19335938 134.69604492 C149.31520618 136.25630652 142.35763845 135.0350808 135.88085938 132.44604492 C133.21289062 130.59838867 133.21289062 130.59838867 130.69335938 128.38354492 C129.43458984 127.31426758 129.43458984 127.31426758 128.15039062 126.22338867 C125.88085937 123.44604492 125.88085937 123.44604492 122.88085938 114.44604492 C97.14085937 114.11604492 71.40085937 113.78604492 44.88085938 113.44604492 C44.88085938 178.12604492 44.88085938 242.80604492 44.88085938 309.44604492 C57.09085938 309.11604492 69.30085938 308.78604492 81.88085938 308.44604492 C83.53085937 305.14604492 85.18085938 301.84604492 86.88085938 298.44604492 C91.24148052 292.83953203 97.63888958 289.13812438 104.65820312 287.99291992 C114.0110615 287.62562675 120.68788698 291.01577147 127.66601562 296.98120117 C128.88085938 298.44604492 128.88085938 298.44604492 128.88085938 301.44604492 C129.54085938 301.44604492 130.20085937 301.44604492 130.88085938 301.44604492 C133.9023385 309.51943715 134.18974697 317.87961135 131.13085938 326.00854492 C129.55133419 329.44108198 128.02636002 332.21375414 124.88085938 334.44604492 C123.89085937 334.44604492 122.90085937 334.44604492 121.88085938 334.44604492 C121.88085938 335.10604492 121.88085938 335.76604492 121.88085938 336.44604492 C114.07554077 340.04849966 105.80197231 341.03980884 97.50585938 338.25854492 C88.70294486 334.33193368 85.32075475 328.04578337 81.88085938 319.44604492 C69.67085937 319.11604492 57.46085937 318.78604492 44.88085938 318.44604492 C44.88085938 345.83604492 44.88085938 373.22604492 44.88085938 401.44604492 C46.20085937 401.77604492 47.52085937 402.10604492 48.88085938 402.44604492 C50.53085937 403.76604492 52.18085938 405.08604492 53.88085938 406.44604492 C42.00085938 406.44604492 30.12085938 406.44604492 17.88085938 406.44604492 C17.88085938 406.11604492 17.88085938 405.78604492 17.88085938 405.44604492 C19.77631329 404.96537957 21.67223976 404.48657749 23.56835938 404.00854492 C25.15197266 403.60829102 25.15197266 403.60829102 26.76757812 403.19995117 C29.45675201 402.54874595 32.16769269 401.98867826 34.88085938 401.44604492 C34.88085938 349.96604492 34.88085938 298.48604492 34.88085938 245.44604492 C18.05085937 245.44604492 1.22085938 245.44604492 -16.11914062 245.44604492 C-15.78914062 261.94604492 -15.45914063 278.44604492 -15.11914062 295.44604492 C-12.14914062 296.76604492 -9.17914063 298.08604492 -6.11914062 299.44604492 C-2.11535243 301.44793902 -1.23888322 302.25045355 1.06835938 305.82104492 C1.57753906 306.5919043 2.08671875 307.36276367 2.61132812 308.15698242 C6.04060336 314.34022946 5.98521998 322.88243714 4.34960938 329.64135742 C3.63085938 331.38354492 3.63085938 331.38354492 1.88085938 334.44604492 C1.36523438 335.47729492 0.84960938 336.50854492 0.31835938 337.57104492 C-3.95061997 342.60625133 -11.10230357 346.07813642 -17.72070312 346.68432617 C-26.24292685 346.89352805 -32.15203806 345.60169469 -38.86914062 340.25854492 C-44.9754442 332.62566545 -46.93979969 327.03593324 -46.61914062 317.05541992 C-45.91961607 312.00572706 -44.12622081 308.49193462 -41.11914062 304.44604492 C-40.45914063 303.45604492 -39.79914063 302.46604492 -39.11914062 301.44604492 C-38.12914062 301.44604492 -37.13914062 301.44604492 -36.11914062 301.44604492 C-36.11914062 300.78604492 -36.11914062 300.12604492 -36.11914062 299.44604492 C-29.49414063 296.44604492 -29.49414063 296.44604492 -26.11914062 296.44604492 C-26.12358185 295.75113449 -26.12802307 295.05622406 -26.13259888 294.34025574 C-26.17266703 287.79252454 -26.20312063 281.24482754 -26.22276497 274.69700146 C-26.23320382 271.33066263 -26.24736472 267.96442507 -26.27001953 264.59814453 C-26.29421874 260.72840677 -26.30561254 256.85881316 -26.31445312 252.98901367 C-26.32993698 251.174842 -26.32993698 251.174842 -26.34573364 249.32402039 C-26.3458847 248.20308487 -26.34603577 247.08214935 -26.34619141 245.92724609 C-26.35063263 244.93907394 -26.35507385 243.95090179 -26.35964966 242.93278503 C-26.11914062 240.44604492 -26.11914062 240.44604492 -24.11914062 237.44604492 C-21.63876343 237.08528137 -21.63876343 237.08528137 -18.47607422 237.10546875 C-17.27845459 237.1058313 -16.08083496 237.10619385 -14.84692383 237.10656738 C-13.58323975 237.12191528 -12.31955566 237.13726318 -11.01757812 237.15307617 C-9.8597583 237.15609741 -8.70193848 237.15911865 -7.5090332 237.16223145 C-3.17064542 237.17796565 1.16761563 237.21984933 5.50585938 237.25854492 C15.19960938 237.32041992 24.89335937 237.38229492 34.88085938 237.44604492 C34.88085938 213.02604492 34.88085938 188.60604492 34.88085938 163.44604492 C21.85174187 163.56472658 21.85174187 163.56472658 8.82299805 163.71630859 C7.18994737 163.72507019 5.55689016 163.7327149 3.92382812 163.73901367 C3.07550415 163.75436157 2.22718018 163.76970947 1.35314941 163.78552246 C0.54140259 163.78588501 -0.27034424 163.78624756 -1.10668945 163.78662109 C-2.16259026 163.79661385 -2.16259026 163.79661385 -3.23982239 163.80680847 C-5.7705106 163.32100461 -6.62366298 162.52905217 -8.11914062 160.44604492 C-8.47990417 158.30097961 -8.47990417 158.30097961 -8.4597168 155.79101562 C-8.4594902 154.85026688 -8.45926361 153.90951813 -8.45903015 152.94026184 C-8.4435463 151.92767807 -8.42806244 150.9150943 -8.41210938 149.87182617 C-8.40786453 148.8328569 -8.40361969 147.79388763 -8.39924622 146.72343445 C-8.38243911 143.40154216 -8.34478259 140.08025417 -8.30664062 136.75854492 C-8.29159644 134.50790263 -8.27790758 132.25725085 -8.265625 130.0065918 C-8.23507943 124.48598879 -8.17636041 118.96669411 -8.11914062 113.44604492 C-16.03914062 113.44604492 -23.95914063 113.44604492 -32.11914062 113.44604492 C-32.11914062 115.09604492 -32.11914062 116.74604492 -32.11914062 118.44604492 C-33.14257812 120.68432617 -33.14257812 120.68432617 -34.49414062 122.75854492 C-34.935 123.45592773 -35.37585938 124.15331055 -35.83007812 124.87182617 C-36.25546875 125.39131836 -36.68085938 125.91081055 -37.11914062 126.44604492 C-37.77914062 126.44604492 -38.43914062 126.44604492 -39.11914062 126.44604492 C-39.49425781 127.36836914 -39.49425781 127.36836914 -39.87695312 128.30932617 C-41.33342398 130.81463925 -42.39503684 131.43207242 -44.99414062 132.63354492 C-46.01121094 133.11887695 -46.01121094 133.11887695 -47.04882812 133.61401367 C-54.53697528 136.62340111 -61.52038845 135.37588674 -69.11914062 133.44604492 C-69.11914062 132.78604492 -69.11914062 132.12604492 -69.11914062 131.44604492 C-70.20195312 131.10573242 -70.20195312 131.10573242 -71.30664062 130.75854492 C-76.50596969 128.33219136 -79.13698845 124.90535278 -81.43164062 119.75854492 C-84.10730206 112.35661266 -84.29759987 106.32348951 -80.93164062 99.13354492 C-77.11314574 92.25162476 -71.7059207 86.8600204 -64.11914062 84.44604492 C-55.0582482 82.66357428 -47.98109961 84.70781071 -40.11914062 89.44604492 C-36.11054519 92.56384137 -34.00800581 96.8042592 -32.11914062 101.44604492 C-32.11914062 102.10604492 -32.11914062 102.76604492 -32.11914062 103.44604492 C-31.22606201 103.43033447 -30.3329834 103.41462402 -29.4128418 103.3984375 C-26.09735306 103.34729053 -22.78228387 103.3096868 -19.46655273 103.28125 C-18.03191511 103.26616903 -16.59732354 103.24570112 -15.1628418 103.21972656 C-13.09998204 103.18331055 -11.03773205 103.16631249 -8.97460938 103.15307617 C-7.73348389 103.13736572 -6.4923584 103.12165527 -5.21362305 103.10546875 C-2.11914062 103.44604492 -2.11914062 103.44604492 -0.44702148 104.6763916 C1.2677269 106.96161934 1.24427718 108.26109789 1.22143555 111.10107422 C1.22120895 112.04182297 1.22098236 112.98257172 1.2207489 113.951828 C1.20526505 114.96441177 1.18978119 115.97699554 1.17382812 117.02026367 C1.16958328 118.05923294 1.16533844 119.09820221 1.16096497 120.1686554 C1.14415786 123.49054768 1.10650134 126.81183567 1.06835938 130.13354492 C1.05331519 132.38418721 1.03962633 134.63483899 1.02734375 136.88549805 C0.99679818 142.40610105 0.93807916 147.92539574 0.88085938 153.44604492 C12.10085938 153.44604492 23.32085937 153.44604492 34.88085938 153.44604492 C34.55085937 108.23604492 34.22085938 63.02604492 33.88085938 16.44604492 C32.89085937 15.95104492 32.89085937 15.95104492 31.88085938 15.44604492 C31.88085938 14.78604492 31.88085938 14.12604492 31.88085938 13.44604492 C31.05585938 13.17791992 30.23085938 12.90979492 29.38085938 12.63354492 C26.18344906 11.54870928 23.04775994 10.36876846 19.90820312 9.12963867 C2.16393665 3.14650451 -22.52730661 9.66185873 -38.84570312 17.30541992 C-47.08198647 20.67645525 -47.08198647 20.67645525 -53.11914062 26.44604492 C-54.10914063 26.44604492 -55.09914063 26.44604492 -56.11914062 26.44604492 C-56.61414063 27.93104492 -56.61414063 27.93104492 -57.11914062 29.44604492 C-57.77914062 29.44604492 -58.43914062 29.44604492 -59.11914062 29.44604492 C-59.11914062 30.10604492 -59.11914062 30.76604492 -59.11914062 31.44604492 C-61.49414063 34.07104492 -61.49414063 34.07104492 -64.11914062 36.44604492 C-64.77914062 36.44604492 -65.43914062 36.44604492 -66.11914062 36.44604492 C-66.23386719 37.01452148 -66.34859375 37.58299805 -66.46679688 38.16870117 C-67.18697416 40.68285302 -68.23908663 42.62767354 -69.55664062 44.88354492 C-71.34890091 48.01485026 -72.79611735 51.08760123 -74.11914062 54.44604492 C-76.67685455 57.00375885 -78.76406964 57.30980167 -82.24414062 58.25854492 C-87.96033168 59.97402833 -92.33761016 61.9312632 -97.11914062 65.44604492 C-98.07820313 66.11893555 -99.03726563 66.79182617 -100.02539062 67.48510742 C-107.69572408 73.01002582 -113.55802874 78.71177117 -118.93164062 86.44604492 C-119.65351563 87.43604492 -120.37539062 88.42604492 -121.11914062 89.44604492 C-121.77914062 89.44604492 -122.43914062 89.44604492 -123.11914062 89.44604492 C-123.23515625 90.01709961 -123.35117188 90.5881543 -123.47070312 91.17651367 C-124.17719751 93.64924403 -125.19520173 95.54247644 -126.49414062 97.75854492 C-139.6408254 121.03834776 -140.25592911 150.3339103 -133.24414062 175.75854492 C-131.64966958 180.99752123 -129.84228215 186.13706263 -127.85351562 191.23901367 C-127.11914062 193.44604492 -127.11914062 193.44604492 -127.11914062 196.44604492 C-112.59914062 196.11604492 -98.07914062 195.78604492 -83.11914062 195.44604492 C-81.46914062 192.14604492 -79.81914062 188.84604492 -78.11914062 185.44604492 C-72.30243487 179.40561971 -65.6602886 175.34330762 -57.11914062 174.94604492 C-49.41543574 175.30435678 -43.51674653 178.7137397 -37.72460938 183.59057617 C-32.90533977 189.16029165 -31.43857759 193.68117545 -31.61914062 200.88354492 C-31.626875 201.62983154 -31.63460937 202.37611816 -31.64257812 203.14501953 C-31.82067886 208.79538916 -32.89647597 212.71275621 -36.11914062 217.44604492 C-36.77914062 217.44604492 -37.43914062 217.44604492 -38.11914062 217.44604492 C-38.35632813 218.05061523 -38.59351563 218.65518555 -38.83789062 219.27807617 C-40.41733968 221.95061954 -41.87933435 222.72361215 -44.61914062 224.13354492 C-45.41320312 224.54991211 -46.20726562 224.9662793 -47.02539062 225.39526367 C-52.69840981 228.24235726 -58.6436003 228.57048444 -64.77539062 226.58666992 C-66.94286446 225.61552905 -69.03625784 224.58590825 -71.11914062 223.44604492 C-71.77914062 223.11604492 -72.43914062 222.78604492 -73.11914062 222.44604492 C-73.11914062 221.78604492 -73.11914062 221.12604492 -73.11914062 220.44604492 C-74.10914063 220.11604492 -75.09914063 219.78604492 -76.11914062 219.44604492 C-77.43554688 217.84448242 -77.43554688 217.84448242 -78.68164062 215.82104492 C-79.09542969 215.1687793 -79.50921875 214.51651367 -79.93554688 213.84448242 C-81.11914062 211.44604492 -81.11914062 211.44604492 -83.11914062 204.44604492 C-97.63914063 204.44604492 -112.15914063 204.44604492 -127.11914062 204.44604492 C-128.10914063 206.42604492 -128.10914063 206.42604492 -129.11914062 208.44604492 C-129.65410156 209.45795898 -130.1890625 210.46987305 -130.74023438 211.51245117 C-138.26460136 225.99483493 -141.98480837 240.64887182 -138.32226562 257.00463867 C-137.03391403 260.65661991 -135.5111533 263.80890737 -133.48242188 267.10620117 C-132.11914062 269.44604492 -132.11914062 269.44604492 -132.11914062 271.44604492 C-131.45914063 271.44604492 -130.79914063 271.44604492 -130.11914062 271.44604492 C-127.11914062 274.90758338 -127.11914062 274.90758338 -127.11914062 277.44604492 C-125.79914063 278.10604492 -124.47914063 278.76604492 -123.11914062 279.44604492 C-123.11914062 280.10604492 -123.11914062 280.76604492 -123.11914062 281.44604492 C-120.78699915 282.652325 -118.62271924 283.61151872 -116.11914062 284.44604492 C-116.11914062 285.10604492 -116.11914062 285.76604492 -116.11914062 286.44604492 C-115.45914063 286.69354492 -114.79914063 286.94104492 -114.11914062 287.19604492 C-111.66159461 288.22002243 -109.26611896 289.29066687 -106.86914062 290.44604492 C-106.18335938 290.77604492 -105.49757812 291.10604492 -104.79101562 291.44604492 C-103.11914062 292.44604492 -103.11914062 292.44604492 -102.11914062 294.44604492 C-102.23253865 299.13897862 -102.88302476 303.62658398 -104.18164062 308.13354492 C-107.31518748 319.9979666 -105.26616092 332.6174862 -99.58789062 343.33666992 C-98.58486768 345.01820839 -97.55446589 346.68400378 -96.48632812 348.32495117 C-95.11914062 350.44604492 -95.11914062 350.44604492 -94.12695312 352.66088867 C-93.18416762 354.79695861 -93.18416762 354.79695861 -90.11914062 355.44604492 C-89.78914063 356.10604492 -89.45914063 356.76604492 -89.11914062 357.44604492 C-88.12914062 357.77604492 -87.13914063 358.10604492 -86.11914062 358.44604492 C-86.11914062 359.10604492 -86.11914062 359.76604492 -86.11914062 360.44604492 C-85.27351563 360.71416992 -84.42789063 360.98229492 -83.55664062 361.25854492 C-80.11914063 362.44604492 -80.11914063 362.44604492 -76.68164062 363.94604492 C-70.20547584 366.67285115 -64.54996501 367.6826361 -57.57226562 367.80932617 C-55.11914062 368.44604492 -55.11914062 368.44604492 -53.49804688 370.64526367 C-53.04300781 371.56952148 -52.58796875 372.4937793 -52.11914062 373.44604492 C-48.34661291 379.8036219 -45.03783384 384.97093541 -39.11914062 389.44604492 C-39.11914062 390.10604492 -39.11914062 390.76604492 -39.11914062 391.44604492 C-38.23355469 391.62393555 -38.23355469 391.62393555 -37.33007812 391.80541992 C-35.03405393 392.47069902 -33.67662127 393.31445242 -31.74414062 394.69604492 C-26.00196353 398.40967721 -19.57156406 400.30991839 -13.11914062 402.44604492 C-11.68248047 402.93137695 -11.68248047 402.93137695 -10.21679688 403.42651367 C-8.18747484 404.10936611 -6.15387528 404.77949391 -4.11914062 405.44604492 C-4.11914062 405.77604492 -4.11914062 406.10604492 -4.11914062 406.44604492 C-8.38943884 406.62252222 -12.65878225 406.7276248 -16.93164062 406.82104492 C-18.12724609 406.87131836 -19.32285156 406.9215918 -20.5546875 406.97338867 C-29.26047792 407.11571767 -34.92120793 405.34907804 -42.11914062 400.44604492 C-42.11914062 399.78604492 -42.11914062 399.12604492 -42.11914062 398.44604492 C-42.67601562 398.38416992 -43.23289062 398.32229492 -43.80664062 398.25854492 C-47.10856928 397.09840783 -48.74822053 394.99044697 -51.11914062 392.44604492 C-52.38757813 391.33229492 -52.38757813 391.33229492 -53.68164062 390.19604492 C-56.1897758 387.36635396 -56.40778775 386.35948865 -57.30664062 382.88354492 C-58.12954104 380.4070533 -58.12954104 380.4070533 -60.11914062 378.44604492 C-64.40099141 376.67053038 -68.98995841 376.03547453 -73.54101562 375.29760742 C-78.01822663 374.56791729 -81.92480777 373.16016725 -86.11914062 371.44604492 C-86.11914062 370.78604492 -86.11914062 370.12604492 -86.11914062 369.44604492 C-87.08851563 369.17791992 -88.05789062 368.90979492 -89.05664062 368.63354492 C-90.06726563 368.24166992 -91.07789063 367.84979492 -92.11914062 367.44604492 C-92.61414063 365.96104492 -92.61414063 365.96104492 -93.11914062 364.44604492 C-94.10914063 364.44604492 -95.09914062 364.44604492 -96.11914062 364.44604492 C-97.83054532 362.48419076 -99.49787388 360.48302109 -101.11914062 358.44604492 C-101.77914062 358.11604492 -102.43914062 357.78604492 -103.11914062 357.44604492 C-103.11914062 356.45604492 -103.11914062 355.46604492 -103.11914062 354.44604492 C-103.77914062 354.44604492 -104.43914062 354.44604492 -105.11914062 354.44604492 C-114.06263059 343.61350097 -115.93992371 327.9731816 -115.11914062 314.44604492 C-114.5940914 309.09429317 -113.87574366 303.7692877 -113.11914062 298.44604492 C-113.67601562 298.1547168 -114.23289063 297.86338867 -114.80664062 297.56323242 C-123.34354854 292.97752851 -129.83209846 288.3966326 -135.57617188 280.49682617 C-137.01897174 278.46380633 -137.01897174 278.46380633 -138.62695312 277.00463867 C-140.60363363 274.93999071 -141.81307352 272.7021678 -143.18164062 270.19604492 C-143.68824219 269.28338867 -144.19484375 268.37073242 -144.71679688 267.43041992 C-148.44369804 259.49907593 -148.45444643 252.38049578 -148.43164062 243.69604492 C-148.44775391 242.48432617 -148.46386719 241.27260742 -148.48046875 240.02416992 C-148.48623893 229.31472166 -146.52963032 220.47118838 -141.55664062 211.00854492 C-140.65751953 209.27797852 -140.65751953 209.27797852 -139.74023438 207.51245117 C-138.80334096 205.74025519 -137.85851757 203.97210937 -136.89257812 202.21557617 C-135.65845644 199.39205535 -136.35797804 197.37359334 -137.11914062 194.44604492 C-137.82296875 193.10799805 -137.82296875 193.10799805 -138.54101562 191.74291992 C-140.28432389 188.1009591 -141.27666041 184.48145325 -142.18164062 180.57104492 C-142.34212891 179.90202148 -142.50261719 179.23299805 -142.66796875 178.54370117 C-142.99208603 177.19256166 -143.31272834 175.8405838 -143.62988281 174.48779297 C-144.12707251 172.41294396 -144.66335451 170.35053148 -145.20117188 168.28588867 C-151.16692014 143.33129059 -147.40252553 112.96766025 -134.49804688 90.64135742 C-133.81548828 89.55467773 -133.81548828 89.55467773 -133.11914062 88.44604492 C-132.62414062 87.45604492 -132.62414062 87.45604492 -132.11914062 86.44604492 C-131.45914063 86.44604492 -130.79914063 86.44604492 -130.11914062 86.44604492 C-129.80976563 85.45604492 -129.80976563 85.45604492 -129.49414062 84.44604492 C-127.6278981 80.37424306 -125.14352536 76.75807494 -122.11914062 73.44604492 C-121.45914063 73.44604492 -120.79914063 73.44604492 -120.11914062 73.44604492 C-119.45914063 72.12604492 -118.79914063 70.80604492 -118.11914062 69.44604492 C-117.45914063 69.44604492 -116.79914063 69.44604492 -116.11914062 69.44604492 C-115.62414062 67.96104492 -115.62414062 67.96104492 -115.11914062 66.44604492 C-114.45914063 66.44604492 -113.79914063 66.44604492 -113.11914062 66.44604492 C-113.11914062 65.78604492 -113.11914062 65.12604492 -113.11914062 64.44604492 C-110.81835937 62.50073242 -110.81835937 62.50073242 -107.80664062 60.32104492 C-106.82050781 59.5965918 -105.834375 58.87213867 -104.81835938 58.12573242 C-102.11914062 56.44604492 -102.11914062 56.44604492 -99.11914062 56.44604492 C-99.11914062 55.78604492 -99.11914062 55.12604492 -99.11914062 54.44604492 C-97.62192203 53.66982298 -96.12117895 52.90039882 -94.61914062 52.13354492 C-93.7090625 51.66819336 -92.79898438 51.2028418 -91.86132812 50.72338867 C-89.47507382 49.61184286 -87.27025994 48.88715304 -84.74414062 48.19604492 C-82.2558576 47.31342749 -81.34147299 46.79645223 -79.91210938 44.54370117 C-79.24874921 42.9976227 -78.62583186 41.43366601 -78.04101562 39.85620117 C-75.69883846 33.73279732 -71.94445521 28.83269455 -67.11914062 24.44604492 C-66.49394531 23.84018555 -65.86875 23.23432617 -65.22460938 22.61010742 C-55.82016978 13.76485072 -44.29980716 7.6432775 -32.11914062 3.44604492 C-31.3627832 3.1746167 -30.60642578 2.90318848 -29.82714844 2.62353516 C-20.08186268 -0.35183455 -10.09046463 -0.04207006 0 0 Z " fill="#000000" transform="translate(290.119140625,121.553955078125)"/>
<path d="M0 0 C1.60499611 -0.01489471 1.60499611 -0.01489471 3.24241638 -0.03009033 C6.7593756 -0.05913164 10.27615375 -0.07291163 13.79321289 -0.08398438 C15.00805422 -0.08963913 16.22289555 -0.09529388 17.47455025 -0.10112 C23.91826355 -0.13104076 30.36188822 -0.14953325 36.80566406 -0.15820312 C43.38337196 -0.16909287 49.96023512 -0.21699522 56.53768063 -0.27414703 C61.66091566 -0.31187021 66.783958 -0.32183605 71.90732002 -0.32487488 C74.3272514 -0.3308354 76.74718335 -0.34656843 79.16697502 -0.37324524 C103.69836284 -0.6241343 126.65494881 4.50828496 149.82836914 12.32226562 C150.71427734 12.61907227 151.60018555 12.91587891 152.51293945 13.22167969 C177.06227841 21.5936998 201.23418815 32.90824379 222.82836914 47.32226562 C223.50851074 47.77021484 224.18865234 48.21816406 224.8894043 48.6796875 C242.92779455 60.6010047 259.44778223 74.3596452 275.26586914 89.07226562 C275.91604004 89.67393555 276.56621094 90.27560547 277.23608398 90.89550781 C281.15066081 94.57378216 284.75189178 98.41564755 288.24951172 102.49169922 C290.2507037 104.81193077 292.35290457 107.02941367 294.45336914 109.25976562 C323.09430045 140.79940146 343.83841339 179.31113159 357.82836914 219.32226562 C358.11695801 220.14404297 358.40554688 220.96582031 358.70288086 221.8125 C363.50908713 235.70031872 366.74863349 249.96602044 369.82836914 264.32226562 C370.00207126 265.10451948 370.17577337 265.88677334 370.35473919 266.69273186 C370.8076905 269.20746044 370.9618551 271.49654083 370.97554016 274.04763794 C370.98627312 275.43033875 370.98627312 275.43033875 370.9972229 276.8409729 C371.00125626 278.34015762 371.00125626 278.34015762 371.00537109 279.86962891 C371.01522789 281.46354462 371.01522789 281.46354462 371.02528381 283.08966064 C371.04499261 286.6073006 371.0566799 290.12489771 371.06665039 293.64257812 C371.07072592 294.84992489 371.07480145 296.05727165 371.07900047 297.30120468 C371.09986024 303.70324278 371.11415714 310.1052595 371.12353516 316.50732422 C371.13454298 323.07566115 371.168878 329.64365402 371.20870686 336.21187019 C371.23504633 341.29788783 371.24324273 346.38382604 371.24681664 351.46990585 C371.2516453 353.88805312 371.26315092 356.30619775 371.28185463 358.7242775 C371.38642322 373.15084059 370.5023308 386.34885942 366.82836914 400.32226562 C366.55368805 401.43564804 366.27900696 402.54903046 365.9960022 403.69615173 C365.35719405 406.27267202 364.66916926 408.82865919 363.95336914 411.38476562 C363.6970874 412.30483398 363.44080566 413.22490234 363.17675781 414.17285156 C348.10860858 467.54555526 320.18469054 513.93462359 282.51586914 554.32226562 C281.54738037 555.36374756 281.54738037 555.36374756 280.55932617 556.42626953 C276.78076423 560.4312549 272.85924002 564.13996265 268.67919922 567.72314453 C266.15289674 569.90587521 263.7503719 572.21242477 261.32836914 574.50976562 C254.28731785 581.05303416 246.62435539 586.71717965 238.82836914 592.32226562 C238.2437793 592.74282227 237.65918945 593.16337891 237.05688477 593.59667969 C229.20476009 599.20990005 221.13206219 604.40472919 212.82836914 609.32226562 C212.24812988 609.66725098 211.66789062 610.01223633 211.07006836 610.36767578 C175.32639702 631.47796723 128.98607359 651.59647265 86.61303711 651.62866211 C85.65672394 651.63698563 84.70041077 651.64530914 83.71511841 651.65388489 C80.58355502 651.67778252 77.45220129 651.68673664 74.32055664 651.69335938 C72.10930326 651.70234817 69.89805041 651.71147033 67.6867981 651.72071838 C63.05542535 651.73716139 58.42412443 651.74489867 53.79272461 651.74780273 C47.93123915 651.75315025 42.07045474 651.79070019 36.20916557 651.8365469 C31.63760082 651.86668416 27.06619649 651.8735343 22.49454117 651.87452888 C20.33812409 651.87866688 18.18170352 651.89083332 16.02538681 651.91204643 C-4.20384243 652.09505462 -23.457086 648.65672042 -42.85913086 643.00976562 C-43.87837646 642.71763184 -44.89762207 642.42549805 -45.94775391 642.12451172 C-85.07801119 630.66746805 -123.49990125 612.17943569 -155.17163086 586.32226562 C-156.57735352 585.20271484 -156.57735352 585.20271484 -158.01147461 584.06054688 C-163.74178263 579.45540453 -169.22189317 574.62620245 -174.62866211 569.64648438 C-176.73514253 567.72120657 -178.87179566 565.85632382 -181.04663086 564.00976562 C-189.76524476 556.401119 -197.83812277 548.10879397 -205.01538086 539.03320312 C-207.22769433 536.25178003 -209.53771548 533.57549709 -211.85913086 530.88476562 C-239.24819572 497.90782355 -258.72262104 458.18861977 -270.92163086 417.25976562 C-271.17928223 416.40036377 -271.43693359 415.54096191 -271.70239258 414.65551758 C-272.58751129 411.55816622 -273.37975225 408.44497545 -274.17163086 405.32226562 C-274.36799133 404.57250426 -274.56435181 403.8227429 -274.7666626 403.0502615 C-278.8325303 387.26445604 -279.93014141 372.34299707 -279.87084961 356.08789062 C-279.87678345 353.62953348 -279.88404039 351.17117923 -279.89253235 348.71282959 C-279.9043122 343.59648416 -279.89787526 338.48057648 -279.87841797 333.36425781 C-279.85557854 326.88882171 -279.88231447 320.41470236 -279.92348003 313.9393959 C-279.94936703 308.87188208 -279.94639448 303.80467033 -279.93558693 298.73711395 C-279.93412555 296.35350093 -279.94148771 293.96986167 -279.95883751 291.58631134 C-280.32252628 231.95894295 -251.20060106 170.64358079 -215.17163086 124.32226562 C-214.52436035 123.48816162 -214.52436035 123.48816162 -213.86401367 122.63720703 C-209.1069801 116.55659652 -203.99010047 110.83113939 -198.71191406 105.20336914 C-196.13990969 102.48235814 -196.13990969 102.48235814 -194.17163086 99.32226562 C-193.51163086 99.32226562 -192.85163086 99.32226562 -192.17163086 99.32226562 C-191.93702148 98.76152344 -191.70241211 98.20078125 -191.46069336 97.62304688 C-187.63154266 90.78859305 -180.3886283 85.32948655 -174.46069336 80.27539062 C-172.68877174 78.76351211 -170.937497 77.22741722 -169.19506836 75.68164062 C-127.41531792 38.81570608 -75.46972779 14.009113 -21.17163086 2.32226562 C-20.45070975 2.15393471 -19.72978865 1.98560379 -18.98702145 1.81217194 C-12.60298879 0.40011278 -6.52517945 0.01477143 0 0 Z M-169.69897461 89.07226562 C-171.45161324 90.66708371 -173.2158627 92.24918432 -174.98803711 93.82226562 C-179.70860494 98.03545269 -184.1842116 102.24218337 -188.24975586 107.09179688 C-190.20612629 109.36229995 -192.25472173 111.52852845 -194.32177734 113.69799805 C-212.0012617 132.37698954 -226.28374671 154.59589592 -238.17163086 177.32226562 C-238.51887207 177.9796875 -238.86611328 178.63710937 -239.22387695 179.31445312 C-254.17257969 207.76912667 -264.08816608 237.78294909 -270.17163086 269.32226562 C-270.33888672 270.1653125 -270.50614258 271.00835937 -270.6784668 271.87695312 C-285.75153046 349.93273226 -265.87489597 435.27042586 -222.14819336 500.96679688 C-212.9968496 514.47226014 -203.13483937 527.24454007 -192.17163086 539.32226562 C-191.61507812 539.94053223 -191.05852539 540.55879883 -190.48510742 541.19580078 C-178.29311999 554.69879199 -165.34116809 567.05397993 -150.83618164 578.04736328 C-149.23125183 579.2766011 -147.65198844 580.53912935 -146.07397461 581.80273438 C-99.45647141 618.87278433 -39.21591261 640.59098803 19.82836914 645.32226562 C20.90828125 645.40903564 20.90828125 645.40903564 22.01000977 645.49755859 C74.23871879 649.50144279 128.33265661 640.55225 175.85180664 618.24658203 C178.03385191 617.226174 180.22759099 616.23349453 182.42211914 615.24023438 C211.4217674 601.97224851 237.74453553 583.55032657 261.06665039 561.86132812 C263.23806169 559.8649811 265.4370292 557.95685534 267.70336914 556.07226562 C323.25271533 507.79861343 356.75452465 431.36718942 364.82836914 359.32226562 C364.93004395 358.43547119 365.03171875 357.54867676 365.13647461 356.63500977 C366.13770654 346.53970061 366.07206722 336.39464962 366.07836914 326.25976562 C366.07904388 325.28316986 366.07971863 324.3065741 366.08041382 323.30038452 C366.063072 307.45693453 365.42807425 291.98390373 362.82836914 276.32226562 C362.57095947 274.76983154 362.57095947 274.76983154 362.30834961 273.18603516 C353.74072007 223.44171961 334.15973653 175.0733355 303.1418457 135.02099609 C301.81140129 133.30032096 300.50281448 131.56450549 299.19555664 129.82617188 C293.24716691 122.00197751 286.77917058 114.80187315 279.99243164 107.69726562 C277.94953173 105.5521442 276.00442232 103.36911319 274.12915039 101.07617188 C272.28918684 98.87383859 270.58385872 97.07797177 268.39086914 95.25976562 C265.77746902 93.04203917 263.23637026 90.77872027 260.76196289 88.40820312 C252.27705086 80.29579341 243.38910581 73.1277864 233.82836914 66.32226562 C232.82604248 65.60659424 232.82604248 65.60659424 231.8034668 64.87646484 C142.99072017 1.80716619 28.55065995 -13.19954984 -169.69897461 89.07226562 Z " fill="#5A9BD5" transform="translate(279.171630859375,-0.322265625)"/>
<path d="M0 0 C5.47432065 4.96583632 8.55473876 9.5268316 9 17 C8.96568655 25.10941198 7.52024915 31.21962628 3 38 C2.34 38 1.68 38 1 38 C0.67 38.99 0.34 39.98 0 41 C-4.80911158 44.20607439 -7.02615015 45.00435836 -13 46 C-13 57.88 -13 69.76 -13 82 C24.29 82 61.58 82 100 82 C100 84.64 100 87.28 100 90 C86.95440165 91.14153384 73.94267174 91.16365157 60.85546875 91.16796875 C58.54999267 91.17118753 56.2445168 91.17455206 53.93904114 91.17805481 C49.14091517 91.18400325 44.34280712 91.18589867 39.54467773 91.18530273 C33.38534805 91.18520026 27.22613143 91.19895876 21.06682873 91.21607494 C16.32208216 91.22715479 11.57736355 91.22922334 6.83260536 91.22869301 C4.55951859 91.2298751 2.28643114 91.23430965 0.01335716 91.24202538 C-3.14588253 91.25176275 -6.30486803 91.24897436 -9.46411133 91.24291992 C-10.40583191 91.24853943 -11.34755249 91.25415894 -12.31781006 91.25994873 C-13.17395401 91.25575424 -14.03009796 91.25155975 -14.91218567 91.24723816 C-15.65779157 91.24778293 -16.40339746 91.24832769 -17.17159748 91.24888897 C-19 91 -19 91 -21 89 C-21.24050903 87.12704468 -21.24050903 87.12704468 -21.22705078 84.82568359 C-21.22689972 83.96494232 -21.22674866 83.10420105 -21.22659302 82.21737671 C-21.21627045 81.28712677 -21.20594788 80.35687683 -21.1953125 79.3984375 C-21.1924826 78.44683746 -21.18965271 77.49523743 -21.18673706 76.51480103 C-21.17551989 73.46807408 -21.15041263 70.42163846 -21.125 67.375 C-21.11497218 65.31250424 -21.10584599 63.25000388 -21.09765625 61.1875 C-21.07557554 56.12488733 -21.0410353 51.0624931 -21 46 C-22.10553223 45.86118408 -23.21106445 45.72236816 -24.35009766 45.5793457 C-27.96009089 45.00633474 -29.55271338 44.39066841 -32.375 42.1875 C-33.04273438 41.68605469 -33.71046875 41.18460937 -34.3984375 40.66796875 C-36.20156469 38.79007775 -36.61399668 37.54210758 -37 35 C-37.66 35 -38.32 35 -39 35 C-42.67477396 27.28953677 -44.75525097 20.52298795 -42.09375 12.1484375 C-41.13682805 9.72195684 -40.12195035 7.35409225 -39 5 C-38.34 5 -37.68 5 -37 5 C-36.731875 4.401875 -36.46375 3.80375 -36.1875 3.1875 C-33.77151932 -1.26299072 -30.6369846 -3.03819882 -26 -5 C-16.61451211 -7.20835009 -7.44484575 -6.32968953 0 0 Z " fill="#68B6F5" transform="translate(408,287)"/>
<path d="M0 0 C0.97646484 0.52980469 0.97646484 0.52980469 1.97265625 1.0703125 C2.65070313 1.35390625 3.32875 1.6375 4.02734375 1.9296875 C6.51894831 3.39062833 7.59862544 5.02875325 9.16015625 7.4453125 C9.92392578 8.60160156 9.92392578 8.60160156 10.703125 9.78125 C14.13240023 15.96449704 14.07701685 24.50670471 12.44140625 31.265625 C11.72265625 33.0078125 11.72265625 33.0078125 9.97265625 36.0703125 C9.45703125 37.1015625 8.94140625 38.1328125 8.41015625 39.1953125 C4.1411769 44.23051891 -3.01050669 47.702404 -9.62890625 48.30859375 C-18.15112997 48.51779562 -24.06024118 47.22596227 -30.77734375 41.8828125 C-36.88364733 34.24993303 -38.84800281 28.66020082 -38.52734375 18.6796875 C-37.8278192 13.62999464 -36.03442393 10.1162022 -33.02734375 6.0703125 C-32.36734375 5.0803125 -31.70734375 4.0903125 -31.02734375 3.0703125 C-30.03734375 3.0703125 -29.04734375 3.0703125 -28.02734375 3.0703125 C-28.02734375 2.4103125 -28.02734375 1.7503125 -28.02734375 1.0703125 C-18.33448721 -3.63944859 -9.85374294 -4.972917 0 0 Z " fill="#68B6F5" transform="translate(282.02734375,419.9296875)"/>
<path d="M0 0 C5.95421581 3.57474295 10.40098935 7.71244399 13.1015625 14.26171875 C13.6355598 17.09889929 13.67377312 19.81885335 13.6015625 22.69921875 C13.59382813 23.44550537 13.58609375 24.19179199 13.578125 24.96069336 C13.40002426 30.61106299 12.32422715 34.52843004 9.1015625 39.26171875 C8.4415625 39.26171875 7.7815625 39.26171875 7.1015625 39.26171875 C6.864375 39.86628906 6.6271875 40.47085938 6.3828125 41.09375 C4.80336345 43.76629337 3.34136877 44.53928598 0.6015625 45.94921875 C-0.1925 46.36558594 -0.9865625 46.78195312 -1.8046875 47.2109375 C-7.47770669 50.05803108 -13.42289718 50.38615827 -19.5546875 48.40234375 C-21.72216134 47.43120287 -23.81555471 46.40158208 -25.8984375 45.26171875 C-26.5584375 44.93171875 -27.2184375 44.60171875 -27.8984375 44.26171875 C-27.8984375 43.60171875 -27.8984375 42.94171875 -27.8984375 42.26171875 C-28.8884375 41.93171875 -29.8784375 41.60171875 -30.8984375 41.26171875 C-36.0086339 35.04456585 -38.49257991 27.68624702 -38.2734375 19.66015625 C-37.18567936 12.70303651 -33.40496275 6.74265155 -27.83984375 2.51171875 C-18.72026138 -3.36004454 -9.9611377 -5.01576722 0 0 Z " fill="#68B6F5" transform="translate(244.8984375,299.73828125)"/>
<path d="M0 0 C6.230403 8.01051815 6.84676967 15.45450703 6.04248047 25.33154297 C5.39191484 29.5987756 3.58234373 32.08047249 0.75 35.25 C0.09 35.25 -0.57 35.25 -1.25 35.25 C-1.62511719 36.17232422 -1.62511719 36.17232422 -2.0078125 37.11328125 C-3.46428336 39.61859433 -4.52589622 40.2360275 -7.125 41.4375 C-8.14207031 41.92283203 -8.14207031 41.92283203 -9.1796875 42.41796875 C-16.66783465 45.42735619 -23.65124783 44.17984182 -31.25 42.25 C-31.25 41.59 -31.25 40.93 -31.25 40.25 C-31.971875 40.023125 -32.69375 39.79625 -33.4375 39.5625 C-38.63682906 37.13614644 -41.26784783 33.70930786 -43.5625 28.5625 C-46.23816144 21.16056774 -46.42845925 15.12744459 -43.0625 7.9375 C-39.20835214 0.99132392 -33.8426686 -4.21911047 -26.25 -6.75 C-17.07771363 -9.30970782 -7.29174155 -5.67135454 0 0 Z " fill="#68B6F5" transform="translate(252.25,212.75)"/>
<path d="M0 0 C4.17436007 2.11350483 8.24050017 4.74618188 11.25 8.375 C11.25 9.365 11.25 10.355 11.25 11.375 C11.91 11.375 12.57 11.375 13.25 11.375 C16.27147913 19.44839223 16.5588876 27.80856643 13.5 35.9375 C11.92047482 39.37003705 10.39550064 42.14270922 7.25 44.375 C6.26 44.375 5.27 44.375 4.25 44.375 C4.25 45.035 4.25 45.695 4.25 46.375 C-3.55531861 49.97745474 -11.82888706 50.96876392 -20.125 48.1875 C-28.0501204 44.65243592 -31.59986585 39.21280183 -35 31.5625 C-36.86289009 23.64521711 -36.16113654 17.68229829 -32.15625 10.5625 C-25.07563416 -0.45179131 -12.20979489 -4.91293954 0 0 Z " fill="#68B6F5" transform="translate(407.75,411.625)"/>
<path d="M0 0 C5.35479022 5.12482991 8.46365565 9.55116472 9.37109375 17.078125 C9.53623343 24.96597315 8.22278226 30.31895521 4 37 C3.34 37 2.68 37 2 37 C1.773125 37.598125 1.54625 38.19625 1.3125 38.8125 C-1.0683953 42.78065884 -4.41878755 43.80297883 -8.6875 45.25 C-15.57014676 46.81128093 -22.51723244 45.58304322 -29 43 C-35.36186256 38.67803187 -40.02456592 34.1221644 -41.66796875 26.47265625 C-42.91310054 17.2000866 -41.4418137 10.27099951 -35.6875 2.6875 C-26.00488947 -6.99511053 -11.02713564 -8.99094992 0 0 Z " fill="#68B6F5" transform="translate(455,211)"/>
<path d="M0 0 C0.33 0 0.66 0 1 0 C1 5.61 1 11.22 1 17 C0.34 17 -0.32 17 -1 17 C-1.268125 17.598125 -1.53625 18.19625 -1.8125 18.8125 C-2.99917406 20.99847854 -4.09599113 22.41332594 -6 24 C-6.66 24 -7.32 24 -8 24 C-8 24.66 -8 25.32 -8 26 C-9.42578125 27.2890625 -9.42578125 27.2890625 -11.3125 28.625 C-11.92738281 29.07101562 -12.54226563 29.51703125 -13.17578125 29.9765625 C-15 31 -15 31 -18 31 C-18 31.66 -18 32.32 -18 33 C-19.98 33.66 -21.96 34.32 -24 35 C-23.7834375 35.55042969 -23.566875 36.10085938 -23.34375 36.66796875 C-18.29464156 51.74516757 -19.53690989 69.42621944 -26.28515625 83.72265625 C-33.07676569 95.96268775 -43.68330859 106.31136455 -57 111 C-62.30448398 112.51556685 -67.54227458 113.97261351 -73.0625 114.3125 C-74.031875 114.539375 -75.00125 114.76625 -76 115 C-77.8755742 117.91710042 -77.8755742 117.91710042 -79 121 C-79.99 121.495 -79.99 121.495 -81 122 C-81.495 123.485 -81.495 123.485 -82 125 C-83.375 126.6875 -83.375 126.6875 -85 128 C-85.99 128 -86.98 128 -88 128 C-88.33 128.99 -88.66 129.98 -89 131 C-91.1796875 132.82421875 -91.1796875 132.82421875 -93.875 134.6875 C-95.20144531 135.62142578 -95.20144531 135.62142578 -96.5546875 136.57421875 C-99 138 -99 138 -102 138 C-102 138.66 -102 139.32 -102 140 C-107.72386613 143.77299826 -113.18865423 143.34807111 -119.875 143.1875 C-120.94492187 143.17396484 -122.01484375 143.16042969 -123.1171875 143.14648438 C-125.74531511 143.11128624 -128.37239194 143.06204693 -131 143 C-128.16525618 141.11017079 -125.65432613 139.99512873 -122.5 138.75 C-112.92476065 134.81133098 -101.69913656 129.87723458 -94.375 122.32421875 C-93 121 -93 121 -91 121 C-90.731875 120.401875 -90.46375 119.80375 -90.1875 119.1875 C-89 117 -89 117 -87.5 115.625 C-85.40980621 113.3606234 -84.8445618 110.92348316 -84 108 C-83.34 108 -82.68 108 -82 108 C-81.505 106.515 -81.505 106.515 -81 105 C-79.96101563 104.90203125 -78.92203125 104.8040625 -77.8515625 104.703125 C-70.46558512 103.93633786 -63.83034013 103.05951073 -57.015625 99.90234375 C-55.0241214 99.01079853 -53.12737954 98.46476535 -51 98 C-51 97.34 -51 96.68 -51 96 C-49.12653592 94.44939017 -47.14103269 93.11223184 -45.140625 91.73046875 C-37.1716888 85.28842726 -32.6555678 74.67229413 -31.23828125 64.72265625 C-30.41376039 55.30149172 -30.4224168 45.82470523 -34 37 C-34.52173913 31.7826087 -34.52173913 31.7826087 -32.875 29.3125 C-30.387701 27.5713907 -27.71720267 26.35860134 -25 25 C-14.7280761 18.84845235 -4.93661127 11.21957106 0 0 Z " fill="#000000" transform="translate(507,385)"/>
<path d="M0 0 C2.64 0 5.28 0 8 0 C8 12.21 8 24.42 8 37 C45.29 37 82.58 37 121 37 C121 39.64 121 42.28 121 45 C107.95440165 46.14153384 94.94267174 46.16365157 81.85546875 46.16796875 C79.54999267 46.17118753 77.2445168 46.17455206 74.93904114 46.17805481 C70.14091517 46.18400325 65.34280712 46.18589867 60.54467773 46.18530273 C54.38534805 46.18520026 48.22613143 46.19895876 42.06682873 46.21607494 C37.32208216 46.22715479 32.57736355 46.22922334 27.83260536 46.22869301 C25.55951859 46.2298751 23.28643114 46.23430965 21.01335716 46.24202538 C17.85411747 46.25176275 14.69513197 46.24897436 11.53588867 46.24291992 C10.59416809 46.24853943 9.65244751 46.25415894 8.68218994 46.25994873 C7.82604599 46.25575424 6.96990204 46.25155975 6.08781433 46.24723816 C5.34220843 46.24778293 4.59660254 46.24832769 3.82840252 46.24888897 C2 46 2 46 0 44 C-0.24050903 42.08908081 -0.24050903 42.08908081 -0.22705078 39.73388672 C-0.22689972 38.85312469 -0.22674866 37.97236267 -0.22659302 37.06491089 C-0.21627045 36.11278717 -0.20594788 35.16066345 -0.1953125 34.1796875 C-0.1924826 33.20589142 -0.18965271 32.23209534 -0.18673706 31.22879028 C-0.17551913 28.11073651 -0.1504117 24.99296732 -0.125 21.875 C-0.11497228 19.76432706 -0.10584607 17.65364962 -0.09765625 15.54296875 C-0.07557458 10.36188165 -0.04208129 5.18096115 0 0 Z " fill="#000000" transform="translate(387,332)"/>
<path d="M0 0 C0.33 0 0.66 0 1 0 C1.02480062 4.32331963 1.04290758 8.64660106 1.05493164 12.9699707 C1.05994669 14.43937909 1.06676033 15.90878252 1.07543945 17.37817383 C1.08762928 19.49561795 1.09325669 21.61299583 1.09765625 23.73046875 C1.10289307 25.00301514 1.10812988 26.27556152 1.11352539 27.58666992 C1.01535339 30.53837486 0.58874188 33.12292803 0 36 C0.33 36.33 0.66 36.66 1 37 C1.08669432 38.4887186 1.10703494 39.981445 1.09765625 41.47265625 C1.09443359 42.37177734 1.09121094 43.27089844 1.08789062 44.19726562 C1.07951172 45.14279297 1.07113281 46.08832031 1.0625 47.0625 C1.05798828 48.01189453 1.05347656 48.96128906 1.04882812 49.93945312 C1.0370011 52.29303065 1.02052025 54.64648477 1 57 C-2.03245907 53.96754093 -3.50968512 50.06044178 -5.34570312 46.23046875 C-6.63700796 43.5806328 -7.8650858 41.16703663 -9.72265625 38.8671875 C-11.41787226 36.38916532 -11.38082457 34.95024339 -11 32 C-10.08203125 29.95703125 -10.08203125 29.95703125 -8.8125 27.8125 C-4.23848893 19.19876406 -2.34505325 9.40906712 0 0 Z " fill="#000000" transform="translate(507,287)"/>
</svg>
