<?xml version="1.0" encoding="UTF-8"?><svg id="Calque_1" xmlns="http://www.w3.org/2000/svg" viewBox="0 0 99.38 128.61"><defs><style>.cls-1{stroke:#e63124;}.cls-1,.cls-2{fill:none;stroke-linecap:round;stroke-linejoin:round;stroke-width:2.5px;}.cls-2{stroke:#1e3e70;}.cls-3{fill:#1e3e70;}</style></defs><line class="cls-1" x1="65.12" y1="29.09" x2="49.9" y2="44.31"/><polygon class="cls-1" points="75.77 29.74 65.11 29.09 64.46 18.43 69.9 12.99 80.33 2.55 80.99 13.21 91.65 13.87 81.21 24.31 75.77 29.74"/><path class="cls-2" d="m91,31.49c1.27,4.05,1.95,8.36,1.95,12.82,0,23.74-19.31,43.06-43.05,43.06S6.84,68.05,6.84,44.31,26.15,1.25,49.9,1.25c4.46,0,8.77.68,12.82,1.95"/><path class="cls-2" d="m80.84,41.65c.07.88.11,1.76.11,2.66,0,17.12-13.93,31.06-31.05,31.06s-31.06-13.94-31.06-31.06,13.93-31.06,31.06-31.06c.9,0,1.78.04,2.66.11"/><path class="cls-2" d="m80.77,41.03c.12,1.05.17,2.12.17,3.28,0,17.13-13.93,31.06-31.05,31.06s-31.06-13.93-31.06-31.06,13.93-31.06,31.06-31.06c1.14,0,2.21.06,3.26.17"/><path class="cls-1" d="m50.59,37.28c-.19-.02-.43-.03-.7-.03-3.89,0-7.06,3.17-7.06,7.06s3.17,7.06,7.06,7.06,7.05-3.17,7.05-7.06c0-.35-.02-.56-.03-.66"/><path class="cls-2" d="m68.85,42.34c.07.64.1,1.3.1,1.97,0,10.51-8.55,19.06-19.05,19.06s-19.06-8.55-19.06-19.06,8.55-19.06,19.06-19.06c.67,0,1.33.03,1.98.1"/><path class="cls-3" d="m15.35,121.55c-.08-2.14-.16-4.69-.15-7.29h-.07c-.56,2.26-1.31,4.78-1.97,6.87l-2.17,6.9h-3.11l-1.91-6.84c-.57-2.08-1.16-4.6-1.6-6.93h-.06c-.09,2.41-.19,5.14-.29,7.34l-.33,6.71H0l1.13-17.69h5.33l1.72,5.91c.56,2.03,1.11,4.25,1.5,6.32h.08c.48-2.05,1.08-4.38,1.68-6.35l1.88-5.89h5.23l.95,17.69h-3.89l-.28-6.77Z"/><path class="cls-3" d="m26.61,110.63v17.69h-4v-17.69h4Z"/><path class="cls-3" d="m30.22,124.19c1.06.57,2.72,1.11,4.43,1.11,1.84,0,2.81-.76,2.81-1.93,0-1.09-.84-1.73-2.96-2.47-2.95-1.05-4.88-2.65-4.88-5.24,0-3.02,2.53-5.31,6.69-5.31,2.02,0,3.47.4,4.52.89l-.88,3.21c-.7-.33-1.97-.84-3.69-.84s-2.57.81-2.57,1.71c0,1.12.98,1.62,3.27,2.49,3.13,1.17,4.58,2.8,4.58,5.3,0,2.95-2.26,5.49-7.13,5.49-2,0-4.01-.54-5-1.1l.81-3.3Z"/><path class="cls-3" d="m44.4,124.19c1.06.57,2.72,1.11,4.43,1.11,1.84,0,2.81-.76,2.81-1.93,0-1.09-.84-1.73-2.96-2.47-2.95-1.05-4.88-2.65-4.88-5.24,0-3.02,2.53-5.31,6.69-5.31,2.02,0,3.47.4,4.52.89l-.88,3.21c-.7-.33-1.97-.84-3.69-.84s-2.57.81-2.57,1.71c0,1.12.98,1.62,3.27,2.49,3.13,1.17,4.58,2.8,4.58,5.3,0,2.95-2.26,5.49-7.13,5.49-2,0-4.01-.54-5-1.1l.81-3.3Z"/><path class="cls-3" d="m62.44,110.63v17.69h-4v-17.69h4Z"/><path class="cls-3" d="m82.1,119.3c0,5.8-3.5,9.31-8.68,9.31s-8.33-3.97-8.33-9.01,3.4-9.25,8.61-9.25,8.4,4.06,8.4,8.96Zm-12.78.22c0,3.46,1.63,5.91,4.3,5.91s4.25-2.55,4.25-5.99c0-3.19-1.51-5.91-4.26-5.91s-4.29,2.56-4.29,6Z"/><path class="cls-3" d="m84.74,128.32v-17.69h4.66l3.67,6.49c1.06,1.85,2.09,4.07,2.89,6.07h.07c-.25-2.35-.32-4.73-.32-7.4v-5.16h3.67v17.69h-4.19l-3.79-6.81c-1.05-1.91-2.22-4.18-3.07-6.25h-.09c.12,2.35.17,4.86.17,7.74v5.32h-3.67Z"/></svg>