<?xml version="1.0" encoding="UTF-8"?>
<svg version="1.1" xmlns="http://www.w3.org/2000/svg" width="639" height="639">
<path d="M0 0 C1.83704312 -0.01653825 3.67402246 -0.04380029 5.51074219 -0.08203125 C8.16391264 -0.13695737 10.81557491 -0.15869864 13.46923828 -0.17333984 C14.28507385 -0.19600922 15.10090942 -0.21867859 15.94146729 -0.24203491 C20.0989748 -0.2267241 22.7008348 0.0764137 25.98095703 2.75390625 C28.08119574 4.90470926 29.75044655 6.77554047 31.26611328 9.35009766 C31.65283203 9.98947266 32.03955078 10.62884766 32.43798828 11.28759766 C36.79909352 19.63058159 36.71843344 29.10596783 35.51611328 38.35009766 C33.93908603 42.83638712 31.91527583 46.95093511 28.51611328 50.35009766 C37.65904282 49.67284362 45.05229247 46.57477223 52.51611328 41.35009766 C53.17611328 41.35009766 53.83611328 41.35009766 54.51611328 41.35009766 C54.80486328 40.75197266 55.09361328 40.15384766 55.39111328 39.53759766 C56.51611328 37.35009766 56.51611328 37.35009766 58.51611328 34.35009766 C59.17611328 34.35009766 59.83611328 34.35009766 60.51611328 34.35009766 C60.80486328 33.58697266 61.09361328 32.82384766 61.39111328 32.03759766 C62.51611328 29.35009766 62.51611328 29.35009766 64.51611328 26.35009766 C65.17611328 26.35009766 65.83611328 26.35009766 66.51611328 26.35009766 C66.76361328 25.81384766 67.01111328 25.27759766 67.26611328 24.72509766 C68.82263865 21.76769946 70.55047001 19.05285715 72.51611328 16.35009766 C73.17611328 16.35009766 73.83611328 16.35009766 74.51611328 16.35009766 C74.85642578 15.23634766 74.85642578 15.23634766 75.20361328 14.10009766 C77.31726186 9.67150064 81.04240165 7.1759411 85.51611328 5.35009766 C88.39111328 5.08447266 88.39111328 5.08447266 91.51611328 5.10009766 C93.06298828 5.09236328 93.06298828 5.09236328 94.64111328 5.08447266 C97.46208606 5.34510601 99.11757046 5.89713422 101.51611328 7.35009766 C101.51611328 8.01009766 101.51611328 8.67009766 101.51611328 9.35009766 C102.17611328 9.35009766 102.83611328 9.35009766 103.51611328 9.35009766 C103.51611328 10.01009766 103.51611328 10.67009766 103.51611328 11.35009766 C104.17611328 11.35009766 104.83611328 11.35009766 105.51611328 11.35009766 C108.24517213 16.58989065 109.1942379 20.50978238 107.51611328 26.35009766 C106.34345356 29.11625064 105.00695444 31.74285916 103.51611328 34.35009766 C102.85611328 34.35009766 102.19611328 34.35009766 101.51611328 34.35009766 C101.28923828 35.03845703 101.06236328 35.72681641 100.82861328 36.43603516 C99.21078162 40.02800664 96.95756055 42.91980079 94.51611328 45.97509766 C90.89117341 50.56956962 90.89117341 50.56956962 87.51611328 55.35009766 C86.85611328 55.35009766 86.19611328 55.35009766 85.51611328 55.35009766 C85.29955078 55.89923828 85.08298828 56.44837891 84.85986328 57.01416016 C83.07086299 60.12410834 80.65001686 62.342922 78.01611328 64.72509766 C77.48002441 65.21115479 76.94393555 65.69721191 76.39160156 66.19799805 C64.20966022 76.98931505 51.36056283 80.38898527 35.51611328 84.35009766 C35.51611328 104.48009766 35.51611328 124.61009766 35.51611328 145.35009766 C37.82611328 146.01009766 40.13611328 146.67009766 42.51611328 147.35009766 C44.20108626 148.03590221 45.8694165 148.76438907 47.51611328 149.53759766 C48.9025 150.18341797 48.9025 150.18341797 50.31689453 150.84228516 C51.37263672 151.33986328 52.42837891 151.83744141 53.51611328 152.35009766 C54.8634679 152.9783491 56.21114145 153.60591691 57.55908203 154.23291016 C61.21374834 155.93370263 64.86552223 157.64057661 68.51611328 159.35009766 C68.51611328 160.01009766 68.51611328 160.67009766 68.51611328 161.35009766 C69.09361328 161.55634766 69.67111328 161.76259766 70.26611328 161.97509766 C75.1114953 164.93616445 78.00212099 170.97268433 79.51611328 176.35009766 C80.59804534 184.45571977 80.67167132 192.62350863 80.64111328 200.78759766 C80.64498047 201.81691406 80.64884766 202.84623047 80.65283203 203.90673828 C80.64337295 211.47873475 80.1005069 218.7529806 79.51611328 226.35009766 C95.35611328 226.35009766 111.19611328 226.35009766 127.51611328 226.35009766 C127.43696365 215.25063523 127.43696365 215.25063523 127.3359375 204.15136719 C127.33009735 202.76188462 127.32500066 201.37239865 127.32080078 199.98291016 C127.31056885 199.259021 127.30033691 198.53513184 127.28979492 197.78930664 C127.28915932 195.9746683 127.39333753 194.16057793 127.51611328 192.35009766 C129.51611328 190.35009766 129.51611328 190.35009766 132.30020142 190.10958862 C133.486008 190.11402985 134.67181458 190.11847107 135.89355469 190.12304688 C136.89009095 190.12268527 136.89009095 190.12268527 137.90675926 190.12231636 C140.06053362 190.12381097 142.21396323 190.13905002 144.36767578 190.15478516 C145.68276123 190.15679932 146.99784668 190.15881348 148.3527832 190.16088867 C153.28226186 190.17138115 158.21169094 190.1993035 163.14111328 190.22509766 C179.66173828 190.28697266 179.66173828 190.28697266 196.51611328 190.35009766 C196.02111328 127.98009766 196.02111328 127.98009766 195.51611328 64.35009766 C194.85611328 64.68009766 194.19611328 65.01009766 193.51611328 65.35009766 C185.24411983 66.12629007 178.26359183 65.61015113 170.45361328 62.85009766 C162.06473443 59.95443371 153.61980279 57.89546604 145.23486328 61.92822266 C142.55564883 63.62689986 140.03841167 65.43021228 137.51611328 67.35009766 C137.18611328 67.35009766 136.85611328 67.35009766 136.51611328 67.35009766 C136.44014122 60.8539986 136.38754656 54.35801381 136.35131836 47.86157227 C136.33621803 45.65091674 136.31573619 43.44029122 136.28979492 41.22973633 C136.25346674 38.05493773 136.23639944 34.88053469 136.22314453 31.70556641 C136.20766068 30.71485641 136.19217682 29.72414642 136.17622375 28.70341492 C136.17588387 27.32232292 136.17588387 27.32232292 136.17553711 25.91333008 C136.16554436 24.69754524 136.16554436 24.69754524 136.15534973 23.4571991 C136.60412157 20.83607017 137.41906731 19.93858988 139.51611328 18.35009766 C140.17611328 18.35009766 140.83611328 18.35009766 141.51611328 18.35009766 C141.51611328 17.69009766 141.51611328 17.03009766 141.51611328 16.35009766 C148.40532165 12.31739032 155.72479879 12.59922486 163.51611328 13.35009766 C166.35509331 14.15744445 168.97160437 15.18031067 171.69189453 16.31884766 C179.33991442 19.11148562 187.87920557 20.6230581 195.51611328 17.35009766 C195.57669922 16.50705078 195.63728516 15.66400391 195.69970703 14.79541016 C195.78349609 13.69970703 195.86728516 12.60400391 195.95361328 11.47509766 C196.03482422 10.38455078 196.11603516 9.29400391 196.19970703 8.17041016 C196.51611328 5.35009766 196.51611328 5.35009766 197.51611328 3.35009766 C200.39111328 3.22509766 200.39111328 3.22509766 203.51611328 3.35009766 C205.96168152 5.7956659 205.75378278 7.11336387 205.7742759 10.45028651 C205.76845022 11.16428626 205.76262453 11.87828601 205.75662231 12.61392212 C205.75918559 13.74967117 205.75918559 13.74967117 205.76180065 14.90836465 C205.76510871 17.45886123 205.75407037 20.00909776 205.74316406 22.55957031 C205.74260023 24.38250217 205.74291596 26.20543449 205.74404907 28.02836609 C205.74462469 32.98887274 205.73283669 37.94928336 205.71890116 42.90976763 C205.70642849 48.08944752 205.70522604 53.26912943 205.70285034 58.44882202 C205.69662536 68.26254127 205.68020081 78.07621615 205.66015136 87.88991582 C205.63782398 99.06023924 205.6268069 110.23056473 205.61676049 121.40090489 C205.59583544 144.38399461 205.56023854 167.36704178 205.51611328 190.35009766 C215.41611328 190.35009766 225.31611328 190.35009766 235.51611328 190.35009766 C235.51611328 193.32009766 235.51611328 196.29009766 235.51611328 199.35009766 C202.84611328 199.35009766 170.17611328 199.35009766 136.51611328 199.35009766 C136.51611328 209.58009766 136.51611328 219.81009766 136.51611328 230.35009766 C136.18611328 231.67009766 135.85611328 232.99009766 135.51611328 234.35009766 C98.88611328 234.35009766 62.25611328 234.35009766 24.51611328 234.35009766 C24.51611328 245.57009766 24.51611328 256.79009766 24.51611328 268.35009766 C23.51611328 269.35009766 23.51611328 269.35009766 21.67515469 269.47314548 C20.45977064 269.4717628 20.45977064 269.4717628 19.21983337 269.47035217 C18.29290176 269.47172684 17.36597015 269.4731015 16.41094971 269.47451782 C15.38596375 269.47092255 14.36097778 269.46732727 13.30493164 269.46362305 C11.69537346 269.46384209 11.69537346 269.46384209 10.05329895 269.46406555 C6.48749812 269.46336589 2.92174879 269.45557104 -0.64404297 269.44775391 C-3.10884065 269.44588991 -5.5736387 269.44446592 -8.03843689 269.44346619 C-14.54042577 269.43963953 -21.04239247 269.42980798 -27.54437256 269.41876221 C-35.33783605 269.40612713 -43.13131095 269.40214655 -50.9247818 269.3963089 C-62.77783222 269.3865963 -74.63083394 269.36744077 -86.48388672 269.35009766 C-86.48388672 291.13009766 -86.48388672 312.91009766 -86.48388672 335.35009766 C19.77611328 335.35009766 126.03611328 335.35009766 235.51611328 335.35009766 C235.51611328 336.34009766 235.51611328 337.33009766 235.51611328 338.35009766 C126.28611328 338.35009766 17.05611328 338.35009766 -95.48388672 338.35009766 C-95.48388672 264.35009766 -95.48388672 264.35009766 -93.48388672 261.35009766 C-91.26925659 260.95137024 -91.26925659 260.95137024 -88.48339844 260.91772461 C-87.4424704 260.89793045 -86.40154236 260.87813629 -85.32907104 260.85774231 C-83.63840012 260.84815742 -83.63840012 260.84815742 -81.91357422 260.83837891 C-80.18652756 260.8114521 -80.18652756 260.8114521 -78.42459106 260.78398132 C-74.73606056 260.72966605 -71.04766099 260.69591407 -67.35888672 260.66259766 C-64.86277466 260.62944339 -62.36667993 260.59495553 -59.87060547 260.55908203 C-53.74181664 260.47392748 -47.61301129 260.4056678 -41.48388672 260.35009766 C-34.92102894 236.87576263 -34.92102894 236.87576263 -29.14013672 213.20166016 C-28.48388672 210.35009766 -28.48388672 210.35009766 -27.48388672 207.35009766 C-27.27746274 204.33358123 -27.34509446 201.31040163 -27.35888672 198.28759766 C-27.35501953 197.49804688 -27.35115234 196.70849609 -27.34716797 195.89501953 C-27.3556964 190.39844633 -27.60158102 184.92942369 -27.92919922 179.44384766 C-28.69083023 166.61011543 -29.05928357 153.76098932 -29.48388672 140.91259766 C-29.64982412 135.95554179 -29.81681506 130.99852166 -29.98388672 126.04150391 C-30.04467407 124.22943954 -30.04467407 124.22943954 -30.10668945 122.38076782 C-30.53432619 109.70271472 -31.00489645 97.0263018 -31.48388672 84.35009766 C-32.64525146 84.11508545 -33.80661621 83.88007324 -35.00317383 83.63793945 C-47.69854449 81.03107851 -61.05789198 76.80536567 -70.48388672 67.35009766 C-70.48388672 66.69009766 -70.48388672 66.03009766 -70.48388672 65.35009766 C-71.14388672 65.35009766 -71.80388672 65.35009766 -72.48388672 65.35009766 C-72.48388672 64.69009766 -72.48388672 64.03009766 -72.48388672 63.35009766 C-73.10263672 63.10259766 -73.72138672 62.85509766 -74.35888672 62.60009766 C-76.83457359 61.14381126 -77.43513674 59.97197259 -78.48388672 57.35009766 C-79.14388672 57.35009766 -79.80388672 57.35009766 -80.48388672 57.35009766 C-80.48388672 56.69009766 -80.48388672 56.03009766 -80.48388672 55.35009766 C-81.96888672 54.85509766 -81.96888672 54.85509766 -83.48388672 54.35009766 C-85.26953974 52.30108252 -86.91772054 50.26691117 -88.54638672 48.10009766 C-88.99304688 47.52646484 -89.43970703 46.95283203 -89.89990234 46.36181641 C-92.3450682 43.15276466 -94.19555744 40.2223642 -95.48388672 36.35009766 C-96.14388672 36.35009766 -96.80388672 36.35009766 -97.48388672 36.35009766 C-101.84320021 28.752437 -103.67838339 23.88821857 -101.79638672 15.16259766 C-99.60287549 10.46221645 -96.2864441 7.27452668 -91.48388672 5.35009766 C-88.67919922 5.01416016 -88.67919922 5.01416016 -85.60888672 4.97509766 C-84.60083984 4.94673828 -83.59279297 4.91837891 -82.55419922 4.88916016 C-77.21175505 5.69120648 -73.9498777 8.51917829 -70.74560547 12.69775391 C-69.87666115 13.9284307 -69.01866459 15.16690516 -68.17138672 16.41259766 C-67.50913086 17.34942383 -67.50913086 17.34942383 -66.83349609 18.30517578 C-64.98386959 20.95923402 -63.5119303 23.26596692 -62.48388672 26.35009766 C-61.82388672 26.35009766 -61.16388672 26.35009766 -60.48388672 26.35009766 C-58.97607422 28.02978516 -58.97607422 28.02978516 -57.35888672 30.22509766 C-56.82005859 30.94439453 -56.28123047 31.66369141 -55.72607422 32.40478516 C-54.48388672 34.35009766 -54.48388672 34.35009766 -54.48388672 36.35009766 C-53.92701172 36.59759766 -53.37013672 36.84509766 -52.79638672 37.10009766 C-50.08456322 38.5659482 -47.86862331 40.40465464 -45.48388672 42.35009766 C-44.49388672 42.84509766 -44.49388672 42.84509766 -43.48388672 43.35009766 C-43.48388672 44.01009766 -43.48388672 44.67009766 -43.48388672 45.35009766 C-42.66017578 45.53378906 -42.66017578 45.53378906 -41.81982422 45.72119141 C-39.16155425 46.43687948 -36.67268559 47.41077709 -34.10888672 48.41259766 C-30.07340135 49.90902262 -26.84146195 50.82118687 -22.48388672 50.35009766 C-23.06138672 49.73134766 -23.63888672 49.11259766 -24.23388672 48.47509766 C-29.388014 41.31658754 -31.82712379 33.17619384 -31.48388672 24.35009766 C-30.51388792 19.02896141 -29.02422269 14.13125401 -26.48388672 9.35009766 C-25.82388672 9.35009766 -25.16388672 9.35009766 -24.48388672 9.35009766 C-24.11263672 8.42197266 -24.11263672 8.42197266 -23.73388672 7.47509766 C-22.27760033 4.99941079 -21.10576166 4.39884763 -18.48388672 3.35009766 C-18.48388672 2.69009766 -18.48388672 2.03009766 -18.48388672 1.35009766 C-13.45506543 -1.16431299 -5.59586181 0.0369265 0 0 Z M-8.48388672 5.35009766 C-8.48388672 6.01009766 -8.48388672 6.67009766 -8.48388672 7.35009766 C-9.10263672 7.49447266 -9.72138672 7.63884766 -10.35888672 7.78759766 C-12.51646994 8.28161991 -12.51646994 8.28161991 -14.48388672 9.35009766 C-14.48388672 10.01009766 -14.48388672 10.67009766 -14.48388672 11.35009766 C-15.14388672 11.35009766 -15.80388672 11.35009766 -16.48388672 11.35009766 C-21.08068694 17.38339795 -23.12795195 22.7501279 -22.48388672 30.35009766 C-20.78165388 38.92316123 -16.13086296 44.11755053 -9.73388672 49.78759766 C-2.49997334 53.26544063 5.07225205 52.95544909 12.51611328 50.35009766 C18.8717699 47.39142992 23.5629895 43.3829983 26.66064453 36.98681641 C28.7019432 30.69514241 28.37813843 23.61445317 25.95361328 17.47509766 C21.77572015 9.35468565 14.83503105 6.12307025 6.51611328 3.35009766 C1.08455479 3.03059422 -3.30507948 3.89639738 -8.48388672 5.35009766 Z M-93.48388672 17.35009766 C-94.4878222 21.91108042 -94.11159036 25.93660433 -91.60888672 29.91259766 C-90.55701172 31.11916016 -90.55701172 31.11916016 -89.48388672 32.35009766 C-88.82388672 32.35009766 -88.16388672 32.35009766 -87.48388672 32.35009766 C-87.24412109 33.06166016 -87.00435547 33.77322266 -86.75732422 34.50634766 C-85.28740184 37.7888737 -83.42885425 40.10621579 -81.10888672 42.85009766 C-80.33802734 43.76791016 -79.56716797 44.68572266 -78.77294922 45.63134766 C-77.63986328 46.97712891 -77.63986328 46.97712891 -76.48388672 48.35009766 C-75.76974609 49.28853516 -75.05560547 50.22697266 -74.31982422 51.19384766 C-73.71396484 51.90541016 -73.10810547 52.61697266 -72.48388672 53.35009766 C-71.82388672 53.35009766 -71.16388672 53.35009766 -70.48388672 53.35009766 C-70.48388672 54.01009766 -70.48388672 54.67009766 -70.48388672 55.35009766 C-69.82388672 55.35009766 -69.16388672 55.35009766 -68.48388672 55.35009766 C-68.48388672 56.01009766 -68.48388672 56.67009766 -68.48388672 57.35009766 C-66.38101213 59.36250964 -66.38101213 59.36250964 -63.73388672 61.41259766 C-62.85216797 62.12544922 -61.97044922 62.83830078 -61.06201172 63.57275391 C-58.73187004 65.17913946 -57.24037921 65.93147146 -54.48388672 66.35009766 C-54.48388672 67.01009766 -54.48388672 67.67009766 -54.48388672 68.35009766 C-45.4357512 71.87534526 -36.49719125 75.07046583 -27.08154297 77.49072266 C-26.22431641 77.77431641 -25.36708984 78.05791016 -24.48388672 78.35009766 C-23.04831334 81.22124441 -23.16905943 83.84413382 -22.98388672 87.04931641 C-22.94359848 87.73977051 -22.90331024 88.43022461 -22.86180115 89.14160156 C-22.73026959 91.43999269 -22.60655698 93.73871751 -22.48388672 96.03759766 C-22.44031036 96.82776276 -22.39673401 97.61792786 -22.35183716 98.43203735 C-21.56037861 112.88571178 -21.11159959 127.3398901 -20.82568359 141.81176758 C-20.67591215 149.15954865 -20.45505338 156.48375884 -19.98779297 163.81884766 C-18.41956379 188.78986758 -18.01027744 212.27815134 -25.56005859 236.39550781 C-26.70836803 240.06803444 -27.74322703 243.76629807 -28.7644043 247.47583008 C-29.18508678 248.99613374 -29.61626213 250.5135967 -30.06079102 252.02709961 C-31.02067681 255.32866692 -31.48388672 257.86777868 -31.48388672 261.35009766 C-24.55388672 261.35009766 -17.62388672 261.35009766 -10.48388672 261.35009766 C-7.80148775 253.59030065 -5.48479703 245.82861038 -3.42529297 237.88134766 C-2.64663362 234.96056734 -1.78764965 232.10006231 -0.85888672 229.22509766 C3.18861152 215.60864146 2.9041545 201.67382814 3.07861328 187.60009766 C3.12257647 184.41649003 3.16912563 181.23298151 3.22142029 178.04949951 C3.25335126 176.0808675 3.28024948 174.11214621 3.301651 172.14337158 C3.31514084 171.26445251 3.32863068 170.38553345 3.3425293 169.47998047 C3.3567971 168.31634979 3.3567971 168.31634979 3.37135315 167.12921143 C3.51611328 165.35009766 3.51611328 165.35009766 4.51611328 164.35009766 C7.26611328 164.03759766 7.26611328 164.03759766 10.51611328 164.35009766 C11.20060547 164.92630859 11.88509766 165.50251953 12.59033203 166.09619141 C16.59296094 169.17965853 20.92331009 170.8246381 25.57861328 172.72509766 C27.46236879 173.51712938 29.34518776 174.31139235 31.22705078 175.10791016 C32.13422852 175.49108398 33.04140625 175.87425781 33.97607422 176.26904297 C37.24695962 177.6611499 40.4856036 179.08896416 43.70361328 180.60009766 C44.60466797 181.01775391 45.50572266 181.43541016 46.43408203 181.86572266 C49.15883018 183.80831984 49.69386746 185.1153284 50.51611328 188.35009766 C50.68518967 190.89484059 50.75131144 193.31046889 50.70361328 195.85009766 C50.69394531 196.93278931 50.69394531 196.93278931 50.68408203 198.03735352 C50.55622075 207.48410486 50.01585328 216.91750522 49.51611328 226.35009766 C56.44611328 226.35009766 63.37611328 226.35009766 70.51611328 226.35009766 C71.39559459 218.01261489 71.69907057 209.79390891 71.70361328 201.41259766 C71.71585938 200.22730469 71.72810547 199.04201172 71.74072266 197.82080078 C71.75668111 188.12338166 71.70700453 177.84428334 66.51611328 169.35009766 C65.85611328 169.35009766 65.19611328 169.35009766 64.51611328 169.35009766 C64.51611328 168.69009766 64.51611328 168.03009766 64.51611328 167.35009766 C61.31011377 165.80354478 58.10114367 164.2632657 54.89111328 162.72509766 C53.93938232 162.26796387 52.98765137 161.81083008 52.00708008 161.33984375 C45.4376486 158.20563013 38.82336714 155.32656831 32.03564453 152.70166016 C29.07833863 151.1152604 28.65137152 150.44500657 27.51611328 147.35009766 C27.30010986 144.34568787 27.30010986 144.34568787 27.34912109 140.79321289 C27.35537003 140.14395844 27.36161896 139.49470398 27.36805725 138.82577515 C27.39147615 136.68647541 27.4298777 134.54775284 27.46923828 132.40869141 C27.4903434 130.91944731 27.51082187 129.4301942 27.53070068 127.94093323 C27.57467366 124.8230256 27.62602778 121.70534991 27.68261719 118.58764648 C27.75460256 114.59067657 27.80857035 110.59370449 27.85707474 106.59638882 C27.89629629 103.52252086 27.94486996 100.44885556 27.99629974 97.37516975 C28.01986643 95.90120776 28.04055667 94.42719688 28.05832672 92.95315361 C28.08458435 90.89433811 28.12337675 88.8361311 28.16552734 86.77758789 C28.18488342 85.60606674 28.2042395 84.43454559 28.22418213 83.2275238 C28.51611328 80.35009766 28.51611328 80.35009766 30.51611328 77.35009766 C32.4362793 76.5222168 32.4362793 76.5222168 34.77001953 75.88525391 C36.05295898 75.52077148 36.05295898 75.52077148 37.36181641 75.14892578 C38.25835937 74.9059375 39.15490234 74.66294922 40.07861328 74.41259766 C54.85684764 70.34830933 66.24476625 63.87002155 77.51611328 53.35009766 C77.51611328 52.69009766 77.51611328 52.03009766 77.51611328 51.35009766 C78.17611328 51.35009766 78.83611328 51.35009766 79.51611328 51.35009766 C81.1043755 49.63511994 81.1043755 49.63511994 82.64111328 47.47509766 C83.17994141 46.75580078 83.71876953 46.03650391 84.27392578 45.29541016 C85.6955096 43.4538376 85.6955096 43.4538376 85.51611328 41.35009766 C86.17611328 41.35009766 86.83611328 41.35009766 87.51611328 41.35009766 C90.42519067 37.51540473 92.93003284 33.40739316 95.51611328 29.35009766 C96.25087891 28.28855469 96.25087891 28.28855469 97.00048828 27.20556641 C98.99553028 24.17884172 99.57547799 22.73596829 99.01611328 19.10009766 C97.42440008 16.18195679 96.45993587 14.86406356 93.51611328 13.35009766 C91.05901953 12.76659261 91.05901953 12.76659261 88.51611328 13.35009766 C84.98067181 15.88602013 82.30130484 18.61025542 79.64111328 22.03759766 C78.62404297 23.34277344 78.62404297 23.34277344 77.58642578 24.67431641 C76.56162109 25.99882812 76.56162109 25.99882812 75.51611328 27.35009766 C74.49130859 28.62820312 74.49130859 28.62820312 73.44580078 29.93212891 C72.80900391 30.73005859 72.17220703 31.52798828 71.51611328 32.35009766 C70.93861328 33.07197266 70.36111328 33.79384766 69.76611328 34.53759766 C68.32686896 36.25754536 68.32686896 36.25754536 68.51611328 38.35009766 C67.85611328 38.35009766 67.19611328 38.35009766 66.51611328 38.35009766 C65.21134109 39.94403629 65.21134109 39.94403629 63.89111328 41.97509766 C56.6631022 51.77345158 45.54129066 56.87309979 33.73950195 59.04516602 C23.28582015 60.26137485 12.95329257 60.6919279 2.43066406 60.66577148 C-0.24568471 60.6625836 -2.92095233 60.68628898 -5.59716797 60.71142578 C-18.68330534 60.75982807 -29.99675844 58.97036954 -42.24169922 54.11962891 C-44.56171478 53.18778805 -44.56171478 53.18778805 -47.48388672 53.35009766 C-47.48388672 52.69009766 -47.48388672 52.03009766 -47.48388672 51.35009766 C-49.46388672 50.69009766 -51.44388672 50.03009766 -53.48388672 49.35009766 C-53.48388672 48.69009766 -53.48388672 48.03009766 -53.48388672 47.35009766 C-55.46649098 45.66277488 -57.46712092 43.99643708 -59.48388672 42.35009766 C-59.97888672 41.36009766 -59.97888672 41.36009766 -60.48388672 40.35009766 C-61.14388672 40.35009766 -61.80388672 40.35009766 -62.48388672 40.35009766 C-62.48388672 39.69009766 -62.48388672 39.03009766 -62.48388672 38.35009766 C-63.14388672 38.35009766 -63.80388672 38.35009766 -64.48388672 38.35009766 C-64.73138672 37.62822266 -64.97888672 36.90634766 -65.23388672 36.16259766 C-66.60658264 33.07403184 -68.20741968 30.83998348 -70.48388672 28.35009766 C-71.14388672 28.35009766 -71.80388672 28.35009766 -72.48388672 28.35009766 C-72.77263672 27.58697266 -73.06138672 26.82384766 -73.35888672 26.03759766 C-74.44657685 23.19980458 -74.44657685 23.19980458 -76.48388672 20.35009766 C-77.14388672 20.35009766 -77.80388672 20.35009766 -78.48388672 20.35009766 C-78.60763672 19.45291016 -78.60763672 19.45291016 -78.73388672 18.53759766 C-79.72417069 15.64926941 -80.83325445 14.82267114 -83.48388672 13.35009766 C-88.05036295 12.53047372 -90.50888691 13.86509788 -93.48388672 17.35009766 Z M10.51611328 175.35009766 C10.52658691 176.13433105 10.53706055 176.91856445 10.54785156 177.7265625 C10.89095975 207.38587654 6.62691025 232.84643974 -1.48388672 261.35009766 C4.45611328 261.35009766 10.39611328 261.35009766 16.51611328 261.35009766 C16.60699219 257.79421875 16.60699219 257.79421875 16.69970703 254.16650391 C16.76145226 251.87960475 16.8248582 249.59275729 16.88842773 247.3059082 C16.93183474 245.71220465 16.97350547 244.11845285 17.01342773 242.5246582 C17.07099136 240.23845858 17.13472477 237.95250316 17.19970703 235.66650391 C17.21641953 234.94983047 17.23313202 234.23315704 17.25035095 233.49476624 C17.40224157 228.46396936 17.40224157 228.46396936 18.51611328 227.35009766 C20.22175106 227.1926916 21.93338572 227.09916374 23.64501953 227.03369141 C24.67949219 226.99179687 25.71396484 226.94990234 26.77978516 226.90673828 C27.86839844 226.86742187 28.95701172 226.82810547 30.07861328 226.78759766 C31.71733398 226.72282227 31.71733398 226.72282227 33.38916016 226.65673828 C36.09800892 226.55027698 38.80695321 226.44826249 41.51611328 226.35009766 C42.34248752 213.99875412 42.63961832 201.72804705 42.51611328 189.35009766 C36.44848637 185.66562137 30.26876647 183.01428197 23.61767578 180.55322266 C20.92368441 179.5081983 18.39321583 178.36186516 15.82861328 177.03759766 C12.8386948 175.19878906 12.8386948 175.19878906 10.51611328 175.35009766 Z " fill="#000000" transform="translate(252.48388671875,149.64990234375)"/>
<path d="M0 0 C1.59172531 -0.0098568 1.59172531 -0.0098568 3.21560669 -0.01991272 C6.72300295 -0.03959657 10.23035629 -0.05130304 13.73779297 -0.0612793 C14.94297451 -0.06535482 16.14815605 -0.06943035 17.38985825 -0.07362938 C23.78008603 -0.09447822 30.17029247 -0.10878004 36.56054688 -0.11816406 C43.11194187 -0.12917159 49.66299189 -0.16350945 56.21426582 -0.20333576 C61.29174358 -0.22969052 66.36914187 -0.23787295 71.44668198 -0.24144554 C73.85842062 -0.24627003 76.27015673 -0.25776321 78.68182755 -0.27648354 C93.39883899 -0.38353946 107.06949038 0.51838327 121.35498047 4.17700195 C122.05456218 4.3560696 122.75414389 4.53513725 123.47492504 4.7196312 C127.69633431 5.81668851 131.87229178 7.02440804 136.04248047 8.30200195 C136.98403488 8.58796234 136.98403488 8.58796234 137.9446106 8.87969971 C177.31663525 20.88845379 213.16655233 39.62665433 245.35498047 65.17700195 C246.27666016 65.9040332 247.19833984 66.63106445 248.14794922 67.38012695 C265.31621119 81.15437465 281.84257449 96.78285025 295.35498047 114.17700195 C296.25535922 115.26824751 297.15923149 116.35661664 298.06591797 117.44262695 C331.34665856 157.58131792 352.77098984 206.34294478 363.35498047 257.17700195 C363.53009659 257.94897415 363.70521271 258.72094635 363.88563538 259.51631165 C365.9911933 270.02714706 365.70296492 280.67267652 365.72607422 291.3449707 C365.73506555 293.50995435 365.74418774 295.67493746 365.75343323 297.83992004 C365.76986379 302.37115984 365.77761136 306.90232633 365.78051758 311.43359375 C365.78480809 316.03116074 365.80555028 320.62816302 365.84204102 325.22558594 C366.21819015 373.43907128 366.21819015 373.43907128 361.00257874 391.8757019 C360.09708287 395.09346482 359.34420756 398.34329789 358.57954407 401.59687805 C348.2457208 444.02641662 327.16297292 483.94510021 300.35498047 518.17700195 C299.66146484 519.08321289 298.96794922 519.98942383 298.25341797 520.9230957 C293.99926075 526.3939769 289.39729582 531.49141611 284.65380859 536.53710938 C282.2037152 539.14583898 279.85381655 541.77266381 277.61669922 544.56762695 C276.49714844 545.85926758 276.49714844 545.85926758 275.35498047 547.17700195 C274.69498047 547.17700195 274.03498047 547.17700195 273.35498047 547.17700195 C273.02498047 548.16700195 272.69498047 549.15700195 272.35498047 550.17700195 C270.96435547 551.5793457 270.96435547 551.5793457 269.10498047 553.11450195 C265.91608154 555.80886576 262.83953959 558.58123628 259.80615234 561.44677734 C252.99842534 567.85589935 245.89456669 573.64894482 238.35498047 579.17700195 C237.44401611 579.85666016 237.44401611 579.85666016 236.51464844 580.55004883 C209.24802017 600.83825705 178.48585952 616.25296111 146.35498047 627.17700195 C145.52546875 627.46124023 144.69595703 627.74547852 143.84130859 628.03833008 C139.00335011 629.66667782 134.13623789 631.08540235 129.20663452 632.40750122 C127.34789766 632.90906956 125.49265199 633.42381798 123.64175415 633.95358276 C100.16506207 640.50663516 76.5196028 640.1032545 52.32666016 639.95922852 C46.5208764 639.92504453 40.71674284 639.94535138 34.91101551 639.97987843 C10.70208699 640.10207003 -12.23291416 639.86068705 -35.64501953 633.17700195 C-37.14062591 632.78701055 -38.63711596 632.40038021 -40.13476562 632.01831055 C-43.572003 631.09859927 -46.94812217 630.08578949 -50.33251953 628.98950195 C-51.51128662 628.61494873 -52.69005371 628.24039551 -53.90454102 627.85449219 C-98.59780122 613.26327283 -139.642002 589.12942647 -173.77783203 556.83325195 C-175.82134062 554.94008324 -177.8451287 553.19292905 -180.01220703 551.45825195 C-180.88103516 550.70543945 -181.74986328 549.95262695 -182.64501953 549.17700195 C-182.64501953 548.51700195 -182.64501953 547.85700195 -182.64501953 547.17700195 C-183.63501953 546.84700195 -184.62501953 546.51700195 -185.64501953 546.17700195 C-187.04736328 544.78637695 -187.04736328 544.78637695 -188.58251953 542.92700195 C-191.23647456 539.78239977 -193.97506174 536.75840337 -196.81396484 533.77954102 C-204.11821154 526.07132955 -210.46459282 517.80151647 -216.64501953 509.17700195 C-217.2736792 508.30229248 -217.2736792 508.30229248 -217.91503906 507.40991211 C-223.52986301 499.55645352 -228.72771256 491.48326372 -233.64501953 483.17700195 C-233.99532227 482.58612793 -234.345625 481.99525391 -234.70654297 481.38647461 C-252.99020968 450.33052499 -265.30505029 416.41636322 -272.64501953 381.17700195 C-272.90131889 379.94896599 -272.90131889 379.94896599 -273.16279602 378.69612122 C-273.80906136 373.97987498 -273.81742001 369.3348692 -273.83789062 364.57958984 C-273.84606812 363.52325851 -273.85424561 362.46692719 -273.8626709 361.37858582 C-273.88745586 357.88561551 -273.90403419 354.39268604 -273.91845703 350.8996582 C-273.92644255 349.09750257 -273.92644255 349.09750257 -273.93458939 347.25893974 C-273.96130646 340.88470982 -273.98067563 334.51049928 -273.99511719 328.13623047 C-274.00838294 322.90200032 -274.0361013 317.66816681 -274.07714844 312.43408203 C-274.12696923 306.07930908 -274.15129954 299.724892 -274.15834427 293.36993217 C-274.16498212 290.96903024 -274.18000375 288.56813387 -274.20423508 286.16734505 C-274.3563621 270.16644372 -272.74309097 255.65029976 -268.64501953 240.17700195 C-268.40241551 239.24378679 -268.1598115 238.31057163 -267.90985584 237.34907722 C-256.03426054 191.74300399 -234.33196884 150.61049998 -204.64501953 114.17700195 C-204.0057251 113.38108643 -204.0057251 113.38108643 -203.35351562 112.5690918 C-196.59309846 104.19210874 -189.16698678 96.49293759 -181.58251953 88.86450195 C-180.67268311 87.94540039 -179.76284668 87.02629883 -178.82543945 86.0793457 C-172.73765331 80.01947263 -166.36277636 74.52314265 -159.64501953 69.17700195 C-158.43653273 68.17641701 -157.23040098 67.17297289 -156.02783203 66.1652832 C-115.02138722 32.26827648 -54.39212475 0.14709508 0 0 Z M-161.02001953 82.7277832 C-163.12244091 84.68941744 -165.25389879 86.57707674 -167.43017578 88.4543457 C-178.46113895 98.06925909 -188.67757018 108.61967553 -197.64501953 120.17700195 C-198.59257524 121.33828186 -199.54331548 122.49696784 -200.49658203 123.65356445 C-207.46801699 132.14561443 -213.82363653 140.8590022 -219.64501953 150.17700195 C-220.14114746 150.96929199 -220.63727539 151.76158203 -221.1484375 152.57788086 C-266.49653123 225.64567732 -279.80034269 311.35192421 -260.43457031 394.9465332 C-258.78042506 401.71451404 -256.76227213 408.31400273 -254.44580078 414.88256836 C-253.61390076 417.26616481 -252.83190532 419.66288854 -252.05126953 422.0637207 C-241.94356203 452.28098837 -226.36641989 481.21051478 -206.97460938 506.44604492 C-205.64083896 508.18244453 -204.32442467 509.9311115 -203.00830078 511.6809082 C-197.03084048 519.53774945 -190.52921135 526.76438011 -183.71142578 533.8996582 C-181.19369816 536.54454763 -178.92527475 539.32421512 -176.64501953 542.17700195 C-175.53184634 543.23335424 -174.38536549 544.2557776 -173.20751953 545.23950195 C-170.15333529 547.83892714 -167.21223315 550.52349235 -164.30761719 553.2890625 C-108.15652596 606.38157277 -27.43627477 636.03931185 49.60498047 634.36450195 C100.01489742 632.61719114 147.69408226 620.76074615 192.35498047 597.17700195 C193.05655273 596.81026367 193.758125 596.44352539 194.48095703 596.06567383 C220.42815225 582.41654844 245.00205349 564.34950988 265.35498047 543.17700195 C267.78928112 540.72697076 270.23550499 538.2929169 272.71435547 535.88793945 C278.75057365 529.98980469 284.12537742 523.79297628 289.35498047 517.17700195 C290.18513672 516.16379883 291.01529297 515.1505957 291.87060547 514.10668945 C304.42773743 498.67178456 315.27068576 481.87093524 324.35498047 464.17700195 C324.82645508 463.25999512 325.29792969 462.34298828 325.78369141 461.39819336 C363.21231822 387.79505441 370.28903775 303.35922965 345.51928711 224.54638672 C342.03131097 213.84247119 337.94568566 203.45321466 333.35498047 193.17700195 C332.9117041 192.18345703 332.46842773 191.18991211 332.01171875 190.16625977 C322.13458912 168.29424491 310.27383458 147.98797882 295.35498047 129.17700195 C294.66146484 128.28368164 293.96794922 127.39036133 293.25341797 126.4699707 C291.32123327 124.00901941 289.34805137 121.5888795 287.35498047 119.17700195 C286.53384766 118.17024414 285.71271484 117.16348633 284.86669922 116.1262207 C273.8794867 102.85691362 261.73867521 89.83042538 248.06225586 79.30126953 C245.25648661 77.0997186 242.55430789 74.8025363 239.84326172 72.4855957 C233.68849274 67.3075272 227.19529231 62.72785132 220.47998047 58.30200195 C219.89882477 57.91681396 219.31766907 57.53162598 218.71890259 57.13476562 C133.77835326 0.97868567 25.03344579 -11.99522744 -161.02001953 82.7277832 Z " fill="#05D2D9" transform="translate(273.64501953125,-0.177001953125)"/>
<path d="M0 0 C9.11496608 3.33751879 16.37384669 3.12959657 25.81640625 1.03125 C25.81640625 16.21125 25.81640625 31.39125 25.81640625 47.03125 C18.8350497 50.52192827 10.19720554 50.20469955 2.765625 47.91015625 C1.42520716 47.45987364 0.08791084 47.00019154 -1.24609375 46.53125 C-9.63596713 43.63696241 -18.07884541 41.57610913 -26.46484375 45.609375 C-29.1440582 47.3080522 -31.66129536 49.11136463 -34.18359375 51.03125 C-34.51359375 51.03125 -34.84359375 51.03125 -35.18359375 51.03125 C-35.25956581 44.53515094 -35.31216047 38.03916615 -35.34838867 31.54272461 C-35.363489 29.33206908 -35.38397084 27.12144357 -35.40991211 24.91088867 C-35.4462403 21.73609007 -35.46330759 18.56168703 -35.4765625 15.38671875 C-35.49204636 14.39600876 -35.50753021 13.40529877 -35.52348328 12.38456726 C-35.52370987 11.46383926 -35.52393646 10.54311127 -35.52416992 9.59448242 C-35.53083176 8.7839592 -35.53749359 7.97343597 -35.5443573 7.13835144 C-35.09558547 4.51722251 -34.28063972 3.61974222 -32.18359375 2.03125 C-31.52359375 2.03125 -30.86359375 2.03125 -30.18359375 2.03125 C-30.18359375 1.37125 -30.18359375 0.71125 -30.18359375 0.03125 C-20.83539553 -5.44086603 -9.62183734 -4.0150737 0 0 Z " fill="#02D0D7" transform="translate(424.18359375,165.96875)"/>
</svg>
