<?xml version="1.0" encoding="utf-8"?>
<!-- Generator: Adobe Illustrator 27.6.1, SVG Export Plug-In . SVG Version: 6.00 Build 0)  -->
<svg version="1.1" id="Calque_1" xmlns="http://www.w3.org/2000/svg" xmlns:xlink="http://www.w3.org/1999/xlink" x="0px" y="0px"
	 viewBox="0 0 454.47 327.91" style="enable-background:new 0 0 454.47 327.91;" xml:space="preserve">
<style type="text/css">
	.st0{fill:#E9F0FA;}
	.st1{fill:#FFFFFF;}
	.st2{fill:#44608F;}
	.st3{opacity:0.4;fill:#FFFFFF;}
	.st4{opacity:0.6;fill:#82AFBB;}
	.st5{fill:#484A86;}
	.st6{fill:url(#SVGID_1_);}
	.st7{fill:#4575B1;}
	.st8{fill:#749DD3;}
	.st9{fill:#6A6A69;}
	.st10{fill:#3F403F;}
	.st11{fill:#EBC7A4;}
	.st12{fill:#B17B44;}
	.st13{fill:#E0BFAC;}
	.st14{fill:#B07862;}
	.st15{fill:#214B59;}
	.st16{fill:#19162D;}
	.st17{enable-background:new    ;}
	.st18{fill:#FDFDFE;}
	.st19{fill:#B16D56;}
	.st20{fill:#324673;}
	.st21{fill:#64362A;}
	.st22{fill:#1A162E;}
	.st23{opacity:0.6;fill:#1A162E;}
</style>
<g>
	<g>
		<path class="st0" d="M98.86,118.12C200.43,81.49,200.57-1.35,327.6,43.8c88,31.28,141.79,122.59,123.21,197.48
			c-14.01,56.49-50.88,97.03-113.74,80.08c-62.86-16.95-118.12-3.1-167.8,5.12C106.75,336.82,13.91,289.77,2.09,231.1
			C-9.73,172.43,29.45,143.15,98.86,118.12z"/>
	</g>
	<g>
		<circle class="st1" cx="181.59" cy="103" r="68.68"/>
		<path class="st2" d="M282.78,102.7C282.78,45.98,236.8,0,180.09,0S77.39,45.98,77.39,102.7c0,17.02,4.14,33.07,11.47,47.2h0
			c0,0,9.12,28.81,39.45,65.88c28.08,34.31,51.78,56.78,51.78,56.78s23.7-22.47,51.78-56.78c30.33-37.06,39.45-65.88,39.45-65.88h0
			C278.64,135.76,282.78,119.71,282.78,102.7z M181.37,165.33c-0.43,0-0.86-0.02-1.28-0.03c-0.43,0.01-0.85,0.03-1.28,0.03
			c-33.72,0-61.05-27.33-61.05-61.05c0-33.72,27.33-61.05,61.05-61.05c0.43,0,0.86,0.02,1.28,0.03c0.43-0.01,0.85-0.03,1.28-0.03
			c33.72,0,61.05,27.33,61.05,61.05C242.42,138,215.09,165.33,181.37,165.33z"/>
		
			<ellipse transform="matrix(0.5812 -0.8137 0.8137 0.5812 2.125 116.5044)" class="st3" cx="114.26" cy="56.19" rx="27.44" ry="13.17"/>
	</g>
	<g>
		<ellipse class="st4" cx="80.56" cy="265.86" rx="63.96" ry="5.21"/>
		<path class="st5" d="M72.99,137.92c0.21,0,0.4-0.13,0.45-0.34l3.17-11.59c0.07-0.24-0.08-0.5-0.33-0.56
			c-0.25-0.06-0.51,0.08-0.57,0.32l-3.17,11.59c-0.07,0.24,0.08,0.5,0.33,0.56C72.91,137.91,72.95,137.92,72.99,137.92z"/>
		<linearGradient id="SVGID_1_" gradientUnits="userSpaceOnUse" x1="45.4525" y1="192.5753" x2="109.9664" y2="192.5753">
			<stop  offset="0" style="stop-color:#102E47"/>
			<stop  offset="1" style="stop-color:#082635"/>
		</linearGradient>
		<path class="st6" d="M45.75,121.83l50.01-1.43c0.52,9.22,1.74,34.66,2.67,48.77c2.03,39.46,5.84,89.68,5.84,89.68l5.69,5.89H95.9
			l-17.36-95.57l-5.51-27.95l-3.49,0.07l-2.34,27.88l-9.42,95.57H45.94l2.94-5.38c0,0-2.18-44.48-3.17-90.2
			C45.38,156.8,45.33,133.37,45.75,121.83z"/>
		<path class="st7" d="M29.47,88.87c0.04-0.85,0.19-1.85,0.51-2.8c0.46-3.25,1.81-6.4,3.15-9.5c2.99-6.93,5.97-13.86,8.96-20.79
			c1.13-2.63,3.34-6,5.12-8.39c3.75-5.06,9.32-6.72,16.34-6.69c3.27,0.01-5.45,13.18-7.53,16.4c-3.08,4.76-4.08,10.53-8.87,19.52
			c-1.6,3.01-2.88,7.67-4.75,11.21c0.04,0.65,0.04,1.31,0.04,1.95c-0.05,4.64-0.09,9.29-0.14,13.93c-0.04,4.2-0.19,8.12,0.87,12.21
			c0.43,1.65-0.2,3.38-1.75,4.58c-2.32,1.79-4.22,1.64-4.22,1.64c-2.92-6.28-5.42-12.75-6.73-19.39c-0.28-1.42-0.51-2.85-0.68-4.29
			C29.4,95.27,29.3,92.07,29.47,88.87z"/>
		<path class="st8" d="M44.5,126.24l52.06,2.15c-0.14-9.14-0.77-21.87-1.23-28.91c-0.04-0.45-0.06-0.89-0.07-1.3
			c-0.32-4.53-0.5-8.97-0.44-13.72c0-0.47,0-0.94,0.02-1.41c0.04-1.86,0.14-3.78,0.29-5.77c0.24-3.23,0.6-6.65,1.14-10.37
			c0.75-5.19,3.99-12.5,3.15-16.5c-1.05-4.85-5.37-8.61-10.64-10.15c-1.93-0.58-3.99-0.86-6.07-0.79l-21.63,0.71
			c-14.91,0.49-16.51,14.84-16.13,24.71c0.3,7.82,0.81,15.64,1.17,23.47c0.45,10.66,0.4,16.02-0.66,26.61
			C45.15,118.06,44.56,123.09,44.5,126.24z"/>
		<path class="st7" d="M64.07,86.33c6.56,2.93,22.36,8.64,25.58,10.42c1.78,0.98,3.7,1.91,5.69,2.73c-0.04-0.45-0.06-0.89-0.07-1.3
			c-0.32-4.53-0.5-8.97-0.44-13.72c-6.4-1.42-13.12-3.32-17.53-5.16c-1.77-0.72-8.08-4.19-9.29-2.25c-0.9,1.47-2.82,3.15-4.6,4.53
			C61.68,82.91,62.03,85.42,64.07,86.33z"/>
		<path class="st9" d="M56.12,60.32c-0.01,0.14,0,0.28,0.03,0.43l4.2,15.91c0.2,0.74,1.02,1.32,1.83,1.29l9.08-0.21
			c0.3-0.02,0.57-0.1,0.77-0.24l0-0.02c0.32-0.25,0.47-0.65,0.34-1.11l-4.19-15.93c-0.19-0.72-1.01-1.3-1.82-1.27l-9.08,0.21
			C56.64,59.4,56.19,59.78,56.12,60.32z"/>
		<path class="st10" d="M56.12,60.32c-0.01,0.14,0,0.28,0.03,0.43l4.2,15.91c0.2,0.74,1.02,1.32,1.83,1.29l9.08-0.21
			c0.3-0.02,0.57-0.1,0.77-0.24l0-0.02c0.03-0.14,0.02-0.28-0.03-0.43l-4.19-15.93c-0.19-0.72-1.01-1.3-1.84-1.28l-9.08,0.21
			C56.58,60.08,56.32,60.16,56.12,60.32z"/>
		<path class="st11" d="M70.04,74.68c3.1,1.35,3.58,5.73,4.8,7.29c1.47,1.89-1.53,2.5-4.79,2.1c-2.92-0.36-6.49-1.59-7.66-2.97
			c-0.98-1.17-2.25-2.56-2.13-6.1C60.35,72.11,65.99,72.92,70.04,74.68z"/>
		<path class="st8" d="M72.14,77.19c1.19-1.35,2.45-0.36,4.21,0.16c6.31,1.89,17.24,1.42,25.4,2.39c-0.55-1.3-1.07-2.55-1.56-3.65
			c-4.82-10.95-7.66-15.57-9.51-19.49c-1.73-3.66-9.61-16.99-6.38-17.09c8.22-0.27,13.08,1.59,16.42,7.25
			c7.02,11.88,10.5,22.03,12.82,28.28c1.5,4.04,3.43,6.63,3.71,10.55c0.01,0.11,0.01,2.65,0.02,2.77c0.09,1.87-0.24,1.03-1.19,2.11
			c-0.1,0.19-0.18,0.38-0.29,0.57c-2.14,3.79-16.43,3.07-26.01-0.75c-4.54-1.81-18.42-8.16-18.42-8.16S70.19,79.41,72.14,77.19z"/>
		<path class="st12" d="M64.63,40.06c0.12,0.47,0.29,0.89,0.52,1.3c1.13,2.15,3.61,3.48,6.87,3.37c3.76-0.12,7.57-2.13,10.12-4.98
			c0.09-0.09,0.18-0.2,0.26-0.29L64.63,40.06z"/>
		<path class="st13" d="M80.56,29.08v10.97c0,0-8.31,9.39-15.94,0.22l0.67-11.19H80.56z"/>
		<path class="st14" d="M72.43,36.58c0.2,0.03,0.41,0.05,0.61,0.07c2.56,0.2,4.92-0.55,6.83-2.15c0.17-0.15,0.18-0.4,0.01-0.56
			c-0.17-0.16-0.45-0.18-0.62-0.03c-1.74,1.46-3.88,2.13-6.18,1.96c-2.41-0.19-4.47-1.35-6.12-3.47c-0.14-0.18-0.42-0.23-0.61-0.11
			c-0.2,0.12-0.24,0.37-0.1,0.55C67.9,34.94,70.03,36.23,72.43,36.58z"/>
		<path class="st11" d="M83.67,16.6c1,8.95-0.13,18.62-6.94,19.25c-7.09,0.66-14.57-3.51-15.57-12.46c-1-8.95,3.66-17.4,10.4-18.87
			C78.3,3.05,82.67,7.66,83.67,16.6z"/>
		<path class="st15" d="M83.07,8.43c0.32-0.84,0.22-1.83-0.47-2.94c-0.14-0.22-0.3-0.45-0.49-0.68c-0.79-1.03-1.94-1.99-2.98-2.82
			C79.09,1.99,79.05,1.99,79.02,2C73.86,0.37,67.9-0.02,63.23,2.3c-2.28,1.1-3.55,2.75-4.14,4.65c-1.21,2.56-0.85,6.69-0.19,9.8
			c0.18,0.85,0.38,1.61,0.58,2.26c0.91,2.98,2.07,7.02,4.48,9.28c0.5,0.41,1.31,0.83,2.05,0.74c0.04-0.01,0.07-0.01,0.11-0.02
			c-0.09-0.13-0.17-0.28-0.25-0.43c-0.24-0.9-0.19-1.92-0.19-2.81c-0.37,0.34-0.66,0.51-1,0.53c-0.33,0.03-0.69-0.1-1.18-0.4
			c-1.28-0.7-1.72-2.05-1.78-3.45c0-0.36,0.06-0.99,0.21-1.59c0.01-0.01,0.01-0.02,0.01-0.03c0.11-0.43,0.28-0.83,0.52-1.1
			c0.19-0.21,0.41-0.35,0.7-0.35c0.39,0,1.07,0.51,1.41,0.94c0.03,0.04,0.05,0.08,0.08,0.11c0.07,0.43,0.17,0.85,0.27,1.26
			c0.11,0.48,0.25,0.96,0.4,1.42c0.57,0.28,1.14,0.66,1.77,0.73l0.02-0.31c-0.9-2.58-0.88-5.3-0.78-8.03
			c0.02-0.66,0.06-1.33,0.08-1.99c0.02-0.62,0.04-1.23,0.04-1.85l-0.01-0.1c2.81-0.18,5.66-0.36,8.07-1.39
			c-0.94,0.42-1.73,0.99-2.45,1.63c-0.25,0.21-0.48,0.43-0.71,0.65c-0.56,0.53-1.1,1.07-1.65,1.58c3.19,0.23,7.97-1.56,11.21-3.55
			c0.47-0.29,0.9-0.58,1.29-0.87l0.01,0.01l0.01,0.02c0.06,0.7,0.11,1.41,0.14,2.14c0.14,2.56,0.15,5.22-0.1,7.81
			c0.04,0,0.1,0.01,0.15,0.01c0.13-0.68,0.32-1.35,0.51-2.02c0.25-0.9,0.48-1.81,0.55-2.77C83.63,12.95,84.07,10.17,83.07,8.43z"/>
		<path class="st11" d="M45.82,119.05C45.82,119.05,45.34,119.04,45.82,119.05c-0.78-0.72-1.63-1.53-2.47-2.26
			c-0.11,0.14-0.26,0.25-0.34,0.42c-1.03,2.08-2.02,3.84-6.17,4.53c0.7,1.09,1.36,1.94,5.18,4.72c2.81,1.6,4.99,1.85,6.74,1.66
			c1.41-0.15,2.49-1.36,2.47-2.12C49.26,123.35,47.2,120.36,45.82,119.05z"/>
		<polygon class="st16" points="51.19,259.03 58.3,259.44 57.69,264.75 42.64,264.75 		"/>
		<polygon class="st16" points="121.37,264.93 101.73,264.93 100.24,263.06 98.99,264.93 95.55,264.93 95.55,256.33 105.32,254.56 
			110.18,260.49 121.37,263.82 		"/>
	</g>
	<g>
		<g id="XMLID_90_" class="st17">
			<path id="XMLID_91_" class="st18" d="M337.36,169.27h-3.53v-6.43h-5.75v-3.64h5.75v-6.43h3.53v6.43h5.75v3.64h-5.75V169.27z"/>
		</g>
		<path class="st19" d="M362.59,37.01c0,0,7.3-8.91,5.16-19.15c-1.13-5.4-15.13-9.39-19.92-9.39c-4.79,0-5.46,6.26-5.46,6.26
			s-4.36,10.32-5.07,12.24l1.29,3.73c0,0-5.27,9.21-2.35,10.61c1.73,0.82,10.15,1.5,10.15,1.5l1.2,13.63l14.52-4.34L362.59,37.01z"
			/>
		<path class="st20" d="M353.3,18.55c0.31-3.23-5.63-4.73-9.17-5.76c-2.25-0.65-0.08-4.33,2.75-5.56
			c5.24-2.28,12.81,2.69,12.81,2.69s7.72,3.52,8.94,8.41s-3.05,17.91-3.05,17.91s2.87-1.36-2.33-2.59s1.12-6.85-1.67-7.12
			s-4.53,4.63-4.53,4.63l-2.66-1.38C354.39,29.78,353,21.78,353.3,18.55z"/>
		<polygon class="st21" points="359.85,35.95 354.43,44.99 349.47,45.97 348.93,44.34 354.13,43.83 359.27,35.95 		"/>
		<polygon class="st20" points="327.99,275.26 343.49,279.6 347.83,223.36 346.09,207.62 353.05,157.73 366.97,204.61 398.3,279.62 
			413.61,279.62 399.31,228.79 385.24,197.75 380.89,133.62 348.01,131.57 329.03,129.6 		"/>
		<path class="st20" d="M300.1,133.95c0,0,9.92-42.27,12.01-45.15c1.32-1.82,8.95-21.27,16.29-28.94l6.64-7.65l0.76-0.05
			c0.13-0.13,0.2-0.2,0.2-0.2l-0.02,0.19l9.08-0.64l4.52,21.65l18.09-23.93c0,0,14.04,5.94,21.41,14.78s15.32,30.45,15.84,38.8
			c0.52,8.35,0.52,39.85,0.52,39.85l-12.32-0.95l-4.04-34.44l-8.88-17.19l-1.57,17.69l2.96,27.68l-55.69-3.52l6.26-48.56l0.13,2.84
			l-11.87,17.37l-7.26,31.59L300.1,133.95z"/>
		<polygon class="st20" points="344.69,204.94 346.15,222.53 342.96,278.09 347.9,221.68 346.29,205.11 353.05,157.73 351.13,151.2 
					"/>
		<line class="st20" x1="375.5" y1="207.79" x2="380.72" y2="213.15"/>
		<polygon class="st22" points="303.62,287.32 333.56,287.32 335.82,285.31 337.73,287.32 342.96,287.32 342.96,278.09 
			328.08,276.18 320.68,282.55 303.62,286.13 		"/>
		<polygon class="st22" points="398.99,288.49 413.91,287.79 414.31,283.97 412.22,279.62 398.99,280.12 		"/>
		<polygon class="st1" points="350.29,69.18 367.14,49.74 364.92,49.44 353.05,55.6 348.01,50.51 345.05,51.52 		"/>
		<polygon class="st19" points="389.35,153.4 391.73,154.62 394.94,151.23 395.66,156.72 391.4,165.33 394.16,165.43 399.49,159.29 
			403.33,153.22 403.52,147.9 402.67,143.43 396.29,142.28 		"/>
		<polygon class="st23" points="381.07,135.96 354.44,134.96 329.55,131.95 381.42,134.12 		"/>
		<polygon class="st23" points="391.68,127.71 389.07,107.27 380.2,90.09 380.72,87.74 390.63,107.22 		"/>
		<line class="st20" x1="377.68" y1="206.62" x2="385.84" y2="214.64"/>
		<line class="st20" x1="331.12" y1="205.11" x2="336.34" y2="210.47"/>
		<polygon class="st23" points="332.69,82.98 332.6,85.37 320.42,103.6 		"/>
		<polygon class="st19" points="314.15,147.15 311.56,147.96 309.11,144.1 307.27,149.37 309.7,158.54 306.97,158.18 302.99,151.26 
			300.46,144.65 301.37,139.4 303.12,135.14 309.61,135.07 		"/>
		<path class="st20" d="M285.07,154.45v30.62h42.12v-30.62h-9.13v-8.67H294.2v8.67H285.07z M316.17,154.45h-20.08v-7.3h20.08V154.45
			z"/>
	</g>
</g>
<g>
</g>
<g>
</g>
<g>
</g>
<g>
</g>
<g>
</g>
<g>
</g>
</svg>
