<?xml version="1.0" encoding="utf-8"?>
<!-- Generator: Adobe Illustrator 27.6.1, SVG Export Plug-In . SVG Version: 6.00 Build 0)  -->
<svg version="1.1" id="Calque_1" xmlns="http://www.w3.org/2000/svg" xmlns:xlink="http://www.w3.org/1999/xlink" x="0px" y="0px"
	 viewBox="0 0 443.66 400.81" style="enable-background:new 0 0 443.66 400.81;" xml:space="preserve">
<style type="text/css">
	.st0{fill:#E9F0FA;}
	.st1{fill:#C5DAEF;}
	.st2{fill:#294D7E;}
	.st3{fill:#7AA9D7;}
	.st4{fill:#D7E7F6;}
	.st5{fill:#FFFFFF;}
	.st6{fill:#44608F;}
	.st7{fill:#749DD3;}
	.st8{opacity:0.3;fill:#C7D0DD;}
	.st9{fill:#202E54;}
	.st10{fill:#153F5E;}
	.st11{fill:#EA9F89;}
	.st12{fill:#17425D;}
	.st13{fill:#EBA087;}
	.st14{fill:#EAB190;}
	.st15{fill:#EA9F88;}
	.st16{fill:#EFB391;}
	.st17{fill:#1E3155;}
</style>
<g>
	<g>
		<g>
			<g>
				<path class="st0" d="M62.72,242.37c80.69,73.87,50.84,173.61,184.67,156.51c92.71-11.85,175.5-106,185.42-201.58
					c7.48-72.11-11.95-131.7-76.22-129.73c-64.28,1.97-110.37-30.9-153.34-55.35C149.16-18.57,46.27,10.85,14.1,78
					C-18.06,145.15,7.58,191.89,62.72,242.37z"/>
			</g>
		</g>
		<g>
			<path class="st1" d="M428.92,333.49h-316.6c-8.11,0-14.75-6.64-14.75-14.75v-207.3c0-8.11,6.64-14.75,14.75-14.75h316.6
				c8.11,0,14.75,6.64,14.75,14.75v207.3C443.66,326.85,437.03,333.49,428.92,333.49z"/>
			<path class="st2" d="M428.92,98.39h-316.6c-8.11,0-14.75,6.64-14.75,14.75v188.22h346.09V113.13
				C443.66,105.02,437.03,98.39,428.92,98.39z"/>
			<rect x="235.06" y="333.49" class="st3" width="71.13" height="31.23"/>
			<rect x="109.72" y="111.44" class="st4" width="321.8" height="175.21"/>
			<path class="st3" d="M277.13,320.48h-13.01c-2.86,0-5.2-2.34-5.2-5.2l0,0c0-2.86,2.34-5.2,5.2-5.2h13.01c2.86,0,5.2,2.34,5.2,5.2
				l0,0C282.33,318.13,279.99,320.48,277.13,320.48z"/>
			<path class="st1" d="M335.68,375.99v-1.73c0-5.25-4.29-9.54-9.54-9.54H215.11c-5.25,0-9.54,4.29-9.54,9.54v1.73H335.68z"/>
		</g>
		<g>
			<rect id="XMLID_22_" x="158.99" y="117.85" class="st4" width="222.29" height="161.98"/>
			<rect id="XMLID_21_" x="298.62" y="131.82" class="st5" width="70.52" height="56.86"/>
			<rect id="XMLID_20_" x="172.38" y="131.82" class="st5" width="114.93" height="134.67"/>
			<path id="XMLID_19_" class="st6" d="M253.05,216.94c0,4.36-1.21,8.44-3.32,11.92l13.41,8.1c3.54-5.84,5.57-12.69,5.57-20.02
				H253.05z"/>
			<path id="XMLID_18_" class="st6" d="M214.23,252.09c4.76,2.1,10.03,3.26,15.57,3.26c14.05,0,26.56-7.19,33.34-18.39l-13.41-8.1
				c-4.04,6.67-11.57,10.82-19.93,10.82c-3.3,0-6.43-0.7-9.27-1.95L214.23,252.09z"/>
			<path id="XMLID_17_" class="st2" d="M214.28,252.06l6.37-14.32c-5.21-2.32-9.41-6.52-11.71-11.75l-14.34,6.33
				C198.48,241.1,205.52,248.16,214.28,252.06z"/>
			<path id="XMLID_16_" class="st2" d="M194.57,232.3l14.34-6.33c-1.26-2.85-1.96-5.99-1.96-9.3c0-4.13,1.09-8,2.99-11.35
				l-13.64-7.72c-3.19,5.63-5.02,12.14-5.02,19.07C191.28,222.23,192.46,227.52,194.57,232.3z"/>
			<path id="XMLID_15_" class="st2" d="M222.79,195.09l-4.98-14.86c-9.19,3-16.87,9.34-21.6,17.59l13.64,7.72
				C212.69,200.62,217.29,196.85,222.79,195.09z"/>
			<path id="XMLID_14_" class="st7" d="M230.01,178.24c-4.26,0-8.36,0.7-12.19,1.97l4.93,14.87c2.28-0.76,4.72-1.17,7.26-1.17
				c12.72,0,23.04,10.31,23.04,23.04h15.67C268.72,195.57,251.39,178.24,230.01,178.24z"/>
			<g id="XMLID_10_">
				<rect id="XMLID_13_" x="182.2" y="145.87" class="st7" width="95.29" height="4.07"/>
				<rect id="XMLID_12_" x="182.18" y="155.33" class="st7" width="95.29" height="4.07"/>
				<rect id="XMLID_11_" x="182.14" y="164.52" class="st7" width="95.29" height="4.07"/>
			</g>
			<rect id="XMLID_9_" x="298.62" y="195.19" class="st5" width="70.52" height="71.31"/>
			<g id="XMLID_5_">
				<rect id="XMLID_8_" x="310.06" y="228.81" class="st7" width="47.64" height="4.07"/>
				<rect id="XMLID_7_" x="310.05" y="238.26" class="st7" width="47.64" height="4.07"/>
				<rect id="XMLID_6_" x="310.03" y="247.45" class="st7" width="47.64" height="4.07"/>
			</g>
			<path id="XMLID_4_" class="st7" d="M362.63,182.88h-57.5c-0.87,0-1.57-0.68-1.57-1.51c0-0.83,0.7-1.51,1.57-1.51h57.5
				c0.87,0,1.57,0.68,1.57,1.51C364.2,182.2,363.5,182.88,362.63,182.88z"/>
			<polygon id="XMLID_3_" class="st2" points="350.68,155.18 338.67,163 332.17,159.88 318.74,165.8 307.45,159.47 307.45,153.77 
				318.13,157.83 326.82,153.94 338.5,141.08 345.63,147.3 362.63,134.79 362.63,164.45 			"/>
			<polygon id="XMLID_2_" class="st7" points="318.5,170.66 332.09,164.66 339.01,167.99 350.45,160.54 362.63,170 362.63,174.47 
				307.45,174.47 307.45,164.46 			"/>
		</g>
		<g>
			<ellipse class="st8" cx="89.27" cy="362.9" rx="57.99" ry="9.98"/>
		</g>
	</g>
	<path class="st9" d="M73.34,228.6c0.48,8.25,0.1,10.59,2.35,21.06c3.49,16.21,3.1,12.39,3.43,14.66c1.55,4,6.12,21.58,7.8,24.96
		c0.1,6.85,1.12,12.24,3.12,20.59c2.38,9.97,9.31,26.88,12.81,36.14l6.92-1.65c-1.01-18.46-3.6-43.79-7.53-71.68
		c-2.52-17.86-0.09-34.43-2.84-48.92L73.34,228.6z"/>
	<g>
		<g>
			<path class="st10" d="M58.33,226.88c-1.72,8.13-2.01,17.07-2.29,27.77c-0.44,16.58,2.38,24.15,2.13,26.44
				c0.68,4.25,1.54,8.25,2.55,11.93c-1.78,6.69-2.81,14.67-2.81,23.26c0,10.25,0.62,21.85,2.1,31.67h8.44
				c3.92-18.19,7.92-43.43,11.07-71.46c2.02-17.96,3.44-34.86,4.25-49.59H58.33z"/>
			<ellipse class="st10" cx="83.18" cy="230.63" rx="17.16" ry="13.1"/>
		</g>
	</g>
	<g>
		<polygon class="st11" points="66.58,353.87 60.66,353.87 60.66,345.13 67.64,345.13 		"/>
		<path class="st12" d="M69.14,361.47v-0.6c0-0.63-0.09-1.21-0.25-1.69l-1.46-5.85c0,0-1.34,0.68-2.66,0.4
			c-1.31-0.28-1.25-2.18-2.64-3.12h-0.63c0,0-1.29,0.43-2.18,2.34c-0.65,1.38-0.87,4.16-1.29,5.07c-0.48,1.04-0.97,2.03-1.35,2.78
			c-0.42,0.3-0.76,0.75-0.94,1.3c-0.5,0-0.61,0.01-0.01,0.04c-0.09,0.29-0.15,0.6-0.15,0.93v1.27H69.6v-1.27
			C69.6,362.46,69.42,361.91,69.14,361.47z M64.08,360.42v0.01h-0.4l0.01-0.01H64.08z"/>
	</g>
	<g>
		<polygon class="st11" points="111.02,352.33 106.08,353.84 103.52,345.49 109.34,343.7 		"/>
		<path class="st12" d="M101.02,358.45l2.14-6.03c0,0,3.16,0.7,5.09,0.41c1.93-0.29,1.92-2.05,2.69-3.22h2.57
			c0,0,3.38,5.99,10.01,7.49h4.97c1.16,0,2.11,1.39,2.11,3.09v1.37h-20.88l-1.05-1.84h-0.58v1.84h-7.43v-1.37
			C100.65,359.54,100.79,358.94,101.02,358.45z"/>
	</g>
	<path class="st13" d="M69.7,149.58c2.13,1.02,4.54,1.6,7.11,1.6c2.94,0,5.68-0.77,8.01-2.08c-0.92-1.53-1.48-3.53-1.48-5.72
		c0-2.98,1.03-5.61,2.6-7.19v-3.73h-9.49C76.03,139.42,73.47,145.51,69.7,149.58z"/>
	<path class="st14" d="M90.75,126.78c0.4-5.43-5.52-6.06-9.88-6.38c-2.8-0.21-5.33,0.01-7.16,2.77c-0.46-0.66-1.47,0.51-2.19,0.48
		c-1.48-0.06-2.41,0.41-2.49,2.5c-0.08,2.09,0.72,5.01,2.21,5.07c0.07,0,0.14-0.02,0.21-0.02c0.05,1.7-0.58,3.01,0.15,4.4
		c1.44,2.73,5.02,5,7.61,5.75C87.67,143.8,90.35,132.21,90.75,126.78z"/>
	<g>
		<g>
			<g>
				<g>
					<path class="st15" d="M110.2,181.98l0.74,12.83c-6.94,1.64-11.38,4.56-12.86,9.08c-2.63-2.87-4.12-7.69-4.51-14.45
						c-0.09-1.56-0.12-3.97,0-5.45L110.2,181.98z"/>
				</g>
			</g>
		</g>
		<path class="st16" d="M98.04,204.15c1.21-7.51,6.01-8.93,12.09-9.65l0,0l26.74-1.54c0.73-1.32,2.5-2.41,4.82-2.97
			c0.43-0.1,0.96,0.52,0.99,0.93c0.11,1.89-1.11,3.65,2.59,3.54c1.71-0.05,5.11-0.25,6.93-0.59c0.46-0.09,2.02-0.06,1.07,1.32
			c-1.51,2.18-5.16,5.05-9.13,5.17c-2.51,0.07-4.46-0.91-5.77-2.21c-8.55,3.82-24.15,8.16-33,8.42
			C102.4,206.66,99.96,205.84,98.04,204.15z"/>
	</g>
	<path class="st7" d="M59.03,229.38c0.49,0,39.67,0,40.61,0c0.93,0,0.75-2.6,0.62-2.96c-0.78-2.33-1.58-2.96-2.1-5.6
		c-0.82-4.19-1.29-8.74-1.29-13.59c0-15.31,4.61-29.77,10.65-38.31c-4.01-9.94-11.73-17.63-21.22-20.86
		c-2.12,1.84-5.25,3.01-8.76,3.01c-3.87,0-7.29-1.43-9.38-3.6c-11.12,2.99-20.12,12-24.05,23.74c8.77,3.87,15.4,21.59,15.4,42.89
		c0,3.33-0.17,6.56-0.48,9.68c-0.17,1.7-0.89,2.43-0.98,3.04C57.82,228.5,58.54,229.38,59.03,229.38z"/>
	<g>
		<g>
			<g>
				<g>
					<path class="st15" d="M60.14,182.11l-0.48,15.37c-7.58,1.49-12.62,4.67-14.65,9.97c-2.52-3.61-3.65-9.46-3.39-17.56
						c0.06-1.87,0.27-4.75,0.54-6.5L60.14,182.11z"/>
				</g>
			</g>
		</g>
		<path class="st16" d="M44.94,207.75c2.03-8.89,7.31-10.25,13.89-10.69l0,0l28.75-0.02c0.91-1.52,2.92-2.71,5.45-3.22
			c0.47-0.09,0.98,0.68,0.96,1.18c-0.07,2.26-1.55,4.28,2.42,4.41c1.83,0.06,5.49,0.05,7.47-0.23c0.5-0.07,2.17,0.07,1.01,1.65
			c-1.83,2.5-6.02,5.68-10.28,5.55c-2.69-0.08-4.68-1.38-5.95-3.04c-9.53,3.98-26.64,8.1-36.13,7.8
			C49.35,211.04,46.82,209.9,44.94,207.75z"/>
	</g>
	<g>
		<g>
			<g>
				<path class="st17" d="M95.77,120.41c0.46-4.37-0.89-7.18-7.9-8.01c-4.66-0.55-12.55-0.6-17.54,0.39
					c-5.09,1.01-4.37,4.97-4.17,6.69c0.48,4.24,1.75,10.48,3.81,11.15c0.48,0.16,0.88,0.06,1.25-0.21c-0.68-0.42-1.27-1.21-1.55-2.2
					c-0.47-1.67,0.13-3.25,1.33-3.54c0.98-0.24,2.05,0.47,2.67,1.65c1.58-2.98,3.95-5.93,9.81-3.23
					C89.88,126.06,95.31,124.78,95.77,120.41z"/>
			</g>
		</g>
		<path class="st7" d="M72.59,183.81c13.29,0,25.96-0.7,37.46-1.96c-0.63-16.4-10.59-30.12-24.15-34.74
			c-2.12,1.84-5.25,3.01-8.76,3.01c-3.87,0-7.29-1.43-9.38-3.6c-14.74,3.96-25.76,18.5-26.17,35.98
			C51.31,183.34,61.74,183.81,72.59,183.81z"/>
	</g>
</g>
<g>
</g>
<g>
</g>
<g>
</g>
<g>
</g>
<g>
</g>
<g>
</g>
</svg>
