<?xml version="1.0" encoding="utf-8"?>
<!-- Generator: Adobe Illustrator 27.6.1, SVG Export Plug-In . SVG Version: 6.00 Build 0)  -->
<svg version="1.1" id="Calque_1" xmlns="http://www.w3.org/2000/svg" xmlns:xlink="http://www.w3.org/1999/xlink" x="0px" y="0px"
	 viewBox="0 0 478.9 354.67" style="enable-background:new 0 0 478.9 354.67;" xml:space="preserve">
<style type="text/css">
	.st0{fill:#E9F0FA;}
	.st1{fill:#FFFFFF;}
	.st2{fill:#749DD3;}
	.st3{fill:#BEBDBE;}
	.st4{fill:#324673;}
	.st5{fill:#153F5E;}
	.st6{fill:#0E263A;}
	.st7{fill:#1A162E;}
	.st8{fill:#F3C6A0;}
	.st9{fill:#2E5E83;}
	.st10{fill:#2B587C;}
	.st11{fill:#E8BEA9;}
	.st12{fill:#BB745D;}
	.st13{fill:#11353E;}
	.st14{fill:#0F3553;}
	.st15{fill:#C3D6ED;}
	.st16{fill:#A2BAD3;}
</style>
<g>
	<path class="st0" d="M471.57,148.18c22.4,52.1-1.29,203.83-146.12,192.96c-41.55-3.12-88.13-41.3-122.64-33.22
		c-34.51,8.08-50.76,40.15-115.67,29.57c-64.91-10.57-79.99-64.82-66.12-105.15c13.87-40.33-23.78-53.17-20.87-87.57
		c2.67-31.46,51.22-38.38,73.61-63.02C96.15,57.1,105.16,8.88,155.62,8.46c56.22-0.47,54.08,63.91,129.45,54.53
		C368.36,52.62,443.32,82.46,471.57,148.18z"/>
	<g>
		<path class="st0" d="M313.09,278.96c-75-15.17-72.57-42.43-169.17-31.47c-66.92,7.59-110.04,35.98-98.41,61.19
			c8.77,19.02,35.16,33.49,82.8,29.84c47.64-3.65,88.63,2.61,125.61,6.84c46.54,5.32,117.58-7.31,128.24-26.25
			C392.82,300.16,364.35,289.32,313.09,278.96z"/>
	</g>
	<g>
		<rect x="223.6" y="9.94" class="st1" width="211.78" height="152.72"/>
		<rect x="223.6" y="10.09" class="st2" width="211.78" height="38.21"/>
		<g>
			<rect x="256.71" y="61.51" class="st2" width="145.56" height="4.37"/>
			<rect x="271.26" y="71.27" class="st2" width="131.01" height="4.37"/>
			<rect x="256.71" y="71.27" class="st2" width="9.46" height="4.37"/>
			<rect x="256.71" y="82.62" class="st3" width="145.56" height="4.37"/>
			<rect x="256.71" y="93.65" class="st3" width="96.66" height="4.37"/>
			<rect x="256.71" y="110.7" class="st2" width="131.01" height="4.37"/>
			<rect x="256.71" y="120.46" class="st2" width="109.17" height="4.37"/>
			<rect x="256.71" y="131.81" class="st3" width="145.56" height="4.37"/>
			<rect x="256.71" y="142.84" class="st3" width="96.66" height="4.37"/>
		</g>
		<g>
			<rect x="285.36" y="24.69" class="st1" width="109.48" height="10.11"/>
			<rect x="377.91" y="24.28" class="st4" width="23.53" height="10.92"/>
			<rect x="248.75" y="24.69" class="st4" width="30.83" height="10.11"/>
		</g>
		<path class="st5" d="M435.38,12.92V3.75c0-2.06-1.69-3.75-3.75-3.75H227.35c-2.06,0-3.75,1.69-3.75,3.75v9.17H435.38z"/>
	</g>
	<g>
		<path class="st1" d="M46.4,27.26h67.07c11.29,0,20.53,9.24,20.53,20.53v28.54c0,9.96-7.19,18.32-16.63,20.15v17.56l-18.5-17.18
			H46.4c-11.29,0-20.53-9.24-20.53-20.53V47.79C25.87,36.5,35.11,27.26,46.4,27.26z"/>
		<g id="XMLID_315_">
			<path id="XMLID_321_" class="st4" d="M45.88,62.24c0,2.29,0.64,4.43,1.74,6.25l-7.03,4.25c-1.86-3.06-2.92-6.66-2.92-10.5H45.88z
				"/>
			<path id="XMLID_320_" class="st4" d="M66.24,80.67c-2.5,1.1-5.26,1.71-8.17,1.71c-7.37,0-13.93-3.77-17.49-9.64l7.03-4.25
				c2.12,3.5,6.07,5.68,10.46,5.68c1.73,0,3.37-0.37,4.86-1.02L66.24,80.67z"/>
			<path id="XMLID_319_" class="st4" d="M66.21,80.66l-3.34-7.51c2.74-1.22,4.93-3.42,6.14-6.16l7.52,3.32
				C74.5,74.91,70.81,78.61,66.21,80.66z"/>
			<path id="XMLID_318_" class="st4" d="M76.55,70.29l-7.52-3.32c0.66-1.49,1.03-3.14,1.03-4.88c0-2.17-0.57-4.2-1.57-5.95
				l7.15-4.05c1.68,2.95,2.63,6.37,2.63,10C78.28,65.01,77.66,67.78,76.55,70.29z"/>
			<path id="XMLID_317_" class="st4" d="M61.75,50.77l2.61-7.8c4.82,1.57,8.85,4.9,11.33,9.23l-7.16,4.05
				C67.05,53.68,64.64,51.7,61.75,50.77z"/>
			<path id="XMLID_316_" class="st2" d="M57.96,41.93c2.24,0,4.38,0.37,6.39,1.03l-2.59,7.8c-1.2-0.4-2.48-0.62-3.81-0.62
				c-6.67,0-12.08,5.41-12.08,12.08h-8.22C37.66,51.02,46.75,41.93,57.96,41.93z"/>
		</g>
		<g id="XMLID_311_">
			<rect id="XMLID_314_" x="85.88" y="53.86" class="st2" width="35.19" height="2.65"/>
			<rect id="XMLID_313_" x="85.89" y="60.01" class="st2" width="35.19" height="2.65"/>
			<rect id="XMLID_312_" x="85.9" y="65.99" class="st2" width="35.19" height="2.65"/>
		</g>
	</g>
	<g>
		<g>
			<path class="st1" d="M183.32,252.4h-54.34c-0.92,0-1.68-0.76-1.68-1.68V240c0-0.92,0.76-1.68,1.68-1.68h54.34
				c0.92,0,1.68,0.76,1.68,1.68v10.72C185,251.64,184.24,252.4,183.32,252.4z"/>
			<g>
				<g>
					<g>
						<polygon class="st6" points="123.65,315.51 159.29,312.7 159.29,306.82 123.65,312.98 						"/>
						<polygon class="st6" points="194.92,315.51 159.29,312.7 159.29,306.82 194.92,312.98 						"/>
						<ellipse class="st6" cx="123.38" cy="321.12" rx="3.78" ry="3.93"/>
						<ellipse class="st6" cx="194.92" cy="320.55" rx="3.78" ry="3.93"/>
						<rect x="124.19" y="315.4" class="st6" width="1.37" height="2.63"/>
						<rect x="192.81" y="314.84" class="st6" width="1.37" height="2.63"/>
						<g>
							<ellipse class="st6" cx="159.29" cy="321.12" rx="3.78" ry="3.93"/>
							<rect x="158.6" y="314.3" class="st6" width="1.37" height="4.2"/>
							<rect x="157.13" y="311.16" class="st6" width="4.32" height="3.65"/>
						</g>
					</g>
					<g>
						<rect x="150.65" y="247.73" class="st6" width="17.28" height="32.01"/>
						<rect x="156.32" y="273.26" class="st6" width="5.94" height="33.93"/>
					</g>
				</g>
			</g>
			<g>
				<polygon class="st7" points="247.44,321.4 227.01,322.93 224.15,323.14 220.58,323.41 219.62,310.59 229.79,309.93 
					235.21,314.47 247.32,319.74 				"/>
				
					<rect x="219.62" y="305.7" transform="matrix(0.9972 -0.0746 0.0746 0.9972 -22.3644 17.593)" class="st8" width="9.09" height="4.55"/>
			</g>
			<g>
				<polygon class="st7" points="207.58,324.37 187.09,324.88 184.23,324.95 180.65,325.04 180.33,312.19 190.52,312.04 
					195.71,316.84 207.54,322.71 				"/>
				
					<rect x="180.45" y="307.53" transform="matrix(0.9997 -0.0249 0.0249 0.9997 -7.6543 4.701)" class="st8" width="9.09" height="4.55"/>
			</g>
			<path class="st9" d="M203.08,264.76c-4.75-8.95-29.14-4.88-46.34-19.51s26.73-16.57,26.73-16.57s25.27,13.98,29.82,15.28
				s7.04,6.37,8.6,14.69c1.56,8.32,13.27,51.29,13.27,51.29l-18.41,1.65C216.75,311.58,207.84,273.71,203.08,264.76z"/>
			<path class="st10" d="M173.2,261.57c-3.02-9.67-23.88-5.7-38.09-23.26s27.51-5.76,27.51-5.76s20.86,10.88,25.09,13
				c4.23,2.12,5.74,7.56,5.74,16.02c0,8.46,0,51.08,0,51.08h-14.81C178.64,312.65,176.22,271.24,173.2,261.57z"/>
			<path class="st2" d="M130.88,231.95c0,0,3.2,8.6,27.9,5.81s27.41-9.47,27.41-9.47s-2.11-41.08-4.53-53.77
				s-14.51-16.93-14.51-16.93l-10.41,4.29l-10.15-4.29c0,0-14.51-0.41-18.14,14.71C124.83,187.41,130.88,231.95,130.88,231.95z"/>
			<path class="st5" d="M158.93,238.01c-0.16,0.02-0.32,0.03-0.48,0.05c-6.86-21.35-11.7-54.96-11.7-80.22c0,0-0.26,2.81,10.53,4.29
				c10.79,1.48,8.95-4.29,8.95-4.29c5.78,12.32,4.86,55.55,10.16,76.68C172.37,235.85,166.75,237.13,158.93,238.01z"/>
			<g>
				<path class="st2" d="M185.22,182.85l1.03,13.57l18.21,17.64c0.24,3.15-5.11,6.75-8.26,6.99l-10.68-1.42
					c-0.61-10.47-1.87-29.99-3.33-41.4C183.86,179.12,185.07,180.83,185.22,182.85z"/>
			</g>
			<path class="st8" d="M155.6,216.1l2.79-5.48l17.9,5.19c2.21-0.54,5.03-0.87,8.11-0.87c7.06,0,12.79,1.72,12.79,3.84
				s-5.73,3.84-12.79,3.84c-4.59,0-8.62-0.73-10.87-1.82L155.6,216.1z"/>
			<path class="st2" d="M123.32,203.84c0.01-6.35,1.51-25.69,5.14-31.54c3.63-5.85,2.24-0.08,6.81,0.13v0
				c4.57,0.21,8.13,4.12,7.92,8.69c0,0-4.17,21.34-1.13,24.3c3.03,2.96,28.12,5.07,28.12,5.07v14.81c0,0-37.59-6.68-41.01-8.18
				C125.74,215.62,123.32,208.83,123.32,203.84z"/>
			<path class="st8" d="M195.39,220.59c0.61-2.13,1.97-4.08,3.9-5.71c1.84-0.31,3.95-0.48,6.2-0.48c7.06,0,12.79,1.72,12.79,3.84
				c0,2.12-5.73,3.84-12.79,3.84C201.38,222.08,197.73,221.49,195.39,220.59z"/>
			<g>
				<path class="st11" d="M165.2,149.02v11.3c0,0-8.83,9.68-16.93,0.23l0.71-11.53H165.2z"/>
				<path class="st12" d="M156.56,156.75c0.22,0.03,0.43,0.05,0.65,0.07c2.72,0.2,5.23-0.57,7.26-2.22
					c0.18-0.15,0.19-0.41,0.01-0.58c-0.18-0.17-0.48-0.19-0.66-0.03c-1.85,1.5-4.12,2.2-6.57,2.02c-2.56-0.19-4.75-1.39-6.5-3.57
					c-0.15-0.19-0.44-0.24-0.65-0.12c-0.21,0.12-0.25,0.38-0.1,0.57C151.75,155.07,154.01,156.39,156.56,156.75z"/>
				<path class="st8" d="M168.5,136.17c1.06,9.22-0.14,19.19-7.38,19.84c-7.53,0.68-15.48-3.62-16.54-12.84s3.89-17.93,11.05-19.45
					C162.8,122.2,167.44,126.95,168.5,136.17z"/>
				<path class="st13" d="M168.98,128.31c0.37-0.95,0.25-2.08-0.55-3.33c-0.16-0.25-0.34-0.51-0.57-0.78
					c-0.91-1.17-2.23-2.26-3.44-3.2c-0.04,0.01-0.09,0.01-0.12,0.01c-5.95-1.85-12.83-2.29-18.22,0.34
					c-2.64,1.25-4.1,3.12-4.77,5.28c-1.4,2.91-0.98,7.6-0.21,11.12c0.21,0.96,0.43,1.83,0.66,2.56c1.05,3.38,2.39,7.97,5.16,10.54
					c0.58,0.46,1.51,0.94,2.36,0.84c0.05-0.01,0.09-0.02,0.12-0.02c-0.1-0.15-0.2-0.31-0.29-0.48c-0.28-1.03-0.21-2.18-0.21-3.19
					c-0.42,0.38-0.76,0.58-1.15,0.6c-0.38,0.03-0.8-0.12-1.36-0.45c-1.47-0.8-1.99-2.32-2.05-3.91c0-0.41,0.07-1.13,0.25-1.81
					c0.01-0.01,0.01-0.02,0.02-0.03c0.13-0.48,0.32-0.94,0.6-1.24c0.22-0.24,0.48-0.4,0.81-0.4c0.46,0,1.23,0.58,1.63,1.06
					c0.03,0.04,0.06,0.09,0.09,0.12c0.09,0.48,0.19,0.96,0.32,1.43c0.13,0.54,0.29,1.08,0.46,1.61c0.65,0.32,1.31,0.75,2.04,0.83
					l0.03-0.35c-1.04-2.92-1.02-6.01-0.9-9.11c0.03-0.75,0.07-1.51,0.09-2.26c0.03-0.7,0.05-1.4,0.05-2.09l-0.01-0.11
					c3.24-0.2,6.53-0.41,9.31-1.58c-1.08,0.47-1.99,1.13-2.83,1.85c-0.28,0.24-0.55,0.49-0.82,0.74c-0.64,0.6-1.26,1.22-1.91,1.79
					c3.69,0.26,9.19-1.77,12.93-4.03c0.54-0.33,1.04-0.66,1.49-0.99l0.01,0.01l0.02,0.02c0.07,0.8,0.12,1.6,0.16,2.43
					c0.16,2.91,0.17,5.93-0.11,8.86c0.05,0,0.11,0.01,0.17,0.01c0.15-0.78,0.37-1.53,0.58-2.29c0.28-1.03,0.55-2.06,0.64-3.14
					C169.62,133.44,170.13,130.28,168.98,128.31z"/>
			</g>
			<path class="st13" d="M155.64,123.72c0,2.98,8.1,4.42,11.15,4.42c3.05,0,5.53-2.41,5.53-5.39s-2.47-5.39-5.53-5.39
				C163.74,117.36,155.64,120.74,155.64,123.72z"/>
			<path class="st13" d="M163.22,154.5c2.33-0.08,3.95-1,5.01-2.45c-0.48,4.08-2.19,7.32-6,7.63c-6,0.49-12.34-2.62-13.19-9.29
				c-0.08-0.64-0.12-1.28-0.11-1.91C151.85,152.64,157.71,154.69,163.22,154.5z"/>
			<g>
				<rect x="174.2" y="214.2" class="st1" width="30.36" height="4.25"/>
				<polygon class="st1" points="200.58,218.03 242.54,218.03 256.26,185.19 214.31,185.19 				"/>
				<polygon class="st14" points="202.55,218.03 244.51,218.03 258.23,185.19 216.28,185.19 				"/>
			</g>
		</g>
		<g>
			<rect x="79.94" y="216.74" class="st15" width="265.46" height="9.01"/>
			<rect x="30.07" y="216.74" class="st16" width="49.86" height="9.01"/>
			<polygon class="st15" points="82.71,354.67 88.36,354.67 111.13,225.75 99.94,225.75 			"/>
			<polygon class="st5" points="43.37,337.34 48.3,337.34 68.15,225.75 58.4,225.75 			"/>
			<polygon class="st15" points="345.4,354.67 339.75,354.67 316.98,225.75 328.17,225.75 			"/>
			<polygon class="st5" points="301.04,337.34 296.12,337.34 276.26,225.75 286.01,225.75 			"/>
		</g>
	</g>
	<g id="XMLID_300_">
		<g id="XMLID_306_">
			<path id="XMLID_310_" class="st4" d="M58.11,135.25v9.89h2.14v-9.89c0-0.71-0.48-1.29-1.07-1.29
				C58.59,133.96,58.11,134.54,58.11,135.25z"/>
			<path id="XMLID_309_" class="st4" d="M58.11,178.46c0,0.71,0.48,1.29,1.07,1.29c0.59,0,1.07-0.58,1.07-1.29v-9.29h-2.14V178.46z"
				/>
			<path id="XMLID_308_" class="st4" d="M36.29,156.85c0,0.59,0.58,1.07,1.29,1.07h9.89v-2.14h-9.89
				C36.87,155.79,36.29,156.26,36.29,156.85z"/>
			<path id="XMLID_307_" class="st4" d="M80.79,155.79H71.5v2.14h9.29c0.71,0,1.29-0.48,1.29-1.07
				C82.08,156.26,81.5,155.79,80.79,155.79z"/>
		</g>
		<g id="XMLID_301_">
			<path id="XMLID_305_" class="st4" d="M43.15,142.33l6.99,6.99l1.51-1.51l-6.99-6.99c-0.5-0.5-1.25-0.57-1.67-0.16
				S42.65,141.83,43.15,142.33z"/>
			<path id="XMLID_304_" class="st4" d="M73.7,172.89c0.5,0.5,1.25,0.57,1.67,0.16c0.42-0.42,0.35-1.16-0.16-1.67l-6.57-6.57
				l-1.51,1.51L73.7,172.89z"/>
			<path id="XMLID_303_" class="st4" d="M42.99,173.04c0.42,0.42,1.16,0.35,1.67-0.16l6.99-6.99l-1.51-1.51l-6.99,6.99
				C42.65,171.88,42.58,172.63,42.99,173.04z"/>
			<path id="XMLID_302_" class="st4" d="M73.7,140.82l-6.57,6.57l1.51,1.51l6.57-6.57c0.5-0.5,0.57-1.25,0.16-1.67
				C74.95,140.25,74.21,140.32,73.7,140.82z"/>
		</g>
	</g>
	<g id="XMLID_297_">
		<path id="XMLID_298_" class="st2" d="M402.93,234.72h-9.05v-5.42h9.05v-9.59h5.56v9.59h9.05v5.42h-9.05v9.59h-5.56V234.72z"/>
	</g>
</g>
<g>
</g>
<g>
</g>
<g>
</g>
<g>
</g>
<g>
</g>
<g>
</g>
</svg>
