 <svg  version="1.0" xmlns="http://www.w3.org/2000/svg"  viewBox="0 0 200.000000 200.000000"  preserveAspectRatio="xMidYMid meet">  <g transform="translate(0.000000,300.000000) scale(0.050000,-0.050000)" fill="#03301c" stroke="none"> <path d="M920 3720 l0 -220 -113 0 c-519 0 -723 -667 -277 -907 83 -44 565 -66 655 -29 32 14 35 66 35 695 l0 681 -150 0 -150 0 0 -220z m0 -700 l0 -240 -102 0 c-147 0 -218 73 -217 223 1 177 72 255 234 256 l85 1 0 -240z"/> <path d="M1400 3790 l0 -150 140 0 140 0 0 150 0 150 -140 0 -140 0 0 -150z"/> <path d="M2070 3487 c-22 -5 -78 -23 -125 -40 l-85 -30 0 -111 c0 -106 2 -110 45 -97 313 99 415 94 415 -21 0 -38 -14 -46 -105 -58 -257 -35 -382 -122 -406 -280 -39 -260 211 -369 684 -298 l87 13 0 378 c0 425 -11 469 -127 524 -65 31 -279 42 -383 20z m250 -647 l0 -100 -99 0 c-84 0 -161 33 -161 70 0 63 103 128 205 129 53 1 55 -3 55 -99z"/> <path d="M2970 3487 c-22 -4 -87 -17 -145 -29 l-106 -21 6 -444 5 -443 145 -6 144 -6 6 356 5 356 103 6 c158 9 167 -13 167 -401 l0 -317 145 6 145 6 6 280 c11 478 -27 591 -212 647 -74 21 -324 28 -414 10z"/> <path d="M4123 3480 c-298 -63 -469 -288 -434 -570 33 -267 304 -439 552 -353 l64 23 -12 -73 c-30 -185 -243 -251 -498 -155 -42 15 -80 28 -85 28 -6 0 -10 -59 -10 -130 0 -157 16 -168 271 -185 482 -31 609 138 609 811 0 344 4 387 31 376 23 -9 44 16 78 93 l46 105 -42 17 c-65 25 -471 34 -570 13z m173 -455 l-6 -235 -84 -6 c-109 -8 -162 22 -199 111 -75 180 38 359 229 363 l65 2 -5 -235z"/> <path d="M5004 3477 c-278 -80 -389 -588 -178 -814 211 -226 643 -173 779 96 223 439 -126 855 -601 718z m314 -269 c121 -153 38 -448 -126 -448 -141 0 -223 222 -152 410 40 105 207 128 278 38z"/> <path d="M1400 3105 c0 -566 -20 -643 -199 -780 l-85 -66 132 -60 c149 -67 189 -60 295 54 123 133 126 151 133 712 l6 515 -141 0 -141 0 0 -375z"/> </g> </svg> 