 <svg  version="1.0" xmlns="http://www.w3.org/2000/svg"  viewBox="0 0 300.000000 570.000000"  preserveAspectRatio="xMidYMid meet">  <g transform="translate(0.000000,600.000000) scale(0.100000,-0.100000)" fill="#225291" stroke="none"> <path d="M4995 5553 c-97 -16 -182 -35 -257 -59 -42 -13 -54 -13 -100 0 -71 19 -273 28 -378 16 -104 -11 -165 -28 -252 -69 l-68 -32 -57 16 c-32 9 -76 20 -98 24 -22 4 -58 13 -80 19 -161 45 -431 55 -592 22 -185 -37 -278 -84 -389 -194 -44 -45 -87 -93 -95 -108 -87 -166 -113 -253 -130 -435 -7 -67 -9 -152 -6 -190 13 -136 25 -229 35 -273 6 -25 18 -81 27 -125 18 -86 31 -139 90 -360 25 -95 73 -255 91 -307 109 -302 173 -440 277 -595 134 -201 312 -258 454 -146 23 18 44 33 47 33 3 0 26 -16 52 -35 25 -19 52 -35 61 -35 8 0 36 -7 62 -14 185 -58 362 -57 469 2 18 10 23 10 26 0 3 -7 12 -121 20 -253 17 -255 37 -405 64 -470 60 -149 204 -249 375 -261 215 -15 449 59 571 180 69 70 106 146 135 276 20 89 68 432 76 539 3 40 8 77 11 82 3 5 63 9 135 9 157 0 352 39 391 78 7 7 18 12 25 12 23 0 157 143 187 200 22 43 29 69 30 121 1 61 -2 70 -27 97 -45 46 -56 47 -317 12 -96 -13 -150 -7 -150 16 0 9 15 41 33 72 18 31 43 77 56 102 12 25 26 52 31 60 15 23 83 174 125 275 36 88 51 127 79 203 31 87 38 109 46 142 4 19 13 49 18 65 25 71 61 242 82 382 22 152 6 377 -31 443 -17 30 -72 101 -114 149 -27 30 -150 127 -200 158 -230 141 -558 202 -840 156z m430 -122 c255 -64 366 -123 516 -271 91 -90 97 -99 119 -170 21 -67 24 -93 23 -243 -1 -115 -6 -191 -17 -240 -9 -40 -23 -103 -32 -142 -19 -89 -43 -171 -60 -213 -8 -18 -14 -39 -14 -47 0 -8 -6 -29 -14 -47 -8 -18 -21 -51 -29 -73 -83 -220 -226 -512 -321 -652 -15 -23 -26 -49 -23 -57 9 -23 125 -30 256 -16 64 6 136 14 161 16 89 9 142 -54 104 -123 -33 -62 -202 -193 -249 -193 -8 0 -29 -6 -47 -14 -67 -28 -213 -49 -325 -45 l-108 4 -18 -135 c-9 -74 -24 -178 -32 -230 -7 -52 -21 -147 -30 -210 -27 -186 -65 -278 -147 -360 -52 -51 -177 -120 -217 -120 -10 0 -38 -7 -61 -15 -87 -31 -245 -18 -320 26 -8 5 -24 13 -35 18 -39 18 -104 97 -132 161 -45 102 -61 216 -73 518 -6 150 -8 277 -5 282 12 19 -18 21 -43 3 -79 -58 -190 -93 -297 -93 -82 0 -194 24 -252 54 -47 25 -83 72 -83 109 1 55 46 91 150 120 30 9 82 23 115 32 46 13 71 28 108 63 50 49 59 72 29 72 -11 0 -56 12 -100 26 -94 29 -75 38 -179 -83 -174 -202 -262 -292 -306 -315 -28 -14 -59 -19 -108 -19 -62 0 -75 4 -122 35 -77 51 -175 179 -234 306 -34 73 -69 152 -87 200 -10 25 -24 60 -32 78 -8 18 -14 39 -14 47 0 8 -6 29 -14 47 -19 47 -60 184 -91 308 -9 36 -22 88 -29 115 -27 101 -71 321 -91 446 -33 212 -9 460 63 634 17 43 69 129 99 165 52 63 202 153 283 171 19 4 55 13 80 20 71 19 387 16 490 -5 97 -20 180 -41 262 -68 77 -24 96 -23 152 12 65 42 143 66 259 81 84 11 122 10 255 -3 104 -11 170 -13 197 -7 22 4 65 14 95 20 30 6 82 17 115 25 75 16 387 13 460 -5z"/> <path d="M5003 5323 c-29 -2 -53 -8 -53 -13 0 -4 46 -39 103 -76 94 -63 307 -259 307 -283 0 -5 6 -16 13 -23 51 -55 121 -181 173 -312 l36 -91 -6 -118 c-4 -64 -12 -130 -18 -145 -14 -36 -14 -347 1 -385 27 -70 5 -324 -35 -399 -9 -17 -11 -29 -4 -33 5 -3 10 -1 10 6 0 6 19 44 43 83 44 73 106 196 151 301 15 33 31 67 35 75 5 9 12 30 15 48 4 17 12 34 17 37 5 4 9 13 9 22 0 8 6 29 14 46 32 75 85 255 120 412 37 163 38 449 3 494 -104 134 -215 224 -347 279 -142 60 -211 73 -385 77 -82 1 -174 1 -202 -2z"/> <path d="M4255 5273 c-33 -8 -74 -21 -92 -29 -17 -8 -34 -14 -38 -14 -18 0 -134 -87 -177 -132 -41 -43 -138 -187 -138 -204 0 -3 -6 -20 -14 -37 -13 -28 -40 -113 -66 -202 -4 -16 -11 -57 -15 -90 -3 -33 -8 -68 -11 -77 -6 -19 23 -26 41 -10 14 12 89 38 163 56 71 18 159 21 194 7 13 -5 35 -12 50 -15 33 -7 119 -88 141 -131 59 -119 89 -435 59 -614 -14 -85 -40 -166 -82 -256 -19 -40 -80 -205 -80 -216 0 -4 17 -9 38 -12 53 -7 117 -49 149 -100 l28 -42 6 -335 c6 -354 22 -605 41 -655 40 -108 72 -153 133 -194 37 -24 48 -26 150 -26 111 1 162 12 245 53 80 40 147 129 164 222 4 19 11 46 16 60 5 14 14 70 20 125 6 55 17 147 25 205 8 58 19 155 24 215 6 61 15 133 20 160 6 28 12 80 14 116 5 81 38 137 102 174 l45 27 -39 46 c-22 26 -59 85 -84 132 -24 47 -61 117 -82 155 -80 147 -146 288 -171 365 -9 30 -21 64 -25 75 -33 79 -31 253 3 321 24 48 92 124 112 124 6 0 25 8 41 17 21 12 63 18 143 21 132 5 129 1 74 112 -125 249 -327 444 -562 543 -164 69 -417 96 -565 60z"/> <path d="M3217 5269 c-38 -5 -77 -14 -87 -19 -10 -6 -26 -10 -35 -10 -33 0 -126 -53 -179 -101 -91 -83 -122 -139 -176 -324 -15 -52 -22 -276 -11 -365 21 -166 54 -327 121 -590 38 -149 103 -360 134 -435 7 -16 19 -46 26 -65 23 -64 82 -183 122 -249 87 -142 140 -187 212 -179 54 6 63 14 214 188 69 80 136 155 149 167 31 30 29 41 -15 88 -91 96 -136 214 -135 360 5 738 25 953 102 1130 46 105 95 193 143 257 l57 78 -27 6 c-15 3 -38 10 -52 14 -27 10 -101 25 -190 40 -86 15 -298 20 -373 9z"/> <path d="M5263 4431 c-106 -18 -146 -69 -145 -184 1 -83 6 -109 39 -207 33 -98 231 -497 250 -503 28 -8 36 240 14 434 -13 117 -11 148 18 374 5 39 6 73 3 76 -11 11 -134 18 -179 10z m99 -57 c12 -25 10 -29 -26 -60 -50 -43 -98 -46 -139 -9 -34 32 -34 48 -1 74 21 16 41 21 91 21 59 0 64 -2 75 -26z"/> <path d="M3940 4411 c-8 -5 -31 -12 -50 -16 -41 -9 -177 -72 -186 -87 -6 -9 -16 -348 -17 -573 -1 -101 16 -160 67 -234 70 -102 146 -152 254 -171 41 -7 44 -5 54 19 6 14 14 33 18 41 4 9 11 30 14 48 4 17 12 34 17 37 5 4 9 12 9 20 0 8 13 42 29 77 83 181 105 336 77 532 -34 231 -51 274 -121 301 -44 16 -140 20 -165 6z m180 -50 c92 -49 3 -157 -96 -116 -35 14 -74 59 -74 86 0 47 104 66 170 30z"/> <path d="M5433 3166 c-24 -11 -33 -23 -39 -50 -3 -20 -3 -47 0 -61 6 -25 7 -25 125 -25 75 0 143 6 183 16 67 16 198 73 198 85 0 4 -62 5 -137 2 -125 -5 -143 -3 -198 17 -83 30 -95 32 -132 16z"/> <path d="M4151 3129 c-20 -23 -54 -62 -75 -86 -55 -62 -107 -85 -251 -115 -27 -5 -52 -11 -54 -13 -2 -2 14 -11 35 -20 56 -23 217 -23 280 0 59 22 130 72 167 116 36 44 37 98 2 134 -36 35 -61 32 -104 -16z"/> <path d="M5236 1191 c-113 -33 -157 -105 -141 -234 12 -95 61 -129 240 -167 55 -11 114 -25 130 -29 17 -5 46 -12 65 -15 53 -9 105 -57 120 -110 10 -38 10 -52 -5 -96 -23 -68 -69 -102 -164 -120 -61 -11 -81 -11 -151 3 -117 24 -170 68 -194 165 -10 40 -16 47 -39 50 -25 3 -27 1 -27 -36 0 -84 51 -155 140 -195 56 -26 188 -38 280 -26 98 12 154 40 195 97 27 40 30 50 29 122 -1 70 -4 83 -28 115 -33 42 -85 71 -149 80 -26 4 -50 11 -53 16 -3 5 -16 9 -30 9 -43 0 -201 41 -233 61 -98 60 -92 207 12 261 58 30 221 33 282 4 67 -31 107 -79 117 -141 5 -30 52 -28 56 3 8 52 -30 117 -88 153 -81 50 -248 64 -364 30z"/> <path d="M6030 1191 c-87 -33 -118 -51 -155 -90 -77 -81 -105 -155 -112 -290 -12 -236 118 -403 337 -430 91 -12 224 0 269 24 17 8 34 15 39 15 5 0 35 -21 67 -47 44 -37 60 -45 73 -37 29 18 24 31 -27 70 -53 41 -64 71 -35 95 25 21 62 84 81 136 24 69 23 240 -2 313 -57 171 -197 262 -399 259 -58 -1 -107 -8 -136 -18z m263 -39 c6 -5 24 -12 38 -16 42 -9 122 -88 151 -147 38 -80 48 -118 48 -192 0 -207 -104 -340 -296 -377 -69 -14 -147 -2 -222 32 -55 24 -124 93 -151 149 -48 98 -50 277 -6 374 40 89 134 162 240 189 32 8 184 -1 198 -12z"/> <path d="M6675 1181 c-6 -6 -9 -153 -7 -401 l2 -390 288 2 c279 3 287 4 287 23 0 19 -8 20 -255 25 l-255 5 -5 370 c-5 361 -5 370 -25 373 -11 1 -25 -2 -30 -7z"/> <path d="M1895 1087 c-3 -7 -4 -158 -3 -337 l3 -325 27 -3 c35 -4 37 7 41 163 l2 120 155 5 c206 7 249 27 284 133 20 60 20 75 0 134 -19 58 -37 79 -86 104 -33 17 -61 19 -228 19 -144 0 -192 -3 -195 -13z m403 -64 c39 -29 56 -94 42 -160 -9 -43 -17 -56 -45 -73 -30 -19 -53 -22 -172 -24 -81 -2 -143 1 -150 7 -9 7 -13 47 -13 137 0 93 3 130 13 134 6 3 76 4 155 2 124 -3 147 -6 170 -23z"/> <path d="M3517 1004 c-4 -4 -7 -35 -7 -70 0 -65 -6 -74 -52 -74 -32 0 -18 -34 17 -40 l30 -5 6 -165 c3 -91 9 -174 13 -186 8 -22 64 -54 96 -54 32 0 50 11 50 31 0 14 -7 19 -28 19 -15 0 -38 7 -50 16 -21 15 -22 21 -22 180 0 149 2 164 18 165 9 1 24 3 32 4 8 1 23 3 33 4 9 0 17 8 17 16 0 11 -11 15 -37 15 -21 0 -43 4 -50 8 -7 4 -13 36 -15 72 -3 57 -6 65 -23 68 -12 2 -24 0 -28 -4z"/> <path d="M2585 869 c-45 -17 -90 -54 -117 -96 -20 -33 -23 -51 -23 -128 1 -68 5 -99 19 -125 42 -80 101 -110 210 -110 138 0 216 61 231 182 16 125 -23 217 -109 261 -45 24 -165 32 -211 16z m203 -68 c42 -31 45 -36 62 -113 14 -65 -3 -139 -42 -183 -58 -67 -195 -71 -261 -7 -16 15 -34 50 -44 81 -13 46 -14 63 -3 110 23 103 71 141 176 141 63 0 76 -3 112 -29z"/> <path d="M3073 867 c-65 -18 -87 -46 -87 -111 -1 -44 3 -60 21 -78 23 -23 141 -57 200 -58 18 0 51 -7 73 -16 32 -13 41 -22 46 -49 12 -66 -39 -105 -137 -105 -86 0 -127 17 -156 67 -42 73 -89 51 -51 -24 32 -62 82 -83 201 -83 116 0 165 20 192 77 24 51 15 111 -21 138 -30 22 -157 54 -214 55 -90 1 -131 72 -75 129 19 20 33 23 98 24 88 2 119 -12 142 -60 14 -28 21 -34 43 -31 34 4 32 29 -7 78 -43 54 -163 75 -268 47z"/> <path d="M3820 866 c-55 -18 -85 -43 -114 -95 -21 -40 -26 -61 -25 -117 0 -88 28 -147 87 -188 41 -29 49 -31 135 -30 83 0 96 3 134 28 23 15 46 25 51 22 12 -7 5 -77 -10 -121 -28 -76 -109 -108 -217 -84 -58 13 -65 17 -85 54 -14 25 -30 40 -42 40 -28 0 -30 -45 -3 -79 67 -85 273 -90 362 -7 49 45 58 101 55 347 -3 218 -3 219 -25 222 -17 3 -24 -3 -29 -22 -8 -32 -14 -32 -44 -3 -47 43 -153 59 -230 33z m196 -56 c62 -39 91 -146 62 -231 -32 -95 -150 -136 -248 -86 -66 33 -90 75 -90 158 0 78 22 125 73 158 45 29 156 29 203 1z"/> <path d="M4382 870 c-13 -6 -35 -19 -49 -30 -32 -25 -39 -25 -46 1 -4 13 -12 20 -24 17 -17 -3 -18 -19 -20 -208 -2 -113 1 -211 6 -219 5 -8 16 -11 25 -8 13 5 16 24 16 102 0 117 16 223 39 251 24 30 60 47 111 54 37 4 45 9 45 25 0 16 -7 20 -40 22 -22 1 -51 -2 -63 -7z"/> <path d="M4638 864 c-59 -18 -108 -67 -131 -131 -43 -120 5 -248 115 -304 49 -25 174 -26 221 -3 87 44 141 146 71 132 -11 -2 -24 -15 -31 -29 -43 -89 -192 -106 -279 -32 -26 23 -58 97 -51 117 6 14 35 16 206 16 231 0 226 -2 195 95 -39 126 -171 184 -316 139z m200 -61 c18 -13 41 -42 53 -64 33 -65 23 -69 -155 -69 -184 0 -195 4 -165 67 10 23 34 53 52 67 54 41 158 41 215 -1z"/> </g> </svg> 