<?xml version="1.0" standalone="no"?>
<!DOCTYPE svg PUBLIC "-//W3C//DTD SVG 20010904//EN"
 "http://www.w3.org/TR/2001/REC-SVG-20010904/DTD/svg10.dtd">
<svg version="1.0" xmlns="http://www.w3.org/2000/svg"
 width="759.000000pt" height="381.000000pt" viewBox="0 0 759.000000 381.000000"
 preserveAspectRatio="xMidYMid meet">
<metadata>
Created by potrace 1.10, written by Peter Selinger 2001-2011
</metadata>
<g transform="translate(0.000000,381.000000) scale(0.100000,-0.100000)"
fill="#ff0000" stroke="none">
<path d="M1160 2758 c-99 -101 -246 -250 -327 -333 -82 -82 -157 -162 -168
-176 -45 -57 -65 -89 -65 -102 0 -8 -7 -20 -15 -27 -8 -7 -15 -23 -15 -35 0
-13 -7 -26 -16 -29 -13 -5 -15 -15 -11 -47 4 -32 3 -38 -8 -29 -16 13 -25 -7
-25 -54 0 -18 -6 -38 -12 -44 -21 -21 -24 -268 -4 -335 9 -30 16 -66 16 -80 0
-41 10 -59 26 -46 11 9 12 4 7 -25 -4 -24 -1 -42 9 -54 7 -9 24 -38 37 -64 12
-26 26 -50 31 -53 5 -3 17 -22 27 -42 21 -44 130 -157 196 -202 26 -17 47 -36
47 -41 0 -6 11 -10 25 -10 14 0 25 -4 25 -10 0 -5 6 -10 14 -10 7 0 25 -9 39
-20 14 -11 34 -20 45 -20 11 0 25 -7 32 -15 7 -8 29 -15 49 -15 20 -1 47 -7
61 -15 19 -11 68 -14 207 -15 156 0 184 2 198 16 9 10 31 17 48 16 17 0 42 5
56 12 15 8 47 23 74 35 26 13 47 27 47 32 0 5 9 9 21 9 26 0 79 37 79 55 0 8
16 22 35 31 19 9 35 20 35 25 0 5 6 9 13 9 16 0 57 41 57 57 0 6 13 24 29 39
41 42 121 162 121 183 0 10 7 24 15 31 8 7 15 24 15 39 0 14 7 35 15 45 8 11
15 39 15 62 0 23 7 58 15 77 20 48 20 191 0 247 -8 23 -15 60 -15 80 0 48 -8
70 -25 70 -10 0 -12 10 -8 33 3 23 0 37 -11 46 -9 7 -16 22 -16 32 0 10 -5 21
-11 24 -5 4 -14 17 -20 28 -12 29 -27 53 -64 102 -48 63 -59 75 -72 75 -19 0
-27 -21 -12 -31 11 -6 9 -9 -8 -9 -27 0 -87 -58 -90 -86 -1 -12 11 -35 26 -52
16 -16 31 -37 34 -47 4 -9 15 -15 24 -13 15 2 17 -3 15 -29 -2 -22 1 -33 10
-33 8 0 13 -12 13 -32 0 -37 21 -49 28 -16 3 13 3 -7 0 -43 -4 -49 -1 -74 11
-97 21 -41 22 -225 1 -262 -8 -14 -14 -37 -15 -52 0 -25 -19 -78 -41 -118 -4
-8 -18 -35 -30 -60 -37 -73 -149 -192 -224 -236 -25 -14 -45 -32 -45 -40 0
-10 -8 -12 -30 -7 -23 4 -30 2 -30 -10 0 -8 6 -18 13 -21 6 -3 -12 -2 -41 1
-47 5 -54 3 -58 -14 -5 -18 -15 -19 -200 -19 -148 1 -194 4 -194 14 0 7 -12
12 -29 12 -16 0 -34 7 -41 15 -7 8 -18 15 -25 15 -7 0 -24 9 -38 20 -14 11
-32 20 -40 20 -8 0 -18 7 -21 16 -3 8 -10 13 -15 9 -12 -7 -158 139 -166 166
-4 10 -11 19 -16 19 -5 0 -9 6 -9 14 0 7 -7 19 -15 26 -8 7 -15 21 -15 32 0
10 -6 21 -14 24 -8 3 -18 19 -21 35 -4 16 -11 31 -16 34 -5 4 -9 23 -9 43 0
20 -7 50 -15 66 -20 38 -20 199 0 256 8 23 15 54 15 69 0 14 7 35 15 45 8 11
15 30 15 43 0 13 4 23 9 23 5 0 13 10 16 21 8 25 60 101 94 138 13 14 39 45
58 69 20 23 42 42 50 42 11 0 12 8 7 35 -4 21 -2 35 4 35 6 0 8 -9 5 -20 -4
-14 0 -20 11 -20 9 0 16 7 16 15 0 8 4 15 8 15 9 0 51 41 151 144 34 36 65 66
68 66 7 0 73 74 73 83 0 4 6 7 13 7 28 0 43 63 45 183 2 77 -1 117 -8 117 -6
0 -91 -82 -190 -182z m85 -38 c0 -7 -6 -15 -12 -17 -8 -3 -13 4 -13 17 0 13 5
20 13 18 6 -3 12 -11 12 -18z m725 -1670 c0 -5 -7 -10 -15 -10 -8 0 -15 5 -15
10 0 6 7 10 15 10 8 0 15 -4 15 -10z"/>
<path d="M1645 2602 c-16 -13 -21 -30 -22 -74 -2 -73 20 -97 87 -94 69 2 93
24 96 89 3 50 0 56 -26 76 -36 26 -106 28 -135 3z"/>
<path d="M6605 2441 c-20 -8 -20 -20 -25 -477 -3 -258 -3 -481 -1 -496 3 -30
29 -43 61 -33 19 6 20 15 20 253 0 275 -1 272 69 316 93 59 215 56 262 -7 24
-31 24 -37 27 -290 l4 -258 24 -9 c32 -12 53 -3 60 26 4 13 4 136 2 272 -4
231 -5 250 -26 289 -13 24 -41 55 -64 70 -37 25 -50 28 -122 27 -80 -1 -120
-14 -176 -60 -8 -6 -25 -15 -37 -18 l-23 -7 0 199 c0 173 -2 201 -16 206 -9 3
-16 6 -17 5 -1 0 -11 -4 -22 -8z"/>
<path d="M2812 1903 l3 -458 31 -3 c17 -2 36 3 42 11 7 8 12 70 14 163 l3 149
115 7 c165 9 233 32 296 100 58 61 69 93 69 203 0 114 -13 146 -87 209 -70 60
-137 76 -325 76 l-163 0 2 -457z m385 348 c23 -12 54 -39 70 -59 25 -33 28
-45 28 -117 0 -93 -21 -139 -82 -175 -52 -30 -154 -51 -236 -48 l-72 3 -5 198
c-3 109 -1 206 4 214 14 26 237 13 293 -16z"/>
<path d="M3984 2345 c-4 -8 -3 -26 0 -40 l6 -25 148 0 c81 0 153 -4 159 -8 10
-6 13 -105 15 -418 l3 -409 40 0 40 0 5 415 5 415 153 3 c150 2 153 3 164 27
25 56 31 55 -367 55 -316 0 -366 -2 -371 -15z"/>
<path d="M4905 2121 c-107 -28 -176 -98 -221 -223 -25 -73 -16 -215 19 -289
33 -69 83 -122 147 -154 66 -33 207 -36 275 -5 53 24 126 92 150 140 56 109
57 285 4 380 -24 43 -92 109 -134 131 -44 24 -184 35 -240 20z m174 -80 c97
-40 161 -143 161 -264 0 -157 -104 -277 -242 -277 -56 0 -125 29 -165 70 -52
52 -73 115 -73 220 0 75 3 91 29 135 36 62 71 95 124 117 54 22 111 21 166 -1z"/>
<path d="M5703 2121 c-37 -9 -56 -23 -91 -63 -34 -40 -50 -36 -54 15 -3 38 -6
42 -31 45 -57 7 -57 8 -57 -337 0 -174 4 -322 9 -329 5 -8 21 -12 37 -10 l29
3 5 215 c5 211 5 216 32 261 59 100 129 139 213 118 35 -9 48 -9 60 1 18 15
20 54 3 68 -18 14 -117 22 -155 13z"/>
<path d="M6136 2120 c-45 -12 -122 -65 -152 -107 -86 -116 -98 -296 -29 -431
25 -48 83 -101 140 -128 42 -20 65 -24 150 -23 82 0 108 4 145 22 38 19 45 27
48 55 4 39 -17 51 -51 30 -12 -8 -49 -20 -82 -26 -174 -30 -294 67 -303 246
-9 160 60 263 194 292 41 9 61 7 124 -11 111 -31 115 -30 115 10 0 29 -5 37
-38 54 -45 23 -196 33 -261 17z"/>
<path d="M3493 2112 c-13 -8 -4 -40 45 -157 11 -27 37 -93 57 -145 20 -52 40
-104 45 -115 5 -11 29 -72 53 -135 41 -105 44 -117 32 -145 -7 -16 -21 -50
-30 -75 -29 -74 -48 -110 -78 -140 -37 -37 -75 -45 -123 -25 -36 15 -39 15
-52 -2 -7 -10 -12 -29 -10 -43 3 -22 10 -26 63 -36 145 -25 204 27 290 256 30
79 48 125 60 155 7 17 20 48 28 70 20 54 48 126 58 150 4 11 24 63 44 115 58
153 66 174 81 202 29 55 11 87 -41 74 -16 -4 -27 -16 -31 -34 -4 -15 -10 -31
-15 -37 -4 -5 -17 -39 -29 -75 -12 -36 -27 -78 -35 -95 -37 -85 -45 -107 -45
-123 0 -9 -7 -26 -15 -36 -8 -11 -15 -30 -15 -42 0 -13 -4 -25 -9 -29 -5 -3
-12 -19 -16 -35 -16 -72 -27 -54 -126 210 -60 161 -73 195 -80 205 -3 6 -9 22
-13 37 -11 49 -57 73 -93 50z"/>
</g>
</svg>
