<?xml version="1.0" encoding="utf-8"?>
<svg width="566.929" height="566.929" viewBox="0 0 566.929 566.929" fill="none" stroke="none" version="1.1" xmlns:xlink="http://www.w3.org/1999/xlink" xmlns="http://www.w3.org/2000/svg">
  <defs>
    <path id="path_1" d="M0 566.929L566.929 566.929L566.929 0L0 0L0 566.929Z" />
    <clipPath id="clip_path_2">
      <use xlink:href="#path_1" />
    </clipPath>
  </defs>
  <g id="g290" transform="matrix(1 0 0 -1 0 566.929)">
    <path id="path20" d="M0 0L566.929 0L566.929 566.929L0 566.929L0 0Z" style="fill:#C90205;mix-blend-mode:normal;" />
    <g id="g22">
      <g id="Mask Group">
        <path id="path26" d="M0 566.929L566.929 566.929L566.929 0L0 0L0 566.929Z" style="mix-blend-mode:normal;" />
        <g clip-path="url(#clip_path_2)">
          <g id="g24" transform="translate(71.002 41.203)">
            <path id="path32" d="M9.48532 244.972C4.24666 244.972 0 240.725 0 235.487C0 235.487 0 9.48668 0 9.48668C0 4.248 4.24666 0 9.48532 0C14.724 0 18.9707 4.248 18.9707 9.48668C18.9707 9.48668 18.9707 235.487 18.9707 235.487C18.9707 240.725 14.724 244.972 9.48532 244.972C9.48532 244.972 9.48532 244.972 9.48532 244.972Z" style="fill:#FFDD00;mix-blend-mode:normal;" transform="translate(232.335 193.349)" />
            <path id="path36" d="M9.48532 211.965C4.24667 211.965 0 207.719 0 202.48C0 202.48 0 9.48668 0 9.48668C0 4.248 4.24667 0 9.48532 0C14.724 0 18.9707 4.248 18.9707 9.48668C18.9707 9.48668 18.9707 202.48 18.9707 202.48C18.9707 207.719 14.724 211.965 9.48532 211.965C9.48532 211.965 9.48532 211.965 9.48532 211.965Z" style="fill:#FFDD00;mix-blend-mode:normal;" transform="translate(274.04 209.845)" />
            <path id="path40" d="M9.48535 139.176C4.24667 139.176 0 134.929 0 129.691C0 129.691 0 9.48534 0 9.48534C0 4.24666 4.24667 0 9.48535 0C14.724 0 18.9707 4.24666 18.9707 9.48534C18.9707 9.48534 18.9707 129.691 18.9707 129.691C18.9707 134.929 14.724 139.176 9.48535 139.176C9.48535 139.176 9.48535 139.176 9.48535 139.176Z" style="fill:#FFDD00;mix-blend-mode:normal;" transform="translate(315.744 246.302)" />
            <path id="path44" d="M14.9213 29.8427C6.67999 29.8427 0 23.1627 0 14.9213C0 6.67999 6.67999 0 14.9213 0C23.1613 0 29.8427 6.67999 29.8427 14.9213C29.8427 23.1627 23.1613 29.8427 14.9213 29.8427C14.9213 29.8427 14.9213 29.8427 14.9213 29.8427Z" style="fill:#FFDD00;mix-blend-mode:normal;" transform="translate(352.619 301.061)" />
            <path id="path48" d="M185.177 318.791C186.936 321.239 187.983 324.233 187.983 327.477C187.983 335.719 181.303 342.399 173.063 342.399C164.821 342.399 158.141 335.719 158.141 327.477C158.141 323.619 159.619 320.113 162.023 317.464C149.176 301.919 132.313 292.477 125.797 289.2C123.513 294.513 118.236 298.237 112.085 298.237C103.844 298.237 97.164 291.557 97.164 283.316C97.164 275.075 103.844 268.395 112.085 268.395C115.457 268.395 118.557 269.527 121.056 271.413C137.54 246.023 142.199 216.016 143.512 200.996C128.469 202.289 98.412 206.915 73.0107 223.424C74.7987 225.884 75.8667 228.901 75.8667 232.176C75.8667 240.416 69.1853 247.096 60.9453 247.096C52.704 247.096 46.024 240.416 46.024 232.176C46.024 225.981 49.8 220.669 55.176 218.413C51.44 210.929 40.7267 191.499 25.7933 181.397C23.0707 184.297 19.2133 186.12 14.9213 186.12C6.67999 186.12 0 179.44 0 171.199C0 162.957 6.67999 156.277 14.9213 156.277C19.2253 156.277 23.092 158.111 25.816 161.025C40.7427 150.911 51.452 131.46 55.1773 123.985C49.8013 121.731 46.024 116.419 46.024 110.223C46.024 101.981 52.704 95.3013 60.9453 95.3013C69.1853 95.3013 75.8667 101.981 75.8667 110.223C75.8667 113.496 74.7987 116.515 73.0107 118.975C98.4226 135.491 128.496 140.113 143.529 141.403C142.237 126.409 137.607 96.464 121.057 70.9853C118.559 72.8707 115.457 74.0027 112.085 74.0027C103.844 74.0027 97.164 67.3227 97.164 59.0813C97.164 50.8413 103.844 44.16 112.085 44.16C118.239 44.16 123.52 47.888 125.801 53.2053C132.313 49.9507 149.155 40.5613 162.031 24.9413C159.621 22.292 158.141 18.784 158.141 14.92C158.141 6.68001 164.821 0 173.063 0C181.303 0 187.983 6.67999 187.983 14.92C187.983 18.1653 186.936 21.16 185.177 23.6093C172.361 45.6067 151.767 59.68 139.748 66.48C162.365 105.249 162.319 149.124 162.305 151.109C162.305 151.109 162.237 160.096 162.237 160.096C162.237 160.096 153.251 160.179 153.251 160.179C151.261 160.2 107.38 160.316 68.6107 137.729C63.556 146.876 54.6333 160.804 42.4933 171.217C54.6307 181.624 63.5507 195.535 68.6067 204.671C107.373 182.085 151.255 182.189 153.251 182.219C153.251 182.219 162.237 182.301 162.237 182.301C162.237 182.301 162.305 191.289 162.305 191.289C162.319 193.275 162.364 237.149 139.748 275.917C151.768 282.719 172.361 296.791 185.177 318.791C185.177 318.791 185.177 318.791 185.177 318.791Z" style="fill:#FFDD00;mix-blend-mode:normal;" transform="translate(39.663 144.783)" />
            <path id="path52" d="M32.656 53.3707C20.1573 53.3707 9.98933 43.4013 9.98933 31.148C9.98933 18.796 20.1573 8.748 32.656 8.748C45.008 8.748 55.056 18.796 55.056 31.148C55.056 43.6093 45.2173 53.3707 32.656 53.3707C32.656 53.3707 32.656 53.3707 32.656 53.3707ZM32.568 0C14.3053 0 0 13.6813 0 31.148C0 48.8053 14.0013 62.12 32.568 62.12C50.8293 62.12 65.1333 48.5147 65.1333 31.148C65.1333 13.6813 50.8293 0 32.568 0C32.568 0 32.568 0 32.568 0Z" style="fill:#FFFFFF;mix-blend-mode:normal;" transform="translate(0 48.216)" />
            <path id="path56" d="M23.4347 0C9.636 0 0 9.67467 0 23.5253C0 37.48 9.636 47.2267 23.4347 47.2267C31.5653 47.2267 38.1533 44.6707 42.508 39.8333C42.508 39.8333 37.336 33.7547 37.336 33.7547C33.9093 37.1387 29.388 38.9227 24.2347 38.9227C24.2347 38.9227 23.8867 38.9213 23.8867 38.9213C15.444 38.9187 9.54533 32.588 9.54533 23.5253C9.54533 14.46 15.4387 8.12933 23.8787 8.12933C29.7587 8.12933 34.568 10.036 37.8133 13.652C37.8133 13.652 43.04 8.42533 43.04 8.42533C38.7187 2.912 31.9467 0 23.4347 0C23.4347 0 23.4347 0 23.4347 0Z" style="fill:#FFFFFF;mix-blend-mode:normal;" transform="translate(73.526 48.304)" />
            <path id="path60" d="M23.4347 0C9.636 0 0 9.67467 0 23.5253C0 37.48 9.636 47.2267 23.4347 47.2267C31.5653 47.2267 38.1533 44.6707 42.5093 39.8333C42.5093 39.8333 37.336 33.7547 37.336 33.7547C33.9107 37.1387 29.3893 38.9227 24.236 38.9227C24.236 38.9227 23.888 38.9213 23.888 38.9213C15.4453 38.9187 9.54533 32.588 9.54533 23.5253C9.54533 14.46 15.44 8.12933 23.8787 8.12933C29.76 8.12933 34.5693 10.036 37.8147 13.652C37.8147 13.652 43.04 8.42533 43.04 8.42533C38.7187 2.912 31.948 0 23.4347 0C23.4347 0 23.4347 0 23.4347 0Z" style="fill:#FFFFFF;mix-blend-mode:normal;" transform="translate(123.294 48.304)" />
            <path id="path64" d="M5.61467 54.524C2.41333 54.524 0 57.0147 0 60.32C0 63.672 2.41333 66.2 5.61467 66.2C8.81467 66.2 11.2293 63.672 11.2293 60.32C11.2293 57.0147 8.81467 54.524 5.61467 54.524C5.61467 54.524 5.61467 54.524 5.61467 54.524ZM0.886673 46.5173L10.3427 46.5173L10.3427 0L0.886673 0L0.886673 46.5173Z" style="fill:#FFFFFF;mix-blend-mode:normal;" transform="translate(176.838 48.658)" />
            <path id="path68" d="M19.5347 0C16.512 0 6.64934 0.967999 6.64934 13.4173C6.64934 13.4173 6.64934 38.2093 6.64934 38.2093L0 38.2093L0 45.188L6.64934 45.188L6.64934 58.1307L16.1053 58.1307L16.1053 45.188L30.0253 45.188L30.0253 38.2093L16.1053 38.2093C16.1053 38.2093 16.1053 15.2787 16.1053 15.2787C16.1053 10.64 17.764 8.572 21.484 8.572C23.452 8.572 25.5907 9.16266 28.384 10.484C28.384 10.484 30.7573 3.27867 30.7573 3.27867C27.0293 1.104 23.2547 0 19.5347 0C19.5347 0 19.5347 0 19.5347 0Z" style="fill:#FFFFFF;mix-blend-mode:normal;" transform="translate(199.744 48.215)" />
            <path id="path72" d="M19.0027 21.3653C12.0333 21.3653 8.92667 19.3253 8.92667 14.7453C8.92667 10.2947 12.6387 7.41867 18.3813 7.41867C25.7733 7.41867 31.54 11.3067 32.0933 16.6667C32.0933 16.6667 32.0947 21.3653 32.0947 21.3653C32.0947 21.3653 19.0027 21.3653 19.0027 21.3653ZM16.2547 0C6.68401 0 0 5.88267 0 14.304C0 22.768 6.70399 28.0773 17.4973 28.164C17.4973 28.164 32.0947 28.164 32.0947 28.164C32.0947 28.164 32.0947 29.9067 32.0947 29.9067C32.0947 36.232 27.98 39.7173 20.5093 39.7173C15.9747 39.7173 11.328 38.1533 6.696 35.0667C6.696 35.0667 2.868 41.584 2.868 41.584C9.44 45.4667 14.156 47.3147 22.7253 47.3147C34.544 47.3147 41.3747 41.3893 41.464 31.0547C41.464 31.0547 41.5507 0.442669 41.5507 0.442669L32.1814 0.442669L32.1814 6.37733C32.1814 6.37733 30.0947 4.48933 30.0947 4.48933C26.848 1.55333 22.0613 0 16.2547 0C16.2547 0 16.2547 0 16.2547 0Z" style="fill:#FFFFFF;mix-blend-mode:normal;" transform="translate(238.341 48.216)" />
            <path id="path76" d="M34.9307 0C34.9307 0 34.9307 26.1853 34.9307 26.1853C34.9307 33.44 30.4586 37.9467 23.26 37.9467C15.568 37.8587 10.32 32.8187 9.548 24.796C9.548 24.796 9.54532 0 9.54532 0L0 0L0 46.5173L9.54532 46.5173L9.54532 37.2893C9.54532 37.2893 11.792 40.2627 11.792 40.2627C15.1067 44.648 20.3067 46.872 27.248 46.872C37.876 46.872 44.4773 40.032 44.4773 29.0213C44.4773 29.0213 44.4773 0 44.4773 0L34.9307 0Z" style="fill:#FFFFFF;mix-blend-mode:normal;" transform="translate(295.822 48.658)" />
            <path id="path80" d="M5.61469 54.524C2.41333 54.524 0 57.0147 0 60.32C0 63.672 2.41333 66.2 5.61469 66.2C8.81601 66.2 11.2293 63.672 11.2293 60.32C11.2293 57.0147 8.81601 54.524 5.61469 54.524C5.61469 54.524 5.61469 54.524 5.61469 54.524ZM0.886658 46.5173L10.3453 46.5173L10.3453 0L0.886658 0L0.886658 46.5173Z" style="fill:#FFFFFF;mix-blend-mode:normal;" transform="translate(355.341 48.658)" />
            <path id="path84" d="M23.6107 39.7173C16.4026 39.7173 11.1907 35.4667 9.66666 28.3453C9.66666 28.3453 9.34399 26.8347 9.34399 26.8347L37.1227 26.8347C37.1227 26.8347 36.9773 28.2147 36.9773 28.2147C36.2227 35.416 31.2253 39.7173 23.6107 39.7173C23.6107 39.7173 23.6107 39.7173 23.6107 39.7173ZM23.788 0C9.55865 0 0 9.45333 0 23.524C0 37.3893 9.672 47.1373 23.5253 47.2267C30.628 47.2267 36.1053 45.2133 39.7973 41.2427C44.088 36.6293 45.936 29.496 45.2946 20.0347C45.2946 20.0347 9.47867 20.0347 9.47867 20.0347C9.47867 20.0347 9.948 18.4347 9.948 18.4347C11.908 11.7493 17.5173 7.596 24.5853 7.596C29.6773 7.596 34.384 9.49466 37.8773 12.9493C37.8773 12.9493 42.8493 7.652 42.8493 7.652C38.16 2.64533 31.5773 0 23.788 0C23.788 0 23.788 0 23.788 0Z" style="fill:#FFFFFF;mix-blend-mode:normal;" transform="translate(378.603 48.304)" />
            <path id="path88" d="M0 0L0.076 25.276L4.71333 25.2L4.63733 4.248L15.4573 4.172L15.384 0L0 0Z" style="fill:#FFFFFF;mix-blend-mode:normal;" transform="translate(0 125.646)" />
            <path id="path92" d="M7.91866 8.54666C5.28267 8.54666 4.20667 7.87199 4.20667 6.21733C4.20667 4.60533 5.53333 3.604 7.67067 3.604C10.46 3.604 12.6333 5.03999 12.8373 7.01733C12.8373 7.01733 12.836 8.47067 12.836 8.47067C12.836 8.47067 7.91866 8.54666 7.91866 8.54666ZM6.82 0C2.804 0 0 2.484 0 6.03999C0 9.67599 2.73333 11.8667 7.31466 11.9027C7.31466 11.9027 12.7613 11.9027 12.7613 11.9027C12.7613 11.9027 12.836 12.2813 12.836 12.2813C12.836 14.64 11.344 15.8867 8.52133 15.8867C6.73866 15.8867 4.9 15.2533 3.06 14.004C3.06 14.004 2.82667 13.8453 2.82667 13.8453L0.991999 17.1293C0.991999 17.1293 1.19067 17.16 1.19067 17.16C3.92933 18.788 5.85733 19.5627 9.408 19.5627C14.336 19.5627 17.184 17.0773 17.2213 12.744C17.2213 12.744 17.2573 0.102669 17.2573 0.102669L12.796 0.177338L12.872 1.988L12.872 2.16666C12.872 2.16666 12.744 2.04134 12.744 2.04134C11.38 0.706665 9.332 0 6.82 0C6.82 0 6.82 0 6.82 0Z" style="fill:#FFFFFF;mix-blend-mode:normal;" transform="translate(17.589 125.469)" />
            <path id="path96" d="M4.63733 11.7707C4.63733 11.7707 10.3347 11.6947 10.3347 11.6947C14.2107 11.6947 16.1747 13.3133 16.1747 16.5067C16.1747 19.5813 14.2107 21.14 10.3347 21.14C10.3347 21.14 4.63733 21.14 4.63733 21.14L4.63733 11.7707ZM0 0.0759964L0.0760002 25.352C0.0760002 25.352 10.3347 25.276 10.3347 25.276C16.8107 25.276 20.524 22.1187 20.524 16.612C20.524 12.7533 18.7627 9.876 15.564 8.51067C15.564 8.51067 21.1173 0.0759964 21.1173 0.0759964L15.86 0.0759964C15.86 0.0759964 11.3933 7.544 11.3933 7.544C11.008 7.55866 10.672 7.55866 10.3347 7.55866C10.3347 7.55866 4.71333 7.55866 4.71333 7.55866L4.63733 0L0 0.0759964Z" style="fill:#FFFFFF;mix-blend-mode:normal;" transform="translate(49.245 125.57)" />
            <path id="path100" d="M6.772 21.7027L10.868 27.4213L15.5653 25.368L10.824 21.7027L6.772 21.7027ZM9.764 15.8867C7.03867 15.8867 5.01067 14.1907 4.472 11.46C4.472 11.46 14.7293 11.3707 14.7293 11.3707C14.564 14.2293 12.6787 15.8867 9.764 15.8867C9.764 15.8867 9.764 15.8867 9.764 15.8867ZM9.83466 0C3.95333 0 0 3.90934 0 9.728C0 15.4613 4 19.4907 9.72667 19.5267C12.664 19.5267 14.9333 18.688 16.472 17.032C18.2693 15.0987 19.0347 12.124 18.7467 8.18934C18.7467 8.18934 18.7293 7.94399 18.7293 7.94399C18.7293 7.94399 4.64 8.01467 4.64 8.01467C5.27467 5.30134 7.41467 3.676 10.1547 3.676C12.1507 3.676 13.992 4.436 15.3373 5.81733C15.3373 5.81733 15.5307 6.016 15.5307 6.016L17.9413 3.33201C17.9413 3.33201 17.776 3.25333 17.776 3.25333C15.8347 1.12534 13.0893 0 9.83467 0C9.83467 0 9.83466 0 9.83466 0Z" style="fill:#FFFFFF;mix-blend-mode:normal;" transform="translate(72.932 125.504)" />
            <path id="path104" d="M9.516 22.6947C6.42533 22.6947 4.24267 20.3947 4.208 17.1013C4.244 13.736 6.37733 11.476 9.516 11.476C12.6 11.476 14.752 13.7893 14.752 17.1027C14.752 20.3947 12.6 22.6947 9.516 22.6947C9.516 22.6947 9.516 22.6947 9.516 22.6947ZM9.196 0C6.39067 0 3.71867 0.845337 1.25333 2.51334C1.25333 2.51334 1.048 2.65334 1.048 2.65334L3.084 5.96133C3.084 5.96133 3.21067 5.76534 3.21067 5.76534C5.09734 4.368 6.888 3.74533 9.01867 3.74533C12.5027 3.74533 14.752 5.77333 14.752 8.91199C14.752 8.91199 14.752 10.668 14.752 10.668C14.752 10.668 14.6173 10.5 14.6173 10.5C13.2667 8.804 11.22 7.90667 8.7 7.90667C3.496 7.90667 0 11.6453 0 17.2093C0 22.6533 3.43867 26.3333 8.55733 26.3693C11.1813 26.3693 13.2187 25.4933 14.6187 23.7627C14.6187 23.7627 14.752 23.5973 14.752 23.5973L14.752 26.304L19.248 26.228C19.248 26.228 19.1733 9.01733 19.1733 9.01733C19.1733 3.54 15.2573 0 9.196 0C9.196 0 9.196 0 9.196 0Z" style="fill:#FFFFFF;mix-blend-mode:normal;" transform="translate(94.447 118.661)" />
            <path id="path108" d="M2.56533 21.808C1.10267 21.808 0 22.9413 0 24.444C0 25.9667 1.10267 27.1147 2.56533 27.1147C4.028 27.1147 5.12933 25.9667 5.12933 24.444C5.12933 22.9413 4.028 21.808 2.56533 21.808C2.56533 21.808 2.56533 21.808 2.56533 21.808ZM0.279999 0L0.354668 19.3173L4.85067 19.2427L4.77467 0L0.279999 0Z" style="fill:#FFFFFF;mix-blend-mode:normal;" transform="translate(118.556 125.647)" />
            <path id="path112" d="M10.048 15.6387C6.756 15.6387 4.45599 13.208 4.45599 9.728C4.45599 6.17067 6.70399 3.78134 10.048 3.78134C13.32 3.78134 15.604 6.22667 15.604 9.728C15.604 13.208 13.32 15.6387 10.048 15.6387C10.048 15.6387 10.048 15.6387 10.048 15.6387ZM10.048 0C4.132 0 0 4.01466 0 9.76401C0 15.604 4.03867 19.5267 10.048 19.5267C15.9427 19.5267 20.06 15.512 20.06 9.76401C20.06 4.01466 15.9427 0 10.048 0C10.048 0 10.048 0 10.048 0Z" style="fill:#FFFFFF;mix-blend-mode:normal;" transform="translate(127.206 125.504)" />
            <path id="path116" d="M0 0.0759964L0.076004 19.3947L4.60667 19.3187L4.53067 16.4733L4.53067 16.2307C4.53067 16.2307 4.66933 16.4307 4.66933 16.4307C6.05067 18.4413 8.27867 19.4613 11.2933 19.4613C15.74 19.4613 18.5027 16.6027 18.5027 12.0027C18.5027 12.0027 18.5027 0.0759964 18.5027 0.0759964L13.972 0.0759964C13.972 0.0759964 14.048 10.868 14.048 10.868C14.048 13.6147 12.4213 15.2533 9.69734 15.2533C6.80267 15.22 4.82401 13.3147 4.53067 10.2827C4.53067 10.2827 4.53067 0 4.53067 0L0 0.0759964Z" style="fill:#FFFFFF;mix-blend-mode:normal;" transform="translate(151.064 125.57)" />
            <path id="path120" d="M4.184 11.2413C4.184 11.2413 9.716 11.2413 9.716 11.2413C13.5453 11.2413 15.7093 12.8733 15.7093 16.2413C15.7093 19.504 13.5453 21.064 9.716 21.064C9.716 21.064 4.184 21.064 4.184 21.064L4.184 11.2413ZM9.89333 24.824C16.1347 24.824 19.716 21.7373 19.716 16.348C19.716 10.7453 16.1347 7.48267 9.89333 7.48267C9.89333 7.48267 4.184 7.48267 4.184 7.48267L4.184 0L0 0L0 24.824C0 24.824 9.89333 24.824 9.89333 24.824Z" style="fill:#FFFFFF;mix-blend-mode:normal;" transform="translate(0.747 7.057)" />
            <path id="path124" d="M10.6027 4.46933C9.432 1.49067 7.304 0 4.468 0C2.76533 0 1.41733 0.497333 0.105333 1.59733C0.105333 1.59733 1.844 4.75333 1.844 4.75333C2.73067 4.11333 3.43867 3.83067 4.29067 3.83067C5.532 3.83067 6.524 4.504 7.16267 5.92267C7.16267 5.92267 7.80133 7.34133 7.80133 7.34133L0 25.9227L4.21867 25.9227L9.85733 11.632L15.1053 25.9227L19.184 25.9227C19.184 25.9227 10.6027 4.46933 10.6027 4.46933Z" style="fill:#FFFFFF;mix-blend-mode:normal;" transform="translate(22.055 0)" />
            <path id="path128" d="M4.07867 15.1067C5.356 17.6587 7.62533 19.0067 10.604 19.0067C10.604 19.0067 10.604 15.1067 10.604 15.1067C6.80933 15.3187 4.39734 13.084 4.07867 9.85733C4.07867 9.85733 4.07867 0 4.07867 0L0 0L0 18.864L4.07867 18.864C4.07867 18.864 4.07867 15.1067 4.07867 15.1067Z" style="fill:#FFFFFF;mix-blend-mode:normal;" transform="translate(44.284 7.058)" />
            <path id="path132" d="M6.95066 21.7013L10.7093 26.9507L14.8947 25.176L10.568 21.7013L6.95066 21.7013ZM14.8227 10.992C14.6813 14.0427 12.66 15.8867 9.57466 15.8867C6.596 15.8867 4.504 14.0067 4.04267 10.992C4.04267 10.992 14.8227 10.992 14.8227 10.992ZM18.3693 8.01333C18.3693 8.01333 4.11467 8.01333 4.11467 8.01333C4.752 5.10666 6.98667 3.29733 9.96533 3.29733C12.0213 3.29733 13.9013 4.07733 15.284 5.496C15.284 5.496 17.448 3.19067 17.448 3.19067C15.604 1.17067 12.908 0 9.64533 0C3.83067 0 0 3.864 0 9.53867C0 15.248 3.936 19.1133 9.54 19.148C16.1707 19.148 18.8667 14.8227 18.3693 8.01333C18.3693 8.01333 18.3693 8.01333 18.3693 8.01333Z" style="fill:#FFFFFF;mix-blend-mode:normal;" transform="translate(56.48 6.916)" />
            <path id="path136" d="M18.0493 11.7373L18.0493 0L13.972 0C13.972 0 13.972 10.6027 13.972 10.6027C13.972 13.44 12.2693 15.1773 9.43333 15.1773C6.312 15.1427 4.36134 12.98 4.07733 10.036C4.07733 10.036 4.07733 0 4.07733 0L0 0L0 18.8653L4.07733 18.8653C4.07733 18.8653 4.07733 15.2493 4.07733 15.2493C5.42533 17.8733 7.836 19.0067 11.028 19.0067C15.4253 19.0067 18.0493 16.2413 18.0493 11.7373C18.0493 11.7373 18.0493 11.7373 18.0493 11.7373Z" style="fill:#FFFFFF;mix-blend-mode:normal;" transform="translate(79.101 7.057)" />
            <path id="path140" d="M6.95067 21.7013L10.7093 26.9507L14.8947 25.176L10.568 21.7013L6.95067 21.7013ZM14.8227 10.992C14.6813 14.0427 12.66 15.8867 9.57466 15.8867C6.596 15.8867 4.504 14.0067 4.04266 10.992C4.04266 10.992 14.8227 10.992 14.8227 10.992ZM18.3693 8.01333C18.3693 8.01333 4.11466 8.01333 4.11466 8.01333C4.752 5.10666 6.98666 3.29733 9.96533 3.29733C12.0213 3.29733 13.9013 4.07733 15.284 5.496C15.284 5.496 17.448 3.19067 17.448 3.19067C15.604 1.17067 12.908 0 9.64533 0C3.83067 0 0 3.864 0 9.53867C0 15.248 3.936 19.1133 9.53867 19.148C16.1707 19.148 18.8667 14.8227 18.3693 8.01333C18.3693 8.01333 18.3693 8.01333 18.3693 8.01333Z" style="fill:#FFFFFF;mix-blend-mode:normal;" transform="translate(100.834 6.916)" />
            <path id="path144" d="M14.8227 10.992C14.6813 14.0427 12.66 15.8867 9.57466 15.8867C6.59599 15.8867 4.504 14.0067 4.04266 10.992C4.04266 10.992 14.8227 10.992 14.8227 10.992ZM18.3693 8.01466C18.3693 8.01466 4.11333 8.01466 4.11333 8.01466C4.752 5.10666 6.98666 3.29733 9.964 3.29733C12.0213 3.29733 13.9013 4.07733 15.284 5.496C15.284 5.496 17.4467 3.19067 17.4467 3.19067C15.6027 1.17067 12.908 0 9.64534 0C3.82934 0 0 3.864 0 9.53866C0 15.248 3.936 19.1133 9.53867 19.148C16.1707 19.148 18.8653 14.8227 18.3693 8.01466C18.3693 8.01466 18.3693 8.01466 18.3693 8.01466Z" style="fill:#FFFFFF;mix-blend-mode:normal;" transform="translate(121.682 6.916)" />
            <path id="path148" d="M14.504 17.2693C14.504 17.2693 13.0147 14.2547 13.0147 14.2547C11.348 15.284 9.25465 15.9213 7.588 15.9213C5.99333 15.9213 4.82266 15.3907 4.82266 14.0427C4.82266 10.568 14.8587 12.4467 14.8227 5.60266C14.8227 1.73733 11.3827 0 7.588 0C4.82266 0 1.88 0.921333 0 2.624C0 2.624 1.45334 5.53067 1.45334 5.53067C3.08533 4.07733 5.70934 3.19067 7.76666 3.19067C9.504 3.19067 10.8507 3.79467 10.8507 5.212C10.8507 9.07733 0.921326 6.91467 0.957336 13.724C0.957336 17.5533 4.29066 19.1853 7.90799 19.1853C10.284 19.1853 12.8013 18.4747 14.504 17.2693C14.504 17.2693 14.504 17.2693 14.504 17.2693Z" style="fill:#FFFFFF;mix-blend-mode:normal;" transform="translate(142.032 6.916)" />
            <path id="path150" d="M0 2.80133L8.72267 2.80133L8.72267 0L1.52588e-05 0L0 2.80133Z" style="fill:#FFFFFF;mix-blend-mode:normal;" transform="translate(169.261 16.454)" />
            <path id="path154" d="M22.376 0L22.34 18.5453L14.504 2.588L11.7733 2.588L3.936 18.5453L3.936 0L0 0L0 24.8227L4.964 24.8227L13.156 8.33333L21.312 24.8227L26.2413 24.8227L26.2413 0L22.376 0Z" style="fill:#FFFFFF;mix-blend-mode:normal;" transform="translate(192.555 7.058)" />
            <path id="path158" d="M6.95067 21.7013L10.7093 26.9507L14.8947 25.176L10.568 21.7013L6.95067 21.7013ZM14.8227 10.992C14.6813 14.0427 12.66 15.8867 9.57466 15.8867C6.59599 15.8867 4.504 14.0067 4.04266 10.992C4.04266 10.992 14.8227 10.992 14.8227 10.992ZM18.3693 8.01333C18.3693 8.01333 4.11467 8.01333 4.11467 8.01333C4.752 5.10666 6.98666 3.29733 9.96533 3.29733C12.0213 3.29733 13.9013 4.07733 15.284 5.496C15.284 5.496 17.448 3.19067 17.448 3.19067C15.604 1.17067 12.908 0 9.64534 0C3.83067 0 0 3.864 0 9.53867C0 15.248 3.936 19.1133 9.53867 19.148C16.1707 19.148 18.8667 14.8227 18.3693 8.01333C18.3693 8.01333 18.3693 8.01333 18.3693 8.01333Z" style="fill:#FFFFFF;mix-blend-mode:normal;" transform="translate(223.328 6.916)" />
            <path id="path162" d="M15.6747 9.53866C15.6747 13.1907 13.2987 15.744 9.89467 15.744C6.48933 15.744 4.11467 13.156 4.07866 9.53866C4.11467 5.956 6.45467 3.40267 9.89467 3.40267C13.2987 3.40267 15.6747 5.956 15.6747 9.53866C15.6747 9.53866 15.6747 9.53866 15.6747 9.53866ZM19.7533 0.177334L15.6747 0.177334C15.6747 0.177334 15.6747 3.40267 15.6747 3.40267C14.3267 1.20533 12.0573 0 9.04266 0C3.61734 0 0 3.936 0 9.68C0 15.3533 3.65334 19.22 8.972 19.22C12.0213 19.22 14.2906 17.9773 15.6747 15.78C15.6747 15.78 15.6747 26.4893 15.6747 26.4893L19.7533 26.4893L19.7533 0.177334Z" style="fill:#FFFFFF;mix-blend-mode:normal;" transform="translate(244.176 6.881)" />
            <path id="path164" d="M0.354706 18.864L4.39737 18.864L4.39737 0L0.354706 0L0.354706 18.864ZM4.75201 24.2547C4.75201 22.8373 3.72403 21.808 2.37601 21.808C1.02933 21.808 0 22.8373 0 24.2547C0 25.7093 1.02933 26.7373 2.37601 26.7373C3.72397 26.7373 4.75201 25.7093 4.75201 24.2547C4.75201 24.2547 4.75201 24.2547 4.75201 24.2547Z" style="fill:#FFFFFF;mix-blend-mode:normal;" transform="translate(269.774 7.058)" />
            <path id="path168" d="M12.588 1.38267C11.0987 0.496 9.53867 0 7.94269 0C5.10535 0 2.65866 1.63067 2.65866 5.496C2.65866 5.496 2.65866 15.284 2.65866 15.284L0 15.284L0 18.3333L2.65866 18.3333L2.65866 23.5107L6.70135 23.5107L6.70135 18.3333L12.2693 18.3333L12.2693 15.284L6.70135 15.284C6.70135 15.284 6.70135 6.24133 6.70135 6.24133C6.70135 4.29067 7.44669 3.688 8.72269 3.688C9.57333 3.688 10.46 3.97067 11.56 4.50267C11.56 4.50267 12.588 1.38267 12.588 1.38267Z" style="fill:#FFFFFF;mix-blend-mode:normal;" transform="translate(278.284 6.881)" />
            <path id="path172" d="M14.8227 10.992C14.6813 14.0427 12.66 15.8867 9.57468 15.8867C6.59601 15.8867 4.504 14.0067 4.04266 10.992C4.04266 10.992 14.8227 10.992 14.8227 10.992ZM18.3693 8.01466C18.3693 8.01466 4.11334 8.01466 4.11334 8.01466C4.75201 5.10666 6.98666 3.29733 9.96399 3.29733C12.0213 3.29733 13.9013 4.07733 15.284 5.496C15.284 5.496 17.4467 3.19067 17.4467 3.19067C15.6027 1.17067 12.908 0 9.64532 0C3.82935 0 0 3.864 0 9.53866C0 15.248 3.936 19.1133 9.53867 19.148C16.1707 19.148 18.8653 14.8227 18.3693 8.01466C18.3693 8.01466 18.3693 8.01466 18.3693 8.01466Z" style="fill:#FFFFFF;mix-blend-mode:normal;" transform="translate(292.643 6.916)" />
            <path id="path176" d="M4.07867 15.1067C5.35599 17.6587 7.62534 19.0067 10.604 19.0067C10.604 19.0067 10.604 15.1067 10.604 15.1067C6.80933 15.3187 4.39734 13.084 4.07867 9.85733C4.07867 9.85733 4.07867 0 4.07867 0L0 0L0 18.864L4.07867 18.864C4.07867 18.864 4.07867 15.1067 4.07867 15.1067Z" style="fill:#FFFFFF;mix-blend-mode:normal;" transform="translate(315.262 7.058)" />
            <path id="path180" d="M4.07867 15.1067C5.35599 17.6587 7.62534 19.0067 10.604 19.0067C10.604 19.0067 10.604 15.1067 10.604 15.1067C6.80933 15.3187 4.39734 13.084 4.07867 9.85733C4.07867 9.85733 4.07867 0 4.07867 0L0 0L0 18.864L4.07867 18.864C4.07867 18.864 4.07867 15.1067 4.07867 15.1067Z" style="fill:#FFFFFF;mix-blend-mode:normal;" transform="translate(329.232 7.058)" />
            <path id="path184" d="M12.8373 6.808L12.8373 8.54533C12.8373 8.54533 7.73068 8.54533 7.73068 8.54533C5.07068 8.54533 3.83066 7.836 3.83066 6.02667C3.83066 4.32533 5.21335 3.22533 7.48267 3.22533C10.3907 3.22533 12.624 4.75067 12.8373 6.808C12.8373 6.808 12.8373 6.808 12.8373 6.808ZM12.872 2.48133C11.5253 0.814667 9.36267 0 6.63199 0C2.55334 0 0 2.516 0 5.84933C0 9.28933 2.58801 11.4893 7.12799 11.524C7.12799 11.524 12.8373 11.524 12.8373 11.524C12.8373 11.524 12.8373 12.0907 12.8373 12.0907C12.8373 14.4667 11.312 15.8867 8.33334 15.8867C6.52533 15.8867 4.64532 15.2467 2.76666 13.9707C2.76666 13.9707 1.10001 16.808 1.10001 16.808C3.724 18.368 5.63867 19.1827 9.22 19.1827C14.0787 19.1827 16.8093 16.7013 16.844 12.5533C16.844 12.5533 16.88 0.176 16.88 0.176L12.872 0.176C12.872 0.176 12.872 2.48133 12.872 2.48133Z" style="fill:#FFFFFF;mix-blend-mode:normal;" transform="translate(340.896 6.881)" />
            <path id="path188" d="M18.0493 11.7373L18.0493 0L13.972 0C13.972 0 13.972 10.6027 13.972 10.6027C13.972 13.44 12.2693 15.1773 9.43332 15.1773C6.31198 15.1427 4.36133 12.98 4.07733 10.036C4.07733 10.036 4.07733 0 4.07733 0L0 0L0 18.8653L4.07733 18.8653C4.07733 18.8653 4.07733 15.2493 4.07733 15.2493C5.42532 17.8733 7.836 19.0067 11.028 19.0067C15.4253 19.0067 18.0493 16.2413 18.0493 11.7373C18.0493 11.7373 18.0493 11.7373 18.0493 11.7373Z" style="fill:#FFFFFF;mix-blend-mode:normal;" transform="translate(363.233 7.057)" />
            <path id="path192" d="M6.95068 21.7013L10.7094 26.9507L14.8947 25.176L10.568 21.7013L6.95068 21.7013ZM14.8227 10.992C14.6813 14.0427 12.66 15.8867 9.57468 15.8867C6.59601 15.8867 4.504 14.0067 4.04266 10.992C4.04266 10.992 14.8227 10.992 14.8227 10.992ZM18.3694 8.01333C18.3694 8.01333 4.11465 8.01333 4.11465 8.01333C4.75201 5.10666 6.98666 3.29733 9.96533 3.29733C12.0213 3.29733 13.9013 4.07733 15.284 5.496C15.284 5.496 17.448 3.19067 17.448 3.19067C15.604 1.17067 12.908 0 9.64536 0C3.83066 0 0 3.864 0 9.53867C0 15.248 3.936 19.1133 9.54001 19.148C16.1707 19.148 18.8667 14.8227 18.3694 8.01333C18.3694 8.01333 18.3694 8.01333 18.3694 8.01333Z" style="fill:#FFFFFF;mix-blend-mode:normal;" transform="translate(384.966 6.916)" />
            <path id="path196" d="M14.8227 10.992C14.6813 14.0427 12.66 15.8867 9.57468 15.8867C6.59601 15.8867 4.504 14.0067 4.04266 10.992C4.04266 10.992 14.8227 10.992 14.8227 10.992ZM18.3693 8.01466C18.3693 8.01466 4.11334 8.01466 4.11334 8.01466C4.75201 5.10666 6.98666 3.29733 9.96399 3.29733C12.0213 3.29733 13.9013 4.07733 15.284 5.496C15.284 5.496 17.4467 3.19067 17.4467 3.19067C15.6027 1.17067 12.908 0 9.64532 0C3.82935 0 0 3.864 0 9.53866C0 15.248 3.936 19.1133 9.53867 19.148C16.1707 19.148 18.8653 14.8227 18.3693 8.01466C18.3693 8.01466 18.3693 8.01466 18.3693 8.01466Z" style="fill:#FFFFFF;mix-blend-mode:normal;" transform="translate(405.813 6.916)" />
          </g>
        </g>
      </g>
    </g>
  </g>
</svg>